<svg width="19" height="20" viewBox="0 0 19 20" fill="none" xmlns="http://www.w3.org/2000/svg">
<g clip-path="url(#clip0_19_432)">
<path d="M1.48438 5.42041C1.48438 3.52159 3.02159 1.98438 4.92041 1.98438H14.0778C15.9784 1.98438 17.5156 3.52159 17.5156 5.42041V14.5778C17.5159 15.0292 17.4272 15.4762 17.2546 15.8933C17.082 16.3104 16.829 16.6894 16.5099 17.0086C16.1908 17.3279 15.8119 17.5811 15.3949 17.7539C14.9779 17.9267 14.531 18.0156 14.0796 18.0156H4.92219C4.47081 18.0159 4.02381 17.9272 3.60673 17.7546C3.18964 17.582 2.81065 17.329 2.49139 17.0099C2.17214 16.6908 1.91889 16.3119 1.7461 15.8949C1.57331 15.4779 1.48437 15.031 1.48438 14.5796V5.42219V5.42041Z" stroke="white" stroke-width="2" stroke-linecap="round" stroke-linejoin="round"/>
<path d="M13.0074 6.43922L12.0919 6.43388C11.7398 6.432 11.3908 6.49972 11.065 6.63316C10.7392 6.76659 10.443 6.9631 10.1934 7.21139C9.94375 7.45969 9.74567 7.75487 9.6105 8.07997C9.47534 8.40507 9.40576 8.75367 9.40576 9.10575V14.3925V17.9764" stroke="white" stroke-width="2" stroke-linecap="round" stroke-linejoin="round"/>
<path d="M7.16309 11.9417H13.0056" stroke="white" stroke-width="2" stroke-linecap="round" stroke-linejoin="round"/>
</g>
<defs>
<clipPath id="clip0_19_432">
<rect width="19" height="19" fill="white" transform="translate(0 0.5)"/>
</clipPath>
</defs>
</svg>
