<svg width="24" height="24" viewBox="0 0 24 24" fill="none" xmlns="http://www.w3.org/2000/svg">
<path d="M17.625 4.125H6.375C5.18153 4.125 4.03693 4.59911 3.19302 5.44302C2.34911 6.28693 1.875 7.43153 1.875 8.625V15.375C1.875 16.5685 2.34911 17.7131 3.19302 18.557C4.03693 19.4009 5.18153 19.875 6.375 19.875H17.625C18.8185 19.875 19.9631 19.4009 20.807 18.557C21.6509 17.7131 22.125 16.5685 22.125 15.375V8.625C22.125 7.43153 21.6509 6.28693 20.807 5.44302C19.9631 4.59911 18.8185 4.125 17.625 4.125Z" stroke="white" stroke-width="2" stroke-linecap="round" stroke-linejoin="round"/>
<path d="M9.75002 15.1253V8.87476C9.74918 8.77088 9.77581 8.66862 9.82721 8.57835C9.87861 8.48807 9.95295 8.41298 10.0427 8.36068C10.1325 8.30838 10.2344 8.28072 10.3383 8.28052C10.4422 8.28031 10.5443 8.30756 10.6343 8.35951L15.9353 11.487C16.0243 11.5398 16.0982 11.6148 16.1494 11.7048C16.2007 11.7947 16.2276 11.8965 16.2276 12C16.2276 12.1035 16.2007 12.2053 16.1494 12.2952C16.0982 12.3852 16.0243 12.4602 15.9353 12.513L10.6343 15.6405C10.5443 15.6925 10.4422 15.7197 10.3383 15.7195C10.2344 15.7193 10.1325 15.6916 10.0427 15.6393C9.95295 15.587 9.87861 15.5119 9.82721 15.4217C9.77581 15.3314 9.74918 15.2291 9.75002 15.1253Z" fill="white"/>
</svg>
