<svg width="27" height="33" viewBox="0 0 27 33" fill="none" xmlns="http://www.w3.org/2000/svg">
<path d="M15.0045 0.5C8.46998 0.5 3.14353 5.7722 3.05559 12.2863L0.0458984 20.941H3.05453V27.3901H8.89292V32.5H22.6145V21.6629C23.8798 20.6154 24.931 19.3031 25.6709 17.8426C26.5226 16.1613 26.9546 14.347 26.9546 12.4501C26.9545 5.86076 21.5938 0.5 15.0045 0.5ZM21.0879 20.4482L20.7134 20.7335V30.5989H10.794V25.489H4.9556V19.0399H2.71978L4.9556 12.6105V12.45C4.9556 6.90901 9.46354 2.40107 15.0045 2.40107C20.5455 2.40107 25.0535 6.90901 25.0535 12.45C25.0535 15.6129 23.6081 18.5282 21.0879 20.4482Z" fill="white"/>
<path d="M22.7555 13.4005V11.4994H21.0566C20.9031 10.5184 20.5158 9.61387 19.9539 8.84455L21.1573 7.64111L19.813 6.29686L18.6096 7.50024C17.8403 6.9383 16.9358 6.55098 15.9547 6.39748V4.69873H14.0536V6.39755C13.0726 6.55105 12.1681 6.93836 11.3988 7.5003L10.1954 6.29692L8.85112 7.64117L10.0545 8.84455C9.49262 9.61387 9.10531 10.5184 8.95181 11.4995H7.25293V13.4006H8.95181C9.10531 14.3816 9.49262 15.2861 10.0545 16.0555L8.85112 17.2589L10.1954 18.6031L11.3988 17.3998C12.1681 17.9617 13.0725 18.349 14.0536 18.5025V20.2014H15.9547V18.5025C16.9358 18.349 17.8403 17.9617 18.6096 17.3998L19.813 18.6031L21.1573 17.2589L19.9539 16.0554C20.5158 15.2861 20.9031 14.3817 21.0566 13.4005H22.7555ZM15.0042 16.6751C12.6744 16.6751 10.7791 14.7797 10.7791 12.4499C10.7791 10.1202 12.6744 8.22474 15.0042 8.22474C17.334 8.22474 19.2294 10.1202 19.2294 12.4499C19.2294 14.7797 17.334 16.6751 15.0042 16.6751Z" fill="white"/>
<path d="M15.0047 9.49219C13.3738 9.49219 12.0469 10.819 12.0469 12.45C12.0469 14.081 13.3737 15.4078 15.0047 15.4078C16.6357 15.4078 17.9625 14.081 17.9625 12.45C17.9625 10.819 16.6356 9.49219 15.0047 9.49219ZM15.0047 13.5067C14.422 13.5067 13.9479 13.0326 13.9479 12.4499C13.9479 11.8673 14.4219 11.3932 15.0047 11.3932C15.5874 11.3932 16.0614 11.8673 16.0614 12.4499C16.0614 13.0326 15.5874 13.5067 15.0047 13.5067Z" fill="white"/>
</svg>
