<svg width="20" height="23" viewBox="0 0 20 23" fill="none" xmlns="http://www.w3.org/2000/svg">
<path d="M11.0621 0C6.44817 0 2.68721 3.78939 2.62512 8.47138L0.5 14.692H2.62437V19.3272H6.74681V23H16.4355V15.2108C17.3289 14.458 18.0712 13.5147 18.5936 12.465C19.195 11.2566 19.5 9.95255 19.5 8.58912C19.5 3.85305 15.7148 0 11.0621 0ZM15.3576 14.3377L15.0932 14.5428V21.6336H8.08913V17.9608H3.9667V13.3256H2.38801L3.9667 8.70444V8.58904C3.9667 4.60648 7.14972 1.36639 11.0621 1.36639C14.9746 1.36639 18.1576 4.60648 18.1576 8.58908C18.1576 10.8624 17.1371 12.9577 15.3576 14.3377Z" fill="black"/>
<path d="M16.5351 9.27222V7.90583H15.3355C15.2271 7.20069 14.9537 6.55058 14.5569 5.99763L15.4066 5.13266L14.4574 4.16648L13.6077 5.0314C13.0645 4.62751 12.4259 4.34913 11.7331 4.2388V3.01782H10.3908V4.23885C9.69807 4.34917 9.0594 4.62756 8.5162 5.03145L7.6665 4.16652L6.71734 5.1327L7.56703 5.99763C7.1703 6.55058 6.89682 7.20069 6.78843 7.90587H5.58887V9.27226H6.78843C6.89682 9.9774 7.1703 10.6275 7.56703 11.1805L6.71734 12.0454L7.6665 13.0116L8.5162 12.1467C9.0594 12.5506 9.69802 12.829 10.3908 12.9393V14.1604H11.7331V12.9393C12.4259 12.829 13.0645 12.5506 13.6077 12.1467L14.4574 13.0116L15.4066 12.0454L14.5569 11.1805C14.9537 10.6275 15.2271 9.97745 15.3355 9.27222H16.5351ZM11.062 11.6259C9.41695 11.6259 8.07864 10.2635 8.07864 8.589C8.07864 6.91449 9.41695 5.55214 11.062 5.55214C12.707 5.55214 14.0453 6.91449 14.0453 8.589C14.0453 10.2635 12.707 11.6259 11.062 11.6259Z" fill="black"/>
<path d="M11.0621 6.46313C9.91053 6.46313 8.97363 7.41678 8.97363 8.58907C8.97363 9.76135 9.91049 10.715 11.0621 10.715C12.2138 10.715 13.1506 9.76135 13.1506 8.58907C13.1506 7.41678 12.2137 6.46313 11.0621 6.46313ZM11.0621 9.34856C10.6507 9.34856 10.316 9.00783 10.316 8.58902C10.316 8.17021 10.6506 7.82948 11.0621 7.82948C11.4736 7.82948 11.8083 8.17021 11.8083 8.58902C11.8083 9.00783 11.4736 9.34856 11.0621 9.34856Z" fill="black"/>
</svg>
