<svg width="12" height="13" viewBox="0 0 12 13" fill="none" xmlns="http://www.w3.org/2000/svg">
<g id="Group">
<path id="Vector" d="M3.55056 5.50293H2.22938C2.11718 5.50293 2.02637 5.59374 2.02637 5.70594V7.02712C2.02637 7.13918 2.11718 7.23013 2.22938 7.23013H3.55056C3.66276 7.23013 3.75357 7.13918 3.75357 7.02712V5.70594C3.75357 5.59388 3.66276 5.50293 3.55056 5.50293ZM3.34755 6.82411H2.43239V5.90895H3.34755V6.82411Z" fill="#818181"/>
<path id="Vector_2" d="M6.62966 5.50293H5.30848C5.19628 5.50293 5.10547 5.59374 5.10547 5.70594V7.02712C5.10547 7.13918 5.19628 7.23013 5.30848 7.23013H6.62966C6.74172 7.23013 6.83267 7.13918 6.83267 7.02712V5.70594C6.83267 5.59388 6.74172 5.50293 6.62966 5.50293ZM6.42665 6.82411H5.51149V5.90895H6.42665V6.82411Z" fill="#818181"/>
<path id="Vector_3" d="M9.61501 5.50293H8.29383C8.18177 5.50293 8.09082 5.59374 8.09082 5.70594V7.02712C8.09082 7.13918 8.18177 7.23013 8.29383 7.23013H9.61501C9.72707 7.23013 9.81802 7.13918 9.81802 7.02712V5.70594C9.81802 5.59388 9.72707 5.50293 9.61501 5.50293ZM9.412 6.82411H8.49684V5.90895H9.412V6.82411Z" fill="#818181"/>
<path id="Vector_4" d="M3.55056 8.5127H2.22938C2.11718 8.5127 2.02637 8.60364 2.02637 8.7157V10.0369C2.02637 10.1489 2.11718 10.2399 2.22938 10.2399H3.55056C3.66276 10.2399 3.75357 10.1489 3.75357 10.0369V8.7157C3.75357 8.60364 3.66276 8.5127 3.55056 8.5127ZM3.34755 9.83388H2.43239V8.91871H3.34755V9.83388Z" fill="#818181"/>
<path id="Vector_5" d="M6.62966 8.5127H5.30848C5.19628 8.5127 5.10547 8.60364 5.10547 8.7157V10.0369C5.10547 10.1489 5.19628 10.2399 5.30848 10.2399H6.62966C6.74172 10.2399 6.83267 10.1489 6.83267 10.0369V8.7157C6.83267 8.60364 6.74172 8.5127 6.62966 8.5127ZM6.42665 9.83388H5.51149V8.91871H6.42665V9.83388Z" fill="#818181"/>
<path id="Vector_6" d="M9.61501 8.5127H8.29383C8.18177 8.5127 8.09082 8.60364 8.09082 8.7157V10.0369C8.09082 10.1489 8.18177 10.2399 8.29383 10.2399H9.61501C9.72707 10.2399 9.81802 10.1489 9.81802 10.0369V8.7157C9.81802 8.60364 9.72707 8.5127 9.61501 8.5127ZM9.412 9.83388H8.49684V8.91871H9.412V9.83388Z" fill="#818181"/>
<path id="Vector_7" d="M11.2252 1.57189H9.88443C9.88267 1.57189 9.88118 1.57229 9.87942 1.57243V1.30202C9.87942 0.859732 9.51969 0.5 9.0774 0.5C8.63511 0.5 8.27538 0.859867 8.27538 1.30202V1.57189H6.76459V1.30202C6.76459 0.859732 6.40486 0.5 5.96257 0.5C5.52028 0.5 5.16055 0.859867 5.16055 1.30202V1.57189H3.64962V1.30202C3.64962 0.859732 3.28989 0.5 2.8476 0.5C2.40531 0.5 2.04558 0.859867 2.04558 1.30202V1.57202C2.0449 1.57202 2.04422 1.57189 2.04355 1.57189H0.703009C0.590813 1.57189 0.5 1.6627 0.5 1.7749V12.297C0.5 12.4091 0.590813 12.5 0.703009 12.5H11.2252C11.3373 12.5 11.4282 12.4091 11.4282 12.297V1.7749C11.4282 1.6627 11.3373 1.57189 11.2252 1.57189ZM8.6814 1.30202C8.6814 1.08358 8.85896 0.906018 9.0774 0.906018C9.29584 0.906018 9.47341 1.08358 9.47341 1.30202V2.42222C9.47341 2.64053 9.29584 2.81823 9.0774 2.81823C8.85896 2.81823 8.6814 2.64066 8.6814 2.42222V1.30202ZM5.96257 0.906018C6.18087 0.906018 6.35857 1.08358 6.35857 1.30202V2.42222C6.35857 2.64053 6.18101 2.81823 5.96257 2.81823C5.74413 2.81823 5.56656 2.64066 5.56656 2.42222V1.79384C5.56711 1.78748 5.56846 1.78139 5.56846 1.77476C5.56846 1.76813 5.56711 1.76204 5.56656 1.75568V1.30202C5.56656 1.08358 5.74413 0.906018 5.96257 0.906018ZM2.45159 1.30202C2.45159 1.08358 2.62916 0.906018 2.8476 0.906018C3.0659 0.906018 3.2436 1.08358 3.2436 1.30202V2.42222C3.2436 2.64053 3.06603 2.81823 2.8476 2.81823C2.62916 2.81823 2.45159 2.64066 2.45159 2.42222V1.30202ZM11.0222 12.094H0.906018V1.97791H2.04355C2.04422 1.97791 2.0449 1.97777 2.04558 1.97777V2.42236C2.04558 2.86465 2.40544 3.22438 2.8476 3.22438C3.28975 3.22438 3.64962 2.86465 3.64962 2.42236V1.97804H5.16055V2.42236C5.16055 2.86465 5.52041 3.22438 5.96257 3.22438C6.40472 3.22438 6.76459 2.86465 6.76459 2.42236V1.97804H8.27538V2.42236C8.27538 2.86465 8.63511 3.22438 9.0774 3.22438C9.51969 3.22438 9.87942 2.86465 9.87942 2.42236V1.97736C9.88118 1.97736 9.88267 1.97791 9.88443 1.97791H11.0222V12.094Z" fill="#818181"/>
</g>
</svg>
