<svg width="24" height="23" viewBox="0 0 24 23" fill="none" xmlns="http://www.w3.org/2000/svg">
<g id="&#240;&#159;&#148;&#141;-Product-Icons">
<g id="ic_fluent_checkmark_circle_48_filled">
<path id="&#240;&#159;&#142;&#168;-Color" d="M12 0C18.3513 0 23.5 5.14873 23.5 11.5C23.5 17.8513 18.3513 23 12 23C5.64873 23 0.5 17.8513 0.5 11.5C0.5 5.14873 5.64873 0 12 0ZM16.9645 7.82927C16.7025 7.56729 16.2886 7.54982 16.0064 7.77687L15.948 7.82927L10.1312 13.646L8.05198 11.5668C7.77129 11.2861 7.31621 11.2861 7.03552 11.5668C6.77354 11.8287 6.75607 12.2426 6.98312 12.5249L7.03552 12.5832L9.62302 15.1707C9.88499 15.4327 10.2989 15.4502 10.5811 15.2231L10.6395 15.1707L16.9645 8.84573C17.2452 8.56504 17.2452 8.10996 16.9645 7.82927Z" fill="#DA9694"/>
</g>
</g>
</svg>
