<svg width="20" height="13" viewBox="0 0 20 13" fill="none" xmlns="http://www.w3.org/2000/svg">
<g id="Group">
<path id="Vector" d="M9.7316 8.87428C9.32978 8.87428 8.93651 8.79925 8.56281 8.65123L3.68066 6.71577C3.68066 7.79405 3.68066 9.40661 3.68066 9.83636C3.68066 11.3508 6.3896 12.5782 9.7317 12.5782C13.0738 12.5782 15.783 11.3508 15.783 9.83636V6.71567L10.9004 8.65123C10.5267 8.79925 10.1334 8.87428 9.7316 8.87428Z" fill="white"/>
<path id="Vector_2" d="M19.1319 3.5541L10.569 0.159845C10.0312 -0.0532816 9.43225 -0.0532816 8.89437 0.159845L0.33156 3.5541C0.131378 3.63341 0 3.82698 0 4.04225C0 4.25762 0.131475 4.45108 0.33156 4.53049L1.53023 5.0056V8.40443C1.26397 8.58593 1.08909 8.8917 1.08909 9.23825C1.08909 9.5557 1.23584 9.83879 1.46502 10.0237L1.09998 11.7761C1.05103 12.0112 1.11049 12.256 1.26212 12.4422C1.41364 12.6286 1.64107 12.7367 1.88115 12.7367H2.31413C2.55431 12.7367 2.78164 12.6286 2.93316 12.4422C3.08469 12.256 3.14415 12.0112 3.0953 11.7761L2.73015 10.0237C2.95943 9.83879 3.10619 9.5556 3.10619 9.23825C3.10619 8.8916 2.93131 8.58593 2.66505 8.40443V5.4554L8.86703 7.91404C9.42252 8.13427 10.041 8.13427 10.5965 7.91404L19.1321 4.53049C19.3323 4.45118 19.4637 4.25762 19.4637 4.04225C19.4636 3.82698 19.3321 3.63341 19.1319 3.5541Z" fill="white"/>
</g>
</svg>
