<svg width="17" height="17" viewBox="0 0 17 17" fill="none" xmlns="http://www.w3.org/2000/svg">
<g id="download_svgrepo.com" clip-path="url(#clip0_876_2588)">
<path id="Vector" d="M5.6665 15.5834H11.3332C13.3366 15.5834 14.3383 15.5834 14.9608 14.961C15.5832 14.3387 15.5832 13.3369 15.5832 11.3334V10.6251C15.5832 8.62165 15.5832 7.61993 14.9608 6.99752C14.4165 6.45324 13.5821 6.38492 12.0415 6.37634M4.95817 6.37634C3.41752 6.38492 2.58317 6.45324 2.0389 6.99751C1.4165 7.61993 1.4165 8.62165 1.4165 10.6251V11.3334C1.4165 13.3369 1.4165 14.3387 2.0389 14.961C2.25126 15.1734 2.50778 15.3133 2.83317 15.4055" stroke="#FF7F7B" stroke-width="1.4" stroke-linecap="round"/>
<path id="Vector_2" d="M8.5 1.41663V10.625M8.5 10.625L6.375 8.14579M8.5 10.625L10.625 8.14579" stroke="#FF7F7B" stroke-width="1.4" stroke-linecap="round" stroke-linejoin="round"/>
</g>
<defs>
<clipPath id="clip0_876_2588">
<rect width="17" height="17" fill="white"/>
</clipPath>
</defs>
</svg>
