<svg width="8" height="4" viewBox="0 0 8 4" fill="none" xmlns="http://www.w3.org/2000/svg">
<mask id="path-1-inside-1_591_146" fill="white">
<path d="M0.47998 0L3.99951 3L7.49951 0L3.99951 4L0.47998 0Z"/>
</mask>
<path d="M0.47998 0L3.07479 -3.04417L-2.52305 2.64231L0.47998 0ZM3.99951 3L1.4047 6.04417L4.00674 8.26211L6.60268 6.03703L3.99951 3ZM7.49951 0L10.5098 2.63402L4.89635 -3.03703L7.49951 0ZM3.99951 4L0.996483 6.64231L4.00788 10.0648L7.00982 6.63402L3.99951 4ZM-2.11483 3.04417L1.4047 6.04417L6.59432 -0.0441697L3.07479 -3.04417L-2.11483 3.04417ZM6.60268 6.03703L10.1027 3.03703L4.89635 -3.03703L1.39635 -0.0370264L6.60268 6.03703ZM4.4892 -2.63402L0.989205 1.36598L7.00982 6.63402L10.5098 2.63402L4.4892 -2.63402ZM7.00254 1.35769L3.48301 -2.64231L-2.52305 2.64231L0.996483 6.64231L7.00254 1.35769Z" fill="black" mask="url(#path-1-inside-1_591_146)"/>
</svg>
