<svg width="32" height="40" viewBox="0 0 32 40" fill="none" xmlns="http://www.w3.org/2000/svg">
<path d="M1.54685 20.8946L1.35812 22.1699C1.17931 23.3783 1.77269 24.5701 2.8449 25.1556L3.97631 25.7735L4.26091 27.0307C4.29292 27.1721 4.33499 27.3095 4.38631 27.4418C3.63003 28.46 2.80726 29.4166 1.92521 30.3021C1.07667 31.154 0.838054 32.4394 1.32453 33.539C1.79283 34.5978 2.84077 35.2751 3.99006 35.2751C4.03454 35.2751 4.07902 35.2742 4.12372 35.2721L8.38385 35.0777L10.0216 37.8023C10.5282 38.6451 11.4256 39.1757 12.4081 39.2137C12.4458 39.2151 12.4833 39.2158 12.5208 39.2158C13.4619 39.2158 14.3481 38.7609 14.8963 37.9902C15.2165 37.54 15.5218 37.0638 15.8115 36.5625C16.1013 37.0638 16.4066 37.54 16.7269 37.9902C17.275 38.7609 18.1614 39.2158 19.1024 39.2158C19.1399 39.2158 19.1773 39.2151 19.2149 39.2137C20.1976 39.1757 21.0949 38.6451 21.6015 37.8023L23.2392 35.0777L27.4993 35.2721C27.544 35.2742 27.5886 35.2751 27.633 35.2751C28.7824 35.2751 29.8302 34.5979 30.2986 33.539C30.785 32.4395 30.5465 31.154 29.6979 30.3021C28.8158 29.4165 27.993 28.4599 27.2368 27.4417C27.2881 27.3094 27.3301 27.1722 27.3622 27.0308L27.6468 25.7735L28.7782 25.1556C29.8504 24.5701 30.4438 23.3783 30.265 22.1698L30.0762 20.8946L30.9081 19.9097C31.6963 18.9764 31.8191 17.6507 31.2158 16.5885L30.5792 15.4676L30.999 14.2487C31.3969 13.0937 31.0325 11.8132 30.0862 11.0407L29.0876 10.2252L29.0387 8.93696C28.9925 7.71622 28.1902 6.65378 27.0287 6.27534L25.803 5.87587L25.2921 4.69224C24.8293 3.61981 23.774 2.93205 22.6162 2.93197C22.563 2.9319 22.5098 2.9334 22.4563 2.93633L21.169 3.00666L20.2651 2.08749C19.705 1.51792 18.9514 1.21619 18.1856 1.21619C17.7804 1.21619 17.3718 1.30063 16.9864 1.47464L15.8116 2.00507L14.6366 1.47457C14.2513 1.30063 13.8427 1.21619 13.4375 1.21619C12.6717 1.21611 11.9182 1.51784 11.358 2.08749L10.454 3.00658L9.16687 2.93633C9.11338 2.9334 9.06011 2.93197 9.00699 2.93197C7.84906 2.9319 6.79391 3.61973 6.33102 4.69216L5.82012 5.87587L4.59442 6.27534C3.43296 6.65378 2.63063 7.71622 2.58434 8.93696L2.53551 10.2252L1.53686 11.0407C0.590568 11.8132 0.226258 13.0937 0.624153 14.2487L1.04399 15.4676L0.407323 16.5885C-0.196063 17.6507 -0.0732218 18.9764 0.715067 19.9097L1.54685 20.8946Z" fill="#DDCAC6"/>
<path d="M24.896 25.9551L25.4713 23.4137L27.7582 22.1648L27.3767 19.5871L29.058 17.5965L27.7711 15.3307L28.6198 12.8671L26.6013 11.2193L26.5027 8.61534L24.0252 7.80798L22.9927 5.41555L20.3908 5.55762L18.5638 3.69977L16.1889 4.77212L13.8141 3.69977L11.987 5.55762L9.38522 5.41555L8.3526 7.80798L5.87513 8.61534L5.77656 11.2193L3.75806 12.8671L4.60668 15.3307L3.31982 17.5965L5.00112 19.5871L4.61961 22.1648L6.90654 23.4137L7.4819 25.9551L8.84164 26.1332C7.79655 27.8989 6.34058 29.9475 4.36814 31.9276L10.3646 31.6539L12.8979 35.8683C14.3586 33.8148 15.2828 31.3312 15.8656 29.1027L16.1889 29.3282L16.5122 29.1027C17.0951 31.3312 18.0192 33.8148 19.48 35.8683L22.0132 31.6539L28.0097 31.9276C26.0372 29.9475 24.5813 27.8989 23.5362 26.1332L24.896 25.9551Z" fill="white"/>
<path d="M18.5638 3.69975L20.3909 5.55761L22.9927 5.41553L24.0252 7.80796L26.5027 8.61532L26.6014 11.2192L28.6198 12.8671L27.7712 15.3307L29.0581 17.5964L27.3767 19.5871L27.7582 22.1648L25.4714 23.4137L24.8959 25.955L23.5362 26.1332C24.5814 27.8989 26.0373 29.9475 28.0097 31.9276L22.0132 31.6539L19.4801 35.8683C18.0193 33.8147 17.0951 31.3311 16.5123 29.1027L16.189 29.3282L15.8657 29.1027C15.2828 31.3311 14.3586 33.8147 12.8979 35.8683L10.3647 31.6539L4.36826 31.9276C6.34062 29.9475 7.79652 27.8989 8.84169 26.1332L7.48195 25.955L6.90659 23.4137L4.61965 22.1648L5.00117 19.5871L3.31987 17.5964L4.6068 15.3307L3.75811 12.8671L5.7766 11.2192L5.87518 8.61532L8.35265 7.80796L9.38527 5.41553L11.9871 5.55761L13.8141 3.69975L16.189 4.77211L18.5638 3.69975ZM13.8149 0.78418C13.0491 0.784103 12.2956 1.08584 11.7354 1.65549L10.8315 2.57457L9.54424 2.50432C9.49082 2.5014 9.43748 2.49997 9.38436 2.49997C8.2265 2.49997 7.17128 3.18772 6.70839 4.26016L6.19749 5.44386L4.97187 5.84333C3.81033 6.22177 3.008 7.28429 2.96179 8.50504L2.91296 9.79332L1.9143 10.6086C0.968015 11.3812 0.603629 12.6617 1.00152 13.8167L1.42144 15.0356L0.784771 16.1565C0.181385 17.2187 0.304226 18.5445 1.09243 19.4777L1.9243 20.4626L1.73556 21.7379C1.55668 22.9464 2.15014 24.1382 3.22227 24.7236L4.35376 25.3415L4.63836 26.5988C4.67036 26.7401 4.71244 26.8775 4.76375 27.0098C4.00747 28.028 3.18471 28.9846 2.30266 29.8701C1.45404 30.722 1.2155 32.0074 1.7019 33.1071C2.17028 34.1658 3.21821 34.8432 4.3675 34.8432C4.41198 34.8432 4.45646 34.8422 4.50117 34.8401L8.76129 34.6457L10.399 37.3703C10.9056 38.2131 11.8029 38.7437 12.7856 38.7817C12.8231 38.7831 12.8607 38.7838 12.8982 38.7838C13.8392 38.7838 14.7255 38.3289 15.2737 37.5582C15.5939 37.108 15.8992 36.6318 16.189 36.1305C16.4788 36.6318 16.784 37.108 17.1042 37.5582C17.6524 38.3289 18.5387 38.7838 19.4798 38.7838C19.5172 38.7838 19.5547 38.7831 19.5924 38.7817C20.5749 38.7437 21.4723 38.2131 21.9789 37.3703L23.6166 34.6457L27.8767 34.8401C27.9214 34.8422 27.966 34.8432 28.0104 34.8432C29.1598 34.8432 30.2076 34.1659 30.676 33.1071C31.1624 32.0075 30.9239 30.722 30.0753 29.8701C29.1933 28.9846 28.3704 28.0279 27.6141 27.0097C27.6654 26.8774 27.7075 26.7402 27.7395 26.5988L28.0242 25.3415L29.1557 24.7236C30.2278 24.1381 30.8213 22.9463 30.6424 21.7379L30.4536 20.4626L31.2854 19.4777C32.0737 18.5445 32.1965 17.2187 31.5932 16.1565L30.9565 15.0356L31.3764 13.8167C31.7743 12.6617 31.4099 11.3812 30.4637 10.6086L29.465 9.79332L29.4162 8.50504C29.3699 7.28429 28.5676 6.22177 27.4061 5.84333L26.1804 5.44386L25.6696 4.26023C25.2068 3.18788 24.1514 2.50004 22.9935 2.49997C22.9404 2.49997 22.8872 2.5014 22.8337 2.50432L21.5465 2.57465L20.6426 1.65549C20.0824 1.08591 19.3287 0.78418 18.563 0.78418C18.1577 0.78418 17.7492 0.868627 17.3639 1.04264L16.189 1.57314L15.014 1.04256C14.6288 0.868627 14.2201 0.78418 13.8149 0.78418Z" fill="white"/>
<path d="M21.2701 21.2889C21.2701 21.2889 22.9409 26.8392 28.0096 31.9276L22.0131 31.6538L19.48 35.8683C15.8745 30.7998 15.5366 23.1097 15.5366 23.1097L21.2701 21.2889Z" fill="#CC7587"/>
<path d="M11.1077 21.2889C11.1077 21.2889 9.43693 26.8392 4.36816 31.9276L10.3647 31.6538L12.8979 35.8683C16.5033 30.7998 16.8413 23.1097 16.8413 23.1097L11.1077 21.2889Z" fill="#CC7587"/>
<path d="M16.1889 4.77219L18.5638 3.69977L20.3908 5.55762L22.9926 5.41555L24.0253 7.80798L26.5027 8.61542L26.6013 11.2193L28.6198 12.8671L27.7711 15.3307L29.058 17.5965L27.3767 19.5871L27.7582 22.1648L25.4713 23.4137L24.896 25.9551L22.3123 26.2936L20.8577 28.4555L18.3263 27.8377L16.1889 29.3282L14.0516 27.8377L11.5202 28.4555L10.0655 26.2936L7.4819 25.9551L6.90654 23.4137L4.61961 22.1648L5.00112 19.5871L3.31982 17.5965L4.60676 15.3307L3.75806 12.8671L5.77656 11.2193L5.87513 8.61542L8.3526 7.80798L9.38522 5.41555L11.987 5.55762L13.8141 3.69977L16.1889 4.77219Z" fill="#DF8C9A"/>
<path d="M25.4535 16.514C25.4535 21.6306 21.3057 25.7784 16.1892 25.7784C11.0725 25.7784 6.9248 21.6306 6.9248 16.514C6.9248 11.3974 11.0725 7.24957 16.1892 7.24957C21.3057 7.24957 25.4535 11.3974 25.4535 16.514Z" fill="#FFC15B"/>
<path d="M16.1887 24.8562C11.5889 24.8562 7.84668 21.1139 7.84668 16.5139C7.84668 11.9141 11.5889 8.17188 16.1887 8.17188C20.7887 8.17188 24.531 11.9141 24.531 16.5139C24.531 21.1139 20.7887 24.8562 16.1887 24.8562ZM16.1887 8.3706C11.6984 8.3706 8.04548 12.0236 8.04548 16.5139C8.04548 21.0042 11.6984 24.6574 16.1887 24.6574C20.679 24.6574 24.3323 21.0042 24.3323 16.5139C24.3323 12.0236 20.679 8.3706 16.1887 8.3706Z" fill="#DB9A3D"/>
<path d="M5.90911 12.3547H5.64404V11.2192H5.90911V12.3547Z" fill="#CC7587"/>
<path d="M8.16173 8.77734L7.91064 8.69192L8.22695 7.76532L8.47804 7.85067L8.16173 8.77734Z" fill="#CC7587"/>
<path d="M11.5504 6.20498L11.3589 6.02174L11.8913 5.46606L12.0829 5.64931L11.5504 6.20498Z" fill="#CC7587"/>
<path d="M15.6256 5.18905L15.5112 4.9499L16.1317 4.65253L16.246 4.89167L15.6256 5.18905Z" fill="#CC7587"/>
<path d="M19.799 5.73496L19.7793 5.47042L20.3809 5.42542L20.4005 5.68996L19.799 5.73496Z" fill="#CC7587"/>
<path d="M23.9896 7.93554L23.3853 7.76762L23.4562 7.51239L24.0605 7.68039L23.9896 7.93554Z" fill="#CC7587"/>
<path d="M26.5208 11.3246L26.0679 10.9782L26.2289 10.7675L26.6818 11.1139L26.5208 11.3246Z" fill="#CC7587"/>
<path d="M4.76939 16.1262L4.48291 15.3782L4.73032 15.2834L5.01687 16.0315L4.76939 16.1262Z" fill="#CC7587"/>
<path d="M5.38184 20.2394L4.90039 19.673L5.10227 19.5012L5.58372 20.0675L5.38184 20.2394Z" fill="#CC7587"/>
<path d="M7.49943 23.882L6.84375 23.5304L6.96908 23.297L7.62467 23.6485L7.49943 23.882Z" fill="#CC7587"/>
<path d="M10.8378 26.5234L10.0493 26.4251L10.0819 26.1621L10.8704 26.2605L10.8378 26.5234Z" fill="#CC7587"/>
<path d="M14.092 27.9641L14.0112 27.7115L14.661 27.5034L14.7417 27.756L14.092 27.9641Z" fill="#CC7587"/>
<path d="M18.4022 27.9462L18.25 27.7293L18.8934 27.2771L19.0457 27.494L18.4022 27.9462Z" fill="#CC7587"/>
<path d="M22.4254 26.3624L22.1992 26.2246L22.5442 25.6581L22.7704 25.7958L22.4254 26.3624Z" fill="#CC7587"/>
<path d="M25.6018 23.4347L25.3403 23.3928L25.4478 22.7255L25.7092 22.7674L25.6018 23.4347Z" fill="#CC7587"/>
<path d="M27.2458 19.605L27.1567 18.9507L27.4192 18.915L27.5083 19.5693L27.2458 19.605Z" fill="#CC7587"/>
<path d="M27.6581 15.3997L27.2676 14.7585L27.4938 14.6208L27.8843 15.262L27.6581 15.3997Z" fill="#CC7587"/>
<path d="M20.547 12.2375L20.6476 11.5548C20.6879 11.2912 20.611 11.0238 20.4367 10.8211C20.261 10.617 20.0057 10.5 19.7363 10.5H13.2044C12.935 10.5 12.6797 10.617 12.5044 10.8211C12.33 11.0238 12.2532 11.2915 12.2935 11.5541L12.3969 12.2575C11.9797 12.3797 11.5952 12.6009 11.281 12.9148C10.7773 13.4176 10.5 14.088 10.5 14.8017C10.5 16.2722 11.6979 17.4687 13.17 17.4687H13.4848C13.952 18.1993 14.6834 18.7379 15.523 18.9709V20.4352H15.3507C14.804 20.4352 14.3534 20.8371 14.27 21.3602H13.9362C13.643 21.3602 13.4046 21.5984 13.4046 21.8916V22.3279C13.4046 22.4229 13.4817 22.5 13.5768 22.5H19.3646C19.4597 22.5 19.5369 22.4229 19.5369 22.3279V21.8912C19.5369 21.598 19.2985 21.3599 19.0053 21.3599H18.6715C18.5881 20.8371 18.1375 20.4348 17.5907 20.4348H17.4185V18.9705C18.2584 18.7376 18.9901 18.1987 19.4566 17.4684H19.83C20.5408 17.4684 21.2115 17.1914 21.7197 16.6879C22.2227 16.1813 22.5 15.5116 22.5 14.8013C22.4993 13.6051 21.687 12.5531 20.547 12.2375ZM10.8445 14.8017C10.8445 14.1798 11.086 13.5962 11.5246 13.1581C11.7861 12.8966 12.1034 12.7097 12.4475 12.6009L12.9581 16.0722C13.0118 16.4443 13.1238 16.7966 13.2871 17.1249H13.17C11.8877 17.1246 10.8445 16.0826 10.8445 14.8017ZM19.192 21.8912V22.1559H13.7487V21.8912C13.7487 21.788 13.8328 21.704 13.9358 21.704H14.4247H18.5157H19.0046C19.1079 21.7044 19.192 21.7883 19.192 21.8912ZM18.3238 21.3602H14.6169C14.6951 21.0278 14.9945 20.7793 15.3507 20.7793H15.6952H17.2455H17.59C17.9463 20.7793 18.2456 21.0278 18.3238 21.3602ZM15.8675 20.4352V19.0459C16.0676 19.08 16.2688 19.103 16.4704 19.103C16.6716 19.103 16.8731 19.08 17.0733 19.0459V20.4352H15.8675ZM17.2066 18.6742C16.7219 18.7868 16.2185 18.7868 15.7348 18.6742C14.897 18.4771 14.1642 17.9426 13.7236 17.2069C13.5031 16.8469 13.3605 16.4484 13.2992 16.0223L12.6342 11.5028C12.6091 11.3383 12.657 11.1718 12.7658 11.0448C12.8754 10.9174 13.0356 10.8441 13.2044 10.8441H19.7363C19.9051 10.8441 20.0653 10.9174 20.1749 11.0451C20.2838 11.1718 20.3316 11.3387 20.3065 11.5032V11.5038L20.1852 12.3277C20.1852 12.3284 20.1845 12.3291 20.1842 12.3298C20.1839 12.3311 20.1845 12.3325 20.1842 12.3342L19.6412 16.023C19.5799 16.4487 19.437 16.8472 19.2161 17.2082C18.7765 17.9426 18.0438 18.4771 17.2066 18.6742ZM21.4754 16.4449C21.0334 16.8834 20.4488 17.1246 19.8294 17.1246H19.6537C19.8173 16.7963 19.9289 16.4439 19.9827 16.0726L20.4953 12.5879C21.4651 12.8769 22.1548 13.7748 22.1548 14.8017C22.1548 15.4204 21.9133 16.0044 21.4754 16.4449Z" fill="white"/>
<path d="M18.4015 13.6427H17.0513L16.6341 12.3601C16.588 12.2183 16.3527 12.2183 16.3065 12.3601L15.8893 13.6427H14.5392C14.4644 13.6427 14.3982 13.6908 14.3752 13.7617C14.3521 13.8326 14.3772 13.9104 14.4379 13.9541L15.53 14.7466L15.1128 16.0296C15.0897 16.1005 15.1148 16.1782 15.1755 16.2219C15.2361 16.266 15.3174 16.266 15.378 16.2219L16.4705 15.4291L17.5626 16.2216C17.5929 16.2436 17.6284 16.2546 17.6639 16.2546C17.6994 16.2546 17.7348 16.2436 17.7652 16.2216C17.8254 16.1779 17.8509 16.1001 17.8279 16.0292L17.4107 14.7463L18.5028 13.9538C18.563 13.91 18.5885 13.8323 18.5655 13.7614C18.5424 13.6905 18.4762 13.6427 18.4015 13.6427ZM17.1068 14.5419C17.0465 14.5856 17.021 14.6634 17.0441 14.7343L17.3362 15.6321L16.5718 15.0774C16.5415 15.0553 16.506 15.0443 16.4705 15.0443C16.435 15.0443 16.3995 15.0553 16.3692 15.0774L15.6047 15.6321L15.8969 14.7343C15.92 14.6634 15.8948 14.5856 15.8342 14.5419L15.0697 13.9871H16.0147C16.0895 13.9871 16.1556 13.939 16.1787 13.8681L16.4705 12.9702L16.7626 13.8681C16.7857 13.939 16.8519 13.9871 16.9266 13.9871H17.8716L17.1068 14.5419Z" fill="white"/>
</svg>
