<svg width="48" height="47" viewBox="0 0 48 47" fill="none" xmlns="http://www.w3.org/2000/svg">
<g clip-path="url(#clip0_1658_463)">
<path d="M9.54685 24.3946L9.35812 25.6699C9.17931 26.8783 9.77269 28.0701 10.8449 28.6556L11.9763 29.2735L12.2609 30.5308C12.2929 30.6722 12.335 30.8095 12.3863 30.9418C11.63 31.96 10.8073 32.9166 9.92521 33.8021C9.07667 34.654 8.83805 35.9394 9.32453 37.0391C9.79283 38.0978 10.8408 38.7751 11.9901 38.7751C12.0345 38.7751 12.079 38.7742 12.1237 38.7721L16.3839 38.5777L18.0216 41.3023C18.5282 42.1451 19.4256 42.6758 20.4081 42.7137C20.4458 42.7151 20.4833 42.7158 20.5208 42.7158C21.4619 42.7158 22.3481 42.2609 22.8963 41.4902C23.2165 41.04 23.5218 40.5638 23.8115 40.0625C24.1013 40.5638 24.4066 41.04 24.7269 41.4902C25.275 42.2609 26.1614 42.7158 27.1024 42.7158C27.1399 42.7158 27.1773 42.7151 27.2149 42.7137C28.1976 42.6758 29.0949 42.1451 29.6015 41.3023L31.2392 38.5777L35.4993 38.7721C35.544 38.7742 35.5886 38.7751 35.633 38.7751C36.7824 38.7751 37.8302 38.0979 38.2986 37.0391C38.785 35.9395 38.5465 34.654 37.6979 33.8021C36.8158 32.9165 35.993 31.9599 35.2368 30.9417C35.2881 30.8094 35.3301 30.6722 35.3622 30.5308L35.6468 29.2735L36.7782 28.6556C37.8504 28.0701 38.4438 26.8783 38.265 25.6698L38.0762 24.3946L38.9081 23.4098C39.6963 22.4764 39.8191 21.1507 39.2158 20.0885L38.5792 18.9676L38.999 17.7487C39.3969 16.5937 39.0325 15.3132 38.0862 14.5407L37.0876 13.7253L37.0387 12.437C36.9925 11.2162 36.1902 10.1538 35.0287 9.77535L33.803 9.37588L33.2921 8.19225C32.8293 7.11982 31.774 6.43207 30.6162 6.43199C30.563 6.43191 30.5098 6.43342 30.4563 6.43635L29.169 6.50667L28.2651 5.58751C27.705 5.01794 26.9514 4.7162 26.1856 4.7162C25.7804 4.7162 25.3718 4.80065 24.9864 4.97466L23.8116 5.50509L22.6366 4.97458C22.2513 4.80065 21.8427 4.7162 21.4375 4.7162C20.6717 4.71613 19.9182 5.01786 19.358 5.58751L18.454 6.5066L17.1669 6.43635C17.1134 6.43342 17.0601 6.43199 17.007 6.43199C15.8491 6.43191 14.7939 7.11975 14.331 8.19218L13.8201 9.37588L12.5944 9.77535C11.433 10.1538 10.6306 11.2162 10.5843 12.437L10.5355 13.7253L9.53686 14.5407C8.59057 15.3132 8.22626 16.5937 8.62415 17.7487L9.04399 18.9676L8.40732 20.0885C7.80394 21.1507 7.92678 22.4764 8.71507 23.4097L9.54685 24.3946Z" fill="#DDCAC6"/>
<path d="M32.896 29.4551L33.4713 26.9137L35.7582 25.6648L35.3767 23.0871L37.058 21.0964L35.7711 18.8307L36.6198 16.3671L34.6013 14.7192L34.5027 12.1153L32.0252 11.308L30.9927 8.91553L28.3908 9.05761L26.5638 7.19975L24.1889 8.27211L21.8141 7.19975L19.987 9.05761L17.3852 8.91553L16.3526 11.308L13.8751 12.1153L13.7766 14.7192L11.7581 16.3671L12.6067 18.8307L11.3198 21.0964L13.0011 23.0871L12.6196 25.6648L14.9065 26.9137L15.4819 29.4551L16.8416 29.6332C15.7966 31.3989 14.3406 33.4475 12.3681 35.4276L18.3646 35.1539L20.8979 39.3683C22.3586 37.3148 23.2828 34.8311 23.8656 32.6027L24.1889 32.8282L24.5122 32.6027C25.0951 34.8311 26.0192 37.3148 27.48 39.3683L30.0132 35.1539L36.0097 35.4276C34.0372 33.4475 32.5813 31.3989 31.5362 29.6332L32.896 29.4551Z" fill="white"/>
<path d="M26.5638 7.19977L28.3909 9.05762L30.9927 8.91555L32.0252 11.308L34.5027 12.1153L34.6014 14.7193L36.6198 16.3671L35.7712 18.8307L37.0581 21.0965L35.3767 23.0871L35.7582 25.6648L33.4714 26.9137L32.8959 29.455L31.5362 29.6332C32.5814 31.3989 34.0373 33.4475 36.0097 35.4276L30.0132 35.1539L27.4801 39.3683C26.0193 37.3147 25.0951 34.8312 24.5123 32.6027L24.189 32.8282L23.8657 32.6027C23.2828 34.8312 22.3586 37.3147 20.8979 39.3683L18.3647 35.1539L12.3683 35.4276C14.3406 33.4475 15.7965 31.3989 16.8417 29.6332L15.4819 29.455L14.9066 26.9137L12.6197 25.6648L13.0012 23.0871L11.3199 21.0965L12.6068 18.8307L11.7581 16.3671L13.7766 14.7193L13.8752 12.1153L16.3526 11.308L17.3853 8.91555L19.9871 9.05762L21.8141 7.19977L24.189 8.27212L26.5638 7.19977ZM21.8149 4.28419C21.0491 4.28412 20.2956 4.58585 19.7354 5.1555L18.8315 6.07459L17.5442 6.00434C17.4908 6.00141 17.4375 5.99998 17.3844 5.99998C16.2265 5.99998 15.1713 6.68774 14.7084 7.76017L14.1975 8.94387L12.9719 9.34335C11.8103 9.72179 11.008 10.7843 10.9618 12.0051L10.913 13.2933L9.9143 14.1087C8.96802 14.8812 8.60363 16.1617 9.00152 17.3167L9.42144 18.5356L8.78477 19.6565C8.18139 20.7187 8.30423 22.0445 9.09243 22.9777L9.9243 23.9626L9.73556 25.2379C9.55668 26.4464 10.1501 27.6382 11.2223 28.2236L12.3538 28.8415L12.6384 30.0988C12.6704 30.2402 12.7124 30.3775 12.7638 30.5098C12.0075 31.528 11.1847 32.4846 10.3027 33.3701C9.45404 34.222 9.2155 35.5074 9.7019 36.6071C10.1703 37.6658 11.2182 38.3432 12.3675 38.3432C12.412 38.3432 12.4565 38.3422 12.5012 38.3401L16.7613 38.1457L18.399 40.8703C18.9056 41.7131 19.8029 42.2437 20.7856 42.2817C20.8231 42.2831 20.8607 42.2839 20.8982 42.2839C21.8392 42.2839 22.7255 41.8289 23.2737 41.0582C23.5939 40.608 23.8992 40.1318 24.189 39.6305C24.4788 40.1318 24.784 40.608 25.1042 41.0582C25.6524 41.8289 26.5387 42.2839 27.4798 42.2839C27.5172 42.2839 27.5547 42.2831 27.5924 42.2817C28.5749 42.2437 29.4723 41.7131 29.9789 40.8703L31.6166 38.1457L35.8767 38.3401C35.9214 38.3422 35.966 38.3432 36.0104 38.3432C37.1598 38.3432 38.2076 37.6659 38.676 36.6071C39.1624 35.5075 38.9239 34.222 38.0753 33.3701C37.1933 32.4846 36.3704 31.5279 35.6141 30.5097C35.6654 30.3774 35.7075 30.2402 35.7395 30.0988L36.0242 28.8415L37.1557 28.2236C38.2278 27.6381 38.8213 26.4463 38.6424 25.2379L38.4536 23.9626L39.2854 22.9778C40.0737 22.0445 40.1965 20.7187 39.5932 19.6565L38.9565 18.5356L39.3764 17.3167C39.7743 16.1617 39.4099 14.8812 38.4637 14.1087L37.465 13.2933L37.4162 12.0051C37.3699 10.7843 36.5676 9.72179 35.4061 9.34335L34.1804 8.94387L33.6696 7.76025C33.2068 6.68789 32.1514 6.00006 30.9935 5.99998C30.9404 5.99998 30.8872 6.00141 30.8337 6.00434L29.5465 6.07467L28.6426 5.1555C28.0824 4.58592 27.3287 4.28419 26.563 4.28419C26.1577 4.28419 25.7492 4.36864 25.3639 4.54265L24.189 5.07316L23.014 4.54258C22.6288 4.36864 22.2201 4.28419 21.8149 4.28419Z" fill="white"/>
<path d="M29.2701 24.789C29.2701 24.789 30.9409 30.3393 36.0096 35.4276L30.0131 35.1538L27.48 39.3683C23.8745 34.2998 23.5366 26.6097 23.5366 26.6097L29.2701 24.789Z" fill="#CC7587"/>
<path d="M19.1077 24.789C19.1077 24.789 17.4369 30.3393 12.3682 35.4276L18.3647 35.1538L20.8979 39.3683C24.5033 34.2998 24.8413 26.6097 24.8413 26.6097L19.1077 24.789Z" fill="#CC7587"/>
<path d="M24.1889 8.27219L26.5638 7.19977L28.3908 9.05762L30.9926 8.91555L32.0253 11.308L34.5027 12.1154L34.6013 14.7193L36.6198 16.3671L35.7711 18.8307L37.058 21.0965L35.3767 23.0871L35.7582 25.6648L33.4713 26.9137L32.896 29.4551L30.3123 29.7936L28.8577 31.9555L26.3263 31.3377L24.1889 32.8282L22.0516 31.3377L19.5202 31.9555L18.0655 29.7936L15.4819 29.4551L14.9065 26.9137L12.6196 25.6648L13.0011 23.0871L11.3198 21.0965L12.6068 18.8307L11.7581 16.3671L13.7766 14.7193L13.8751 12.1154L16.3526 11.308L17.3852 8.91555L19.987 9.05762L21.8141 7.19977L24.1889 8.27219Z" fill="#DF8C9A"/>
<path d="M33.4535 20.014C33.4535 25.1306 29.3057 29.2784 24.1892 29.2784C19.0725 29.2784 14.9248 25.1306 14.9248 20.014C14.9248 14.8974 19.0725 10.7496 24.1892 10.7496C29.3057 10.7496 33.4535 14.8974 33.4535 20.014Z" fill="#FFC15B"/>
<path d="M24.1887 28.3562C19.5889 28.3562 15.8467 24.614 15.8467 20.014C15.8467 15.4142 19.5889 11.6719 24.1887 11.6719C28.7887 11.6719 32.531 15.4142 32.531 20.014C32.531 24.614 28.7887 28.3562 24.1887 28.3562ZM24.1887 11.8706C19.6984 11.8706 16.0455 15.5236 16.0455 20.014C16.0455 24.5042 19.6984 28.1574 24.1887 28.1574C28.679 28.1574 32.3323 24.5042 32.3323 20.014C32.3323 15.5236 28.679 11.8706 24.1887 11.8706Z" fill="#DB9A3D"/>
<path d="M13.9091 15.8547H13.644V14.7192H13.9091V15.8547Z" fill="#CC7587"/>
<path d="M16.1617 12.2773L15.9106 12.1919L16.227 11.2653L16.478 11.3507L16.1617 12.2773Z" fill="#CC7587"/>
<path d="M19.5504 9.70497L19.3589 9.52172L19.8913 8.96605L20.0829 9.14929L19.5504 9.70497Z" fill="#CC7587"/>
<path d="M23.6256 8.68903L23.5112 8.44989L24.1317 8.15251L24.246 8.39166L23.6256 8.68903Z" fill="#CC7587"/>
<path d="M27.799 9.23494L27.7793 8.97041L28.3809 8.9254L28.4005 9.18994L27.799 9.23494Z" fill="#CC7587"/>
<path d="M31.9896 11.4356L31.3853 11.2676L31.4562 11.0124L32.0605 11.1804L31.9896 11.4356Z" fill="#CC7587"/>
<path d="M34.5208 14.8245L34.0679 14.4782L34.2289 14.2675L34.6818 14.6138L34.5208 14.8245Z" fill="#CC7587"/>
<path d="M12.7694 19.6262L12.4829 18.8782L12.7303 18.7834L13.0169 19.5315L12.7694 19.6262Z" fill="#CC7587"/>
<path d="M13.3818 23.7394L12.9004 23.173L13.1023 23.0012L13.5837 23.5675L13.3818 23.7394Z" fill="#CC7587"/>
<path d="M15.4994 27.382L14.8438 27.0304L14.9691 26.797L15.6247 27.1485L15.4994 27.382Z" fill="#CC7587"/>
<path d="M18.8378 30.0234L18.0493 29.925L18.0819 29.6621L18.8704 29.7604L18.8378 30.0234Z" fill="#CC7587"/>
<path d="M22.092 31.4641L22.0112 31.2115L22.661 31.0033L22.7417 31.256L22.092 31.4641Z" fill="#CC7587"/>
<path d="M26.4022 31.4462L26.25 31.2293L26.8934 30.7771L27.0457 30.994L26.4022 31.4462Z" fill="#CC7587"/>
<path d="M30.4254 29.8624L30.1992 29.7247L30.5442 29.1581L30.7704 29.2958L30.4254 29.8624Z" fill="#CC7587"/>
<path d="M33.6018 26.9347L33.3403 26.8928L33.4478 26.2255L33.7092 26.2674L33.6018 26.9347Z" fill="#CC7587"/>
<path d="M35.2458 23.105L35.1567 22.4506L35.4192 22.4149L35.5083 23.0693L35.2458 23.105Z" fill="#CC7587"/>
<path d="M35.6581 18.8997L35.2676 18.2585L35.4938 18.1208L35.8843 18.762L35.6581 18.8997Z" fill="#CC7587"/>
<path d="M28.547 15.7375L28.6476 15.0548C28.6879 14.7912 28.611 14.5238 28.4367 14.3211C28.261 14.117 28.0057 14 27.7363 14H21.2044C20.935 14 20.6797 14.117 20.5044 14.3211C20.33 14.5238 20.2532 14.7915 20.2935 15.0541L20.3969 15.7575C19.9797 15.8797 19.5952 16.1009 19.281 16.4148C18.7773 16.9176 18.5 17.588 18.5 18.3017C18.5 19.7722 19.6979 20.9687 21.17 20.9687H21.4848C21.952 21.6993 22.6834 22.2379 23.523 22.4709V23.9352H23.3507C22.804 23.9352 22.3534 24.3371 22.27 24.8602H21.9362C21.643 24.8602 21.4046 25.0984 21.4046 25.3916V25.8279C21.4046 25.9229 21.4817 26 21.5768 26H27.3646C27.4597 26 27.5369 25.9229 27.5369 25.8279V25.3912C27.5369 25.098 27.2985 24.8599 27.0053 24.8599H26.6715C26.5881 24.3371 26.1375 23.9348 25.5907 23.9348H25.4185V22.4705C26.2584 22.2376 26.9901 21.6987 27.4566 20.9684H27.83C28.5408 20.9684 29.2115 20.6914 29.7197 20.1879C30.2227 19.6813 30.5 19.0116 30.5 18.3013C30.4993 17.1051 29.687 16.0531 28.547 15.7375ZM18.8445 18.3017C18.8445 17.6798 19.086 17.0962 19.5246 16.6581C19.7861 16.3966 20.1034 16.2097 20.4475 16.1009L20.9581 19.5722C21.0118 19.9443 21.1238 20.2966 21.2871 20.6249H21.17C19.8877 20.6246 18.8445 19.5826 18.8445 18.3017ZM27.192 25.3912V25.6559H21.7487V25.3912C21.7487 25.288 21.8328 25.204 21.9358 25.204H22.4247H26.5157H27.0046C27.1079 25.2044 27.192 25.2883 27.192 25.3912ZM26.3238 24.8602H22.6169C22.6951 24.5278 22.9945 24.2793 23.3507 24.2793H23.6952H25.2455H25.59C25.9463 24.2793 26.2456 24.5278 26.3238 24.8602ZM23.8675 23.9352V22.5459C24.0676 22.58 24.2688 22.603 24.4704 22.603C24.6716 22.603 24.8731 22.58 25.0733 22.5459V23.9352H23.8675ZM25.2066 22.1742C24.7219 22.2868 24.2185 22.2868 23.7348 22.1742C22.897 21.9771 22.1642 21.4426 21.7236 20.7069C21.5031 20.3469 21.3605 19.9484 21.2992 19.5223L20.6342 15.0028C20.6091 14.8383 20.657 14.6718 20.7658 14.5448C20.8754 14.4174 21.0356 14.3441 21.2044 14.3441H27.7363C27.9051 14.3441 28.0653 14.4174 28.1749 14.5451C28.2838 14.6718 28.3316 14.8387 28.3065 15.0032V15.0038L28.1852 15.8277C28.1852 15.8284 28.1845 15.8291 28.1842 15.8298C28.1839 15.8311 28.1845 15.8325 28.1842 15.8342L27.6412 19.523C27.5799 19.9487 27.437 20.3472 27.2161 20.7082C26.7765 21.4426 26.0438 21.9771 25.2066 22.1742ZM29.4754 19.9449C29.0334 20.3834 28.4488 20.6246 27.8294 20.6246H27.6537C27.8173 20.2963 27.9289 19.9439 27.9827 19.5726L28.4953 16.0879C29.4651 16.3769 30.1548 17.2748 30.1548 18.3017C30.1548 18.9204 29.9133 19.5044 29.4754 19.9449Z" fill="white"/>
<path d="M26.4015 17.1426H25.0513L24.6341 15.86C24.588 15.7183 24.3527 15.7183 24.3065 15.86L23.8893 17.1426H22.5392C22.4644 17.1426 22.3982 17.1908 22.3752 17.2617C22.3521 17.3326 22.3772 17.4104 22.4379 17.4541L23.53 18.2466L23.1128 19.5296C23.0897 19.6005 23.1148 19.6782 23.1755 19.7219C23.2361 19.766 23.3174 19.766 23.378 19.7219L24.4705 18.929L25.5626 19.7216C25.5929 19.7436 25.6284 19.7546 25.6639 19.7546C25.6994 19.7546 25.7348 19.7436 25.7652 19.7216C25.8254 19.6779 25.8509 19.6001 25.8279 19.5292L25.4107 18.2463L26.5028 17.4537C26.563 17.41 26.5885 17.3323 26.5655 17.2614C26.5424 17.1905 26.4762 17.1426 26.4015 17.1426ZM25.1068 18.0419C25.0465 18.0856 25.021 18.1633 25.0441 18.2342L25.3362 19.1321L24.5718 18.5773C24.5415 18.5553 24.506 18.5443 24.4705 18.5443C24.435 18.5443 24.3995 18.5553 24.3692 18.5773L23.6047 19.1321L23.8969 18.2342C23.92 18.1633 23.8948 18.0856 23.8342 18.0419L23.0697 17.4871H24.0147C24.0895 17.4871 24.1556 17.4389 24.1787 17.368L24.4705 16.4702L24.7626 17.368C24.7857 17.4389 24.8519 17.4871 24.9266 17.4871H25.8716L25.1068 18.0419Z" fill="white"/>
</g>
<defs>
<clipPath id="clip0_1658_463">
<rect width="47" height="47" fill="white" transform="translate(0.5)"/>
</clipPath>
</defs>
</svg>
