<svg width="27" height="25" viewBox="0 0 27 25" fill="none" xmlns="http://www.w3.org/2000/svg">
<path id="Vector" d="M12.4258 1.35062C12.7661 0.580729 12.9364 0.195785 13.1733 0.0772437C13.3792 -0.0257479 13.6209 -0.0257479 13.8267 0.0772437C14.0637 0.195785 14.2339 0.580729 14.5743 1.35062L17.2852 7.48288C17.3859 7.71047 17.4362 7.82427 17.5141 7.91141C17.5829 7.98852 17.6672 8.0502 17.7611 8.09242C17.8674 8.14015 17.9903 8.15322 18.2361 8.17937L24.8582 8.88408C25.6896 8.97255 26.1052 9.01678 26.2903 9.20739C26.451 9.37295 26.5256 9.60479 26.4921 9.83401C26.4536 10.0979 26.1431 10.38 25.5221 10.9443L20.5755 15.439C20.392 15.6057 20.3001 15.6892 20.242 15.7907C20.1906 15.8807 20.1584 15.9805 20.1476 16.0836C20.1354 16.2003 20.161 16.3221 20.2123 16.566L21.594 23.1337C21.7675 23.9583 21.8542 24.3705 21.7316 24.6068C21.625 24.8123 21.4295 24.9555 21.2029 24.9942C20.9421 25.0386 20.58 24.8281 19.8558 24.407L14.0876 21.0525C13.8736 20.928 13.7666 20.8659 13.6528 20.8414C13.5521 20.8199 13.448 20.8199 13.3473 20.8414C13.2335 20.8659 13.1264 20.928 12.9124 21.0525L7.14424 24.407C6.42007 24.8281 6.05798 25.0386 5.79716 24.9942C5.57059 24.9555 5.375 24.8123 5.2685 24.6068C5.14591 24.3705 5.23263 23.9583 5.4061 23.1337L6.7877 16.566C6.83898 16.3221 6.86461 16.2003 6.85244 16.0836C6.84167 15.9805 6.80951 15.8807 6.75806 15.7907C6.69991 15.6892 6.60812 15.6057 6.42454 15.439L1.478 10.9443C0.85699 10.38 0.546478 10.0979 0.507871 9.83401C0.474351 9.60479 0.549051 9.37295 0.709798 9.20739C0.894862 9.01678 1.31055 8.97255 2.14193 8.88408L8.76396 8.17937C9.00974 8.15322 9.13262 8.14015 9.23888 8.09242C9.3329 8.0502 9.41708 7.98852 9.48597 7.91141C9.56382 7.82427 9.61413 7.71047 9.71476 7.48288L12.4258 1.35062Z" fill="#FFCC00"/>
</svg>
