<svg width="15" height="15" viewBox="0 0 15 15" fill="none" xmlns="http://www.w3.org/2000/svg">
<g id="Component 4">
<path id="Vector" d="M7.49902 5C6.11831 5 4.99902 6.11929 4.99902 7.5C4.99902 8.88071 6.11831 10 7.49902 10C8.87973 10 9.99902 8.88071 9.99902 7.5C9.99902 6.11929 8.87973 5 7.49902 5Z" fill="white"/>
<path id="Vector_2" fill-rule="evenodd" clip-rule="evenodd" d="M4.49902 0C2.01374 0 -0.000976562 2.01472 -0.000976562 4.5V10.5C-0.000976562 12.9853 2.01374 15 4.49902 15H10.499C12.9843 15 14.999 12.9853 14.999 10.5V4.5C14.999 2.01472 12.9843 0 10.499 0H4.49902ZM3.99902 7.5C3.99902 5.567 5.56602 4 7.49902 4C9.43202 4 10.999 5.567 10.999 7.5C10.999 9.433 9.43202 11 7.49902 11C5.56602 11 3.99902 9.433 3.99902 7.5ZM10.999 4H11.999V3H10.999V4Z" fill="white"/>
</g>
</svg>
