<svg width="49" height="49" viewBox="0 0 49 49" fill="none" xmlns="http://www.w3.org/2000/svg">
<path id="Vector" d="M41.3438 17.6094H41.9224C43.2687 20.4564 44.0234 23.6356 44.0234 26.9883C44.0234 39.1255 34.149 49 22.0117 49C9.87446 49 0 39.1255 0 26.9883C0 14.851 9.87446 4.97656 22.0117 4.97656C25.3644 4.97656 28.5436 5.73128 31.3906 7.07763V7.65625V9.48877L29.8634 11.016C27.4936 9.84613 24.8283 9.1875 22.0117 9.1875C12.1964 9.1875 4.21094 17.173 4.21094 26.9883C4.21094 36.8036 12.1964 44.7891 22.0117 44.7891C31.827 44.7891 39.8125 36.8036 39.8125 26.9883C39.8125 24.1715 39.1539 21.5062 37.9842 19.1364L39.5112 17.6094H41.3438ZM31.0078 26.9883C31.0078 31.9488 26.9722 35.9844 22.0117 35.9844C17.0512 35.9844 13.0156 31.9488 13.0156 26.9883C13.0156 22.0278 17.0512 17.9922 22.0117 17.9922C22.2935 17.9922 22.5718 18.0069 22.8468 18.0324L26.3593 14.5199C24.9969 14.0435 23.5347 13.7812 22.0117 13.7812C14.7293 13.7812 8.80469 19.7058 8.80469 26.9883C8.80469 34.2707 14.7293 40.1953 22.0117 40.1953C29.2942 40.1953 35.2188 34.2707 35.2188 26.9883C35.2188 25.4653 34.9565 24.0031 34.4801 22.6407L30.9678 26.153C30.9931 26.4282 31.0078 26.7065 31.0078 26.9883ZM41.3438 13.7812L49 6.125H42.875V0L35.2188 7.65625V11.0742L23.4616 22.8313C23.0074 22.6728 22.5199 22.5857 22.0117 22.5857C19.5803 22.5857 17.6094 24.5567 17.6094 26.9881C17.6094 29.4195 19.5803 31.3904 22.0117 31.3904C24.4432 31.3904 26.4141 29.4195 26.4141 26.9881C26.4141 26.4799 26.327 25.9924 26.1685 25.5382L37.9258 13.7812H41.3438Z" fill="#DA9694"/>
</svg>
