<svg width="16" height="16" viewBox="0 0 16 16" fill="none" xmlns="http://www.w3.org/2000/svg">
<g id="Interface / Star">
<path id="Vector" d="M0.13118 6.61718C-0.123841 6.38531 0.0146883 5.96615 0.359628 5.92595L5.24721 5.35602C5.38779 5.33962 5.5099 5.25283 5.5692 5.12645L7.63074 0.732596C7.77622 0.422509 8.22463 0.422445 8.37011 0.73254L10.4316 5.12636C10.4909 5.25274 10.6123 5.33977 10.7528 5.35615L15.6406 5.92595C15.9856 5.96615 16.1237 6.38539 15.8687 6.61726L12.2556 9.90278C12.1517 9.9973 12.1054 10.1379 12.1329 10.2745L13.0919 15.0203C13.1596 15.3553 12.797 15.6148 12.4939 15.4481L8.19915 13.084C8.07565 13.0161 7.92561 13.0164 7.80203 13.0843L3.50688 15.4474C3.20378 15.6142 2.84053 15.3553 2.90822 15.0203L3.86729 10.2747C3.89488 10.1382 3.84873 9.99722 3.74479 9.90278L0.13118 6.61718Z" fill="#FEBC00"/>
</g>
</svg>
