<svg width="88" height="87" viewBox="0 0 88 87" fill="none" xmlns="http://www.w3.org/2000/svg">
<path id="Vector" d="M21.5 3H12.5C10.1131 3 7.82387 3.94821 6.13604 5.63604C4.44821 7.32387 3.5 9.61305 3.5 12V75C3.5 77.3869 4.44821 79.6761 6.13604 81.364C7.82387 83.0518 10.1131 84 12.5 84H39.5M21.5 3V43.5L35 30L48.5 43.5V3M21.5 3H48.5M48.5 3H66.5C68.8869 3 71.1761 3.94821 72.864 5.63604C74.5518 7.32387 75.5 9.61305 75.5 12V43.5M84.5 75H57.5" stroke="#DA9694" stroke-width="6" stroke-linecap="round" stroke-linejoin="round"/>
</svg>
