<svg width="41" height="55" viewBox="0 0 41 55" fill="none" xmlns="http://www.w3.org/2000/svg">
<g id="Group">
<g id="Group_2">
<g id="Group_3">
<path id="Vector" d="M25.8996 28.2485C20.5132 28.2485 16.1312 32.6305 16.1312 38.017C16.1312 43.4034 20.5132 47.7854 25.8996 47.7854C31.2861 47.7854 35.6682 43.4034 35.6682 38.017C35.6682 32.6305 31.2857 28.2485 25.8996 28.2485ZM25.8996 44.2054C22.4874 44.2054 19.7112 41.4292 19.7112 38.017C19.7112 36.9608 19.9778 35.9659 20.4462 35.0952L24.6338 39.2828C24.9696 39.6184 25.4249 39.8071 25.8996 39.8071H31.8232C31.0532 42.349 28.6895 44.2054 25.8996 44.2054ZM26.6412 36.227L22.9777 32.5635C23.8486 32.0951 24.8435 31.8285 25.8995 31.8285C28.6897 31.8285 31.0534 33.6849 31.8232 36.227H26.6412Z" fill="#DA9694"/>
<path id="Vector_2" d="M36.4401 5.76365H31.29C30.6606 4.2063 29.1338 3.10405 27.3536 3.10405H24.5736C23.8833 1.5396 22.3172 0.444824 20.5001 0.444824C18.6829 0.444824 17.1168 1.5396 16.4265 3.10424H13.6465C11.8663 3.10424 10.3394 4.20648 9.7101 5.76383H4.55999C2.09734 5.76383 0.0936279 7.76754 0.0936279 10.2302V50.0889C0.0936279 52.5516 2.09734 54.5551 4.55999 54.5551H36.4401C38.9028 54.5551 40.9065 52.5516 40.9065 50.0889V10.23C40.9065 7.76736 38.9028 5.76365 36.4401 5.76365ZM12.9817 7.34887C12.9819 6.98249 13.2801 6.68425 13.6465 6.68425H17.8405C18.829 6.68425 19.6305 5.8828 19.6305 4.89424C19.6305 4.4149 20.0205 4.02484 20.4999 4.02484C20.9792 4.02484 21.3693 4.4149 21.3693 4.89424C21.3693 5.8828 22.1707 6.68425 23.1593 6.68425H27.3533C27.7197 6.68425 28.0179 6.98249 28.0179 7.34887V10.4182C28.0179 10.7846 27.7197 11.0828 27.3533 11.0828H13.6463C13.2799 11.0828 12.9817 10.7846 12.9817 10.4182V7.34887ZM36.4401 50.9749H4.55999C4.07118 50.9749 3.67364 50.5774 3.67364 50.0887V10.23C3.67364 9.74119 4.07118 9.34366 4.55999 9.34366H9.40184V10.418C9.40184 12.7586 11.3061 14.6627 13.6465 14.6627H27.3535C29.694 14.6627 31.5981 12.7584 31.5981 10.418V9.34366H36.4399C36.9288 9.34366 37.3263 9.74119 37.3263 10.23V50.0887H37.3265C37.3263 50.5774 36.9288 50.9749 36.4401 50.9749Z" fill="#DA9694"/>
<path id="Vector_3" d="M7.2026 21.1904H20.5C21.4886 21.1904 22.29 20.3889 22.29 19.4004C22.29 18.4118 21.4886 17.6104 20.5 17.6104H7.2026C6.21405 17.6104 5.4126 18.4118 5.4126 19.4004C5.41242 20.3889 6.21386 21.1904 7.2026 21.1904Z" fill="#DA9694"/>
<path id="Vector_4" d="M7.2026 26.5095H15.1812C16.1698 26.5095 16.9712 25.708 16.9712 24.7194C16.9712 23.7309 16.1698 22.9294 15.1812 22.9294H7.2026C6.21405 22.9294 5.4126 23.7309 5.4126 24.7194C5.41242 25.708 6.21386 26.5095 7.2026 26.5095Z" fill="#DA9694"/>
<path id="Vector_5" d="M16.971 30.0385C16.971 29.05 16.1696 28.2485 15.181 28.2485H7.2026C6.21405 28.2485 5.4126 29.05 5.4126 30.0385C5.4126 31.0271 6.21405 31.8285 7.2026 31.8285H15.1812C16.1698 31.8285 16.971 31.0271 16.971 30.0385Z" fill="#DA9694"/>
</g>
</g>
</g>
</svg>
