<svg width="43" height="43" viewBox="0 0 43 43" fill="none" xmlns="http://www.w3.org/2000/svg">
<path id="Vector" d="M18.5304 26.3982C14.101 25.1132 10.8636 21.026 10.8636 16.1818V2H32.1364V17.9545M10.8636 5.54545H2V12.6364C2 17.0841 5.17495 19.7273 9.09091 19.7273H10.8636M35.7413 19.5233C38.7693 18.8248 41 16.3645 41 12.6364V5.54545H32.1364M17.9545 33.9091H9.09091V41H29.4773M29.4773 41C23.1134 41 17.9545 35.8411 17.9545 29.4773C17.9545 23.1134 23.1134 17.9545 29.4773 17.9545C35.8411 17.9545 41 23.1134 41 29.4773C41 35.8411 35.8411 41 29.4773 41ZM35.6818 25.0455L27.7045 33.0227L23.2727 28.5909M18.3191 27.57C16.0002 28.7358 14.4091 31.1366 14.4091 33.9091" stroke="#DA9694" stroke-width="3"/>
</svg>
