<svg width="18" height="12" viewBox="0 0 18 12" fill="none" xmlns="http://www.w3.org/2000/svg">
<g id="Page-1">
<g id="Dribbble-Light-Preview">
<g id="icons">
<path id="youtube-[#168]" fill-rule="evenodd" clip-rule="evenodd" d="M7.00738 8.21665V3.40654C8.71498 4.21004 10.0375 4.98625 11.6017 5.8231C10.3116 6.53857 8.71498 7.34134 7.00738 8.21665ZM16.5238 1.01424C16.2293 0.626162 15.7273 0.324076 15.1928 0.224064C13.6218 -0.0742636 3.82099 -0.0751122 2.25085 0.224064C1.82225 0.304413 1.44059 0.498627 1.11273 0.800374C-0.268725 2.08257 0.164156 8.95859 0.497139 10.0724C0.637161 10.5545 0.818175 10.9022 1.04614 11.1304C1.33985 11.4322 1.74198 11.6399 2.20389 11.7331C3.4974 12.0007 10.1613 12.1503 15.1654 11.7733C15.6265 11.6929 16.0346 11.4785 16.3565 11.1639C17.6338 9.88684 17.5467 2.62468 16.5238 1.01424Z" fill="white"/>
</g>
</g>
</g>
</svg>
