<svg width="511" height="109" viewBox="0 0 511 109" fill="none" xmlns="http://www.w3.org/2000/svg">
<path d="M127.09 92.83H107.65L100.36 77.28L0 108.38L68.7 0V3.95L24.78 89.92L110.57 63.42L127.09 92.83Z" fill="#DA9694"/>
<path d="M139.66 41.49L69.6799 57.53L80.0599 35.66L90.6399 54.25L106.13 50.79L88.6299 20.35H72.2299L44.1599 73.75L139.66 41.49Z" fill="#DA9694"/>
<path d="M185.44 53.8049L183.13 46.7149H166.4L164.09 53.8049H156.84L169.36 15.2949H180.16L192.7 53.8049H185.45H185.44ZM168.28 40.9949H181.25L174.75 21.0949L168.28 40.9949Z" fill="#DA9694"/>
<path d="M210.98 48.6249C212.68 48.6249 214.23 48.2249 215.61 47.4149C217 46.6049 218.09 45.4449 218.9 43.9249L224.97 46.4749C223.68 48.8549 221.78 50.7449 219.28 52.1249C216.78 53.5049 214.01 54.2049 210.98 54.2049C207.95 54.2049 205.35 53.575 202.9 52.325C200.45 51.075 198.48 49.2449 196.99 46.8649C195.5 44.4749 194.76 41.7449 194.76 38.6849C194.76 35.6249 195.5 32.8949 196.99 30.5049C198.48 28.1149 200.45 26.2849 202.9 25.0249C205.35 23.7649 208.05 23.1349 210.98 23.1349C213.91 23.1349 216.78 23.8349 219.29 25.2249C221.8 26.6149 223.7 28.5149 224.97 30.8949L218.9 33.4249C218.09 31.9049 217 30.7349 215.61 29.9349C214.22 29.1249 212.68 28.7249 210.98 28.7249C208.33 28.7249 206.08 29.6649 204.24 31.5449C202.4 33.4249 201.47 35.8049 201.47 38.6849C201.47 41.5649 202.39 43.9449 204.24 45.8149C206.09 47.6849 208.33 48.6249 210.98 48.6249Z" fill="#DA9694"/>
<path d="M245.25 23.1149C247.61 23.1149 249.81 23.5449 251.84 24.4049C253.87 25.2649 255.6 26.4549 257.04 27.9749C258.47 29.4949 259.56 31.3749 260.32 33.6149C261.08 35.8549 261.38 38.2949 261.23 40.9449H235.96C236.43 43.3049 237.52 45.2249 239.24 46.6749C240.96 48.1349 242.96 48.8649 245.26 48.8649C247.23 48.8649 248.98 48.355 250.51 47.325C252.04 46.295 253.21 44.8749 254.01 43.0649L259.76 45.8349C258.43 48.4349 256.47 50.4849 253.85 51.9849C251.23 53.4849 248.37 54.2449 245.26 54.2449C243.08 54.2449 241 53.8749 239.03 53.1349C237.06 52.3949 235.34 51.3549 233.86 50.0349C232.38 48.7149 231.21 47.0649 230.34 45.1049C229.47 43.1449 229.04 41.0049 229.04 38.6949C229.04 36.3849 229.47 34.2449 230.34 32.2849C231.21 30.3249 232.38 28.6749 233.86 27.3449C235.34 26.0149 237.06 24.9749 239.03 24.2249C241 23.4749 243.08 23.1149 245.26 23.1149H245.25ZM245.25 28.5049C242.85 28.5049 240.81 29.2249 239.13 30.6749C237.45 32.1249 236.38 34.0449 235.93 36.4249H254.6C254.15 34.0249 253.09 32.1049 251.4 30.6649C249.72 29.2249 247.67 28.5049 245.25 28.5049Z" fill="#DA9694"/>
<path d="M305.95 23.1149C308.06 23.1149 309.86 23.4649 311.34 24.1649C312.82 24.8649 313.98 25.9149 314.83 27.3049C315.68 28.6949 316.29 30.3249 316.67 32.1649C317.05 34.0049 317.23 36.1849 317.23 38.6949V53.8149H309.49V38.6949C309.49 35.7449 308.99 33.5049 307.99 31.9849C306.99 30.4649 305.38 29.7049 303.18 29.7049C300.83 29.7049 299 30.5149 297.69 32.1449C296.37 33.7749 295.72 35.9549 295.72 38.6949V53.8149H287.99V38.6949C287.99 35.7449 287.49 33.5049 286.49 31.9849C285.49 30.4649 283.88 29.7049 281.66 29.7049C279.31 29.7049 277.49 30.5149 276.18 32.1449C274.87 33.7749 274.22 35.9549 274.22 38.6949V53.8149H266.48V23.575H273.89L274.21 28.0049C275.86 24.7449 279.27 23.1149 284.44 23.1149C289.61 23.1149 292.79 25.2449 294.4 29.5049C296.48 25.2449 300.33 23.1149 305.95 23.1149Z" fill="#DA9694"/>
<path d="M342.77 23.5649H351.18L339.66 53.325C338.08 57.285 335.95 60.0949 333.25 61.7749C330.55 63.4449 327.04 64.0849 322.71 63.6649L322.31 57.9749C327.38 58.0849 330.12 56.6949 330.53 53.8149L319.03 23.575H327.46L335.11 47.2049L342.76 23.575L342.77 23.5649Z" fill="#DA9694"/>
<path d="M370.81 23.0849C373.26 23.0849 375.52 23.5049 377.59 24.3349C379.66 25.1649 381.42 26.3449 382.88 27.8649C384.34 29.3849 385.44 31.3049 386.17 33.6149C386.9 35.9249 387.17 38.4749 386.98 41.2649H363.56C364.02 43.0749 364.92 44.5149 366.25 45.5849C367.57 46.6549 369.1 47.1949 370.82 47.1949C373.88 47.1949 376.16 45.7149 377.64 42.7649L385.32 46.4949C383.92 48.9449 381.93 50.8549 379.33 52.2149C376.73 53.5749 373.9 54.2549 370.82 54.2549C368.58 54.2549 366.46 53.9049 364.47 53.1949C362.47 52.4849 360.71 51.4849 359.19 50.1749C357.67 48.8649 356.46 47.2249 355.56 45.2449C354.66 43.2649 354.22 41.0749 354.22 38.6749C354.22 36.2749 354.67 34.0849 355.56 32.0949C356.45 30.1049 357.66 28.4649 359.19 27.1649C360.71 25.8649 362.47 24.8649 364.47 24.1449C366.47 23.4249 368.58 23.075 370.82 23.075L370.81 23.0849ZM375.53 31.7449C374.25 30.6749 372.67 30.1449 370.8 30.1449C368.93 30.1449 367.35 30.6749 366.07 31.7249C364.79 32.7749 363.94 34.2449 363.53 36.1049H378.09C377.66 34.2649 376.81 32.8049 375.53 31.7449Z" fill="#DA9694"/>
<path d="M420.77 23.5649L410.67 38.6849L420.77 53.8049H410.7L404.12 43.8649L397.51 53.8049H387.41L397.53 38.6849L387.41 23.5649H397.51L404.12 33.4749L410.7 23.5649H420.77Z" fill="#DA9694"/>
<path d="M435.22 23.085C437.58 23.085 439.65 23.475 441.41 24.265C443.17 25.055 444.47 26.155 445.29 27.565L445.67 23.565H454.29V53.805H445.67L445.29 49.775C443.7 52.765 440.34 54.265 435.22 54.265C432.61 54.265 430.23 53.615 428.09 52.315C425.95 51.015 424.25 49.175 423 46.795C421.75 44.415 421.12 41.715 421.12 38.685C421.12 35.655 421.75 32.955 423 30.575C424.25 28.195 425.95 26.345 428.09 25.045C430.23 23.735 432.61 23.085 435.22 23.085ZM432.34 44.425C433.79 45.905 435.58 46.645 437.71 46.645C439.84 46.645 441.64 45.905 443.09 44.425C444.55 42.945 445.28 41.035 445.28 38.695C445.28 36.355 444.55 34.435 443.09 32.965C441.63 31.485 439.84 30.745 437.71 30.745C435.58 30.745 433.79 31.485 432.34 32.965C430.89 34.445 430.16 36.355 430.16 38.695C430.16 41.035 430.89 42.955 432.34 44.425Z" fill="#DA9694"/>
<path d="M499.54 23.085C501.67 23.085 503.47 23.435 504.94 24.135C506.41 24.835 507.57 25.885 508.42 27.275C509.27 28.675 509.88 30.285 510.25 32.125C510.62 33.955 510.8 36.145 510.8 38.695V53.815H501.78V38.695C501.78 33.395 499.94 30.745 496.25 30.745C494.23 30.745 492.66 31.455 491.54 32.885C490.42 34.305 489.86 36.245 489.86 38.695V53.815H480.84V38.695C480.84 36.095 480.4 34.125 479.52 32.775C478.64 31.425 477.25 30.745 475.36 30.745C473.34 30.745 471.77 31.455 470.65 32.885C469.53 34.305 468.97 36.245 468.97 38.695V53.815H459.95V23.575H468.57L468.97 27.575C470.53 24.585 473.76 23.085 478.67 23.085C483.58 23.085 486.93 25.155 488.53 29.285C490.59 25.145 494.27 23.085 499.57 23.085H499.54Z" fill="#DA9694"/>
<path d="M201.645 77.725H209.815V80.515H204.475V83.225H209.815V85.965H204.475V89.905H209.815V92.705H201.645V77.725Z" fill="#DA9694"/>
<path d="M231.205 77.725H234.585C236.765 77.725 238.375 77.995 239.435 78.535C240.495 79.075 241.365 79.955 242.045 81.165C242.725 82.375 243.075 83.795 243.075 85.415C243.075 86.565 242.885 87.625 242.505 88.595C242.125 89.565 241.595 90.365 240.915 91.005C240.245 91.645 239.505 92.085 238.725 92.325C237.945 92.565 236.575 92.695 234.635 92.695H231.205V77.715V77.725ZM234.035 80.475V89.925H235.355C236.655 89.925 237.605 89.775 238.185 89.475C238.775 89.175 239.255 88.675 239.625 87.965C239.995 87.255 240.185 86.385 240.185 85.355C240.185 83.765 239.745 82.535 238.855 81.655C238.055 80.865 236.765 80.475 234.995 80.475H234.025H234.035Z" fill="#DA9694"/>
<path d="M264.415 77.725H267.275V87.405C267.275 88.235 267.345 88.825 267.495 89.175C267.645 89.525 267.885 89.795 268.215 90.005C268.545 90.215 268.955 90.315 269.435 90.315C269.935 90.315 270.375 90.195 270.735 89.965C271.095 89.735 271.345 89.445 271.485 89.085C271.625 88.725 271.695 88.045 271.695 87.045V77.715H274.555V86.645C274.555 88.155 274.475 89.195 274.305 89.785C274.135 90.365 273.815 90.935 273.335 91.475C272.855 92.015 272.305 92.425 271.685 92.685C271.065 92.945 270.335 93.075 269.505 93.075C268.415 93.075 267.475 92.825 266.675 92.325C265.875 91.825 265.295 91.205 264.945 90.455C264.595 89.705 264.425 88.435 264.425 86.655V77.725H264.415Z" fill="#DA9694"/>
<path d="M310.355 80.355L308.365 82.255C307.005 80.825 305.485 80.105 303.785 80.105C302.355 80.105 301.145 80.595 300.165 81.575C299.185 82.555 298.695 83.755 298.695 85.195C298.695 86.195 298.915 87.075 299.345 87.855C299.775 88.635 300.395 89.235 301.185 89.675C301.975 90.115 302.855 90.335 303.825 90.335C304.655 90.335 305.405 90.175 306.095 89.875C306.775 89.565 307.535 89.005 308.355 88.185L310.285 90.205C309.175 91.285 308.135 92.035 307.145 92.455C306.165 92.875 305.035 93.085 303.775 93.085C301.445 93.085 299.545 92.345 298.055 90.875C296.575 89.395 295.835 87.505 295.835 85.195C295.835 83.705 296.175 82.375 296.845 81.215C297.525 80.055 298.485 79.125 299.745 78.415C301.005 77.705 302.355 77.355 303.815 77.355C305.055 77.355 306.235 77.615 307.385 78.135C308.525 78.655 309.515 79.395 310.345 80.365L310.355 80.355Z" fill="#DA9694"/>
<path d="M336.145 77.725H339.035L344.795 92.705H341.835L340.665 89.625H334.555L333.335 92.705H330.375L336.155 77.725H336.145ZM337.605 81.695L335.595 86.835H339.605L337.605 81.695Z" fill="#DA9694"/>
<path d="M364.245 77.725H372.525V80.535H369.795V92.705H366.905V80.535H364.245V77.725Z" fill="#DA9694"/>
<path d="M392.995 77.725H395.825V92.705H392.995V77.725Z" fill="#DA9694"/>
<path d="M424.825 77.345C426.945 77.345 428.765 78.115 430.295 79.645C431.815 81.175 432.585 83.045 432.585 85.255C432.585 87.465 431.835 89.295 430.325 90.805C428.825 92.315 426.995 93.075 424.845 93.075C422.695 93.075 420.725 92.295 419.245 90.745C417.755 89.195 417.015 87.345 417.015 85.205C417.015 83.775 417.365 82.455 418.055 81.255C418.745 80.055 419.695 79.105 420.915 78.395C422.125 77.695 423.435 77.345 424.835 77.345H424.825ZM424.795 80.135C423.405 80.135 422.245 80.615 421.295 81.585C420.345 82.555 419.875 83.775 419.875 85.255C419.875 86.915 420.465 88.225 421.655 89.185C422.575 89.935 423.635 90.315 424.835 90.315C426.185 90.315 427.335 89.825 428.285 88.845C429.235 87.865 429.715 86.665 429.715 85.235C429.715 83.805 429.235 82.605 428.275 81.615C427.315 80.625 426.155 80.135 424.775 80.135H424.795Z" fill="#DA9694"/>
<path d="M454.005 77.725H456.735L463.145 87.575V77.725H465.995V92.705H463.255L456.855 82.885V92.705H454.005V77.725Z" fill="#DA9694"/>
</svg>
