<svg width="199" height="115" viewBox="0 0 199 115" fill="none" xmlns="http://www.w3.org/2000/svg">
<g id="aqa" clip-path="url(#clip0_473_1111)">
<g id="Clip path group">
<mask id="mask0_473_1111" style="mask-type:luminance" maskUnits="userSpaceOnUse" x="1" y="0" width="198" height="115">
<g id="clip0_943_3298">
<path id="Vector" d="M198.468 0.787598H1.69824V114.067H198.468V0.787598Z" fill="white"/>
</g>
</mask>
<g mask="url(#mask0_473_1111)">
<g id="AQA-logo-strapline-RGB-purple">
<g id="Logomark">
<path id="Vector_2" d="M101.497 80.7878C95.7332 80.7878 90.5236 79.6584 85.8679 77.3997C81.2918 75.2016 77.1881 72.1286 73.7874 68.3533C70.4019 64.5942 67.7374 60.2414 65.9277 55.513C64.0961 50.8218 63.1561 45.8284 63.1565 40.7907C63.1372 35.6273 64.1354 30.5111 66.0937 25.7356C68.0066 21.0252 70.7454 16.6963 74.1804 12.9537C77.6317 9.2032 81.7952 6.18117 86.4269 4.06478C91.2615 1.8582 96.5197 0.739613 101.832 0.787615C107.52 0.787615 112.71 1.93643 117.403 4.23403C122.001 6.45349 126.098 9.59155 129.442 13.4556C132.743 17.2672 135.35 21.6299 137.145 26.3454C138.944 31.0248 139.865 35.9974 139.861 41.0125C139.867 46.1301 138.9 51.2023 137.011 55.9566C135.164 60.6751 132.458 65.0082 129.032 68.7355C125.602 72.4719 121.456 75.4764 116.841 77.5689C112.158 79.7167 107.043 80.7897 101.497 80.7878ZM101.613 67.2326C105.384 67.2326 108.672 66.4739 111.479 64.9564C114.258 63.4616 116.694 61.3987 118.628 58.9011C120.599 56.3459 122.08 53.4455 122.994 50.3478C123.942 47.2507 124.428 44.0302 124.435 40.7907C124.443 37.4334 123.919 34.0964 122.884 30.9037C121.907 27.8294 120.366 24.9651 118.34 22.4584C116.36 20.027 113.909 18.0235 111.135 16.5693C108.327 15.0869 105.113 14.3467 101.494 14.3486C97.8747 14.3506 94.6415 15.1093 91.7947 16.6247C89.0004 18.1111 86.5527 20.1751 84.6133 22.6802C82.641 25.2256 81.1395 28.1047 80.1798 31.1809C78.1662 37.527 78.1855 44.346 80.2351 50.6805C81.2049 53.7466 82.7262 56.6088 84.7239 59.1258C86.6855 61.5751 89.1404 63.5818 91.9286 65.0149C94.7619 66.4933 97.9902 67.2326 101.613 67.2326Z" fill="#371376"/>
<path id="Vector_2_2" d="M75.1829 80.7588L46.2565 1.8645H30.741L1.69824 80.7588H17.4379L23.842 61.5656L36.9268 61.5889L53.0682 61.618L59.4315 80.7558H75.1713L75.1829 80.7588ZM38.5045 17.7572L49.1762 49.8576H27.7748L38.5045 17.7572ZM198.469 80.7588L169.539 1.8645H154.024L124.984 80.7588H140.723L147.128 61.5656L160.227 61.5889L176.369 61.618L182.731 80.7558H198.471L198.469 80.7588ZM161.79 17.7572L172.462 49.8576H151.06L161.79 17.7572Z" fill="#371376"/>
<path id="Vector_3" d="M99.1641 51.6462H114.79L140.724 80.7584H124.981L99.1641 51.6462Z" fill="#C8194B"/>
</g>
<g id="Tagline">
<path id="Vector_4" d="M17.3387 101.688C17.3519 102.898 17.182 104.102 16.835 105.26C16.5341 106.277 16.0211 107.218 15.3301 108.021C14.6388 108.798 13.7669 109.393 12.7917 109.751L16.7681 114.067H13.109L9.96807 110.3H9.53432C8.34915 110.327 7.17053 110.116 6.06736 109.681C5.12863 109.3 4.29428 108.7 3.63378 107.93C2.9664 107.128 2.47094 106.196 2.17829 105.193C1.84964 104.048 1.69075 102.86 1.70672 101.668C1.6731 100.119 1.96365 98.58 2.55963 97.1505C3.08881 95.9046 3.99108 94.8541 5.14166 94.1448C6.30606 93.4327 7.77415 93.0757 9.54597 93.0737C11.2809 93.0737 12.7238 93.4288 13.8746 94.1389C15.0235 94.8482 15.9269 95.8945 16.4624 97.1359C17.0728 98.5741 17.3714 100.126 17.3387 101.688ZM4.58567 101.688C4.56223 102.828 4.74062 103.962 5.11256 105.038C5.41209 105.914 5.97691 106.674 6.72814 107.213C7.5626 107.751 8.54291 108.017 9.53432 107.974C10.5268 108.019 11.5085 107.752 12.3434 107.213C13.0912 106.674 13.6512 105.914 13.9445 105.038C14.3086 103.96 14.4819 102.826 14.4568 101.688C14.4568 99.7234 14.0686 98.1865 13.2924 97.0776C12.5161 95.9687 11.2731 95.4132 9.56344 95.4112C8.56928 95.3694 7.5861 95.6331 6.74562 96.167C5.99053 96.6978 5.42122 97.4533 5.11837 98.3265C4.74219 99.4062 4.56177 100.545 4.58567 101.688ZM31.6751 97.4045V110.084H29.5619L29.1951 108.38H29.0466C28.7873 108.808 28.4413 109.177 28.0307 109.462C27.613 109.752 27.1494 109.968 26.6596 110.102C26.1432 110.246 25.6093 110.318 25.0731 110.315C24.2338 110.338 23.4 110.171 22.6338 109.827C21.9661 109.51 21.4216 108.981 21.0851 108.321C20.6971 107.502 20.5125 106.601 20.5466 105.695V97.4045H23.245V105.17C23.245 106.153 23.4429 106.891 23.8447 107.379C24.2464 107.866 24.8664 108.111 25.7106 108.111C26.3948 108.148 27.0735 107.972 27.6551 107.609C28.1548 107.244 28.5151 106.719 28.6768 106.121C28.8913 105.333 28.9894 104.518 28.968 103.702V97.4045H31.6751ZM40.5537 97.1622C41.5688 97.1324 42.5736 97.3742 43.4646 97.8626C44.2671 98.3232 44.9147 99.013 45.3247 99.844C45.7811 100.801 46.0045 101.853 45.9769 102.914V104.356H37.535C37.564 105.583 37.8931 106.531 38.5218 107.198C39.1506 107.865 40.0326 108.197 41.1678 108.193C41.8993 108.201 42.6291 108.122 43.3424 107.96C44.0266 107.789 44.6939 107.556 45.3363 107.265V109.454C44.7206 109.746 44.0729 109.964 43.4065 110.105C42.6306 110.255 41.8415 110.324 41.0514 110.312C39.9185 110.336 38.7962 110.087 37.7795 109.585C36.841 109.103 36.0714 108.346 35.5731 107.414C35.0119 106.305 34.7396 105.073 34.7812 103.83C34.7422 102.585 34.985 101.347 35.4915 100.209C35.929 99.2656 36.639 98.4757 37.5292 97.9413C38.4477 97.4103 39.4935 97.1409 40.5537 97.1622ZM40.5537 99.1904C40.1728 99.1747 39.793 99.2402 39.4392 99.3826C39.0854 99.5249 38.7657 99.7408 38.5014 100.016C37.9813 100.565 37.6747 101.37 37.5815 102.432H43.3395C43.3447 101.856 43.2379 101.284 43.0251 100.749C42.8423 100.283 42.5238 99.8833 42.111 99.6017C41.6449 99.3111 41.1023 99.1677 40.5537 99.1904ZM57.4956 106.463C57.5204 107.212 57.3086 107.951 56.8901 108.572C56.446 109.174 55.8311 109.626 55.126 109.871C54.213 110.188 53.2507 110.337 52.2849 110.312C51.5208 110.323 50.7575 110.259 50.0055 110.122C49.3851 109.999 48.7812 109.803 48.2066 109.538V107.204C48.8639 107.506 49.5456 107.752 50.2442 107.939C50.9379 108.136 51.6543 108.24 52.3751 108.248C53.2485 108.248 53.8946 108.108 54.2819 107.828C54.4651 107.707 54.6147 107.541 54.7167 107.346C54.8185 107.151 54.8691 106.934 54.8641 106.713C54.8681 106.448 54.7866 106.188 54.6312 105.972C54.39 105.689 54.0925 105.46 53.7578 105.298C53.155 104.982 52.5349 104.701 51.9007 104.455C51.1986 104.186 50.5175 103.865 49.863 103.495C49.3584 103.214 48.9305 102.813 48.617 102.327C48.3158 101.795 48.1696 101.188 48.1949 100.577C48.1717 100.07 48.2825 99.5666 48.5161 99.1172C48.7498 98.6676 49.098 98.2881 49.5253 98.0173C50.4141 97.4336 51.5892 97.1417 53.0505 97.1417C53.7906 97.1378 54.5287 97.2171 55.2511 97.3781C55.9513 97.5362 56.634 97.7639 57.2888 98.0581L56.4446 100.086C55.8857 99.8399 55.311 99.6314 54.7242 99.4617C54.1561 99.2994 53.5684 99.2169 52.9777 99.2166C52.431 99.1838 51.8851 99.2944 51.3942 99.5376C51.2276 99.6246 51.0887 99.7564 50.9932 99.9184C50.8975 100.08 50.8488 100.266 50.8527 100.454C50.8451 100.73 50.9383 100.998 51.1146 101.21C51.3738 101.474 51.6824 101.684 52.0229 101.828C52.4537 102.023 53.0533 102.279 53.8219 102.596C54.4976 102.848 55.1526 103.152 55.781 103.506C56.2939 103.786 56.7316 104.187 57.056 104.674C57.3736 105.214 57.5265 105.836 57.4956 106.463ZM65.1077 108.135C65.4563 108.135 65.8042 108.102 66.1469 108.038C66.4639 107.98 66.7771 107.902 67.0843 107.805V109.848C66.7096 110.002 66.3192 110.113 65.9199 110.18C65.4333 110.273 64.9391 110.318 64.444 110.318C63.783 110.329 63.1265 110.206 62.5141 109.956C61.9342 109.708 61.4551 109.271 61.1547 108.715C60.7825 107.958 60.6092 107.119 60.651 106.276V99.453H58.9278V98.2507L60.7791 97.2994L61.6523 94.5854H63.3611V97.4045H66.9825V99.4472H63.3611V106.229C63.3405 106.487 63.3723 106.747 63.4543 106.993C63.5363 107.239 63.6671 107.465 63.8385 107.659C64.0079 107.819 64.2073 107.944 64.4253 108.025C64.6432 108.107 64.8752 108.144 65.1077 108.135ZM70.9995 92.5485C71.3825 92.539 71.7577 92.6559 72.0679 92.8812C72.3589 93.103 72.5191 93.4823 72.5191 94.025C72.5404 94.2375 72.5107 94.4521 72.4322 94.6508C72.3536 94.8493 72.2287 95.026 72.0679 95.166C71.7522 95.3849 71.3774 95.5021 70.9937 95.5021C70.6099 95.5021 70.2353 95.3849 69.9196 95.166C69.7625 95.0235 69.641 94.8461 69.5646 94.6479C69.4883 94.4497 69.4593 94.2364 69.4801 94.025C69.4801 93.4823 69.6284 93.103 69.9196 92.8812C70.2328 92.6534 70.6128 92.5363 70.9995 92.5485ZM72.3241 97.4045V110.084H69.6401V97.4045H72.3241ZM87.3592 103.711C87.3746 104.663 87.236 105.611 86.9487 106.518C86.7042 107.286 86.2948 107.991 85.7494 108.584C85.2211 109.148 84.5737 109.587 83.8544 109.868C83.0555 110.173 82.2058 110.323 81.351 110.309C80.5343 110.319 79.7234 110.169 78.964 109.868C78.2513 109.582 77.6096 109.144 77.0834 108.584C76.5341 107.989 76.1154 107.285 75.855 106.518C75.5526 105.614 75.4059 104.664 75.4213 103.711C75.3852 102.486 75.6333 101.269 76.1461 100.156C76.596 99.2189 77.3199 98.4412 78.2216 97.9267C79.2041 97.3955 80.3078 97.131 81.4237 97.1593C82.5019 97.1378 83.5664 97.4026 84.5094 97.9267C85.4103 98.4494 86.1374 99.227 86.5994 100.162C87.1329 101.267 87.3936 102.484 87.3592 103.711ZM78.1867 103.711C78.168 104.515 78.2821 105.316 78.5244 106.083C78.6962 106.701 79.0763 107.241 79.6001 107.61C80.1238 107.98 80.759 108.156 81.3975 108.108C82.0468 108.137 82.6878 107.955 83.2257 107.589C83.7207 107.208 84.0842 106.682 84.2649 106.083C84.5072 105.316 84.6243 104.515 84.6112 103.711C84.6296 102.914 84.5174 102.119 84.2795 101.359C84.0975 100.769 83.7337 100.252 83.2401 99.882C82.6964 99.5205 82.0521 99.3417 81.4005 99.3713C80.2885 99.3713 79.4772 99.7457 78.9669 100.495C78.4566 101.244 78.1965 102.316 78.1867 103.711ZM97.0382 97.1622C98.4607 97.1622 99.5707 97.5308 100.368 98.2682C101.166 99.0055 101.564 100.187 101.562 101.814V110.084H98.8751V102.319C98.8751 101.332 98.6712 100.594 98.2696 100.101C97.8678 99.6076 97.2391 99.3625 96.3949 99.3625C95.1684 99.3625 94.3175 99.7408 93.8419 100.498C93.3664 101.254 93.1277 102.35 93.1258 103.784V110.084H90.4332V97.4045H92.5233L92.9018 99.1232H93.0531C93.3152 98.692 93.6629 98.3196 94.0748 98.0289C94.4927 97.738 94.9561 97.519 95.4459 97.381C95.9637 97.2331 96.4998 97.1593 97.0382 97.1622ZM113.808 106.463C113.833 107.212 113.621 107.951 113.203 108.572C112.759 109.174 112.144 109.627 111.439 109.871C110.527 110.188 109.565 110.337 108.601 110.312C107.836 110.323 107.073 110.26 106.321 110.122C105.7 110 105.095 109.804 104.519 109.538V107.204C105.177 107.506 105.858 107.752 106.557 107.939C107.251 108.136 107.967 108.24 108.688 108.248C109.573 108.248 110.208 108.108 110.595 107.828C110.778 107.707 110.927 107.541 111.029 107.346C111.131 107.151 111.182 106.934 111.177 106.713C111.18 106.447 111.097 106.187 110.941 105.972C110.701 105.689 110.403 105.459 110.068 105.298C109.465 104.982 108.845 104.701 108.21 104.455C107.514 104.185 106.837 103.864 106.187 103.495C105.683 103.214 105.256 102.813 104.944 102.327C104.641 101.796 104.494 101.189 104.519 100.577C104.496 100.07 104.607 99.566 104.841 99.1164C105.076 98.6669 105.425 98.2876 105.853 98.0173C106.738 97.4336 107.912 97.1417 109.375 97.1417C110.115 97.1378 110.853 97.2171 111.576 97.3781C112.276 97.5368 112.958 97.7644 113.613 98.0581L112.766 100.086C112.208 99.8404 111.634 99.6318 111.049 99.4617C110.481 99.2999 109.893 99.2174 109.302 99.2166C108.755 99.1838 108.21 99.2944 107.719 99.5376C107.552 99.6246 107.413 99.7564 107.318 99.9184C107.222 100.08 107.173 100.266 107.177 100.454C107.17 100.73 107.263 100.998 107.439 101.21C107.699 101.473 108.008 101.683 108.347 101.828C108.778 102.023 109.379 102.279 110.149 102.596C110.825 102.848 111.48 103.153 112.108 103.506C112.62 103.787 113.056 104.188 113.38 104.674C113.694 105.215 113.843 105.837 113.808 106.463ZM137.07 97.1622C138.489 97.1622 139.556 97.5289 140.272 98.2624C140.988 98.9959 141.348 100.172 141.352 101.791V110.084H138.668V102.272C138.668 101.309 138.479 100.585 138.106 100.095C137.902 99.845 137.64 99.6479 137.344 99.5205C137.048 99.393 136.725 99.3388 136.403 99.3625C135.338 99.3625 134.571 99.704 134.104 100.387C133.636 101.07 133.401 102.061 133.399 103.361V110.072H130.715V102.272C130.73 101.725 130.647 101.179 130.471 100.661C130.332 100.264 130.069 99.923 129.72 99.6893C129.339 99.4584 128.898 99.3448 128.453 99.3625C127.825 99.3302 127.204 99.5077 126.687 99.8673C126.221 100.246 125.891 100.767 125.746 101.35C125.537 102.132 125.439 102.939 125.455 103.749V110.084H122.768V97.4045H124.858L125.237 99.1115H125.385C125.629 98.6841 125.958 98.3117 126.352 98.0173C126.739 97.7301 127.174 97.5128 127.636 97.3752C128.917 97.0149 130.285 97.1182 131.498 97.6671C132.141 97.9924 132.655 98.5277 132.954 99.1844H133.16C133.539 98.5149 134.119 97.9818 134.817 97.6612C135.522 97.3315 136.292 97.1612 137.07 97.1622ZM150.062 97.1622C151.661 97.1622 152.87 97.5173 153.689 98.2273C154.508 98.9374 154.917 100.045 154.917 101.551V110.084H153.019L152.507 108.283H152.414C152.091 108.706 151.719 109.087 151.305 109.419C150.912 109.724 150.464 109.952 149.986 110.09C149.392 110.25 148.778 110.325 148.164 110.312C147.467 110.323 146.776 110.18 146.14 109.894C145.554 109.621 145.065 109.175 144.737 108.616C144.371 107.952 144.193 107.2 144.222 106.442C144.222 105.135 144.707 104.153 145.678 103.498C146.648 102.842 148.117 102.479 150.085 102.409L152.277 102.33V101.668C152.277 100.791 152.073 100.164 151.665 99.7886C151.184 99.3892 150.569 99.1888 149.945 99.2282C149.323 99.2265 148.703 99.319 148.108 99.5027C147.51 99.6849 146.927 99.9111 146.362 100.18L145.489 98.2769C146.902 97.5459 148.469 97.1647 150.059 97.1652L150.062 97.1622ZM152.254 104.023L150.62 104.081C149.28 104.128 148.338 104.357 147.797 104.767C147.535 104.963 147.325 105.22 147.184 105.515C147.043 105.81 146.976 106.135 146.988 106.463C146.965 106.719 147.004 106.977 147.101 107.215C147.199 107.453 147.351 107.664 147.546 107.831C147.976 108.136 148.494 108.288 149.02 108.263C149.868 108.298 150.698 108.014 151.348 107.466C151.962 106.935 152.268 106.157 152.268 105.132L152.254 104.023ZM163.382 108.135C163.731 108.135 164.078 108.102 164.421 108.038C164.738 107.98 165.051 107.902 165.359 107.805V109.848C164.985 110.002 164.594 110.113 164.194 110.18C163.709 110.273 163.215 110.318 162.722 110.318C162.06 110.329 161.404 110.206 160.791 109.956C160.211 109.708 159.733 109.271 159.431 108.715C159.061 107.958 158.886 107.119 158.929 106.276V99.453H157.211V98.2507L159.062 97.2994L159.936 94.5854H161.624V97.4045H165.246V99.4472H161.633V106.229C161.611 106.488 161.644 106.748 161.726 106.994C161.809 107.239 161.941 107.466 162.112 107.659C162.282 107.82 162.482 107.945 162.698 108.027C162.917 108.108 163.149 108.145 163.382 108.135ZM172.636 108.135C172.985 108.135 173.332 108.102 173.675 108.038C173.992 107.98 174.305 107.902 174.613 107.805V109.848C174.237 110.002 173.848 110.113 173.449 110.18C172.961 110.272 172.468 110.318 171.973 110.318C171.311 110.329 170.655 110.206 170.042 109.956C169.463 109.708 168.984 109.271 168.682 108.715C168.312 107.958 168.137 107.119 168.18 106.276V99.453H166.468V98.2507L168.316 97.2994L169.19 94.5854H170.878V97.4045H174.501V99.4472H170.887V106.229C170.865 106.488 170.898 106.748 170.98 106.994C171.063 107.239 171.194 107.466 171.366 107.659C171.536 107.82 171.736 107.945 171.953 108.027C172.171 108.108 172.404 108.145 172.636 108.135ZM182.222 97.1622C183.237 97.1324 184.241 97.3742 185.134 97.8626C185.935 98.3232 186.583 99.013 186.993 99.844C187.452 100.801 187.675 101.853 187.645 102.914V104.356H179.203C179.233 105.583 179.561 106.531 180.19 107.198C180.819 107.865 181.7 108.197 182.836 108.193C183.567 108.201 184.298 108.122 185.011 107.96C185.695 107.789 186.363 107.557 187.005 107.265V109.454C186.389 109.746 185.742 109.964 185.074 110.105C184.299 110.255 183.512 110.324 182.723 110.312C181.589 110.336 180.465 110.087 179.448 109.585C178.51 109.104 177.74 108.346 177.244 107.414C176.681 106.306 176.408 105.073 176.45 103.83C176.411 102.585 176.653 101.347 177.16 100.209C177.597 99.2656 178.307 98.4757 179.197 97.9413C180.116 97.4103 181.161 97.1409 182.222 97.1622ZM182.222 99.1904C181.842 99.1747 181.461 99.2402 181.108 99.3826C180.754 99.5249 180.434 99.7408 180.17 100.016C179.649 100.565 179.343 101.37 179.25 102.432H185.008C185.013 101.856 184.906 101.284 184.694 100.749C184.51 100.284 184.194 99.8844 183.782 99.6017C183.316 99.3114 182.772 99.168 182.222 99.1904ZM197.073 97.1622C197.286 97.1622 197.52 97.1622 197.77 97.1971C197.991 97.2159 198.213 97.2471 198.43 97.2906L198.18 99.8091C197.99 99.758 197.795 99.7238 197.598 99.7068C197.364 99.6835 197.158 99.6718 196.974 99.6718C196.508 99.6703 196.044 99.7494 195.604 99.9053C195.17 100.059 194.774 100.302 194.44 100.617C194.094 100.95 193.825 101.354 193.654 101.802C193.451 102.328 193.352 102.888 193.362 103.451V110.084H190.667V97.4045H192.768L193.132 99.6252H193.258C193.513 99.1718 193.827 98.7555 194.195 98.3878C194.567 98.0138 195.002 97.7094 195.482 97.4891C195.981 97.2643 196.525 97.1526 197.073 97.1622Z" fill="#371376"/>
</g>
</g>
</g>
</g>
</g>
<defs>
<clipPath id="clip0_473_1111">
<rect width="198" height="115" fill="white" transform="translate(0.59375)"/>
</clipPath>
</defs>
</svg>
