<svg width="125" height="140" viewBox="0 0 125 140" fill="none" xmlns="http://www.w3.org/2000/svg">
<g id="Caterham" clip-path="url(#clip0_845_1787)">
<g id="Group">
<g id="Clip path group">
<mask id="mask0_845_1787" style="mask-type:luminance" maskUnits="userSpaceOnUse" x="0" y="0" width="125" height="140">
<g id="SVGID_2_">
<path id="Vector" d="M124.455 0.161865H0.455078V139.162H124.455V0.161865Z" fill="white"/>
</g>
</mask>
<g mask="url(#mask0_845_1787)">
<path id="Vector_2" d="M25.3345 66.6707L25.4122 66.7905C31.777 76.6361 40.1819 83.3437 46.111 87.2374C53.5149 92.0989 59.6496 94.3131 62.2154 94.3131C64.7768 94.3131 70.9036 92.1032 78.2989 87.2511C84.2208 83.3654 92.6157 76.6722 98.9833 66.8461L99.0883 66.732L99.0855 66.8389C99.0416 68.6395 99.1394 70.1335 99.3738 71.2781L99.394 71.3503L103.015 73.4346L102.978 73.0745C102.977 73.0593 102.813 71.4932 102.775 70.3341L102.772 70.2598L104.963 71.5849L104.964 71.6065C104.98 72.7158 105.146 74.31 105.179 74.6182L105.191 74.7178L109.612 77.2373L109.49 76.7942C108.627 73.6374 108.548 64.813 110.708 60.5455C111.527 58.9267 111.832 57.2603 111.525 56.0868C111.285 55.1695 110.956 54.6953 110.271 54.2745C110.266 54.2716 110.231 54.2514 110.17 54.2219C109.879 54.0508 109.706 53.9909 109.392 53.8826C109.243 53.8314 109.058 53.7679 108.816 53.6762C105.236 52.3252 101.875 49.9024 101.238 49.4304C101.104 49.3286 101.011 49.2543 100.963 49.2168L100.527 48.8891C100.501 48.8725 99.8046 48.4409 98.9596 48.4409C98.8366 48.4409 98.7144 48.4503 98.5986 48.4683C97.7717 48.6004 95.2562 48.9995 92.2755 54.805C91.908 55.6277 91.0631 57.2314 91.0559 57.2466C82.6467 72.0836 66.8968 81.0927 62.2154 81.0927C57.5196 81.0927 41.7517 72.0864 33.3691 57.2567C33.2792 57.0842 32.5055 55.5931 32.1488 54.7927C29.1738 49.0002 26.6591 48.6011 25.8321 48.4691C25.7149 48.451 25.5941 48.4416 25.4712 48.4416C24.6039 48.4416 23.892 48.8978 23.8848 48.9021L23.4569 49.2254C23.4224 49.2529 19.6608 52.1469 15.6064 53.677C15.3648 53.7686 15.18 53.8321 15.0319 53.8834C14.7176 53.9916 14.545 54.0515 14.256 54.2211C14.192 54.2522 14.1574 54.2724 14.1524 54.2753C13.4664 54.696 13.1385 55.1702 12.8983 56.0875C12.5912 57.261 12.8968 58.9274 13.7159 60.5462C15.8747 64.8137 15.7963 73.6381 14.9334 76.7949L14.8118 77.238L19.2329 74.7185L19.243 74.6269C19.2451 74.6096 19.4414 72.8168 19.4587 71.6072L19.4594 71.5856L19.4781 71.574L21.6505 70.2605L21.6484 70.3348C21.6095 71.5112 21.447 73.0593 21.4456 73.0752L21.4075 73.4353L25.0296 71.351L25.0498 71.276C25.2856 70.1284 25.3827 68.6265 25.3381 66.8143L25.3345 66.6707Z" fill="black"/>
</g>
</g>
<g id="Clip path group_2">
<mask id="mask1_845_1787" style="mask-type:luminance" maskUnits="userSpaceOnUse" x="0" y="0" width="125" height="140">
<g id="SVGID_2__2">
<path id="Vector_3" d="M124.455 0.161865H0.455078V139.162H124.455V0.161865Z" fill="white"/>
</g>
</mask>
<g mask="url(#mask1_845_1787)">
<path id="Vector_4" d="M101.621 60.0713C101.71 59.9003 102.488 58.3529 103.061 57.5316C104.105 56.0326 105.342 54.932 105.872 54.5877C106.403 54.2435 106.996 54.0118 106.996 54.0118L105.8 53.4121C103.013 51.9694 100.854 50.2928 100.446 49.9673L100.107 49.7133L100.018 49.6584C99.8699 49.5834 99.4808 49.408 99.0695 49.408C98.9962 49.408 98.9293 49.4138 98.8674 49.4239C96.9647 49.7263 95.0022 51.7399 93.1901 55.2589C92.7939 56.138 91.9633 57.7135 91.9568 57.7265L91.9417 57.7532C83.5116 72.627 67.6819 82.1132 62.216 82.1132C56.7335 82.1132 40.8858 72.6176 32.4809 57.7467L32.4651 57.7178C32.4572 57.7027 31.6338 56.1221 31.2246 55.2149C29.4067 51.6864 27.4385 49.67 25.5322 49.3676C25.4725 49.3582 25.4056 49.3531 25.3351 49.3524C24.8706 49.3466 24.511 49.5393 24.396 49.5971L23.9415 49.9247C23.6963 50.1203 21.4627 51.877 18.6043 53.3565L17.3926 53.9425C17.3926 53.9425 17.9139 54.123 18.5122 54.5228C19.268 55.0287 20.4696 56.086 21.3613 57.5309C21.8899 58.3883 22.1523 58.817 22.2559 59.053L22.8477 60.1356C28.4474 71.8107 37.6175 79.9971 44.3282 84.7749C49.2943 88.3098 58.1271 93.2529 62.2153 93.2529C66.2904 93.2529 75.1218 88.3098 80.0894 84.7749C86.808 79.995 95.9939 71.8331 101.606 60.1009L101.621 60.0713Z" fill="#FFCD27"/>
</g>
</g>
<g id="Clip path group_3">
<mask id="mask2_845_1787" style="mask-type:luminance" maskUnits="userSpaceOnUse" x="0" y="0" width="125" height="140">
<g id="SVGID_2__3">
<path id="Vector_5" d="M124.455 0.161865H0.455078V139.162H124.455V0.161865Z" fill="white"/>
</g>
</mask>
<g mask="url(#mask2_845_1787)">
<path id="Vector_6" d="M15.8796 54.7717C16.9927 54.7717 18.5626 55.2416 20.5538 58.2179C21.0809 59.0067 21.3922 59.6303 21.8784 60.6017C22.3652 61.5732 22.9743 62.8441 23.6042 63.962C23.8279 64.3734 24.04 64.7805 24.273 65.1839C24.3435 65.3138 24.3312 65.3023 24.4053 65.4314C24.4204 67.0113 24.3859 69.5842 24.2227 70.4661L24.163 70.7281L22.5256 71.6902L22.6054 70.5361C22.6205 70.2402 22.6306 70.0143 22.6313 69.7466L22.6399 68.4699L18.3742 71.024L18.3648 71.8663C18.336 72.5439 18.313 73.0513 18.2598 73.6041L18.1958 74.0819L16.2722 75.1869L16.4282 74.1187C16.7835 70.0006 16.5368 63.9916 14.8944 60.4567C14.0768 58.6971 13.9696 58.2757 13.8711 57.2155C13.769 56.1286 14.3594 55.391 14.6434 55.1362C14.9282 54.8814 15.5725 54.7717 15.8796 54.7717Z" fill="#FFCD27"/>
</g>
</g>
<g id="Clip path group_4">
<mask id="mask3_845_1787" style="mask-type:luminance" maskUnits="userSpaceOnUse" x="0" y="0" width="125" height="140">
<g id="SVGID_2__4">
<path id="Vector_7" d="M124.455 0.161865H0.455078V139.162H124.455V0.161865Z" fill="white"/>
</g>
</mask>
<g mask="url(#mask3_845_1787)">
<path id="Vector_8" d="M108.598 54.7717C107.485 54.7717 105.916 55.2416 103.924 58.2179C103.398 59.0067 102.604 60.5924 102.599 60.6017C102.085 61.7211 101.504 62.8441 100.874 63.962C100.65 64.3734 100.438 64.7805 100.205 65.1839C100.134 65.3138 100.147 65.3023 100.073 65.4314C100.057 67.0113 100.092 69.5842 100.255 70.4661L100.315 70.7281L101.953 71.6902L101.872 70.5361C101.857 70.2402 101.847 70.0143 101.847 69.7466L101.838 68.4699L106.104 71.024L106.113 71.8663C106.143 72.5439 106.166 73.0513 106.218 73.6041L106.282 74.0819L108.206 75.1869L108.05 74.1187C107.694 70.0006 107.941 63.9916 109.583 60.4567C110.402 58.6971 110.508 58.2757 110.607 57.2155C110.709 56.1286 110.118 55.391 109.835 55.1362C109.55 54.8814 108.905 54.7717 108.598 54.7717Z" fill="#FFCD27"/>
</g>
</g>
<g id="Clip path group_5">
<mask id="mask4_845_1787" style="mask-type:luminance" maskUnits="userSpaceOnUse" x="0" y="0" width="125" height="140">
<g id="SVGID_2__5">
<path id="Vector_9" d="M124.455 0.161865H0.455078V139.162H124.455V0.161865Z" fill="white"/>
</g>
</mask>
<g mask="url(#mask4_845_1787)">
<path id="Vector_10" d="M31.5879 0.161865L31.6109 40.0258C31.6109 45.4177 33.2835 56.1301 44.4844 67.29C51.3353 74.1159 58.8802 78.1958 62.2154 78.1958C65.529 78.1958 73.0567 74.1159 79.9191 67.2892C91.1472 56.1193 92.8242 45.4133 92.8242 40.0265L92.8465 1.19319V0.161865H31.5879Z" fill="black"/>
</g>
</g>
<g id="Clip path group_6">
<mask id="mask5_845_1787" style="mask-type:luminance" maskUnits="userSpaceOnUse" x="0" y="0" width="125" height="140">
<g id="SVGID_2__6">
<path id="Vector_11" d="M124.455 0.161865H0.455078V139.162H124.455V0.161865Z" fill="white"/>
</g>
</mask>
<g mask="url(#mask5_845_1787)">
<path id="Vector_12" d="M32.6378 40.0264C32.6378 61.2599 56.2979 77.1644 62.2154 77.1644C68.0553 77.1644 91.7959 61.2571 91.7959 40.0264L91.8182 1.19312H32.6162L32.6378 40.0264Z" fill="#FFCD27"/>
</g>
</g>
<g id="Clip path group_7">
<mask id="mask6_845_1787" style="mask-type:luminance" maskUnits="userSpaceOnUse" x="0" y="0" width="125" height="140">
<g id="SVGID_2__7">
<path id="Vector_13" d="M124.455 0.161865H0.455078V139.162H124.455V0.161865Z" fill="white"/>
</g>
</mask>
<g mask="url(#mask6_845_1787)">
<path id="Vector_14" d="M34.6631 40.479L62.2157 31.2266L89.7733 40.4927C89.7747 40.3707 89.7798 40.2494 89.7798 40.1268L89.7992 3.18726L34.6357 3.24211L34.6573 40.1268C34.6573 40.2444 34.6609 40.3613 34.6631 40.479Z" fill="black"/>
</g>
</g>
<g id="Clip path group_8">
<mask id="mask7_845_1787" style="mask-type:luminance" maskUnits="userSpaceOnUse" x="0" y="0" width="125" height="140">
<g id="SVGID_2__8">
<path id="Vector_15" d="M124.455 0.161865H0.455078V139.162H124.455V0.161865Z" fill="white"/>
</g>
</mask>
<g mask="url(#mask7_845_1787)">
<path id="Vector_16" d="M62.1843 39.6641L35.957 48.4719C40.7635 63.936 57.5101 74.7329 62.216 74.7329C66.8592 74.7329 83.641 63.9404 88.4684 48.4856L62.1843 39.6641Z" fill="black"/>
</g>
</g>
<g id="Clip path group_9">
<mask id="mask8_845_1787" style="mask-type:luminance" maskUnits="userSpaceOnUse" x="0" y="0" width="125" height="140">
<g id="SVGID_2__9">
<path id="Vector_17" d="M124.455 0.161865H0.455078V139.162H124.455V0.161865Z" fill="white"/>
</g>
</mask>
<g mask="url(#mask8_845_1787)">
<path id="Vector_18" d="M74.8727 62.8573L73.7538 48.2043L62.2106 47.6948V47.6934L62.1977 47.6941L62.1848 47.6934V47.6948L50.6424 48.2043L49.5234 62.8573L60.2906 62.3492C60.6833 62.9699 61.3427 63.3084 62.1848 63.3084C63.0161 63.3084 63.6755 62.9699 64.076 62.3478L74.8727 62.8573Z" fill="#FFCD27"/>
</g>
</g>
<g id="Clip path group_10">
<mask id="mask9_845_1787" style="mask-type:luminance" maskUnits="userSpaceOnUse" x="0" y="0" width="125" height="140">
<g id="SVGID_2__10">
<path id="Vector_19" d="M124.455 0.161865H0.455078V139.162H124.455V0.161865Z" fill="white"/>
</g>
</mask>
<g mask="url(#mask9_845_1787)">
<path id="Vector_20" d="M60.5455 61.8923L60.5721 61.9046L60.5843 61.9306C60.8741 62.5231 61.4422 62.8493 62.1858 62.8493C62.9351 62.8493 63.4723 62.5447 63.78 61.9435L63.793 61.9197L63.8174 61.9075C64.2626 61.6982 64.8206 61.6007 65.5728 61.6007C66.4285 61.6007 67.5136 61.7256 68.9878 61.927C70.4613 62.129 72.3273 62.2698 73.5254 62.2698C73.9597 62.2698 74.261 62.251 74.4228 62.2142L73.4189 48.4504C73.2974 48.4424 73.1651 48.4309 73.0299 48.4193L72.9609 48.4129L72.9249 47.9026C72.7933 47.8947 72.6481 47.8824 72.4985 47.8687L72.4302 47.8622L72.3935 47.3252C72.2461 47.3158 72.0807 47.3014 71.9095 47.2855L71.8412 47.279L71.8053 46.7204C70.7899 46.654 69.1719 46.426 67.7438 46.2239L67.3641 46.1705C66.6191 46.0644 65.9151 46.011 65.2729 46.011C63.9354 46.011 62.8876 46.2427 62.2433 46.6793L62.198 46.7096L62.1534 46.6793C61.5084 46.2427 60.4606 46.0117 59.1224 46.0117C58.4802 46.0117 57.7769 46.0651 57.0319 46.1705L56.6537 46.2232C55.2255 46.4252 53.6068 46.654 52.5907 46.7204L52.554 47.279L52.4857 47.2855C52.3146 47.3021 52.1499 47.3158 52.0025 47.3252L51.9658 47.8622L51.8975 47.8687C51.7486 47.8817 51.6034 47.8939 51.4711 47.9026L51.4351 48.4129L51.3668 48.4193C51.2309 48.4316 51.0993 48.4424 50.9778 48.4504L49.9746 62.2142C50.1357 62.251 50.4377 62.2698 50.8713 62.2698C52.0694 62.2698 53.9362 62.129 55.4096 61.927C56.8831 61.7256 57.9682 61.6007 58.8247 61.6007C59.5582 61.6007 60.1047 61.6931 60.5455 61.8923Z" fill="white"/>
</g>
</g>
<g id="Clip path group_11">
<mask id="mask10_845_1787" style="mask-type:luminance" maskUnits="userSpaceOnUse" x="0" y="0" width="125" height="140">
<g id="SVGID_2__11">
<path id="Vector_21" d="M124.455 0.161865H0.455078V139.162H124.455V0.161865Z" fill="white"/>
</g>
</mask>
<g mask="url(#mask10_845_1787)">
<path id="Vector_22" d="M67.4672 55.7346L67.839 55.7873C69.0356 55.9569 70.4055 56.1503 71.4108 56.2449L71.4395 56.6931C70.5313 56.6115 69.2765 56.4397 67.7771 56.2268L67.4061 56.1741C65.2423 55.8696 63.9292 56.0464 63.1504 56.3077V55.8443C64.2161 55.5275 65.6989 55.4856 67.4672 55.7346Z" fill="black"/>
</g>
</g>
<g id="Clip path group_12">
<mask id="mask11_845_1787" style="mask-type:luminance" maskUnits="userSpaceOnUse" x="0" y="0" width="125" height="140">
<g id="SVGID_2__12">
<path id="Vector_23" d="M124.455 0.161865H0.455078V139.162H124.455V0.161865Z" fill="white"/>
</g>
</mask>
<g mask="url(#mask11_845_1787)">
<path id="Vector_24" d="M67.4672 54.5647L67.839 54.6174C69.0054 54.7827 70.3379 54.9703 71.3338 55.0678L71.3633 55.5159C70.4608 55.4315 69.2333 55.2633 67.7771 55.0569L67.4061 55.0042C65.2423 54.6997 63.9292 54.8772 63.1504 55.1378V54.6744C64.2161 54.3583 65.6989 54.3157 67.4672 54.5647Z" fill="black"/>
</g>
</g>
<g id="Clip path group_13">
<mask id="mask12_845_1787" style="mask-type:luminance" maskUnits="userSpaceOnUse" x="0" y="0" width="125" height="140">
<g id="SVGID_2__13">
<path id="Vector_25" d="M124.455 0.161865H0.455078V139.162H124.455V0.161865Z" fill="white"/>
</g>
</mask>
<g mask="url(#mask12_845_1787)">
<path id="Vector_26" d="M67.4672 58.0758L67.839 58.1277C69.096 58.3053 70.5493 58.5117 71.5632 58.6005L71.592 59.0472C70.6759 58.9722 69.3599 58.7917 67.7771 58.5673L67.4061 58.5153C65.2423 58.21 63.9292 58.3876 63.1504 58.6481V58.1855C64.2161 57.8679 65.6989 57.8254 67.4672 58.0758Z" fill="black"/>
</g>
</g>
<g id="Clip path group_14">
<mask id="mask13_845_1787" style="mask-type:luminance" maskUnits="userSpaceOnUse" x="0" y="0" width="125" height="140">
<g id="SVGID_2__14">
<path id="Vector_27" d="M124.455 0.161865H0.455078V139.162H124.455V0.161865Z" fill="white"/>
</g>
</mask>
<g mask="url(#mask13_845_1787)">
<path id="Vector_28" d="M67.4672 56.9059L67.839 56.9586C69.0658 57.1318 70.4774 57.331 71.487 57.4227L71.515 57.8708C70.6025 57.7914 69.3175 57.6161 67.7771 57.3974L67.4061 57.3454C65.2423 57.0401 63.9292 57.217 63.1504 57.4782V57.0156C64.2161 56.6973 65.6989 56.6548 67.4672 56.9059Z" fill="black"/>
</g>
</g>
<g id="Clip path group_15">
<mask id="mask14_845_1787" style="mask-type:luminance" maskUnits="userSpaceOnUse" x="0" y="0" width="125" height="140">
<g id="SVGID_2__15">
<path id="Vector_29" d="M124.455 0.161865H0.455078V139.162H124.455V0.161865Z" fill="white"/>
</g>
</mask>
<g mask="url(#mask14_845_1787)">
<path id="Vector_30" d="M67.4672 53.3948L67.839 53.4475C68.9759 53.6085 70.2703 53.7911 71.2583 53.8906L71.2871 54.3396C70.3932 54.2522 69.1923 54.087 67.7771 53.887L67.4061 53.8344C65.2423 53.5291 63.9292 53.7066 63.1504 53.9679V53.5045C64.2161 53.1877 65.6989 53.1451 67.4672 53.3948Z" fill="black"/>
</g>
</g>
<g id="Clip path group_16">
<mask id="mask15_845_1787" style="mask-type:luminance" maskUnits="userSpaceOnUse" x="0" y="0" width="125" height="140">
<g id="SVGID_2__16">
<path id="Vector_31" d="M124.455 0.161865H0.455078V139.162H124.455V0.161865Z" fill="white"/>
</g>
</mask>
<g mask="url(#mask15_845_1787)">
<path id="Vector_32" d="M67.4672 47.5452L67.839 47.5972C68.8342 47.7386 69.9496 47.896 70.8758 47.9992L70.9052 48.4488C70.0617 48.3564 68.9996 48.2099 67.7771 48.0367L67.4061 47.9847C65.2423 47.6795 63.9292 47.857 63.1504 48.1175V47.6549C64.2161 47.3374 65.6989 47.2955 67.4672 47.5452Z" fill="black"/>
</g>
</g>
<g id="Clip path group_17">
<mask id="mask16_845_1787" style="mask-type:luminance" maskUnits="userSpaceOnUse" x="0" y="0" width="125" height="140">
<g id="SVGID_2__17">
<path id="Vector_33" d="M124.455 0.161865H0.455078V139.162H124.455V0.161865Z" fill="white"/>
</g>
</mask>
<g mask="url(#mask16_845_1787)">
<path id="Vector_34" d="M67.4672 48.7144L67.839 48.7664C68.8623 48.9122 70.0114 49.0738 70.9527 49.1778L70.9808 49.6259C70.1257 49.5343 69.0384 49.3849 67.7771 49.2066L67.4061 49.1539C65.2423 48.8487 63.9292 49.0262 63.1504 49.2867V48.8234C64.2161 48.5073 65.6989 48.4654 67.4672 48.7144Z" fill="black"/>
</g>
</g>
<g id="Clip path group_18">
<mask id="mask17_845_1787" style="mask-type:luminance" maskUnits="userSpaceOnUse" x="0" y="0" width="125" height="140">
<g id="SVGID_2__18">
<path id="Vector_35" d="M124.455 0.161865H0.455078V139.162H124.455V0.161865Z" fill="white"/>
</g>
</mask>
<g mask="url(#mask17_845_1787)">
<path id="Vector_36" d="M67.4675 49.8852L67.8392 49.9371C68.8906 50.0858 70.0742 50.2532 71.0292 50.3565L71.0587 50.8054C70.1914 50.7137 69.0768 50.5607 67.7781 50.3767L67.407 50.324C65.2432 50.0187 63.9302 50.1962 63.1514 50.4575V49.9941C64.2164 49.6773 65.6992 49.6347 67.4675 49.8852Z" fill="black"/>
</g>
</g>
<g id="Clip path group_19">
<mask id="mask18_845_1787" style="mask-type:luminance" maskUnits="userSpaceOnUse" x="0" y="0" width="125" height="140">
<g id="SVGID_2__19">
<path id="Vector_37" d="M124.455 0.161865H0.455078V139.162H124.455V0.161865Z" fill="white"/>
</g>
</mask>
<g mask="url(#mask18_845_1787)">
<path id="Vector_38" d="M67.4672 52.2249L67.839 52.2776C68.9457 52.4342 70.2041 52.6125 71.1807 52.7128L71.2101 53.1617C70.3256 53.0729 69.1521 52.912 67.7771 52.7171L67.4061 52.6644C65.2423 52.3591 63.9292 52.5367 63.1504 52.7979V52.3346C64.2161 52.017 65.6989 51.9752 67.4672 52.2249Z" fill="black"/>
</g>
</g>
<g id="Clip path group_20">
<mask id="mask19_845_1787" style="mask-type:luminance" maskUnits="userSpaceOnUse" x="0" y="0" width="125" height="140">
<g id="SVGID_2__20">
<path id="Vector_39" d="M124.455 0.161865H0.455078V139.162H124.455V0.161865Z" fill="white"/>
</g>
</mask>
<g mask="url(#mask19_845_1787)">
<path id="Vector_40" d="M67.4672 51.055L67.839 51.1077C68.9176 51.26 70.1387 51.4332 71.1052 51.535L71.1346 51.9832C70.2566 51.8937 69.114 51.7363 67.7771 51.5472L67.4061 51.4946C65.2423 51.1893 63.9292 51.3668 63.1504 51.6274V51.164C64.2161 50.8472 65.6989 50.8053 67.4672 51.055Z" fill="black"/>
</g>
</g>
<g id="Clip path group_21">
<mask id="mask20_845_1787" style="mask-type:luminance" maskUnits="userSpaceOnUse" x="0" y="0" width="125" height="140">
<g id="SVGID_2__21">
<path id="Vector_41" d="M124.455 0.161865H0.455078V139.162H124.455V0.161865Z" fill="white"/>
</g>
</mask>
<g mask="url(#mask20_845_1787)">
<path id="Vector_42" d="M56.9277 55.7346L56.5566 55.7873C55.36 55.9569 53.9894 56.1503 52.9848 56.2449L52.9561 56.6931C53.8636 56.6115 55.1198 56.4397 56.6185 56.2268L56.9888 56.1741C59.1526 55.8696 60.4657 56.0464 61.2445 56.3077V55.8443C60.1795 55.5275 58.696 55.4856 56.9277 55.7346Z" fill="black"/>
</g>
</g>
<g id="Clip path group_22">
<mask id="mask21_845_1787" style="mask-type:luminance" maskUnits="userSpaceOnUse" x="0" y="0" width="125" height="140">
<g id="SVGID_2__22">
<path id="Vector_43" d="M124.455 0.161865H0.455078V139.162H124.455V0.161865Z" fill="white"/>
</g>
</mask>
<g mask="url(#mask21_845_1787)">
<path id="Vector_44" d="M56.9276 54.5647L56.5566 54.6174C55.3895 54.7827 54.0584 54.9703 53.0617 55.0678L53.0322 55.5159C53.934 55.4315 55.1615 55.2633 56.6184 55.0569L56.9888 55.0042C59.1525 54.6997 60.4656 54.8772 61.2444 55.1378V54.6744C60.1794 54.3583 58.6959 54.3157 56.9276 54.5647Z" fill="black"/>
</g>
</g>
<g id="Clip path group_23">
<mask id="mask22_845_1787" style="mask-type:luminance" maskUnits="userSpaceOnUse" x="0" y="0" width="125" height="140">
<g id="SVGID_2__23">
<path id="Vector_45" d="M124.455 0.161865H0.455078V139.162H124.455V0.161865Z" fill="white"/>
</g>
</mask>
<g mask="url(#mask22_845_1787)">
<path id="Vector_46" d="M56.9275 58.0758L56.5565 58.1277C55.2995 58.3053 53.8462 58.5117 52.8322 58.6005L52.8027 59.0472C53.7196 58.9722 55.0356 58.7917 56.6183 58.5673L56.9887 58.5153C59.1525 58.21 60.4655 58.3876 61.2443 58.6481V58.1855C60.1793 57.8679 58.6958 57.8254 56.9275 58.0758Z" fill="black"/>
</g>
</g>
<g id="Clip path group_24">
<mask id="mask23_845_1787" style="mask-type:luminance" maskUnits="userSpaceOnUse" x="0" y="0" width="125" height="140">
<g id="SVGID_2__24">
<path id="Vector_47" d="M124.455 0.161865H0.455078V139.162H124.455V0.161865Z" fill="white"/>
</g>
</mask>
<g mask="url(#mask23_845_1787)">
<path id="Vector_48" d="M56.9277 56.9059L56.5567 56.9586C55.3299 57.1318 53.9183 57.331 52.9086 57.4227L52.8799 57.8708C53.7924 57.7914 55.0775 57.6161 56.6185 57.3974L56.9889 57.3454C59.1527 57.0401 60.4657 57.217 61.2445 57.4782V57.0156C60.1795 56.6973 58.696 56.6548 56.9277 56.9059Z" fill="black"/>
</g>
</g>
<g id="Clip path group_25">
<mask id="mask24_845_1787" style="mask-type:luminance" maskUnits="userSpaceOnUse" x="0" y="0" width="125" height="140">
<g id="SVGID_2__25">
<path id="Vector_49" d="M124.455 0.161865H0.455078V139.162H124.455V0.161865Z" fill="white"/>
</g>
</mask>
<g mask="url(#mask24_845_1787)">
<path id="Vector_50" d="M56.9276 53.3948L56.5565 53.4475C55.4196 53.6085 54.1252 53.7911 53.1372 53.8906L53.1084 54.3396C54.0022 54.2522 55.2032 54.087 56.6184 53.887L56.9887 53.8344C59.1525 53.5291 60.4656 53.7066 61.2444 53.9679V53.5045C60.1794 53.1877 58.6959 53.1451 56.9276 53.3948Z" fill="black"/>
</g>
</g>
<g id="Clip path group_26">
<mask id="mask25_845_1787" style="mask-type:luminance" maskUnits="userSpaceOnUse" x="0" y="0" width="125" height="140">
<g id="SVGID_2__26">
<path id="Vector_51" d="M124.455 0.161865H0.455078V139.162H124.455V0.161865Z" fill="white"/>
</g>
</mask>
<g mask="url(#mask25_845_1787)">
<path id="Vector_52" d="M56.9276 47.5452L56.5565 47.5972C55.5613 47.7386 54.4459 47.896 53.5197 47.9992L53.4902 48.4488C54.3337 48.3564 55.3959 48.2099 56.6184 48.0367L56.9887 47.9847C59.1525 47.6795 60.4656 47.857 61.2444 48.1175V47.6549C60.1794 47.3374 58.6959 47.2955 56.9276 47.5452Z" fill="black"/>
</g>
</g>
<g id="Clip path group_27">
<mask id="mask26_845_1787" style="mask-type:luminance" maskUnits="userSpaceOnUse" x="0" y="0" width="125" height="140">
<g id="SVGID_2__27">
<path id="Vector_53" d="M124.455 0.161865H0.455078V139.162H124.455V0.161865Z" fill="white"/>
</g>
</mask>
<g mask="url(#mask26_845_1787)">
<path id="Vector_54" d="M56.9276 48.7144L56.5566 48.7664C55.5333 48.9122 54.3841 49.0738 53.4435 49.1778L53.4141 49.6259C54.2698 49.5343 55.3578 49.3849 56.6184 49.2066L56.9887 49.1539C59.1525 48.8487 60.4656 49.0262 61.2444 49.2867V48.8234C60.1794 48.5073 58.6959 48.4654 56.9276 48.7144Z" fill="black"/>
</g>
</g>
<g id="Clip path group_28">
<mask id="mask27_845_1787" style="mask-type:luminance" maskUnits="userSpaceOnUse" x="0" y="0" width="125" height="140">
<g id="SVGID_2__28">
<path id="Vector_55" d="M124.455 0.161865H0.455078V139.162H124.455V0.161865Z" fill="white"/>
</g>
</mask>
<g mask="url(#mask27_845_1787)">
<path id="Vector_56" d="M56.9277 49.8852L56.5566 49.9371C55.5053 50.0858 54.3209 50.2532 53.3667 50.3565L53.3379 50.8054C54.2044 50.7137 55.3197 50.5607 56.6185 50.3767L56.9888 50.324C59.1526 50.0187 60.4657 50.1962 61.2445 50.4575V49.9941C60.1795 49.6773 58.696 49.6347 56.9277 49.8852Z" fill="black"/>
</g>
</g>
<g id="Clip path group_29">
<mask id="mask28_845_1787" style="mask-type:luminance" maskUnits="userSpaceOnUse" x="0" y="0" width="125" height="140">
<g id="SVGID_2__29">
<path id="Vector_57" d="M124.455 0.161865H0.455078V139.162H124.455V0.161865Z" fill="white"/>
</g>
</mask>
<g mask="url(#mask28_845_1787)">
<path id="Vector_58" d="M56.9285 52.2249L56.5574 52.2776C55.4507 52.4342 54.1923 52.6125 53.215 52.7128L53.1855 53.1617C54.0715 53.0729 55.2436 52.912 56.6193 52.7171L56.9896 52.6644C59.1534 52.3591 60.4665 52.5367 61.2453 52.7979V52.3346C60.1803 52.017 58.6968 51.9752 56.9285 52.2249Z" fill="black"/>
</g>
</g>
<g id="Clip path group_30">
<mask id="mask29_845_1787" style="mask-type:luminance" maskUnits="userSpaceOnUse" x="0" y="0" width="125" height="140">
<g id="SVGID_2__30">
<path id="Vector_59" d="M124.455 0.161865H0.455078V139.162H124.455V0.161865Z" fill="white"/>
</g>
</mask>
<g mask="url(#mask29_845_1787)">
<path id="Vector_60" d="M56.9284 51.055L56.5574 51.1077C55.4787 51.26 54.2577 51.4332 53.2912 51.535L53.2617 51.9832C54.139 51.8937 55.2824 51.7363 56.6192 51.5472L56.9896 51.4946C59.1534 51.1893 60.4665 51.3668 61.2453 51.6274V51.164C60.1803 50.8472 58.6967 50.8053 56.9284 51.055Z" fill="black"/>
</g>
</g>
<g id="Clip path group_31">
<mask id="mask30_845_1787" style="mask-type:luminance" maskUnits="userSpaceOnUse" x="0" y="0" width="125" height="140">
<g id="SVGID_2__31">
<path id="Vector_61" d="M124.455 0.161865H0.455078V139.162H124.455V0.161865Z" fill="white"/>
</g>
</mask>
<g mask="url(#mask30_845_1787)">
<path id="Vector_62" d="M73.4977 48.4389L73.4934 48.3746L73.4301 48.3703C73.3078 48.3631 73.1741 48.3515 73.0353 48.3393L73.0037 47.8911L72.9993 47.8276L72.9361 47.8232C72.8023 47.8146 72.6563 47.8023 72.5046 47.7886L72.473 47.3137L72.4686 47.2502L72.4039 47.2459C72.2558 47.2365 72.089 47.2221 71.9164 47.2055L71.884 46.7096L71.8797 46.6454L71.8157 46.6411C70.8046 46.5754 69.1838 46.3466 67.7542 46.1445L67.3752 46.0904C65.0266 45.7584 63.1742 45.9504 62.1976 46.6129C61.2196 45.9504 59.3665 45.7591 57.0201 46.0904L56.6418 46.1438C55.2108 46.3466 53.5899 46.5754 52.5774 46.6411L52.5141 46.6454L52.4775 47.2055C52.3049 47.2221 52.1388 47.2365 51.9899 47.2459L51.9266 47.2502L51.89 47.7886C51.7382 47.8023 51.5922 47.8146 51.4585 47.8232L51.3952 47.8276L51.3585 48.3393C51.2212 48.3515 51.0881 48.3631 50.9652 48.3703L50.9019 48.3746L49.8887 62.277L49.9491 62.2915C50.1152 62.3304 50.4251 62.3506 50.8703 62.3506C52.0726 62.3506 53.943 62.2099 55.4193 62.0071C56.8899 61.8057 57.9722 61.6809 58.8236 61.6809C59.5456 61.6809 60.0835 61.7725 60.5106 61.966C60.8141 62.5866 61.403 62.9302 62.184 62.9302C63.1469 62.9302 63.6186 62.4329 63.8501 61.9811C64.283 61.7769 64.8303 61.6809 65.571 61.6809C66.4231 61.6809 67.5047 61.8057 68.9752 62.0071C70.4516 62.2099 72.3219 62.3506 73.5243 62.3506C73.9694 62.3506 74.2794 62.3304 74.4455 62.2915L74.5066 62.277L73.4977 48.4389ZM72.8634 47.9654L72.8893 48.3256L72.8994 48.4742L73.8234 61.5777C73.6739 61.6029 73.4308 61.6159 73.113 61.6159C71.9257 61.6159 69.987 61.4434 68.5035 61.2067C67.1969 60.9974 66.2167 60.9007 65.4214 60.9007C64.5088 60.9007 63.825 61.0357 63.3338 61.3128L62.9354 60.9476C63.5043 60.6171 64.3449 60.4468 65.4473 60.4468C66.1707 60.4468 67.0006 60.5211 67.9131 60.6669C69.4894 60.918 71.6697 61.1728 72.7865 61.1728C73.0439 61.1728 73.2338 61.1591 73.3503 61.1309L73.4107 61.1165L72.5154 47.9366C72.6355 47.9474 72.7549 47.9575 72.8634 47.9654ZM72.332 47.3881L73.2561 61.0003C73.1482 61.0176 72.9907 61.0263 72.7865 61.0263C71.6762 61.0263 69.5059 60.7722 67.9368 60.5225C67.0164 60.3746 66.1786 60.3002 65.4473 60.3002C64.2945 60.3002 63.4144 60.4843 62.8218 60.843L62.3738 60.4316C63.3417 59.8391 65.1179 59.6745 67.3558 59.9899L67.742 60.044C69.4484 60.2858 71.3821 60.5593 72.3011 60.5593C72.4888 60.5593 72.6261 60.5485 72.7211 60.5254L72.7815 60.5117L71.9272 47.3549C72.0688 47.3678 72.2062 47.3794 72.332 47.3881ZM62.2839 46.7299C63.231 46.0919 65.0511 45.91 67.3551 46.2355L67.7355 46.2896C69.137 46.4881 70.7227 46.7118 71.7431 46.7833L72.6261 60.3948C72.5456 60.4071 72.4356 60.4128 72.3004 60.4128C71.3914 60.4128 69.4635 60.14 67.7614 59.899L67.3759 59.8448C66.613 59.7373 65.8996 59.6832 65.2546 59.6832C63.9702 59.6832 62.9484 59.899 62.2839 60.3103V46.7299ZM52.6522 46.7833C53.6726 46.7118 55.259 46.4874 56.6627 46.2889L57.0409 46.2355C59.3442 45.91 61.165 46.0919 62.1113 46.7299V60.3103C61.1139 59.6926 59.2996 59.523 57.0208 59.8448L56.6317 59.8997C54.9311 60.14 53.0038 60.4128 52.0956 60.4128C51.9597 60.4128 51.8497 60.4071 51.7691 60.3948L52.6522 46.7833ZM52.064 47.3881C52.1898 47.3794 52.3264 47.3678 52.4688 47.3549L51.6196 60.4496L51.6152 60.5117L51.6757 60.5254C51.7706 60.5485 51.9079 60.5593 52.0956 60.5593C53.0146 60.5593 54.9469 60.2858 56.6526 60.0448L57.0409 59.9899C59.2658 59.6767 61.0348 59.8376 62.0064 60.4222L61.5583 60.8336C60.9651 60.4814 60.0914 60.3002 58.9487 60.3002C58.2181 60.3002 57.3803 60.3746 56.4592 60.5225C54.8901 60.7722 52.7198 61.0263 51.6095 61.0263C51.4053 61.0263 51.2478 61.0176 51.1399 61.0003L52.064 47.3881ZM51.5326 47.9654C51.6411 47.9575 51.7598 47.9474 51.8806 47.9366L50.986 61.1165L51.0464 61.1309C51.1622 61.1591 51.3521 61.1728 51.6095 61.1728C52.727 61.1728 54.9066 60.918 56.4822 60.6669C57.3954 60.5211 58.226 60.4468 58.9487 60.4468C60.041 60.4468 60.8752 60.6142 61.444 60.9382L61.0456 61.3041C60.5559 61.0335 59.8771 60.9007 58.9746 60.9007C58.1793 60.9007 57.1998 60.9974 55.8925 61.2067C54.409 61.4434 52.4703 61.6159 51.283 61.6159C50.9652 61.6159 50.7221 61.6029 50.5725 61.5777L51.5326 47.9654ZM55.4006 61.862C53.9301 62.0634 52.0676 62.2041 50.871 62.2041C50.4942 62.2041 50.2108 62.189 50.044 62.1608L51.0392 48.5125C51.137 48.506 51.242 48.4973 51.3492 48.4879L50.4179 61.6939L50.4791 61.7083C50.6308 61.7444 50.9012 61.7624 51.283 61.7624C52.4767 61.7624 54.4248 61.5899 55.9148 61.3511C57.2149 61.1439 58.1872 61.0472 58.9746 61.0472C59.8253 61.0472 60.4646 61.1685 60.9291 61.411L60.4998 61.805C60.0648 61.6231 59.5305 61.5344 58.8243 61.5344C57.9642 61.5344 56.877 61.66 55.4006 61.862ZM62.1847 62.7837C61.2585 62.7837 60.8292 62.3059 60.63 61.8844L62.1847 60.4569L63.7394 61.8837C63.4503 62.4726 62.9131 62.7837 62.1847 62.7837ZM73.525 62.2041C72.3284 62.2041 70.4667 62.0634 68.9954 61.862C67.519 61.66 66.4317 61.5344 65.571 61.5344C64.8555 61.5344 64.3147 61.6253 63.8775 61.8122L63.4496 61.4196C63.9156 61.1706 64.5606 61.0472 65.4207 61.0472C66.2088 61.0472 67.1803 61.1439 68.4798 61.3511C69.9705 61.5899 71.9178 61.7624 73.1122 61.7624C73.4941 61.7624 73.7645 61.7444 73.9169 61.7083L73.9766 61.6939L73.0461 48.4872C73.1525 48.4973 73.2582 48.506 73.356 48.5125L74.3513 62.1608C74.1852 62.189 73.9025 62.2041 73.525 62.2041Z" fill="black"/>
</g>
</g>
<g id="Clip path group_32">
<mask id="mask31_845_1787" style="mask-type:luminance" maskUnits="userSpaceOnUse" x="0" y="0" width="125" height="140">
<g id="SVGID_2__32">
<path id="Vector_63" d="M124.455 0.161865H0.455078V139.162H124.455V0.161865Z" fill="white"/>
</g>
</mask>
<g mask="url(#mask31_845_1787)">
<path id="Vector_64" fill-rule="evenodd" clip-rule="evenodd" d="M49.2311 18.3902V13.3873L50.6441 11.8269H45.4148L46.9702 13.3873V18.3902H41.9854L40.4307 16.9713V22.2203L41.9854 20.6592H46.9702V25.9841L45.5572 27.5437H50.7858L49.2311 25.9841V20.6592H54.216L55.7707 22.0781V16.8291L54.216 18.3902H49.2311Z" fill="#FFCD27"/>
</g>
</g>
<g id="Clip path group_33">
<mask id="mask32_845_1787" style="mask-type:luminance" maskUnits="userSpaceOnUse" x="0" y="0" width="125" height="140">
<g id="SVGID_2__33">
<path id="Vector_65" d="M124.455 0.161865H0.455078V139.162H124.455V0.161865Z" fill="white"/>
</g>
</mask>
<g mask="url(#mask32_845_1787)">
<path id="Vector_66" fill-rule="evenodd" clip-rule="evenodd" d="M77.4608 18.3902V13.3873L78.8753 11.8269H73.6438L75.1993 13.3873V18.3902H70.2158L68.6611 16.9713V22.2203L70.2158 20.6592H75.1993V25.9841L73.7869 27.5437H79.0163L77.4608 25.9841V20.6592H82.4464L83.9997 22.0781V16.8291L82.4464 18.3902H77.4608Z" fill="#FFCD27"/>
</g>
</g>
<g id="Clip path group_34">
<mask id="mask33_845_1787" style="mask-type:luminance" maskUnits="userSpaceOnUse" x="0" y="0" width="125" height="140">
<g id="SVGID_2__34">
<path id="Vector_67" d="M124.455 0.161865H0.455078V139.162H124.455V0.161865Z" fill="white"/>
</g>
</mask>
<g mask="url(#mask33_845_1787)">
<path id="Vector_68" d="M6.67895 105.22C9.9286 105.22 10.8268 106.556 11.3287 106.556C11.4668 106.556 11.5703 106.382 11.7429 106.382C11.9335 106.382 11.9335 106.66 11.9852 107.788C12.0198 108.707 12.1751 109.279 11.8817 109.279C11.6732 109.279 11.5538 108.828 11.4833 108.707C10.4126 106.851 9.18504 105.723 6.95581 105.723C3.58535 105.723 1.96017 107.978 1.96017 111.204C1.96017 114.223 3.68818 117.242 7.00758 117.242C9.72078 117.242 11.4143 115.507 11.6732 114.71C11.7091 114.587 11.8119 114.484 11.9155 114.484C12.0025 114.484 12.0895 114.588 12.0715 114.674L11.6732 116.409C11.6566 116.479 10.4291 117.779 6.54088 117.779C2.9964 117.779 0.455078 115.334 0.455078 111.742C0.455078 108.151 3.03164 105.22 6.67895 105.22Z" fill="white"/>
</g>
</g>
<g id="Clip path group_35">
<mask id="mask34_845_1787" style="mask-type:luminance" maskUnits="userSpaceOnUse" x="0" y="0" width="125" height="140">
<g id="SVGID_2__35">
<path id="Vector_69" d="M124.455 0.161865H0.455078V139.162H124.455V0.161865Z" fill="white"/>
</g>
</mask>
<g mask="url(#mask34_845_1787)">
<path id="Vector_70" d="M24.9649 113.511C24.7923 113.113 24.6888 112.852 24.2041 112.852H20.4029C20.0742 112.852 19.7636 112.852 19.5903 113.217L18.4836 115.645C18.4325 115.767 18.362 116.027 18.362 116.253C18.362 117.467 19.5903 116.946 19.5903 117.398C19.5903 117.709 19.3479 117.658 19.1236 117.658C18.6403 117.658 18.1549 117.588 17.671 117.588C17.205 117.588 16.7376 117.658 16.2896 117.658C16.1853 117.658 16.1328 117.57 16.1328 117.466C16.1328 117.102 16.9461 117.397 17.3963 116.408L21.5268 107.56C22.5458 105.376 22.5983 105.097 22.8219 105.097C23.0125 105.097 23.134 105.601 23.1851 105.739L26.7806 114.673C27.0402 115.316 27.2481 116.043 27.6443 116.651C28.1642 117.449 29.1666 117.067 29.1666 117.501C29.1666 117.658 29.0458 117.658 28.9236 117.658C28.216 117.658 27.5069 117.588 26.7979 117.588C26.3305 117.588 25.8645 117.658 25.3985 117.658C25.2942 117.658 25.0181 117.658 25.0181 117.484C25.0181 117.068 26.0551 117.241 26.0551 116.582C26.0551 116.2 25.6905 115.403 25.5179 114.935L24.9649 113.511ZM20.2993 111.777C20.1792 112.02 20.2993 112.09 20.5237 112.09H23.9466C24.327 112.09 24.3098 111.968 24.2242 111.742L22.53 107.562C22.443 107.354 22.356 107.354 22.2524 107.562L20.2993 111.777Z" fill="white"/>
</g>
</g>
<g id="Clip path group_36">
<mask id="mask35_845_1787" style="mask-type:luminance" maskUnits="userSpaceOnUse" x="0" y="0" width="125" height="140">
<g id="SVGID_2__36">
<path id="Vector_71" d="M124.455 0.161865H0.455078V139.162H124.455V0.161865Z" fill="white"/>
</g>
</mask>
<g mask="url(#mask35_845_1787)">
<path id="Vector_72" d="M36.0404 107.128C36.0404 107.005 36.1101 106.347 35.8678 106.33H33.0503C31.9796 106.33 31.9436 106.589 31.633 107.544C31.5819 107.717 31.5632 107.943 31.3389 107.943C31.2346 107.943 31.167 107.822 31.167 107.736L31.3576 106.054C31.3727 105.845 31.3576 105.377 31.6682 105.377C33.0165 105.377 34.3469 105.446 36.5754 105.446C39.7035 105.446 41.2949 105.377 41.6401 105.377C42.0385 105.377 42.1262 105.481 42.1413 105.879L42.2283 107.267C42.2463 107.441 42.2621 107.648 42.0385 107.648C41.3985 107.648 42.3311 106.33 40.5693 106.33H38.0977C37.3197 106.33 37.406 106.262 37.406 107.18V116.027C37.406 117.485 38.8054 116.913 38.8054 117.451C38.8054 117.501 38.8233 117.658 38.6515 117.658C38.2365 117.658 37.7511 117.588 37.2514 117.588C35.3148 117.588 34.9862 117.658 34.8819 117.658C34.7273 117.658 34.6748 117.606 34.6748 117.432C34.6748 117.016 36.0404 117.19 36.0404 116.149V107.128Z" fill="white"/>
</g>
</g>
<g id="Clip path group_37">
<mask id="mask36_845_1787" style="mask-type:luminance" maskUnits="userSpaceOnUse" x="0" y="0" width="125" height="140">
<g id="SVGID_2__37">
<path id="Vector_73" d="M124.455 0.161865H0.455078V139.162H124.455V0.161865Z" fill="white"/>
</g>
</mask>
<g mask="url(#mask36_845_1787)">
<path id="Vector_74" d="M49.732 110.424C49.732 111.014 49.6982 111.014 50.39 111.014H52.2568C54.0546 111.014 53.5872 109.626 54.0028 109.626C54.1394 109.626 54.1912 109.817 54.1912 109.955C54.1912 110.563 54.1574 111.153 54.1574 111.707C54.1574 112.16 54.1912 112.61 54.1912 113.077C54.1912 113.234 54.1229 113.302 54.0028 113.302C53.4656 113.302 54.0546 111.776 52.602 111.776H50.0441C49.681 111.776 49.732 112.071 49.732 112.331V115.523C49.732 116.547 49.5954 116.963 51.0458 116.963C55.0398 116.963 55.6258 115.176 55.8524 115.176C55.9717 115.176 55.989 115.35 55.989 115.385C55.989 116.008 55.541 116.616 55.1253 117.067C54.5716 117.692 54.1912 117.657 53.4311 117.657C52.118 117.657 50.8042 117.552 49.4904 117.587C48.7986 117.604 48.0731 117.657 47.382 117.657C47.2267 117.657 47.1224 117.623 47.1224 117.484C47.1569 117.275 47.3295 117.31 47.8832 117.032C48.3327 116.824 48.3672 116.339 48.3672 115.523V107.613C48.3672 106.833 48.3672 105.999 47.4352 105.86C47.2957 105.827 46.916 105.791 46.916 105.583C46.916 105.445 47.0181 105.375 47.5201 105.375C50.787 105.375 51.6851 105.445 52.4122 105.445C52.7566 105.445 54.3466 105.375 54.883 105.375C55.0218 105.375 55.0556 105.547 55.0556 105.757C55.0556 107.681 54.8132 107.821 54.7111 107.821C54.2948 107.821 54.5716 106.987 54.2948 106.589C53.8461 105.998 52.049 106.103 51.3572 106.103C49.6982 106.103 49.732 106.033 49.732 107.196V110.424Z" fill="white"/>
</g>
</g>
<g id="Clip path group_38">
<mask id="mask37_845_1787" style="mask-type:luminance" maskUnits="userSpaceOnUse" x="0" y="0" width="125" height="140">
<g id="SVGID_2__38">
<path id="Vector_75" d="M124.455 0.161865H0.455078V139.162H124.455V0.161865Z" fill="white"/>
</g>
</mask>
<g mask="url(#mask37_845_1787)">
<path id="Vector_76" d="M69.8925 115.767C71.1358 117.676 71.9851 117.033 71.9851 117.45C71.9851 117.658 71.0143 117.658 70.8611 117.658C69.5984 117.658 68.9253 116.773 68.2687 115.783L66.3473 112.748C65.7274 111.776 65.9863 111.83 64.0512 111.83C63.4974 111.83 63.6017 112.142 63.6017 112.315V115.975C63.6017 117.466 65.3995 116.929 65.3995 117.519C65.3995 117.692 65.2442 117.658 65.1054 117.658C64.9493 117.658 64.5524 117.588 63.1178 117.588C62.4619 117.588 61.8025 117.658 61.1474 117.658C61.0431 117.658 60.9748 117.571 60.9748 117.466C60.9748 117.032 62.2369 117.275 62.2369 115.957V107.128C62.2369 105.463 60.749 106.174 60.749 105.583C60.749 105.479 60.8878 105.375 61.0956 105.375C61.4077 105.375 61.32 105.445 62.2023 105.445C63.2048 105.445 64.1885 105.375 65.0881 105.375C65.3664 105.375 69.1841 105.029 69.1841 108.376C69.1841 109.729 68.217 110.891 67.0067 111.378L69.8925 115.767ZM63.601 110.997C63.601 111.325 64.6732 111.239 65.4858 111.239C66.2279 111.239 67.8883 110.927 67.8883 108.776C67.8883 106.659 66.2804 105.948 64.5869 105.948C63.9634 105.948 63.601 105.913 63.601 106.59V110.997Z" fill="white"/>
</g>
</g>
<g id="Clip path group_39">
<mask id="mask38_845_1787" style="mask-type:luminance" maskUnits="userSpaceOnUse" x="0" y="0" width="125" height="140">
<g id="SVGID_2__39">
<path id="Vector_77" d="M124.455 0.161865H0.455078V139.162H124.455V0.161865Z" fill="white"/>
</g>
</mask>
<g mask="url(#mask38_845_1787)">
<path id="Vector_78" d="M77.6594 106.868C77.6429 105.601 76.1572 105.949 76.1572 105.566C76.1572 105.41 76.2931 105.375 76.4334 105.375C77.0726 105.375 77.6954 105.445 78.334 105.445C78.8697 105.445 79.4047 105.375 79.9404 105.375C80.2346 105.375 80.2705 105.48 80.2705 105.548C80.2705 105.894 79.0236 105.565 79.0236 106.867V110.614C79.0236 110.856 79.0236 110.926 79.2846 110.926H85.6106C85.7839 110.926 85.7494 110.492 85.7494 110.423V106.867C85.7494 105.671 84.4514 105.965 84.4514 105.565C84.4514 105.462 84.4874 105.375 84.7455 105.375C85.3143 105.375 86.2147 105.445 86.5433 105.445C87.1826 105.445 87.4422 105.375 87.7866 105.375C88.2354 105.375 88.272 105.547 88.272 105.652C88.272 105.965 87.1135 105.67 87.1135 106.867V116.06C87.1135 117.328 88.6869 117.014 88.6869 117.449C88.6869 117.5 88.6172 117.656 88.4964 117.656C88.0311 117.656 87.4932 117.587 86.8726 117.587C85.7652 117.587 85.2805 117.656 84.9526 117.656C84.7973 117.656 84.5384 117.707 84.5384 117.431C84.5384 117.015 85.7494 117.259 85.7494 116.164V112.002C85.7494 111.724 85.817 111.569 85.6106 111.569H79.2328C79.0236 111.569 79.0236 111.672 79.0236 111.863V116.181C79.0236 117.361 80.6675 116.979 80.6675 117.518C80.6675 117.604 80.5452 117.655 80.3899 117.655C80.1655 117.655 78.9035 117.586 77.9881 117.586C76.7606 117.586 76.57 117.655 76.5024 117.655C76.3629 117.655 76.3111 117.57 76.3111 117.396C76.3111 116.893 77.6594 117.466 77.6594 115.749V106.868Z" fill="white"/>
</g>
</g>
<g id="Clip path group_40">
<mask id="mask39_845_1787" style="mask-type:luminance" maskUnits="userSpaceOnUse" x="0" y="0" width="125" height="140">
<g id="SVGID_2__40">
<path id="Vector_79" d="M124.455 0.161865H0.455078V139.162H124.455V0.161865Z" fill="white"/>
</g>
</mask>
<g mask="url(#mask39_845_1787)">
<path id="Vector_80" d="M101.813 113.511C101.641 113.113 101.536 112.852 101.051 112.852H97.2484C96.9219 112.852 96.6098 112.852 96.4372 113.217L95.3305 115.645C95.2787 115.767 95.2104 116.027 95.2104 116.253C95.2104 117.467 96.4372 116.946 96.4372 117.398C96.4372 117.709 96.1956 117.658 95.9705 117.658C95.488 117.658 95.0019 117.588 94.5186 117.588C94.0527 117.588 93.5852 117.658 93.1351 117.658C93.0308 117.658 92.9805 117.57 92.9805 117.466C92.9805 117.102 93.7923 117.397 94.2411 116.408L98.3716 107.56C99.3913 105.376 99.4438 105.097 99.6689 105.097C99.8594 105.097 99.9803 105.601 100.032 105.739L103.627 114.673C103.885 115.316 104.093 116.043 104.493 116.651C105.01 117.449 106.011 117.067 106.011 117.501C106.011 117.658 105.891 117.658 105.768 117.658C105.062 117.658 104.352 117.588 103.644 117.588C103.178 117.588 102.711 117.658 102.244 117.658C102.14 117.658 101.863 117.658 101.863 117.484C101.863 117.068 102.903 117.241 102.903 116.582C102.903 116.2 102.536 115.403 102.366 114.935L101.813 113.511ZM97.147 111.777C97.0269 112.02 97.147 112.09 97.3706 112.09H100.794C101.172 112.09 101.156 111.968 101.07 111.742L99.3755 107.562C99.2906 107.354 99.2029 107.354 99.0993 107.562L97.147 111.777Z" fill="white"/>
</g>
</g>
<g id="Clip path group_41">
<mask id="mask40_845_1787" style="mask-type:luminance" maskUnits="userSpaceOnUse" x="0" y="0" width="125" height="140">
<g id="SVGID_2__41">
<path id="Vector_81" d="M124.455 0.161865H0.455078V139.162H124.455V0.161865Z" fill="white"/>
</g>
</mask>
<g mask="url(#mask40_845_1787)">
<path id="Vector_82" d="M123.09 116.06C123.176 117.519 124.455 116.877 124.455 117.484C124.455 117.657 124.23 117.657 124.039 117.657C123.711 117.657 123.107 117.588 122.415 117.588C121.879 117.588 121.325 117.657 120.895 117.657C120.738 117.657 120.703 117.571 120.703 117.5C120.703 116.981 121.793 117.362 121.775 116.079L121.604 109.347C121.604 108.915 121.517 108.671 121.412 108.671C121.291 108.671 121.136 108.827 120.961 109.191L117.385 116.512C117.298 116.669 117.021 117.379 116.849 117.379C116.676 117.379 116.554 116.998 116.503 116.877L112.823 109.139C112.77 109.001 112.686 108.949 112.615 108.949C112.564 108.949 112.51 109.036 112.495 109.209L112.286 115.298C112.2 117.605 113.842 116.842 113.842 117.466C113.842 117.64 113.652 117.657 113.409 117.657C113.185 117.657 112.407 117.588 111.888 117.588C110.99 117.588 110.697 117.657 110.385 117.657C110.264 117.657 110.213 117.571 110.213 117.45C110.213 116.86 111.317 117.571 111.44 115.767C111.648 112.938 111.854 111.099 111.854 109.261C111.854 105.185 110.213 106.156 110.213 105.566C110.213 105.409 110.349 105.376 110.506 105.376C110.818 105.376 111.128 105.446 111.456 105.446C111.768 105.446 112.078 105.376 112.389 105.376C112.632 105.376 112.666 105.671 112.752 105.861L116.868 114.673C117.058 115.037 117.126 115.194 117.246 115.194C117.333 115.194 117.505 114.829 117.782 114.257L121.896 105.967C122.001 105.774 122.137 105.357 122.346 105.377C122.519 105.377 123.071 105.446 123.158 105.446C123.556 105.446 123.711 105.377 123.986 105.377C124.091 105.377 124.16 105.48 124.16 105.584C124.16 106.139 122.778 105.393 122.846 107.458L123.09 116.06Z" fill="white"/>
</g>
</g>
<g id="Clip path group_42">
<mask id="mask41_845_1787" style="mask-type:luminance" maskUnits="userSpaceOnUse" x="0" y="0" width="125" height="140">
<g id="SVGID_2__42">
<path id="Vector_83" d="M124.455 0.161865H0.455078V139.162H124.455V0.161865Z" fill="white"/>
</g>
</mask>
<g mask="url(#mask41_845_1787)">
<path id="Vector_84" d="M18.2181 135.97C18.1513 135.623 18.2361 135.432 18.4101 135.432C18.6503 135.432 18.6503 135.641 18.7381 136.005C18.9459 136.803 19.9821 138.607 22.3681 138.607C24.0098 138.607 25.617 137.688 25.617 135.866C25.617 132.518 18.5993 134.391 18.5993 129.864C18.5993 127.661 20.4488 126.603 22.4364 126.603C24.5297 126.603 25.0986 127.227 25.3416 127.227C25.4955 127.227 25.53 127.036 25.704 127.036C25.8076 127.036 25.8932 127.088 25.9104 127.279L26.17 129.638C26.1866 129.777 26.1528 129.899 25.9802 129.899C25.7896 129.899 25.6688 129.533 25.617 129.378C25.0986 127.886 23.8358 127.123 22.3156 127.123C20.9493 127.123 19.4989 127.782 19.4989 129.378C19.4989 132.639 26.5166 130.731 26.5166 135.518C26.5166 136.976 25.4955 139.161 21.5721 139.161C20.2935 139.161 18.7215 138.519 18.6503 138.208L18.2181 135.97Z" fill="white"/>
</g>
</g>
<g id="Clip path group_43">
<mask id="mask42_845_1787" style="mask-type:luminance" maskUnits="userSpaceOnUse" x="0" y="0" width="125" height="140">
<g id="SVGID_2__43">
<path id="Vector_85" d="M124.455 0.161865H0.455078V139.162H124.455V0.161865Z" fill="white"/>
</g>
</mask>
<g mask="url(#mask42_845_1787)">
<path id="Vector_86" d="M37.3364 126.603C40.5846 126.603 41.4828 127.94 41.984 127.94C42.1235 127.94 42.2271 127.765 42.4004 127.765C42.5902 127.765 42.5902 128.044 42.642 129.171C42.6772 130.089 42.8326 130.662 42.5385 130.662C42.3306 130.662 42.2105 130.211 42.1401 130.089C41.0686 128.234 39.8418 127.106 37.6119 127.106C34.2414 127.106 32.6169 129.362 32.6169 132.588C32.6169 135.607 34.3457 138.625 37.6636 138.625C40.379 138.625 42.071 136.891 42.3306 136.092C42.3637 135.97 42.4694 135.867 42.5737 135.867C42.6585 135.867 42.7448 135.97 42.729 136.058L42.3306 137.792C42.3134 137.862 41.0866 139.162 37.1976 139.162C33.6539 139.162 31.1133 136.717 31.1133 133.125C31.1133 129.535 33.6877 126.603 37.3364 126.603Z" fill="white"/>
</g>
</g>
<g id="Clip path group_44">
<mask id="mask43_845_1787" style="mask-type:luminance" maskUnits="userSpaceOnUse" x="0" y="0" width="125" height="140">
<g id="SVGID_2__44">
<path id="Vector_87" d="M124.455 0.161865H0.455078V139.162H124.455V0.161865Z" fill="white"/>
</g>
</mask>
<g mask="url(#mask43_845_1787)">
<path id="Vector_88" d="M48.5708 128.251C48.5528 126.984 47.0664 127.332 47.0664 126.951C47.0664 126.793 47.2059 126.759 47.344 126.759C47.9833 126.759 48.6053 126.829 49.2453 126.829C49.781 126.829 50.3161 126.759 50.8525 126.759C51.1473 126.759 51.1797 126.863 51.1797 126.932C51.1797 127.279 49.9364 126.95 49.9364 128.25V131.997C49.9364 132.24 49.9364 132.31 50.196 132.31H56.5227C56.6953 132.31 56.6593 131.876 56.6593 131.807V128.25C56.6593 127.053 55.3642 127.348 55.3642 126.95C55.3642 126.844 55.3994 126.758 55.659 126.758C56.2278 126.758 57.126 126.828 57.4561 126.828C58.0946 126.828 58.3542 126.758 58.7001 126.758C59.1488 126.758 59.1834 126.931 59.1834 127.036C59.1834 127.348 58.0249 127.052 58.0249 128.25V137.444C58.0249 138.71 59.599 138.399 59.599 138.833C59.599 138.884 59.5293 139.04 59.4084 139.04C58.9425 139.04 58.4053 138.971 57.7833 138.971C56.6773 138.971 56.1933 139.04 55.8647 139.04C55.7101 139.04 55.4505 139.091 55.4505 138.815C55.4505 138.4 56.6593 138.642 56.6593 137.548V133.385C56.6593 133.108 56.7298 132.952 56.5227 132.952H50.1435C49.9364 132.952 49.9364 133.055 49.9364 133.245V137.565C49.9364 138.745 51.5781 138.362 51.5781 138.901C51.5781 138.988 51.4587 139.039 51.3019 139.039C51.0769 139.039 49.8156 138.97 48.9001 138.97C47.6726 138.97 47.4813 139.039 47.413 139.039C47.2749 139.039 47.2232 138.953 47.2232 138.78C47.2232 138.276 48.5708 138.85 48.5708 137.131V128.251Z" fill="white"/>
</g>
</g>
<g id="Clip path group_45">
<mask id="mask44_845_1787" style="mask-type:luminance" maskUnits="userSpaceOnUse" x="0" y="0" width="125" height="140">
<g id="SVGID_2__45">
<path id="Vector_89" d="M124.455 0.161865H0.455078V139.162H124.455V0.161865Z" fill="white"/>
</g>
</mask>
<g mask="url(#mask44_845_1787)">
<path id="Vector_90" d="M63.9541 132.831C63.9541 129.223 66.7536 126.603 70.2966 126.603C73.8231 126.603 76.5385 129.154 76.5385 132.744C76.5385 136.647 73.8569 139.163 70.0032 139.163C66.2516 139.162 63.9541 136.491 63.9541 132.831ZM65.2161 132.327C65.2161 135.536 67.308 138.641 70.7295 138.641C73.2536 138.641 75.2772 136.612 75.2772 133.402C75.2772 130.245 73.1493 127.174 69.7796 127.174C66.8737 127.175 65.2161 129.587 65.2161 132.327Z" fill="white"/>
</g>
</g>
<g id="Clip path group_46">
<mask id="mask45_845_1787" style="mask-type:luminance" maskUnits="userSpaceOnUse" x="0" y="0" width="125" height="140">
<g id="SVGID_2__46">
<path id="Vector_91" d="M124.455 0.161865H0.455078V139.162H124.455V0.161865Z" fill="white"/>
</g>
</mask>
<g mask="url(#mask45_845_1787)">
<path id="Vector_92" d="M80.8584 132.831C80.8584 129.223 83.6586 126.603 87.2024 126.603C90.7274 126.603 93.4421 129.154 93.4421 132.744C93.4421 136.647 90.7641 139.163 86.9083 139.163C83.1581 139.162 80.8584 136.491 80.8584 132.831ZM82.1197 132.327C82.1197 135.536 84.2109 138.641 87.6331 138.641C90.1579 138.641 92.1793 136.612 92.1793 133.402C92.1793 130.245 90.0536 127.174 86.6817 127.174C83.7794 127.175 82.1197 129.587 82.1197 132.327Z" fill="white"/>
</g>
</g>
<g id="Clip path group_47">
<mask id="mask46_845_1787" style="mask-type:luminance" maskUnits="userSpaceOnUse" x="0" y="0" width="125" height="140">
<g id="SVGID_2__47">
<path id="Vector_93" d="M124.455 0.161865H0.455078V139.162H124.455V0.161865Z" fill="white"/>
</g>
</mask>
<g mask="url(#mask46_845_1787)">
<path id="Vector_94" d="M100.459 136.907C100.459 137.931 100.322 138.346 101.773 138.346C105.765 138.346 106.353 136.561 106.578 136.561C106.699 136.561 106.716 136.733 106.716 136.768C106.716 137.392 106.266 138 105.852 138.45C105.299 139.075 104.919 139.04 104.158 139.04C102.843 139.04 101.532 138.935 100.218 138.971C99.5262 138.988 98.8006 139.04 98.1088 139.04C97.9513 139.04 97.8492 139.006 97.8492 138.867C97.8845 138.658 98.0578 138.694 98.61 138.416C99.0602 138.208 99.0947 137.722 99.0947 136.907V128.111C99.0947 127.21 97.6436 127.33 97.6436 126.984C97.6436 126.792 97.7629 126.759 97.988 126.759C98.3526 126.759 98.8869 126.828 99.7362 126.828C100.721 126.828 101.135 126.759 101.394 126.759C101.619 126.759 101.722 126.792 101.722 127.002C101.722 127.401 100.46 126.966 100.46 128.476V136.907H100.459Z" fill="white"/>
</g>
</g>
<g id="Clip path group_48">
<mask id="mask47_845_1787" style="mask-type:luminance" maskUnits="userSpaceOnUse" x="0" y="0" width="125" height="140">
<g id="SVGID_2__48">
<path id="Vector_95" d="M124.455 0.161865H0.455078V139.162H124.455V0.161865Z" fill="white"/>
</g>
</mask>
<g mask="url(#mask47_845_1787)">
<path id="Vector_96" d="M28.3021 63.5905C28.1497 63.6114 28.1073 63.6056 28.0763 63.5537C28.0483 63.5067 28.0677 63.4317 28.2137 63.2289L30.2416 60.4229C30.3768 60.2338 30.389 60.1371 30.3207 59.9162C30.3171 59.8996 30.3084 59.8217 30.3415 59.8022C30.4544 59.7343 30.5033 59.9025 30.545 59.9725C30.6378 60.1277 30.7147 60.2987 30.8097 60.4582C30.9887 60.7592 31.0894 60.884 31.134 60.9591C31.2239 61.1092 31.2426 61.1294 31.1627 61.1771C31.0362 61.2536 30.9384 60.9295 30.7413 61.0479C30.6011 61.1323 30.417 61.325 30.202 61.6144L29.0579 63.13C29.0335 63.1639 28.9824 63.2267 28.9989 63.2549C29.0155 63.283 29.0924 63.2628 29.1334 63.257L30.9413 63.0456C31.3389 62.9979 31.5086 62.9084 31.5834 62.8637C32.0235 62.5996 31.5676 62.2293 31.7316 62.1312C31.82 62.077 31.8876 62.2214 31.9214 62.2784C32.0027 62.4148 32.0623 62.5577 32.1436 62.6941C32.222 62.8254 32.3191 62.946 32.3974 63.0766C32.4564 63.1748 32.5096 63.2325 32.4298 63.2801C32.3219 63.3451 32.2306 63.1387 31.879 63.1776L28.3021 63.5905Z" fill="black"/>
</g>
</g>
<g id="Clip path group_49">
<mask id="mask48_845_1787" style="mask-type:luminance" maskUnits="userSpaceOnUse" x="0" y="0" width="125" height="140">
<g id="SVGID_2__49">
<path id="Vector_97" d="M124.455 0.161865H0.455078V139.162H124.455V0.161865Z" fill="white"/>
</g>
</mask>
<g mask="url(#mask48_845_1787)">
<path id="Vector_98" d="M32.5995 65.7939C32.4104 65.9331 32.3795 65.9562 32.5182 66.1461L32.7218 66.4239C32.9993 66.8035 33.4135 66.5192 33.4783 66.6072C33.5013 66.6383 33.5451 66.6801 33.4294 66.7718L32.6693 67.3795C32.6153 67.4264 32.4758 67.5693 32.3989 67.4632C32.2953 67.3224 32.8519 67.1023 32.5161 66.6426L32.2773 66.3164C32.1292 66.1129 32.0897 66.1699 31.8344 66.3575L31.2713 66.7725C30.9981 66.9731 30.8269 67.0727 31.0592 67.3903C31.8603 68.4851 32.391 67.9987 32.5139 68.1668C32.5269 68.1842 32.5362 68.2253 32.4521 68.2867C32.1091 68.5393 31.5582 68.5443 31.2936 68.1813C30.8025 67.5108 30.6263 67.2329 30.4652 67.0121C30.3652 66.8757 30.2121 66.7032 30.0345 66.4607C29.992 66.403 29.9949 66.3604 30.0215 66.3409C30.2236 66.1915 30.2315 66.7025 30.7679 66.307L32.8275 64.7907C33.223 64.4991 32.7174 64.1036 32.8936 63.9744C32.9332 63.9455 32.9943 63.9549 33.0396 64.0163C33.1719 64.1974 33.3862 64.528 33.8802 65.2035C34.1096 65.5167 34.3498 65.8083 34.6339 66.1973C34.6763 66.255 34.6547 66.3178 34.6152 66.3474L34.1923 66.6859C34.1384 66.7328 34.0097 66.8613 33.9349 66.7602C33.7832 66.5524 34.5497 66.5177 33.927 65.6654C33.5365 65.1313 33.5192 65.1169 33.2151 65.3399L32.5995 65.7939Z" fill="black"/>
</g>
</g>
<g id="Clip path group_50">
<mask id="mask49_845_1787" style="mask-type:luminance" maskUnits="userSpaceOnUse" x="0" y="0" width="125" height="140">
<g id="SVGID_2__50">
<path id="Vector_99" d="M124.455 0.161865H0.455078V139.162H124.455V0.161865Z" fill="white"/>
</g>
</mask>
<g mask="url(#mask49_845_1787)">
<path id="Vector_100" d="M35.1661 67.9834C35.6285 67.5822 35.0877 67.2632 35.2359 67.134C35.2776 67.0986 35.3337 67.1217 35.3768 67.1722C35.54 67.362 35.5523 67.4097 35.7766 67.6709C36.0154 67.9481 36.2735 68.2158 36.5123 68.4937C37.2925 69.4016 36.7812 69.9891 36.5914 70.1529C36.3275 70.3817 36.0707 70.394 35.8687 70.36C35.6709 70.3218 35.53 70.2345 35.4883 70.2698C35.4638 70.2915 35.1675 71.1626 34.9036 71.9124C34.8698 72.007 34.9374 72.0857 34.9662 72.1189C35.0014 72.16 35.0626 72.1802 35.0978 72.2213C35.1294 72.2596 35.1258 72.3051 35.0935 72.3339C34.9655 72.4451 34.6397 72.2502 34.4966 72.0842C34.2154 71.7566 34.3614 71.3986 34.4909 71.0623L34.8439 70.1479C34.9439 69.8953 34.9173 69.7884 34.739 69.5813C34.5505 69.3612 34.5426 69.4117 34.3981 69.5366L33.6833 70.1558C33.2418 70.5383 33.7638 70.8024 33.615 70.9309C33.5783 70.9627 33.5244 70.9511 33.4431 70.8559C33.382 70.7851 33.3029 70.6588 33.1526 70.4849C32.9606 70.2604 32.7657 70.0685 32.5881 69.8613C32.5485 69.8159 32.4615 69.7394 32.5442 69.6679C32.6766 69.5532 32.829 70.0071 33.3489 69.556L35.1661 67.9834ZM34.8648 69.1331C34.762 69.2226 34.8936 69.3756 35 69.5005C35.5415 70.1305 35.7939 69.9544 36.0377 69.7437C36.4425 69.3929 36.5489 68.8957 36.1894 68.4771C36.0571 68.3241 35.9471 68.1949 35.699 68.41L34.8648 69.1331Z" fill="black"/>
</g>
</g>
<g id="Clip path group_51">
<mask id="mask50_845_1787" style="mask-type:luminance" maskUnits="userSpaceOnUse" x="0" y="0" width="125" height="140">
<g id="SVGID_2__51">
<path id="Vector_101" d="M124.455 0.161865H0.455078V139.162H124.455V0.161865Z" fill="white"/>
</g>
</mask>
<g mask="url(#mask50_845_1787)">
<path id="Vector_102" d="M36.8711 73.5992C36.3907 74.0698 36.9969 74.3325 36.8718 74.4552C36.8294 74.4978 36.779 74.4776 36.6913 74.3874C36.5504 74.243 36.4252 74.0828 36.1282 73.7768C35.965 73.6079 35.7859 73.4549 35.6867 73.3524C35.6522 73.3163 35.6723 73.2824 35.6917 73.2636C35.8276 73.1294 36.001 73.5119 36.3713 73.1482L38.246 71.3121C38.6012 70.9635 38.0612 70.6279 38.1985 70.4944C38.2647 70.4288 38.3481 70.5384 38.3819 70.5731C38.5308 70.7261 38.6638 70.8943 38.7968 71.0328C38.9335 71.1728 39.0866 71.2984 39.3031 71.5221C39.4174 71.6398 39.4289 71.6672 39.3822 71.7127C39.2492 71.8426 39.1046 71.4117 38.7336 71.7747L36.8711 73.5992Z" fill="black"/>
</g>
</g>
<g id="Clip path group_52">
<mask id="mask51_845_1787" style="mask-type:luminance" maskUnits="userSpaceOnUse" x="0" y="0" width="125" height="140">
<g id="SVGID_2__52">
<path id="Vector_103" d="M124.455 0.161865H0.455078V139.162H124.455V0.161865Z" fill="white"/>
</g>
</mask>
<g mask="url(#mask51_845_1787)">
<path id="Vector_104" d="M40.8062 73.8279C40.9831 73.6324 40.9608 73.5761 40.7954 73.4245L40.4567 73.1149C40.0015 72.6985 39.6398 73.3386 39.4585 73.1733C39.3744 73.0954 39.4794 73.0283 39.5348 72.9835L40.0856 72.5079C40.1259 72.4711 40.1777 72.4148 40.2381 72.4682C40.6127 72.8118 40.8687 73.0752 41.4569 73.6129C42.0459 74.1513 42.3307 74.3822 42.7053 74.7265C42.7657 74.7813 42.7147 74.8383 42.6816 74.8831L42.3875 75.2952C42.3515 75.3508 42.2523 75.55 42.1473 75.4547C41.9862 75.3067 42.5234 74.9755 42.0452 74.5677L41.7029 74.2545C41.5375 74.1029 41.4785 74.0863 41.3016 74.2805L39.639 76.1093C39.1867 76.6065 39.8095 76.9623 39.7059 77.0749C39.6182 77.1724 39.5484 77.0865 39.4312 76.9789C39.2701 76.8317 39.1515 76.6931 38.8818 76.447C38.6114 76.1995 38.464 76.0949 38.3022 75.9469C38.2303 75.8805 38.1577 75.822 38.2389 75.7333C38.382 75.5752 38.6611 76.1858 39.099 75.7044L40.8062 73.8279Z" fill="black"/>
</g>
</g>
<g id="Clip path group_53">
<mask id="mask52_845_1787" style="mask-type:luminance" maskUnits="userSpaceOnUse" x="0" y="0" width="125" height="140">
<g id="SVGID_2__53">
<path id="Vector_105" d="M124.455 0.161865H0.455078V139.162H124.455V0.161865Z" fill="white"/>
</g>
</mask>
<g mask="url(#mask52_845_1787)">
<path id="Vector_106" d="M42.4054 77.7578C42.3327 77.6993 42.2292 77.6452 41.9063 77.848C41.8085 77.9101 41.6294 78.0118 41.5482 78.115C41.3022 78.4225 41.8164 78.7234 41.7244 78.8389C41.6524 78.9291 41.5446 78.7927 41.4554 78.7205C41.3195 78.6116 41.2052 78.4918 41.0685 78.3828C40.9412 78.2789 40.8039 78.1966 40.6809 78.0977C40.6212 78.0493 40.5465 78.0039 40.5903 77.9476C40.6687 77.8494 40.8657 78.0493 41.1627 77.8956L44.3793 76.235C44.4634 76.1909 44.5497 76.1274 44.6051 76.1707C44.6432 76.2018 44.6447 76.2169 44.5979 76.3901L43.6609 79.9316C43.5552 80.3444 43.9176 80.3624 43.8055 80.5039C43.7472 80.5775 43.7156 80.5371 43.6012 80.4447C43.4481 80.322 43.3467 80.2123 43.0655 79.9864C42.8785 79.8356 42.7074 79.7266 42.5837 79.627C42.5067 79.5657 42.4449 79.5296 42.4924 79.4697C42.5916 79.3455 42.8562 79.635 43.0641 79.3751C43.1396 79.2799 43.1705 79.1795 43.2158 79.0265C43.3416 78.5798 43.3546 78.5199 43.2431 78.4311L42.4054 77.7578ZM43.2956 78.0948C43.3726 78.1562 43.4286 78.2088 43.4624 78.1663C43.5099 78.1056 43.5221 78.0385 43.5415 77.9707L43.8098 76.9163C43.8112 76.8614 43.8241 76.8715 43.8033 76.8542C43.7947 76.8462 43.7745 76.8383 43.7156 76.8679L42.7843 77.3623C42.7218 77.3962 42.6592 77.4229 42.611 77.4828C42.5772 77.5254 42.6398 77.5687 42.7167 77.63L43.2956 78.0948Z" fill="black"/>
</g>
</g>
<g id="Clip path group_54">
<mask id="mask53_845_1787" style="mask-type:luminance" maskUnits="userSpaceOnUse" x="0" y="0" width="125" height="140">
<g id="SVGID_2__54">
<path id="Vector_107" d="M124.455 0.161865H0.455078V139.162H124.455V0.161865Z" fill="white"/>
</g>
</mask>
<g mask="url(#mask53_845_1787)">
<path id="Vector_108" d="M45.2777 80.278C45.3079 80.2051 45.3547 80.0442 45.4661 80.1228C45.5373 80.1726 45.5179 80.2195 45.4956 80.2896C45.3374 80.8207 45.3288 81.4241 45.8235 81.7734C46.1716 82.0181 46.5901 81.9914 46.841 81.6327C47.1078 81.2516 46.8669 80.9954 46.3715 80.1712C46.1068 79.7317 45.9659 79.3715 46.2945 78.9003C46.6555 78.3842 47.2754 78.2586 47.7982 78.626C48.1635 78.8829 48.2289 79.1911 48.3627 79.2849C48.4209 79.3261 48.5827 79.3318 48.641 79.373C48.7071 79.4199 48.6474 79.4783 48.5842 79.588L48.2131 80.2232C48.1527 80.3285 48.1016 80.3725 48.0038 80.3033C47.901 80.2304 48.4173 79.3499 47.6493 78.81C47.3552 78.6022 47.0352 78.6318 46.8252 78.932C46.6153 79.2322 46.8195 79.4632 47.2322 80.1495C47.563 80.6966 47.7227 81.0964 47.3243 81.6659C46.9137 82.2533 46.2241 82.3638 45.6394 81.9517C45.3676 81.7604 45.2144 81.4927 44.9965 81.2523C44.9038 81.1469 44.9333 81.1145 44.9865 80.9911L45.2777 80.278Z" fill="black"/>
</g>
</g>
<g id="Clip path group_55">
<mask id="mask54_845_1787" style="mask-type:luminance" maskUnits="userSpaceOnUse" x="0" y="0" width="125" height="140">
<g id="SVGID_2__55">
<path id="Vector_109" d="M124.455 0.161865H0.455078V139.162H124.455V0.161865Z" fill="white"/>
</g>
</mask>
<g mask="url(#mask54_845_1787)">
<path id="Vector_110" d="M77.8601 78.5862C77.7055 78.3747 77.6451 78.3855 77.4646 78.5169L77.0943 78.789C76.5981 79.1549 77.1518 79.6363 76.9547 79.7813C76.8627 79.8492 76.8181 79.733 76.7843 79.6687L76.4291 79.0343C76.401 78.9874 76.3557 78.9261 76.4219 78.877C76.8311 78.5761 77.1388 78.3776 77.781 77.9049C78.4239 77.4329 78.7051 77.1983 79.1142 76.8966C79.1797 76.849 79.2257 76.9111 79.2616 76.9508L79.6068 77.3217C79.6543 77.3679 79.8297 77.505 79.714 77.5887C79.5385 77.7187 79.3206 77.1247 78.8273 77.5144L78.4541 77.7894C78.2736 77.9215 78.2455 77.9763 78.4009 78.1885L79.8592 80.184C80.2569 80.7282 80.7265 80.1848 80.8164 80.3089C80.8933 80.4143 80.7962 80.4669 80.6689 80.5608C80.4928 80.69 80.3346 80.7787 80.0397 80.996C79.7449 81.2132 79.6126 81.3373 79.4371 81.4665C79.358 81.5243 79.2861 81.5842 79.2149 81.4867C79.0883 81.315 79.7406 81.1605 79.3566 80.6351L77.8601 78.5862Z" fill="black"/>
</g>
</g>
<g id="Clip path group_56">
<mask id="mask55_845_1787" style="mask-type:luminance" maskUnits="userSpaceOnUse" x="0" y="0" width="125" height="140">
<g id="SVGID_2__56">
<path id="Vector_111" d="M124.455 0.161865H0.455078V139.162H124.455V0.161865Z" fill="white"/>
</g>
</mask>
<g mask="url(#mask55_845_1787)">
<path id="Vector_112" d="M83.1025 77.7506C83.5311 78.2702 83.841 77.6849 83.9532 77.8206C83.9913 77.8661 83.9676 77.9151 83.8713 77.9953C83.7152 78.1244 83.5462 78.2363 83.219 78.5091C83.0385 78.6592 82.8717 78.8252 82.7624 78.9162C82.725 78.9479 82.6912 78.9248 82.6747 78.9039C82.5524 78.7559 82.9458 78.6145 82.615 78.2139L80.943 76.1888C80.6259 75.8049 80.2491 76.318 80.1269 76.17C80.0679 76.0986 80.183 76.0235 80.2211 75.9918C80.3843 75.8561 80.5626 75.7363 80.7093 75.6143C80.8603 75.4887 80.9977 75.3466 81.2372 75.1481C81.363 75.0427 81.3911 75.0348 81.432 75.0853C81.5507 75.2282 81.1106 75.3386 81.4421 75.7392L83.1025 77.7506Z" fill="black"/>
</g>
</g>
<g id="Clip path group_57">
<mask id="mask56_845_1787" style="mask-type:luminance" maskUnits="userSpaceOnUse" x="0" y="0" width="125" height="140">
<g id="SVGID_2__57">
<path id="Vector_113" d="M124.455 0.161865H0.455078V139.162H124.455V0.161865Z" fill="white"/>
</g>
</mask>
<g mask="url(#mask56_845_1787)">
<path id="Vector_114" d="M84.9161 75.8574C85.5367 76.5581 85.7524 75.9129 85.907 76.0753C85.9221 76.0905 85.9818 76.1222 85.8725 76.229C85.7301 76.3647 85.6323 76.4282 85.4504 76.6022C85.2562 76.7876 85.134 76.9349 85.075 76.9919C85.0153 77.0482 84.97 77.033 84.947 77.0078C84.8111 76.8656 85.2296 76.6548 84.8499 76.224L83.3901 74.5778C82.7926 73.9015 82.5473 74.4911 82.3812 74.3172C82.3589 74.2941 82.3481 74.2429 82.3762 74.2176C82.4272 74.1685 82.5013 74.1274 82.6286 74.0069C82.7192 73.9195 82.8501 73.7644 82.9802 73.6388C83.0241 73.5962 83.0593 73.5551 83.2283 73.6215L85.9049 74.6932C85.9545 74.7134 85.9933 74.73 86.017 74.7077C86.04 74.6853 86.007 74.5792 86.0005 74.564L85.0937 71.7703C85.0786 71.7306 85.0419 71.6678 85.1167 71.5978C85.2116 71.5069 85.3015 71.4506 85.3612 71.3943C85.4317 71.3264 85.4921 71.2391 85.6028 71.133C85.7085 71.0305 85.7315 71.0385 85.7625 71.0702C85.8977 71.2124 85.3641 71.4282 85.8128 71.8692L87.5487 73.5601C88.0622 74.0603 88.2592 73.5392 88.3994 73.6857C88.4634 73.7536 88.4131 73.8019 88.2736 73.9347C88.1593 74.0437 88.0334 74.1332 87.9191 74.2436C87.6631 74.489 87.5825 74.5951 87.4919 74.6824C87.4092 74.7611 87.3215 74.8679 87.2539 74.7957C87.1259 74.6608 87.5581 74.4976 87.1165 74.0805L85.9149 72.9373C85.7984 72.8218 85.738 72.7655 85.7143 72.7886C85.6992 72.8038 85.7265 72.9272 85.7919 73.1148L86.5334 75.394C86.5585 75.4691 86.5995 75.5427 86.5362 75.6033C86.4765 75.6596 86.3931 75.6112 86.332 75.5874L83.9424 74.611C83.9079 74.5987 83.8504 74.5705 83.8353 74.5857C83.8079 74.6117 83.8755 74.6838 83.9021 74.7105L84.9161 75.8574Z" fill="black"/>
</g>
</g>
<g id="Clip path group_58">
<mask id="mask57_845_1787" style="mask-type:luminance" maskUnits="userSpaceOnUse" x="0" y="0" width="125" height="140">
<g id="SVGID_2__58">
<path id="Vector_115" d="M124.455 0.161865H0.455078V139.162H124.455V0.161865Z" fill="white"/>
</g>
</mask>
<g mask="url(#mask57_845_1787)">
<path id="Vector_116" d="M87.6213 68.8127C88.3152 68.0043 89.3802 67.8585 90.2489 68.6257C90.8235 69.1324 91.6088 70.2698 90.4596 71.5811C89.7362 72.4082 88.6964 72.4732 87.8651 71.7399C86.9669 70.946 86.7684 69.8021 87.6213 68.8127ZM90.3877 71.3062C90.9946 70.5881 90.6473 69.8736 89.9663 69.2724C89.0602 68.4727 88.1455 68.5543 87.6889 69.092C87.0928 69.7971 87.4782 70.5022 88.0729 71.0269C88.6726 71.5544 89.7563 72.0524 90.3877 71.3062Z" fill="black"/>
</g>
</g>
<g id="Clip path group_59">
<mask id="mask58_845_1787" style="mask-type:luminance" maskUnits="userSpaceOnUse" x="0" y="0" width="125" height="140">
<g id="SVGID_2__59">
<path id="Vector_117" d="M124.455 0.161865H0.455078V139.162H124.455V0.161865Z" fill="white"/>
</g>
</mask>
<g mask="url(#mask58_845_1787)">
<path id="Vector_118" d="M90.2798 66.7755C89.7879 66.4117 89.5981 67.0129 89.4399 66.896C89.396 66.8635 89.4061 66.8029 89.4449 66.7502C89.5938 66.5474 89.6384 66.525 89.8404 66.2479C90.0583 65.952 90.2597 65.6395 90.4768 65.3436C91.1844 64.3772 91.869 64.7467 92.0718 64.8961C92.353 65.104 92.4213 65.3515 92.4335 65.5572C92.4407 65.76 92.3861 65.9174 92.4299 65.9498C92.4565 65.9686 93.3684 66.0646 94.1544 66.1562C94.2543 66.1685 94.3162 66.0848 94.342 66.0494C94.3744 66.0047 94.3802 65.9412 94.4125 65.8971C94.4413 65.8575 94.4873 65.851 94.5225 65.8769C94.6577 65.9773 94.5412 66.3396 94.4125 66.5164C94.1572 66.865 93.7768 66.8015 93.4223 66.7495L92.4558 66.6073C92.1883 66.5662 92.0898 66.6167 91.9287 66.8368C91.7576 67.0707 91.8072 67.067 91.9618 67.1804L92.7226 67.7418C93.1915 68.089 93.3324 67.5196 93.4899 67.6365C93.5294 67.6653 93.5309 67.7202 93.4554 67.822C93.4007 67.897 93.2957 68.0031 93.1598 68.1886C92.9851 68.426 92.842 68.6599 92.6795 68.88C92.6442 68.9283 92.5896 69.0308 92.5018 68.9659C92.3609 68.8619 92.7679 68.6122 92.2149 68.203L90.2798 66.7755ZM91.4649 66.8144C91.5742 66.8953 91.6936 66.7329 91.7906 66.6001C92.2832 65.9296 92.0553 65.7218 91.7971 65.5298C91.3657 65.2122 90.8594 65.2187 90.5336 65.6648C90.4143 65.8279 90.3129 65.9643 90.5775 66.1591L91.4649 66.8144Z" fill="black"/>
</g>
</g>
<g id="Clip path group_60">
<mask id="mask59_845_1787" style="mask-type:luminance" maskUnits="userSpaceOnUse" x="0" y="0" width="125" height="140">
<g id="SVGID_2__60">
<path id="Vector_119" d="M124.455 0.161865H0.455078V139.162H124.455V0.161865Z" fill="white"/>
</g>
</mask>
<g mask="url(#mask59_845_1787)">
<path id="Vector_120" d="M93.9374 62.7157C94.138 62.8377 94.1711 62.8572 94.2919 62.6558L94.4695 62.3613C94.7126 61.9586 94.2912 61.6836 94.348 61.5905C94.3667 61.5573 94.3897 61.5003 94.5177 61.5725L95.3691 62.0445C95.4324 62.077 95.6172 62.1506 95.5496 62.2632C95.4597 62.4126 95.0441 61.981 94.75 62.4674L94.5414 62.8146C94.412 63.0296 94.4789 63.0448 94.75 63.2093L95.3475 63.5724C95.6366 63.7485 95.7934 63.869 95.9969 63.532C96.6966 62.3714 96.0444 62.0654 96.1522 61.8872C96.1637 61.8684 96.1968 61.8446 96.286 61.898C96.6513 62.1196 96.8677 62.6284 96.6355 63.013C96.2069 63.7239 96.0192 63.9931 95.8775 64.2277C95.7905 64.3727 95.6906 64.5806 95.5345 64.8375C95.4978 64.8982 95.4576 64.9126 95.4295 64.8953C95.2145 64.7646 95.6812 64.5626 95.1117 64.2161L92.9263 62.8889C92.5063 62.6334 92.3381 63.2527 92.1504 63.1393C92.108 63.1141 92.0943 63.0535 92.1338 62.9885C92.2496 62.7965 92.4711 62.471 92.9033 61.7551C93.1025 61.4224 93.2787 61.0882 93.5268 60.6761C93.5642 60.6155 93.631 60.6105 93.672 60.6364L94.1452 60.8984C94.2092 60.9309 94.3775 61.0009 94.312 61.1084C94.179 61.3286 93.8525 60.6314 93.3082 61.535C92.9666 62.1015 92.9601 62.1232 93.2823 62.3188L93.9374 62.7157Z" fill="black"/>
</g>
</g>
<g id="Clip path group_61">
<mask id="mask60_845_1787" style="mask-type:luminance" maskUnits="userSpaceOnUse" x="0" y="0" width="125" height="140">
<g id="SVGID_2__61">
<path id="Vector_121" d="M124.455 0.161865H0.455078V139.162H124.455V0.161865Z" fill="white"/>
</g>
</mask>
<g mask="url(#mask60_845_1787)">
<path id="Vector_122" d="M54.915 86.224C54.928 86.1475 54.9359 85.9786 55.0625 86.0292C55.1437 86.0616 55.1358 86.1107 55.1293 86.1858C55.0984 86.7393 55.2293 87.3275 55.7923 87.5513C56.1879 87.7093 56.5891 87.5866 56.7502 87.1788C56.9213 86.7458 56.628 86.5531 55.9549 85.8668C55.5953 85.4994 55.3745 85.1819 55.586 84.6478C55.8175 84.0625 56.3921 83.7962 56.9853 84.0329C57.401 84.1989 57.5355 84.4818 57.6879 84.5424C57.7534 84.5684 57.9123 84.5381 57.9784 84.5641C58.0539 84.5944 58.0086 84.6644 57.9727 84.7856L57.7591 85.4908C57.7246 85.6062 57.685 85.6611 57.5736 85.6171C57.4571 85.5709 57.7555 84.5937 56.8832 84.2458C56.5488 84.113 56.2439 84.2155 56.1095 84.5569C55.9743 84.8982 56.2274 85.0758 56.7876 85.6459C57.2356 86.1013 57.4837 86.4542 57.2277 87.1002C56.9645 87.7663 56.3187 88.0341 55.6543 87.7692C55.3451 87.6458 55.1351 87.4213 54.8669 87.238C54.7525 87.1572 54.7734 87.1182 54.7964 86.9847L54.915 86.224Z" fill="black"/>
</g>
</g>
<g id="Clip path group_62">
<mask id="mask61_845_1787" style="mask-type:luminance" maskUnits="userSpaceOnUse" x="0" y="0" width="125" height="140">
<g id="SVGID_2__62">
<path id="Vector_123" d="M124.455 0.161865H0.455078V139.162H124.455V0.161865Z" fill="white"/>
</g>
</mask>
<g mask="url(#mask61_845_1787)">
<path id="Vector_124" d="M59.3185 88.3712C59.1423 89.0207 59.7981 88.9392 59.7521 89.1081C59.7363 89.1665 59.6831 89.1745 59.5616 89.1413C59.3674 89.0886 59.1783 89.0135 58.7677 88.9017C58.5411 88.8396 58.3089 88.7984 58.1722 88.7624C58.1248 88.7487 58.1241 88.709 58.1313 88.683C58.1816 88.4982 58.5232 88.7393 58.6591 88.237L59.3473 85.7009C59.4782 85.2202 58.8432 85.205 58.8928 85.0203C58.9172 84.9308 59.0445 84.9827 59.092 84.9965C59.2977 85.0528 59.4968 85.1307 59.6809 85.1812C59.8708 85.2317 60.0657 85.2628 60.3662 85.3443C60.5237 85.3876 60.5475 85.4057 60.5302 85.4685C60.4813 85.6482 60.1383 85.3501 60.0024 85.8524L59.3185 88.3712Z" fill="black"/>
</g>
</g>
<g id="Clip path group_63">
<mask id="mask62_845_1787" style="mask-type:luminance" maskUnits="userSpaceOnUse" x="0" y="0" width="125" height="140">
<g id="SVGID_2__63">
<path id="Vector_125" d="M124.455 0.161865H0.455078V139.162H124.455V0.161865Z" fill="white"/>
</g>
</mask>
<g mask="url(#mask62_845_1787)">
<path id="Vector_126" d="M61.9982 86.4457C61.8953 85.3985 61.3215 85.8135 61.2956 85.5515C61.2906 85.5017 61.3136 85.4563 61.379 85.4498C61.4826 85.4389 61.5818 85.4519 61.6853 85.4404C61.8263 85.4267 61.9658 85.392 62.2534 85.3624C62.4275 85.3458 62.3663 85.3899 62.4749 85.4844L64.894 87.6727C64.9731 87.7412 65.0443 87.8004 65.0774 87.7968C65.1105 87.7939 65.1148 87.7268 65.1011 87.5911L64.922 85.7753C64.8739 85.2787 64.2202 85.4433 64.2022 85.2628C64.1986 85.2246 64.2108 85.1683 64.2799 85.1618C64.3669 85.1524 64.5265 85.1596 64.9019 85.1221C65.2442 85.0882 65.4305 85.0471 65.4808 85.042C65.5836 85.0319 65.5894 85.0868 65.5908 85.1026C65.6059 85.2672 65.132 85.1813 65.1881 85.7536L65.4894 88.813C65.5016 88.9335 65.5052 88.9761 65.4412 88.9818C65.3643 88.9905 65.3348 88.9609 65.2917 88.9198L62.3994 86.3447C62.3577 86.3036 62.3225 86.2797 62.2951 86.2826C62.2621 86.287 62.2549 86.3252 62.2599 86.375L62.4426 88.2277C62.5454 89.2749 63.2048 88.8346 63.23 89.0915C63.2372 89.1666 63.1013 89.176 63.0301 89.1825C62.764 89.2092 62.577 89.2056 62.3872 89.2243C62.2132 89.2424 62.0686 89.2777 61.9219 89.2936C61.8622 89.2994 61.7558 89.3369 61.7472 89.2445C61.7256 89.0266 62.257 89.0721 62.2024 88.5171L61.9982 86.4457Z" fill="black"/>
</g>
</g>
<g id="Clip path group_64">
<mask id="mask63_845_1787" style="mask-type:luminance" maskUnits="userSpaceOnUse" x="0" y="0" width="125" height="140">
<g id="SVGID_2__64">
<path id="Vector_127" d="M124.455 0.161865H0.455078V139.162H124.455V0.161865Z" fill="white"/>
</g>
</mask>
<g mask="url(#mask63_845_1787)">
<path id="Vector_128" d="M68.0339 85.6192C68.1152 85.8401 68.1296 85.8762 68.3489 85.7939L68.6718 85.6727C69.1112 85.5074 68.9508 85.0289 69.0529 84.9914C69.0889 84.9784 69.1414 84.9466 69.1982 85.0837L69.5735 85.9837C69.6038 86.0487 69.703 86.2219 69.58 86.2688C69.4168 86.3301 69.3571 85.7318 68.825 85.931L68.4474 86.0725C68.2123 86.1605 68.2547 86.2147 68.3662 86.5127L68.6107 87.1695C68.7293 87.487 68.7775 87.6805 69.1464 87.5419C70.4142 87.0663 70.0913 86.4211 70.2869 86.3482C70.307 86.3402 70.3488 86.3424 70.3847 86.4398C70.5343 86.8411 70.389 87.3745 69.9698 87.5325C69.1917 87.8234 68.8775 87.9186 68.6222 88.0146C68.4632 88.0738 68.2561 88.1748 67.9757 88.2802C67.9088 88.304 67.8685 88.291 67.8578 88.26C67.77 88.024 68.2612 88.1546 68.0275 87.5296L67.1343 85.127C66.9625 84.6644 66.4454 85.0462 66.3692 84.8405C66.3527 84.795 66.3771 84.738 66.449 84.712C66.659 84.6334 67.0344 84.5157 67.8161 84.2227C68.1806 84.0863 68.5251 83.934 68.9753 83.763C69.0414 83.7392 69.0961 83.7767 69.1133 83.8229L69.3233 84.323C69.3528 84.388 69.442 84.5475 69.324 84.5915C69.0838 84.6817 69.2593 83.9319 68.272 84.3014C67.6528 84.5338 67.6341 84.5468 67.7664 84.9004L68.0339 85.6192Z" fill="black"/>
</g>
</g>
<g id="Clip path group_65">
<mask id="mask64_845_1787" style="mask-type:luminance" maskUnits="userSpaceOnUse" x="0" y="0" width="125" height="140">
<g id="SVGID_2__65">
<path id="Vector_129" d="M124.455 0.161865H0.455078V139.162H124.455V0.161865Z" fill="white"/>
</g>
</mask>
<g mask="url(#mask64_845_1787)">
<path id="Vector_130" d="M27.6111 56.9412C27.6111 57.3944 27.2451 57.7618 26.7935 57.7618C26.3426 57.7618 25.9766 57.3944 25.9766 56.9412C25.9766 56.488 26.3426 56.1206 26.7935 56.1206C27.2451 56.1206 27.6111 56.488 27.6111 56.9412Z" fill="black"/>
</g>
</g>
<g id="Clip path group_66">
<mask id="mask65_845_1787" style="mask-type:luminance" maskUnits="userSpaceOnUse" x="0" y="0" width="125" height="140">
<g id="SVGID_2__66">
<path id="Vector_131" d="M124.455 0.161865H0.455078V139.162H124.455V0.161865Z" fill="white"/>
</g>
</mask>
<g mask="url(#mask65_845_1787)">
<path id="Vector_132" d="M52.0691 83.4824C52.0691 83.9357 51.7031 84.303 51.2515 84.303C50.8006 84.303 50.4346 83.9357 50.4346 83.4824C50.4346 83.0292 50.8006 82.6611 51.2515 82.6611C51.7031 82.6611 52.0691 83.0292 52.0691 83.4824Z" fill="black"/>
</g>
</g>
<g id="Clip path group_67">
<mask id="mask66_845_1787" style="mask-type:luminance" maskUnits="userSpaceOnUse" x="0" y="0" width="125" height="140">
<g id="SVGID_2__67">
<path id="Vector_133" d="M124.455 0.161865H0.455078V139.162H124.455V0.161865Z" fill="white"/>
</g>
</mask>
<g mask="url(#mask66_845_1787)">
<path id="Vector_134" d="M74.6743 83.0716C74.6743 83.5255 74.3083 83.8929 73.8567 83.8929C73.4051 83.8929 73.0391 83.5255 73.0391 83.0716C73.0391 82.6183 73.4051 82.251 73.8567 82.251C74.3083 82.251 74.6743 82.6183 74.6743 83.0716Z" fill="black"/>
</g>
</g>
<g id="Clip path group_68">
<mask id="mask67_845_1787" style="mask-type:luminance" maskUnits="userSpaceOnUse" x="0" y="0" width="125" height="140">
<g id="SVGID_2__68">
<path id="Vector_135" d="M124.455 0.161865H0.455078V139.162H124.455V0.161865Z" fill="white"/>
</g>
</mask>
<g mask="url(#mask67_845_1787)">
<path id="Vector_136" d="M98.6428 56.9412C98.6428 57.3944 98.2761 57.7618 97.8245 57.7618C97.3736 57.7618 97.0068 57.3944 97.0068 56.9412C97.0068 56.488 97.3736 56.1206 97.8245 56.1206C98.2761 56.1206 98.6428 56.488 98.6428 56.9412Z" fill="black"/>
</g>
</g>
</g>
</g>
<defs>
<clipPath id="clip0_845_1787">
<rect width="124" height="139" fill="white" transform="translate(0.455078 0.161865)"/>
</clipPath>
</defs>
</svg>
