<svg width="928" height="102" viewBox="0 0 928 102" fill="none" xmlns="http://www.w3.org/2000/svg">
<g clip-path="url(#clip0_473_1137)">
<path d="M385.174 0V102H451.343V84.15H404.516V58.65H447.27V41.31H404.516V17.85H451.343V0H385.174Z" fill="black"/>
<path d="M304.771 16.4701H290.519V50.8439H304.771C315.922 50.8439 324.113 45.4379 324.113 33.654C324.113 21.42 315.922 16.4701 304.771 16.4701ZM305.79 67.32H290.519V102H271.178V0H305.79C327.496 0 344.472 9.852 344.472 33.66C344.472 57.12 327.371 67.32 305.79 67.32Z" fill="black"/>
<path d="M619.316 0V17.85H643.238V84.15H619.316V102H686.502V84.15H662.58V17.85H686.502V0H619.316Z" fill="black"/>
<path d="M554.429 31.62C554.429 43.9081 547.302 47.7841 535.086 47.7841H518.798V16.4701H535.086C548.344 16.4761 554.429 21.42 554.429 31.62ZM574.788 31.62C574.788 7.812 558.5 0 537.123 0H499.458V102H518.798V64.26H535.086C535.979 64.26 536.865 64.242 537.745 64.2121L557.452 102H578.884L557.021 60.168C567.656 55.4341 574.788 46.338 574.788 31.62Z" fill="black"/>
<path d="M771.365 18.0959L785.282 63.0841H757.444L771.365 18.0959ZM758.641 0L725.047 102H745.407L752.347 79.56H790.379L797.319 102H817.679L784.085 0H758.641Z" fill="black"/>
<path d="M861.343 0V102H927.681V84.15H880.685V0H861.343Z" fill="black"/>
<path d="M194.489 0L170.056 59.976L145.626 0H118.14V102H136.464V25.74L159.877 79.56H180.237L203.65 25.74V102H221.974V0H194.489Z" fill="black"/>
<path d="M0.790039 0V17.85H24.7126V84.15H0.790039V102H67.9768V84.15H44.0543V17.85H67.9768V0H0.790039Z" fill="black"/>
</g>
<defs>
<clipPath id="clip0_473_1137">
<rect width="927" height="102" fill="white" transform="translate(0.790039)"/>
</clipPath>
</defs>
</svg>
