<svg width="211" height="76" viewBox="0 0 211 76" fill="none" xmlns="http://www.w3.org/2000/svg">
<g id="ladies" clip-path="url(#clip0_845_1180)">
<path id="Vector" d="M37.2025 27.8907C37.1129 27.7146 36.9336 27.6266 36.7544 27.6266H32.99L31.8248 24.1054C31.7352 23.8414 31.5559 23.7533 31.287 23.8414C31.1078 23.8414 31.0181 24.0174 31.0181 24.1054L29.853 27.6266H25.9989C25.73 27.6266 25.5508 27.8026 25.5508 28.0667C25.5508 28.2428 25.6404 28.3308 25.73 28.4188L28.867 30.6195L27.7019 34.2287C27.6122 34.4047 27.7019 34.6688 27.9708 34.7569C28.15 34.8449 28.2396 34.7569 28.4189 34.6688L31.4663 32.4681L34.6033 34.6688C34.7825 34.7569 34.9618 34.7569 35.1411 34.6688C35.3203 34.5808 35.3203 34.4047 35.3203 34.2287L34.1551 30.6195L37.2025 28.4188C37.2025 28.2428 37.2921 28.0667 37.2025 27.8907ZM31.6455 31.5878C31.4663 31.4998 31.287 31.4998 31.1078 31.5878L28.867 33.1723L29.7633 30.5315C29.853 30.3554 29.7633 30.1794 29.5841 30.0914L27.3434 28.4188H30.1218C30.3011 28.4188 30.4804 28.3308 30.57 28.1547L31.4663 25.5139L32.3626 28.1547C32.4522 28.3308 32.6314 28.4188 32.8107 28.4188H35.5892L33.2588 30.0914C33.0796 30.1794 33.0796 30.3554 33.0796 30.5315L33.9759 33.1723L31.6455 31.5878Z" fill="white"/>
<path id="Vector_2" d="M21.6076 38.19C21.5179 38.0139 21.3387 37.9259 21.1594 37.9259H17.3054L16.1402 34.4048C16.0506 34.1407 15.8713 34.0526 15.6024 34.1407C15.4232 34.1407 15.3336 34.3167 15.3336 34.4048L14.1684 37.9259H10.3144C10.0455 37.9259 9.86621 38.1019 9.86621 38.366C9.86621 38.4541 9.95584 38.6301 10.0455 38.7181L13.1825 40.9188L12.0173 44.528C11.9277 44.7041 12.0173 44.9681 12.2862 45.0562C12.4654 45.1442 12.5551 45.0562 12.7343 44.9681L15.8713 42.7674L19.0083 44.9681C19.1876 45.0562 19.3669 45.0562 19.5461 44.9681C19.7254 44.8801 19.7254 44.7041 19.7254 44.528L18.5602 41.0069L21.6076 38.7181C21.5179 38.4541 21.6076 38.278 21.6076 38.19ZM15.961 41.7991C15.7817 41.7111 15.6024 41.7111 15.4232 41.7991L13.1825 43.3836L14.0788 40.7428C14.0788 40.5667 14.0788 40.3907 13.8995 40.3026L11.6588 38.7181H14.4373C14.6165 38.7181 14.7958 38.6301 14.8854 38.4541L15.7817 35.8132L16.678 38.4541C16.7676 38.6301 16.9469 38.7181 17.1261 38.7181H19.9046L17.5743 40.3026C17.395 40.3907 17.395 40.5667 17.395 40.7428L18.2913 43.3836L15.961 41.7991Z" fill="white"/>
<path id="Vector_3" d="M41.5052 38.6303L44.5526 40.831L43.3874 44.4401C43.2978 44.6162 43.3874 44.7922 43.5667 44.8803C43.7459 44.9683 43.9252 44.9683 44.1044 44.8803L47.1518 42.6795L50.1992 44.8803C50.3785 45.0563 50.6473 45.0563 50.8266 44.8803C50.9162 44.7922 50.9162 44.6162 50.9162 44.4401L49.7511 40.831L52.7984 38.6303C52.9777 38.4542 53.0673 38.1901 52.8881 38.0141C52.7984 37.926 52.7088 37.838 52.5295 37.838H48.6755L47.5103 34.3169C47.4207 34.0528 47.2415 33.9648 46.9726 34.0528C46.7933 34.0528 46.7037 34.2288 46.7037 34.3169L45.5385 37.926H41.6845C41.4156 37.926 41.2363 38.1021 41.2363 38.3662C41.326 38.4542 41.326 38.5422 41.5052 38.6303ZM44.6422 43.4718L45.5385 40.831C45.6281 40.6549 45.5385 40.4788 45.3592 40.3908L43.1185 38.8063H45.897C46.0763 38.8063 46.2555 38.7183 46.3452 38.5422L47.2415 35.9014L48.1377 38.5422C48.2274 38.7183 48.4066 38.8063 48.5859 38.8063H51.3644L49.034 40.4788C48.8548 40.4788 48.7651 40.6549 48.8548 40.831L49.7511 43.4718L47.5103 41.8873C47.3311 41.7993 47.1518 41.7993 46.9726 41.8873L44.6422 43.4718Z" fill="white"/>
<path id="Vector_4" d="M84.7953 53.0668C84.0783 53.4189 83.3612 53.771 82.6442 53.9471C81.9272 54.2112 81.1205 54.2992 80.3139 54.2992C79.4176 54.2992 78.5213 54.1231 77.7146 53.859C76.9976 53.595 76.2806 53.1548 75.7428 52.6267C75.205 52.0985 74.7569 51.3943 74.488 50.69C74.2191 49.8978 74.0399 49.1055 74.0399 48.2252C74.0399 47.433 74.1295 46.5527 74.488 45.7605C74.7569 45.0562 75.1154 44.44 75.6532 43.8238C76.191 43.2957 76.8184 42.8555 77.5354 42.5034C78.342 42.1513 79.2383 42.0633 80.1346 42.0633C80.9413 42.0633 81.6583 42.2393 82.465 42.4154C83.182 42.5914 83.9886 42.9436 84.616 43.2957L85.3331 41.8872C84.616 41.4471 83.899 41.183 83.182 40.9189C81.2102 40.3027 79.1487 40.3907 77.1769 41.095C76.1909 41.4471 75.3843 41.9752 74.6673 42.6795C73.9502 43.3837 73.4125 44.1759 72.9643 45.1443C72.5162 46.1126 72.3369 47.1689 72.3369 48.1372C72.3369 49.1936 72.5162 50.2499 72.9643 51.2182C73.3228 52.0985 73.9502 52.9788 74.6673 53.683C75.3843 54.3872 76.2806 54.9154 77.1769 55.2675C78.1628 55.6196 79.328 55.8837 80.4035 55.7957C81.3894 55.7957 82.2857 55.6196 83.182 55.3555C83.899 55.0914 84.616 54.7393 85.3331 54.3872L84.7953 53.0668ZM99.6737 50.69C99.4048 51.3943 99.0463 52.0985 98.5085 52.7147C97.4329 53.859 95.9093 54.4752 94.3856 54.4752C93.5789 54.4752 92.7723 54.2992 92.0552 54.0351C91.3382 53.683 90.8004 53.2429 90.2626 52.7147C89.7249 52.0985 89.3664 51.4823 89.0975 50.7781C88.5597 49.1936 88.5597 47.433 89.0975 45.8485C89.3664 45.1443 89.7249 44.44 90.2626 43.9119C90.8004 43.3837 91.3382 42.9436 92.0552 42.5914C92.7723 42.2393 93.5789 42.0633 94.3856 42.1513C95.9989 42.1513 97.4329 42.7675 98.5085 43.9119C99.0463 44.5281 99.4048 45.1443 99.6737 45.8485C100.301 47.345 100.301 49.1055 99.6737 50.69ZM101.377 45.1443C101.018 44.264 100.48 43.3837 99.7633 42.7675C99.0463 42.0633 98.2396 41.5351 97.3433 41.183C96.447 40.8309 95.4611 40.5668 94.4752 40.5668C93.4893 40.5668 92.5034 40.7428 91.6071 41.183C90.7108 41.5351 89.9041 42.0633 89.1871 42.7675C87.6634 44.176 86.8568 46.2006 86.8568 48.3133C86.8568 49.3696 87.036 50.426 87.4842 51.3943C87.8427 52.2745 88.3805 53.1548 89.0975 53.859C89.8145 54.5633 90.6212 55.0914 91.5175 55.4436C92.4137 55.7957 93.3997 55.9717 94.3856 55.9717C96.3574 55.9717 98.3292 55.1795 99.7633 53.859C100.48 53.1548 101.018 52.3626 101.466 51.3943C101.914 50.426 102.094 49.3696 102.094 48.3133C101.914 47.1689 101.735 46.1126 101.377 45.1443ZM114.104 55.6196V54.2112H106.934V40.8309H105.32V55.6196H114.104ZM125.487 55.6196V54.2112H118.316V40.8309H116.703V55.6196H125.487ZM136.87 55.6196V54.2112H129.699V48.8414H136.153V47.433H129.699V42.3274H136.87V40.8309H127.996V55.6196H136.87ZM147.266 48.3133V49.8098H151.3V53.4189C150.762 53.771 150.135 54.0351 149.507 54.2112C148.88 54.3872 148.163 54.4752 147.446 54.4752C146.639 54.4752 145.743 54.2992 144.936 54.0351C144.129 53.771 143.502 53.3309 142.875 52.8027C142.337 52.2745 141.889 51.5703 141.53 50.8661C141.172 50.0738 140.992 49.2816 140.992 48.4013C140.992 47.609 141.172 46.8168 141.441 46.0245C141.71 45.2323 142.068 44.6161 142.606 43.9999C143.144 43.3837 143.771 42.9436 144.488 42.5914C145.295 42.2393 146.191 42.0633 147.087 42.0633C147.894 42.0633 148.79 42.2393 149.597 42.5034C150.403 42.7675 151.21 43.2076 151.927 43.6478L152.823 42.4154C152.465 42.1513 152.017 41.8872 151.569 41.7112C151.121 41.4471 150.762 41.271 150.314 41.183C149.866 41.0069 149.328 40.9189 148.88 40.8309C148.342 40.7429 147.715 40.7428 147.177 40.7428C146.191 40.7428 145.205 40.9189 144.309 41.271C143.412 41.6231 142.516 42.1513 141.799 42.8555C141.082 43.5598 140.455 44.352 140.007 45.2323C139.558 46.2006 139.29 47.2569 139.29 48.4013C139.29 49.4576 139.469 50.602 140.007 51.5703C140.455 52.4506 141.082 53.3309 141.799 53.9471C142.516 54.6513 143.412 55.1795 144.398 55.5316C145.384 55.8837 146.37 56.0598 147.446 56.0598C148.432 56.0598 149.507 55.8837 150.493 55.6196C151.389 55.3555 152.196 54.9154 153.003 54.2992V48.4013H147.266V48.3133ZM165.461 55.6196V54.2112H158.291V48.8414H164.744V47.433H158.291V42.3274H165.461V40.8309H156.588V55.6196H165.461Z" fill="white"/>
<path id="Vector_5" d="M83.3615 35.4613V33.9648H76.1912V20.6725H74.4883V35.4613H83.3615ZM94.834 30.0035H89.277L92.0555 23.6655L94.834 30.0035ZM99.0465 35.4613L92.1451 20.4084H91.8762L85.0645 35.4613H86.7674L88.56 31.3239H95.2821L97.0747 35.4613H99.0465ZM111.863 30.3556C111.595 31.0599 111.236 31.7641 110.698 32.3803C110.16 32.9965 109.443 33.4366 108.637 33.7007C107.741 34.0528 106.755 34.2289 105.769 34.2289C105.141 34.2289 104.693 34.2289 104.245 34.2289C103.886 34.2289 103.528 34.1408 103.169 34.0528V22.081C103.528 21.993 103.886 21.993 104.245 21.993C104.693 21.993 105.141 21.993 105.589 21.993C106.575 21.993 107.561 22.169 108.458 22.4331C109.264 22.6972 109.892 23.1373 110.519 23.6655C111.057 24.1937 111.505 24.8099 111.774 25.6021C112.043 26.3944 112.222 27.1866 112.222 27.9789C112.222 28.7711 112.043 29.5634 111.863 30.3556ZM113.477 25.162C113.118 24.2817 112.58 23.4014 111.863 22.6972C111.057 21.993 110.16 21.3768 109.175 21.0246C108.009 20.5845 106.665 20.4084 105.41 20.4084C104.604 20.4084 103.976 20.4084 103.259 20.4965C102.542 20.5845 102.004 20.5845 101.467 20.6725V35.2852C102.094 35.3732 102.721 35.3732 103.349 35.4613C104.066 35.5493 104.783 35.5493 105.5 35.5493C106.755 35.5493 108.009 35.3732 109.264 34.9331C110.25 34.581 111.146 33.9648 111.953 33.2606C112.67 32.5563 113.208 31.7641 113.566 30.7958C113.925 29.9155 114.104 28.8592 114.104 27.8908C114.104 26.9225 113.925 26.0423 113.477 25.162ZM119.034 20.6725H117.42V35.4613H119.034V20.6725ZM131.851 35.4613V33.9648H124.68V28.5951H131.134V27.0986H124.68V21.993H131.851V20.5845H122.977V35.3732H131.851V35.4613ZM143.144 30.0915C142.965 29.6514 142.785 29.2993 142.516 29.0352C142.158 28.6831 141.71 28.331 141.262 28.0669C140.634 27.7148 140.007 27.3627 139.29 27.0986C138.573 26.8345 137.856 26.3944 137.318 25.8662C136.959 25.5141 136.691 24.9859 136.691 24.4577C136.691 24.1056 136.78 23.8415 136.87 23.4894C136.959 23.2253 137.139 22.9613 137.408 22.6972C137.676 22.4331 137.945 22.257 138.304 22.169C138.662 21.993 139.111 21.993 139.559 21.993C140.096 21.993 140.545 22.081 140.993 22.257C141.441 22.4331 141.889 22.6092 142.248 22.9613L142.965 21.5528C142.516 21.2007 141.979 21.0246 141.441 20.8486C140.903 20.6725 140.276 20.5845 139.648 20.5845C139.021 20.5845 138.394 20.6725 137.766 20.9366C137.228 21.1127 136.691 21.4648 136.332 21.8169C135.974 22.169 135.615 22.6092 135.436 23.1373C135.257 23.6655 135.077 24.1056 135.077 24.7218C135.077 25.162 135.167 25.5141 135.257 25.9542C135.436 26.3063 135.615 26.6584 135.884 27.0106C136.153 27.3627 136.511 27.7148 136.87 27.9789C137.408 28.331 137.945 28.5951 138.573 28.8592C139.111 29.1232 139.559 29.2993 140.096 29.6514C140.455 29.8275 140.724 30.0915 140.993 30.3556C141.172 30.6197 141.351 30.7958 141.441 31.1479C141.531 31.412 141.531 31.7641 141.531 32.0282C141.531 32.3803 141.441 32.6444 141.351 32.9965C141.262 33.3486 141.082 33.6127 140.814 33.7887C140.545 34.0528 140.276 34.2289 139.917 34.4049C139.469 34.581 139.111 34.581 138.662 34.581C138.035 34.581 137.408 34.493 136.87 34.2289C136.242 33.9648 135.615 33.7007 135.077 33.2606L134.271 34.669C134.898 35.1092 135.615 35.4613 136.332 35.7254C137.049 35.9894 137.856 36.0775 138.662 36.0775C139.29 36.0775 139.917 35.9894 140.455 35.7254C140.993 35.5493 141.531 35.1972 141.889 34.8451C142.337 34.493 142.606 33.9648 142.875 33.5246C143.144 32.9965 143.233 32.3803 143.233 31.8521C143.323 30.9718 143.323 30.5317 143.144 30.0915ZM147.446 20.7606C147.267 20.4965 146.908 20.4084 146.639 20.4084C146.102 20.4084 145.653 20.8486 145.653 21.3768C145.653 21.6408 145.743 21.9049 145.922 22.081C146.102 22.257 146.37 22.4331 146.729 22.4331C146.639 22.7852 146.46 23.1373 146.281 23.4014C146.012 23.7535 145.743 24.1056 145.385 24.4577L145.564 24.8099C145.922 24.6338 146.281 24.3697 146.55 24.1056C146.819 23.8415 146.998 23.5775 147.177 23.3134C147.356 23.0493 147.446 22.7852 147.536 22.5211C147.625 22.257 147.625 21.993 147.625 21.7289C147.715 21.2887 147.625 21.0246 147.446 20.7606Z" fill="white"/>
<path id="Vector_6" d="M84.7953 12.7499C84.0783 13.102 83.3612 13.4541 82.6442 13.6302C81.9272 13.8943 81.1205 13.9823 80.3139 13.9823C79.4176 13.9823 78.6109 13.8943 77.8043 13.5422C76.2806 12.926 75.1154 11.7816 74.5776 10.2851C74.3087 9.49286 74.1295 8.70061 74.1295 7.82033C74.1295 7.02807 74.2191 6.14779 74.5776 5.35554C74.8465 4.65131 75.205 3.94709 75.7428 3.41892C76.2806 2.89075 76.908 2.45061 77.625 2.09849C78.4317 1.74638 79.328 1.65835 80.2242 1.65835C81.0309 1.65835 81.7479 1.74638 82.5546 2.01047C83.2716 2.18652 84.0783 2.53863 84.7057 2.89075L85.4227 1.4823C84.7057 1.04216 83.9886 0.778071 83.182 0.513987C81.2102 -0.10221 79.1487 -0.10221 77.1769 0.690043C76.1909 1.04216 75.3843 1.57032 74.6673 2.27455C73.9502 2.97878 73.4125 3.77103 72.9643 4.73934C72.5162 5.70765 72.3369 6.76399 72.3369 7.7323C72.3369 8.78864 72.5162 9.84497 72.9643 10.8133C73.3228 11.6936 73.9502 12.5738 74.6673 13.2781C75.3843 13.9823 76.2806 14.5105 77.1769 14.8626C78.1628 15.2147 79.328 15.4788 80.4035 15.3907C81.3894 15.3907 82.2857 15.2147 83.182 14.9506C83.9886 14.6865 84.7057 14.3344 85.3331 13.9823L84.7953 12.7499ZM99.4048 15.2147V0.425959H97.7915V7.02807H89.7249V0.425959H88.1116V15.2147H89.7249V8.43652H97.7915V15.2147H99.4048ZM112.311 15.2147V13.7182H105.141V8.43652H111.594V7.02807H105.141V1.92244H112.311V0.425959H103.438V15.2147H112.311ZM124.232 15.2147V13.7182H117.062V0.425959H115.359V15.2147H124.232ZM135.436 1.92244V0.425959H123.694V1.92244H128.713V15.3027H130.327V1.92244H135.436ZM146.908 15.2147V13.7182H139.738V8.43652H146.191V7.02807H139.738V1.92244H146.908V0.425959H138.035V15.2147H146.908ZM161.786 15.4788V0.425959H160.083V11.4295L150.403 0.161874L150.135 0.249902V15.2147H151.748V4.03511L161.607 15.5668L161.786 15.4788ZM177.113 15.2147V0.425959H175.5V7.02807H167.433V0.425959H165.82V15.2147H167.433V8.43652H175.5V15.2147H177.113ZM189.213 9.75694H183.656L186.434 3.41892L189.213 9.75694ZM193.425 15.2147L186.613 0.161874H186.345L179.533 15.2147H181.236L183.028 11.0774H189.84L191.633 15.2147H193.425ZM210.455 15.2147L209.917 0.161874H209.558L203.195 11.2534L196.562 0.161874H196.293L195.756 15.2147H197.459L197.638 4.73934L203.016 13.7182H203.195L208.573 4.73934L208.752 15.2147H210.455Z" fill="white"/>
<path id="Vector_7" d="M29.5841 17.7675C29.4945 17.5915 29.3152 17.5035 29.1359 17.5915C27.7019 17.8556 26.2678 17.3274 24.4752 15.9189C26.3574 14.8626 27.7019 13.102 28.2397 11.0774C28.3293 10.9013 28.15 10.6373 27.9708 10.5492C27.2537 10.2851 26.4471 10.1971 25.6404 10.1091C25.9989 9.40486 26.1782 8.70064 26.2678 7.99641C26.2678 7.82035 26.1782 7.55627 25.9989 7.55627C22.7723 6.76402 19.2768 7.6443 16.7672 9.75697C15.7813 9.05275 14.7057 8.61261 13.5405 8.34852C13.4509 8.08444 13.3613 7.90838 13.3613 7.6443C13.0028 6.23585 12.6443 4.91542 11.3895 4.12317C10.4035 3.41895 9.14874 3.24289 7.89394 3.595C7.08728 3.85909 6.45988 4.38726 6.10137 5.09148C4.93619 5.09148 3.95028 5.44359 3.14362 6.05979C2.96436 6.14782 2.96436 6.4119 3.05399 6.58796C3.14362 6.76402 3.32288 6.85204 3.50213 6.85204C5.29471 6.76402 6.37025 7.11613 6.37025 7.55627C6.37025 7.82035 6.28062 8.17247 6.19099 8.43655C5.38434 10.3732 5.47396 12.5739 6.45988 14.4225C7.53542 16.3591 9.23837 17.8556 11.3895 18.6478C12.1065 18.9119 12.8235 19.088 13.5405 19.264C13.3613 20.8485 13.0924 21.3767 12.1065 21.4647C11.6583 21.5527 11.1206 21.4647 10.7621 21.2887C10.5828 21.2006 10.3139 21.2887 10.2243 21.4647C10.1347 21.6408 10.2243 21.9049 10.4035 21.9929C10.7621 22.1689 11.2102 22.257 11.5687 22.257H11.6583C12.0169 22.257 12.3754 22.257 12.8235 22.257H13.3613C14.5265 22.0809 15.6916 22.1689 16.8568 22.5211C17.0361 22.6091 17.305 22.5211 17.4842 22.345C17.5738 22.1689 17.4842 21.9049 17.305 21.7288C16.7672 21.4647 16.1398 21.3767 15.5124 21.2887C15.602 21.2006 15.602 21.2006 15.6916 21.1126C16.2294 20.5844 16.5879 20.0563 16.9464 19.4401C18.022 19.352 19.0079 19.176 19.9938 18.8239C21.3382 19.5281 22.9516 19.9682 24.4752 19.9682C26.3574 20.0563 28.2396 19.4401 29.6737 18.2077C29.853 18.0316 29.853 17.8556 29.7633 17.6795L29.5841 17.7675ZM25.1923 8.26049C25.1026 8.87669 24.8338 9.49289 24.4752 10.0211C23.2204 9.93303 21.9656 10.1091 20.8005 10.6373C19.6353 11.0774 18.739 11.8696 18.1116 12.926C17.305 12.838 16.5879 12.6619 15.8709 12.2218C17.3946 8.87669 22.2345 7.55627 25.1923 8.26049ZM23.9375 10.9013C22.7723 12.2218 21.0694 12.926 19.2768 13.014H19.1872C19.7249 12.3098 20.442 11.7816 21.2486 11.4295C22.1449 10.9894 23.0412 10.9013 23.9375 10.9013ZM15.2435 11.6056C14.5265 10.9894 13.9887 10.1091 13.7198 9.2288C14.5265 9.49289 15.3331 9.845 16.0501 10.2851C15.6916 10.7253 15.4227 11.1654 15.2435 11.6056ZM4.48805 6.14782C5.74285 5.79571 7.17691 5.88373 8.34208 6.4119C8.96948 6.76402 9.23837 6.76402 9.50726 6.58796C9.68651 6.49993 9.86577 6.23585 9.86577 5.97176C9.86577 5.53162 9.50726 5.26754 9.14874 5.26754C8.87985 5.35557 8.61097 5.44359 8.52134 5.61965C8.0732 5.35556 7.53542 5.17951 6.99765 5.17951C7.26654 4.73937 7.62505 4.56331 8.0732 4.38726C8.96948 4.12317 9.9554 4.29923 10.7621 4.8274C11.6583 5.44359 12.0169 6.49993 12.3754 7.82035C12.465 8.26049 12.6443 8.70064 12.8235 9.2288C13.5405 12.0457 16.2294 13.9823 19.1872 13.8063H19.2768C21.6071 13.8063 23.6686 12.7499 25.013 10.9013C25.73 10.9894 26.4471 11.0774 27.1641 11.2535C26.2678 14.2464 23.1308 16.3591 19.3664 16.4471C14.1679 16.6232 10.4932 13.9823 9.50726 9.40486C9.50726 9.31683 9.41763 9.14078 9.328 9.14078C9.23837 9.05275 9.05911 9.05275 8.96948 9.14078C7.89394 9.40486 6.99765 10.1091 6.45988 10.9894C6.45988 10.1971 6.63914 9.40486 6.90802 8.70064C7.08728 8.34852 7.17691 7.90838 7.17691 7.46824C7.17691 6.76402 6.10137 6.14782 4.48805 6.14782ZM7.17691 13.9823C6.81839 13.1901 6.81839 12.3098 7.08728 11.5175C7.4458 10.8133 7.98357 10.2851 8.79023 9.93303C9.41763 12.7499 11.3895 15.0387 13.9887 16.183C13.8094 16.9753 13.7198 17.6795 13.6302 18.2957C13.0028 18.2077 12.2857 18.0316 11.6583 17.7675C9.77614 17.1513 8.16283 15.8309 7.17691 13.9823ZM14.9746 20.4964C14.7057 20.7605 14.3472 20.9366 13.9887 21.1126C14.2576 20.4084 14.4368 19.6161 14.5265 18.8239C14.6161 18.2077 14.7057 17.4154 14.885 16.6232C15.5124 16.7992 16.1398 16.9753 16.7672 17.0633C16.4087 18.3837 15.8709 19.5281 14.9746 20.4964ZM20.0834 18.0316C19.9938 17.9436 19.8146 17.9436 19.7249 18.0316C18.9183 18.2957 18.022 18.5598 17.1257 18.6478C17.305 18.2077 17.4842 17.7675 17.5738 17.2394C18.022 17.3274 18.4701 17.3274 19.0079 17.3274H19.456C20.8901 17.3274 22.3242 16.9753 23.579 16.3591C24.7441 17.4154 26.1782 18.2077 27.7019 18.4718C25.2819 19.5281 22.4138 19.4401 20.0834 18.0316Z" fill="white"/>
<path id="Vector_8" d="M59.7894 17.7675C59.6997 17.5915 59.5205 17.5035 59.3412 17.5915C57.9072 17.8556 56.4731 17.3274 54.6805 15.9189C56.5627 14.8626 57.9072 13.102 58.4449 11.0774C58.5346 10.9013 58.3553 10.6373 58.1761 10.5492C57.459 10.2851 56.6524 10.1971 55.8457 10.1091C56.2042 9.40486 56.3835 8.70063 56.4731 7.99641C56.4731 7.82035 56.3835 7.55627 56.2042 7.55627C52.9776 6.76402 49.4821 7.6443 46.9725 9.75697C45.9866 9.05275 44.911 8.61261 43.7458 8.34852C43.5666 8.08444 43.477 7.90838 43.477 7.6443C43.1184 6.23585 42.7599 4.91542 41.5051 4.12317C40.5192 3.41895 39.2644 3.24289 38.0992 3.595C37.2926 3.85909 36.6652 4.38726 36.3067 5.09148C35.3207 5.09148 34.2452 5.44359 33.4385 6.05979C33.2593 6.14782 33.2593 6.4119 33.3489 6.58796C33.4385 6.76402 33.6178 6.85204 33.7971 6.85204C35.5896 6.76402 36.6652 7.11613 36.6652 7.55627C36.6652 7.82035 36.5755 8.17247 36.4859 8.43655C35.9481 9.75697 35.7689 11.2535 36.1274 12.7499C36.3067 13.3661 36.4859 13.9823 36.7548 14.5105C37.8303 16.4471 39.5333 17.9436 41.6844 18.7358C42.4014 18.9999 43.1184 19.176 43.9251 19.264C43.6562 20.8485 43.477 21.3767 42.491 21.4647C42.0429 21.4647 41.5948 21.4647 41.1466 21.2887C40.9674 21.2006 40.6985 21.2887 40.5192 21.4647C40.4296 21.6408 40.5192 21.9049 40.6985 22.0809C41.057 22.257 41.4155 22.345 41.8636 22.345H41.9533C42.3118 22.345 42.6703 22.345 43.0288 22.345H43.5666C44.7318 22.1689 45.8969 22.257 47.0621 22.6091C47.2414 22.6971 47.5102 22.6091 47.6895 22.433C47.7791 22.257 47.6895 21.9929 47.5102 21.8168C46.9725 21.5527 46.3451 21.4647 45.7177 21.3767C45.8073 21.2887 45.8073 21.2887 45.8969 21.2006C46.4347 20.6725 46.7932 20.1443 47.1517 19.5281C48.2273 19.5281 49.2132 19.352 50.1991 18.9999C51.5435 19.7042 53.1568 20.1443 54.6805 20.1443C56.5627 20.2323 58.4449 19.6161 59.879 18.3837C59.879 18.1196 59.879 17.9436 59.7894 17.7675ZM55.4872 8.26049C55.3976 8.87669 55.1287 9.49289 54.7702 10.0211C53.5154 9.93303 52.2606 10.1091 51.0954 10.6373C49.9302 11.0774 48.9443 11.8696 48.3169 12.926C47.5102 12.838 46.7932 12.6619 46.0762 12.2218C47.5999 8.87669 52.5294 7.55627 55.4872 8.26049ZM54.2324 10.9013C53.0672 12.2218 51.3643 12.926 49.5717 13.014H49.4821C50.0198 12.3098 50.7369 11.7816 51.5435 11.4295C52.4398 10.9894 53.3361 10.9013 54.2324 10.9013ZM45.4488 11.6056C44.7318 10.9894 44.194 10.1091 43.9251 9.2288C44.7318 9.49289 45.5384 9.845 46.2554 10.2851C45.9866 10.7253 45.7177 11.1654 45.4488 11.6056ZM34.6933 6.14782C35.9481 5.79571 37.3822 5.88373 38.5474 6.4119C39.1748 6.76402 39.4437 6.76402 39.7125 6.58796C39.8918 6.58796 40.0711 6.32387 40.0711 6.05979C40.0711 5.61965 39.7125 5.35557 39.354 5.35557C39.1748 5.35557 38.9059 5.44359 38.8163 5.61965C38.3681 5.35556 37.8303 5.26754 37.2926 5.17951C37.5615 4.8274 37.92 4.56331 38.3681 4.47528C39.2644 4.2112 40.2503 4.38726 41.057 4.91542C41.9533 5.53162 42.3118 6.58796 42.6703 7.90838C42.7599 8.34852 42.9392 8.78866 43.1184 9.31683C43.8355 12.1337 46.5243 14.0704 49.4821 13.8943H49.6613C51.9917 13.8943 54.0531 12.838 55.3976 10.9894C56.1146 11.0774 56.8316 11.1654 57.5487 11.3415C56.6524 14.3344 53.5154 16.4471 49.751 16.5351C44.5525 16.7112 40.8777 14.0704 39.8918 9.49289C39.8918 9.40486 39.8022 9.2288 39.7125 9.2288C39.6229 9.14078 39.4437 9.14078 39.354 9.2288C38.2785 9.49289 37.3822 10.1971 36.8444 11.0774C36.8444 10.2851 37.0237 9.49289 37.2926 8.78866C37.4718 8.43655 37.5615 7.99641 37.5615 7.55627C37.3822 6.67599 36.3963 6.14782 34.6933 6.14782ZM37.4718 13.9823C37.1133 13.1901 37.0237 12.3098 37.3822 11.5175C37.7407 10.8133 38.2785 10.1971 39.0851 9.93303C39.7125 12.7499 41.6844 15.0387 44.2836 16.183C44.1044 16.9753 44.0147 17.6795 43.9251 18.2957C43.2977 18.2077 42.5807 18.0316 41.9533 17.7675C39.9814 17.1513 38.3681 15.7429 37.4718 13.9823ZM45.1799 20.4964C44.911 20.7605 44.5525 20.9366 44.194 21.1126C44.4629 20.4084 44.6421 19.6161 44.7318 18.8239C44.8214 18.2077 44.911 17.4154 45.0903 16.6232C45.7177 16.7992 46.3451 16.9753 46.9725 17.0633C46.7036 18.3837 46.0762 19.5281 45.1799 20.4964ZM50.3784 18.0316C50.2887 17.9436 50.1095 17.9436 50.0198 18.0316C49.2132 18.2957 48.3169 18.5598 47.4206 18.6478C47.5999 18.2077 47.7791 17.7675 47.8688 17.2394C48.3169 17.3274 48.765 17.3274 49.3028 17.3274H49.751C51.185 17.3274 52.6191 16.9753 53.8739 16.3591C55.039 17.4154 56.4731 18.2077 57.9968 18.4718C55.5768 19.5281 52.7087 19.4401 50.3784 18.0316Z" fill="white"/>
<path id="Vector_9" d="M0.455078 0.337891V30.6196C0.455078 48.2252 11.6587 64.4224 31.1977 74.9858L31.4666 75.1618L31.7355 74.9858C51.2745 64.4224 62.4781 48.2252 62.4781 30.6196V0.337891H0.455078ZM2.87505 41.0069L31.4666 20.5844L60.0582 41.0949C58.893 45.5844 56.9211 49.8097 54.4115 53.683L31.4666 37.1337L8.52166 53.5949C6.01206 49.7217 4.04023 45.4083 2.87505 41.0069ZM31.4666 73.9294C21.7867 68.6478 14.1683 61.9576 9.05943 54.3872L31.4666 38.3661L53.8738 54.3872C48.7649 61.9576 41.1465 68.6478 31.4666 73.9294ZM61.4026 30.7076C61.4026 33.7886 61.0441 36.8696 60.327 39.9506L31.4666 19.2639L2.60617 39.8625C1.88914 36.8696 1.53062 33.7886 1.53062 30.7076V1.39423H61.4026V30.7076Z" fill="white"/>
<path id="Vector_10" d="M44.0144 56.764C43.9248 56.588 43.8351 56.4999 43.6559 56.4999C43.4766 56.4999 43.2974 56.588 43.2077 56.764C42.4011 58.7006 40.7878 59.669 37.113 61.8697C36.1271 62.3978 35.2308 63.014 34.4241 63.7182C33.7071 64.2464 33.1693 64.8626 32.6316 65.5668C32.5419 64.9506 32.4523 62.2218 32.273 60.6373C32.5419 60.9013 32.9004 61.0774 33.3486 61.0774C33.4382 61.0774 33.5278 61.0774 33.5278 61.0774C34.2449 60.9013 34.6034 59.933 34.6034 59.4929C34.6034 59.1408 34.6034 58.8767 34.5138 58.5246C34.693 58.7887 34.9619 58.9647 35.2308 59.1408C35.5893 59.3168 35.9478 59.4049 36.3063 59.4049C36.6648 59.4049 36.9337 59.3168 37.2026 59.1408C37.6508 58.6126 37.7404 57.9084 37.4715 57.2042C37.2922 56.9401 37.113 56.676 36.9337 56.4119C37.2922 56.4999 37.5611 56.588 37.9196 56.676C38.2782 56.676 39.3537 56.4119 39.6226 55.7957C39.8915 55.1795 39.2641 54.2112 38.9952 54.0351C38.7263 53.8591 38.4574 53.683 38.0989 53.595C38.4574 53.595 38.7263 53.507 39.0848 53.3309C39.4433 53.1549 40.25 52.4506 40.1604 51.7464C40.0707 51.0422 39.0848 50.6021 38.7263 50.514C38.3678 50.426 38.0989 50.426 37.7404 50.514C38.0093 50.338 38.2782 50.1619 38.4574 49.8978C38.8159 49.3697 38.9056 48.6654 38.6367 48.0492C38.2782 47.6971 37.7404 47.433 37.2026 47.433C37.0234 47.433 36.8441 47.433 36.7545 47.5211C36.396 47.6091 36.1271 47.7851 35.8582 47.9612C36.0374 47.6971 36.1271 47.433 36.2167 47.0809C36.3063 46.3767 36.0374 45.7605 35.4997 45.3204C34.8723 45.1443 34.1552 45.3204 33.6175 45.7605C33.3486 46.0246 33.1693 46.2887 33.0797 46.5528C33.0797 46.2006 33.0797 45.9366 32.9901 45.5844C32.9004 45.2323 32.273 44.3521 31.556 44.3521C30.839 44.3521 30.2116 45.1443 30.122 45.5844C30.0323 45.9366 30.0323 46.2006 30.0323 46.5528C29.8531 46.2887 29.6738 46.0246 29.4946 45.7605C28.9568 45.3204 28.2398 45.1443 27.6123 45.3204C27.0746 45.7605 26.8057 46.3767 26.8953 47.0809C26.985 47.433 27.0746 47.6971 27.2538 47.9612C26.9849 47.7851 26.7161 47.6091 26.3575 47.5211C26.1783 47.5211 25.999 47.433 25.9094 47.433C25.3716 47.433 24.9235 47.6091 24.565 47.9612C24.2961 48.5774 24.3857 49.2816 24.7442 49.8098C24.9235 50.0739 25.1924 50.2499 25.4613 50.426C25.1027 50.338 24.8339 50.338 24.4753 50.426C24.1168 50.514 23.1309 51.0422 23.0413 51.6584C22.9517 52.2746 23.7583 53.0668 24.1168 53.2429C24.4753 53.419 24.7442 53.507 25.1027 53.507C24.7442 53.595 24.4753 53.7711 24.2065 53.9471C23.6687 54.3873 23.3998 55.0915 23.5791 55.7077C23.8479 56.3239 24.7442 56.588 25.282 56.588C25.6405 56.588 25.9094 56.4999 26.2679 56.3239C25.999 56.588 25.8198 56.852 25.7301 57.1161C25.4613 57.7323 25.5509 58.4366 25.999 58.9647C26.2679 59.1408 26.5368 59.2288 26.8953 59.2288C27.2538 59.2288 27.6124 59.1408 27.9709 58.9647C28.2398 58.7887 28.5086 58.6126 28.6879 58.3485C28.5983 58.7006 28.5983 58.9647 28.5983 59.3168C28.5983 59.669 29.0464 60.7253 29.6738 60.9013C30.122 60.9894 30.5701 60.8133 30.9286 60.5492C30.7494 62.2218 30.6597 64.9506 30.5701 65.4788C30.122 64.7746 29.4946 64.1584 28.7775 63.6302C27.9709 62.926 27.0746 62.3098 26.0887 61.7816C22.4139 59.5809 20.8902 58.6126 19.9939 56.676C19.9043 56.4999 19.725 56.4119 19.5458 56.4119C19.3665 56.4119 19.1873 56.588 19.1873 56.676C18.1117 60.1091 19.8147 63.014 24.2961 65.4788L25.282 66.007L25.4613 66.095C26.6264 66.7112 27.7916 67.3274 28.8672 68.1197C30.0323 69.088 30.839 70.3204 31.3768 71.7288C31.4664 71.9049 31.556 71.9929 31.7353 71.9929C31.9145 71.9929 32.0042 71.9049 32.0938 71.7288C32.5419 70.3204 33.4382 69.088 34.6034 68.1197C35.6789 67.3274 36.7545 66.7112 38.0093 66.095L38.1885 66.007L39.1744 65.4788C43.2974 63.014 45.0003 60.1971 44.0144 56.764ZM33.3486 60.1971C33.0797 60.1091 32.8108 59.933 32.6316 59.669C32.273 58.5246 32.0042 57.3802 31.9145 56.1478L31.8249 55.4436C32.0938 55.4436 32.273 55.3556 32.5419 55.2675V55.3556C33.259 57.1161 33.8864 58.7006 33.7967 59.4049C33.7071 59.669 33.6175 59.933 33.3486 60.1971ZM36.6648 58.4366C36.5752 58.4366 36.4856 58.5246 36.396 58.5246C36.1271 58.5246 35.9478 58.5246 35.7686 58.3485C34.8723 57.5563 34.1552 56.588 33.5278 55.5316L33.0797 54.9154C33.259 54.7394 33.4382 54.6513 33.6175 54.4753C35.1412 55.7957 36.4856 56.9401 36.6648 57.4682C36.7545 57.8204 36.7545 58.0844 36.6648 58.4366ZM38.3678 54.6513C38.547 54.8274 38.7263 55.1795 38.8159 55.4436C38.547 55.6197 38.2782 55.7957 38.0093 55.7957C36.8441 55.4436 35.7686 55.0035 34.693 54.3873L33.976 54.0351C34.0656 53.8591 34.1552 53.595 34.2449 53.419H34.3345C36.2167 53.7711 37.9196 54.2112 38.3678 54.6513ZM38.547 51.3063C38.8159 51.3943 39.0848 51.5704 39.2641 51.8344C39.1744 52.0985 38.9056 52.3626 38.6367 52.5387C37.4715 52.8028 36.2167 52.8908 34.9619 52.8028H34.2449C34.2449 52.5387 34.2449 52.3626 34.1552 52.0985H34.2449C36.2167 51.6584 37.83 51.2182 38.547 51.3063ZM37.0234 48.3133C37.113 48.3133 37.2026 48.3133 37.2922 48.3133C37.5611 48.3133 37.7404 48.3133 38.0093 48.4894C38.0093 48.7535 38.0093 49.1056 37.83 49.3697C36.8441 50.1619 35.8582 50.7781 34.693 51.2182L34.0656 51.5704C33.976 51.3943 33.7967 51.1302 33.6175 50.9542L33.7071 50.8661C34.6034 49.8978 35.7686 49.0175 37.0234 48.3133ZM32.5419 50.0739C33.259 48.3133 33.7967 46.7288 34.2449 46.2887C34.5138 46.1126 34.7826 46.0246 35.0515 45.9366H35.1412C35.3204 46.2006 35.41 46.4647 35.41 46.8168C34.9619 47.8732 34.3345 48.9295 33.5278 49.8978L33.0797 50.514C32.9004 50.426 32.6316 50.2499 32.4523 50.1619L32.5419 50.0739ZM30.839 45.7605C30.9286 45.5844 31.2871 45.1443 31.4664 45.1443C31.6456 45.1443 32.0042 45.5844 32.0938 45.8485C32.1834 47.0809 32.0938 48.2253 31.9145 49.4577L31.8249 50.0739C31.7353 50.0739 31.556 50.0739 31.4664 50.0739C31.3768 50.0739 31.1975 50.0739 31.1079 50.0739C30.839 48.1373 30.6597 46.3767 30.839 45.7605ZM31.4664 50.9542C32.5419 50.9542 33.3486 51.8344 33.3486 52.8028C33.3486 53.8591 32.4523 54.6513 31.4664 54.6513C30.3908 54.6513 29.5842 53.8591 29.5842 52.8028C29.5842 51.7464 30.4805 50.9542 31.4664 50.9542ZM27.8812 46.0246H27.9709C28.2398 46.0246 28.5086 46.2006 28.7775 46.2887C29.4049 47.345 29.9427 48.4013 30.3012 49.5457L30.5701 50.2499C30.3908 50.338 30.122 50.426 29.9427 50.602V50.514C28.7775 48.9295 27.7916 47.5211 27.702 46.9049C27.6124 46.6408 27.702 46.2887 27.8812 46.0246ZM25.282 49.3697C25.1027 49.1056 25.0131 48.7535 25.1027 48.4894C25.282 48.4013 25.5509 48.3133 25.8198 48.3133C25.9094 48.3133 25.999 48.3133 26.0887 48.3133C27.1642 48.9295 28.1501 49.6337 28.9568 50.514L29.4946 50.9542C29.3153 51.1302 29.2257 51.3063 29.136 51.5704H29.0464C27.1642 50.6901 25.6405 49.8978 25.282 49.3697ZM24.3857 52.5387C24.1168 52.3626 23.9376 52.1866 23.7583 51.8344C23.9376 51.5704 24.2065 51.3943 24.4753 51.3063C24.565 51.3063 24.6546 51.3063 24.7442 51.3063C25.9094 51.3943 26.9849 51.6584 28.1501 51.9225L28.8672 52.0985C28.7775 52.2746 28.7775 52.5387 28.7775 52.8028H27.6123C26.5368 52.8908 25.4613 52.8028 24.3857 52.5387ZM25.1027 55.7957C24.8339 55.7957 24.4753 55.6197 24.2961 55.4436C24.2961 55.1795 24.4753 54.8274 24.7442 54.6513C25.8198 54.1232 26.9849 53.7711 28.1501 53.507L28.8672 53.3309C28.9568 53.595 29.0464 53.7711 29.136 53.9471L28.9568 54.0351C27.702 54.8274 26.4472 55.4436 25.1027 55.7957ZM27.2538 58.4366C27.0746 58.5246 26.8057 58.6126 26.6264 58.6126C26.5368 58.6126 26.4472 58.6126 26.3575 58.6126C26.2679 58.3485 26.2679 57.9964 26.3575 57.7323C27.0746 56.764 27.9709 55.9718 28.8672 55.2675L29.4946 54.7394C29.6738 54.9154 29.8531 55.0915 30.0323 55.1795L29.9427 55.2675C28.8672 56.764 27.8812 58.1725 27.2538 58.4366ZM29.6738 60.1971C29.4049 60.0211 29.3153 59.757 29.2257 59.4049C29.4049 58.2605 29.7634 57.1161 30.3012 55.9718L30.5701 55.2675C30.7494 55.3556 31.0182 55.4436 31.2871 55.4436V55.5316C31.0182 57.4682 30.839 59.1408 30.4805 59.669C30.3012 59.933 30.0323 60.1091 29.6738 60.1971ZM38.3678 64.7746L37.2026 65.3908C35.9478 66.007 34.7826 66.7112 33.7071 67.5035C32.7212 68.2957 31.9145 69.3521 31.3768 70.4964C30.839 69.3521 30.0323 68.2957 29.0464 67.5035C27.9709 66.7112 26.8057 66.007 25.5509 65.3908L24.3857 64.7746C20.8006 62.7499 19.1873 60.5492 19.4561 58.0844C20.5317 59.757 22.4139 60.8133 25.282 62.4859C26.3576 63.1021 27.3435 63.8063 28.3294 64.5985C29.136 65.3028 29.6738 66.183 30.122 67.0633C30.2116 67.4154 30.3908 67.5035 30.5701 67.5035C30.7494 67.5035 30.9286 67.4154 30.9286 67.0633C31.0182 66.095 31.2871 61.8697 31.3768 60.5492C31.4664 61.8697 31.7353 66.095 31.8249 67.0633C31.8249 67.4154 32.0042 67.5035 32.1834 67.5035C32.3627 67.5035 32.4523 67.4154 32.6316 67.0633C33.0797 66.095 33.6175 65.3028 34.4241 64.5985C35.3204 63.8063 36.3063 63.1021 37.4715 62.4859C40.3396 60.8133 42.2218 59.669 43.2974 58.0844C43.6559 60.6373 41.9529 62.838 38.3678 64.7746Z" fill="white"/>
</g>
<defs>
<clipPath id="clip0_845_1180">
<rect width="210" height="75" fill="white" transform="translate(0.455078 0.161865)"/>
</clipPath>
</defs>
</svg>
