<svg width="308" height="98" viewBox="0 0 308 98" fill="none" xmlns="http://www.w3.org/2000/svg">
<g clip-path="url(#clip0_845_1114)">
<path d="M307.545 0.161865H0.544922V97.1619H307.545V0.161865Z" fill="#002147"/>
<path d="M0.544922 0.161865V97.1619H307.545V0.161865H0.544922ZM305.9 95.6591H2.18865V1.66659H305.9V95.6591Z" fill="white"/>
<path d="M106.914 32.4825C106.163 33.2386 104.986 33.8308 103.219 33.8308C101.778 33.8308 100.396 33.3811 99.4626 32.4421C98.2435 31.2159 98.2843 29.6641 98.2843 28.3159V19.9414H100.112V28.5208C100.112 29.5626 100.071 30.5832 100.884 31.4003C101.432 31.952 102.285 32.2584 103.279 32.2584C104.275 32.2584 105.026 31.9109 105.514 31.4208C106.428 30.5017 106.347 29.4598 106.347 27.152V19.9414H108.135V26.8655C108.134 29.3982 108.215 31.1754 106.914 32.4825Z" fill="white"/>
<path d="M121.188 33.5655L114.792 22.7194L114.832 33.5655H113.167V19.9414H114.974L121.372 30.8286L121.331 19.9414H122.994V33.5655H121.188Z" fill="white"/>
<path d="M128.459 33.5655V19.9414H130.286V33.5655H128.459Z" fill="white"/>
<path d="M140.444 33.5655H138.433L133.763 19.9414H135.651L139.488 31.6861L143.429 19.9414H145.196L140.444 33.5655Z" fill="white"/>
<path d="M148.746 33.5655V19.9414H156.24V21.4528H150.533V25.7421H155.895V27.213H150.533V32.013H156.402V33.5655H148.746Z" fill="white"/>
<path d="M167.988 33.5655L166.424 30.0116C165.489 27.908 165.042 27.7237 163.215 27.7237H162.362V33.5655H160.575V19.9414H163.58C165.388 19.9414 166.789 19.9215 167.885 21.0244C168.556 21.6982 168.942 22.5974 168.942 23.7407C168.942 24.6804 168.678 25.4769 168.11 26.0896C167.622 26.6208 166.829 27.0705 165.936 27.1719C166.383 27.1925 166.829 27.4578 167.094 27.7237C167.5 28.1329 167.785 28.7861 168.15 29.6237L169.897 33.5655H167.988ZM166.546 22.1067C165.815 21.3712 164.86 21.3918 163.763 21.3918H162.362V26.2733H162.993C164.291 26.2733 165.611 26.3145 166.465 25.4563C166.89 25.0279 167.135 24.3946 167.135 23.7407C167.134 23.0046 166.85 22.4131 166.546 22.1067Z" fill="white"/>
<path d="M176.875 33.8514C174.478 33.8514 172.874 32.5443 172.712 32.3805L173.585 31.1138C173.828 31.2776 175.148 32.2783 176.794 32.2783C178.458 32.2783 179.434 31.2776 179.434 30.0315C179.434 28.5407 177.775 27.8053 176.313 27.0904C174.587 26.2528 173.098 25.3542 173.098 23.3521C173.098 21.1869 174.844 19.6755 177.341 19.6755C179.84 19.6755 181.079 20.9216 181.201 21.0642L180.286 22.2493C180.124 22.1067 179.047 21.228 177.464 21.228C175.982 21.228 174.925 21.9635 174.925 23.189C174.925 24.4755 176.123 24.9524 177.464 25.6473C178.662 26.2595 181.322 27.1925 181.322 29.8684C181.322 32.1152 179.677 33.8514 176.875 33.8514Z" fill="white"/>
<path d="M185.604 33.5655V19.9414H187.432V33.5655H185.604Z" fill="white"/>
<path d="M196.764 21.4528V33.5655H194.937V21.4528H190.956V19.9414H200.724V21.4528H196.764Z" fill="white"/>
<path d="M208.61 28.1728V33.565H206.803V28.1728L202.518 19.9409H204.515L207.819 26.3517L211.059 19.9409H212.896L208.61 28.1728Z" fill="white"/>
<path d="M228.051 33.8308C224.477 33.8308 221.898 30.9096 221.898 26.784C221.898 22.5762 224.457 19.6755 228.154 19.6755C231.768 19.6755 234.286 22.5762 234.286 26.6819C234.286 30.9301 231.748 33.8308 228.051 33.8308ZM228.03 21.228C225.452 21.228 223.766 23.4138 223.766 26.7429C223.766 30.0521 225.655 32.2578 228.132 32.2578C230.954 32.2578 232.417 29.8266 232.417 26.6202C232.417 23.3727 230.61 21.228 228.03 21.228Z" fill="white"/>
<path d="M240.426 21.4528V25.7421H245.625V27.213H240.426V33.5655H238.619V19.9414H245.95V21.4528H240.426Z" fill="white"/>
<path d="M125.735 60.3428C125.735 69.0681 119.054 75.388 110.698 75.388C102.192 75.388 95.6616 68.9878 95.6616 60.6651C95.6616 51.9471 102.351 45.6218 110.698 45.6218C119.216 45.6212 125.735 52.0167 125.735 60.3428ZM120.894 60.5026C120.894 52.5811 117.152 47.2273 110.698 47.2273C103.701 47.2273 100.52 53.7052 100.52 60.5026C100.52 68.4281 104.259 73.8097 110.698 73.8097C117.708 73.8097 120.894 67.3166 120.894 60.5026Z" fill="white"/>
<path d="M217.558 60.3428C217.558 69.0681 210.874 75.388 202.52 75.388C194.014 75.388 187.483 68.9878 187.483 60.6651C187.483 51.9471 194.17 45.6218 202.52 45.6218C211.031 45.6212 217.558 52.0167 217.558 60.3428ZM212.709 60.5026C212.709 52.5811 208.969 47.2273 202.52 47.2273C195.517 47.2273 192.337 53.7052 192.337 60.5026C192.337 68.4281 196.076 73.8097 202.52 73.8097C209.521 73.8097 212.709 67.3166 212.709 60.5026Z" fill="white"/>
<path d="M229.175 60.5828H232.753C238.165 60.5828 239.282 57.2398 239.282 53.9511C239.282 51.4881 238.244 49.4774 235.702 48.3546C234.344 47.7923 233.072 47.714 231.324 47.714H229.174L229.175 60.5828ZM235.702 65.3244C234.03 62.9138 233.392 62.1883 231.324 62.1883H229.174V71.8049C229.174 72.6093 229.413 73.0052 230.367 73.1697L233.631 73.8096V74.9397H220.746V73.8096L223.686 73.1697C224.644 72.925 224.874 72.6093 224.874 71.8049V49.2406C224.874 48.4356 224.564 48.031 223.686 47.8719L220.746 47.2273V46.1072H233.312C235.941 46.1072 237.77 46.3446 239.282 46.9089C242.381 48.1099 244.13 51.0836 244.13 53.8682C244.13 57.3976 241.509 60.3427 237.131 61.3872V61.5503C238.01 61.9469 238.484 62.5179 241.589 66.6043L245.567 71.8055C246.121 72.61 246.761 73.1703 247.79 73.3328L250.5 73.8103V74.9403H243.58C242.781 74.9403 242.382 74.6956 241.668 73.7274L235.702 65.3244Z" fill="white"/>
<path d="M179.607 56.0361H180.96V65.5698H179.607L179.047 62.8309C178.816 61.7924 178.179 61.3865 177.219 61.3865H170.3V71.8049C170.3 72.6093 170.539 73.0052 171.489 73.1697L174.758 73.8096V74.9397H161.863V73.8096L164.803 73.1697C165.763 72.925 166.002 72.6093 166.002 71.8049V49.2406C166.002 48.4356 165.681 48.031 164.803 47.8719L161.863 47.2273V46.1072H183.585V53.3052H182.236L181.119 49.2413C180.801 48.1099 180.16 47.714 179.207 47.714H170.3V59.7784H177.219C178.178 59.7784 178.816 59.4017 179.047 58.3651L179.607 56.0361Z" fill="white"/>
<path d="M252.807 74.9397V73.8096L255.748 73.1697C256.705 72.925 256.945 72.6093 256.945 71.8049V49.2406C256.945 48.4356 256.626 48.031 255.748 47.8719L252.807 47.2273V46.1072H266.255C269.913 46.1072 272.541 46.582 274.682 47.5516C280.098 50.0444 282.561 55.3955 282.561 60.6643C282.561 65.8032 280.658 70.5939 275.8 73.1697C273.573 74.368 270.472 74.9397 266.415 74.9397H252.807ZM261.164 47.714V72.0396C261.164 73.0874 261.4 73.3328 262.436 73.3328H265.936C269.276 73.3328 271.743 72.9256 273.495 71.6437C276.441 69.4758 277.712 65.7276 277.712 60.7459C277.712 55.8723 276.441 51.2441 272.461 48.9137C270.783 47.9514 268.641 47.7134 265.298 47.7134L261.164 47.714Z" fill="white"/>
<path d="M137.04 73.8098V74.9398H126.772V73.8098L129.316 73.2507C130.271 73.0054 130.99 72.6917 131.552 71.9569L140.15 60.9092L131.552 49.2408C130.99 48.4357 130.272 48.0312 129.397 47.7918L127.017 47.2268V46.1067H139.67V47.2268L136.959 47.7135C136.089 47.8714 136.169 48.1095 136.65 48.7527L143.007 57.8049H143.169L149.769 48.9132C150.248 48.2719 150.248 47.951 149.53 47.7918L146.988 47.2268V46.1067H157.247V47.2268L154.707 47.7918C153.748 48.0312 153.029 48.3542 152.475 49.0764L144.287 59.4018L153.428 71.8057C153.987 72.6101 154.705 73.006 155.584 73.2514L157.963 73.8105V74.9405H145.309V73.8105L148.025 73.333C148.89 73.1705 148.809 72.9258 148.342 72.2832L141.409 62.5181H141.253L134.172 72.2832C133.692 72.9258 133.615 73.0876 134.49 73.2514L137.04 73.8098Z" fill="white"/>
<path d="M60.8874 36.2873C60.8874 36.2873 60.8874 49.5088 60.8874 50.5513C59.8859 50.5513 50.5721 50.5513 50.5721 50.5513L50.4303 50.9034C50.2629 51.3212 49.9589 51.7079 48.8855 51.7079C47.8128 51.7079 47.5095 51.3212 47.3413 50.9034L47.2002 50.5513C47.2002 50.5513 37.9082 50.5513 36.9067 50.5513C36.9067 49.5088 36.9067 36.2873 36.9067 36.2873H35.7858V36.656L34.9999 36.4133C34.8845 36.0624 34.5594 35.8071 34.1724 35.8071C33.6898 35.8071 33.2961 36.2017 33.2961 36.6885C33.2961 37.1752 33.6898 37.5698 34.1724 37.5698C34.3735 37.5698 34.5568 37.4989 34.7045 37.3835L35.7858 37.7177V38.8066L35.0078 38.6667C34.8739 38.3809 34.5957 38.176 34.2607 38.1594C33.7781 38.1362 33.3667 38.5109 33.3436 38.997C33.3199 39.4831 33.6937 39.8955 34.1763 39.9194C34.4309 39.932 34.6629 39.8319 34.8311 39.6654L35.7858 39.8379V40.9513L34.9695 40.9148C34.8139 40.6715 34.5429 40.509 34.2337 40.509C33.7511 40.509 33.3574 40.9036 33.3574 41.3897C33.3574 41.8758 33.7511 42.271 34.2337 42.271C34.5146 42.271 34.7618 42.1351 34.9221 41.9282L35.7851 41.9666V43.1776L34.9412 43.2081C34.781 42.9978 34.5317 42.8599 34.2482 42.8599C33.7656 42.8599 33.3726 43.2545 33.3726 43.7406C33.3726 44.2267 33.7656 44.6213 34.2482 44.6213C34.5548 44.6213 34.8245 44.4621 34.9801 44.2214L35.7845 44.1922V45.3076L34.8522 45.4688C34.6933 45.309 34.4744 45.2102 34.2324 45.2102C33.7498 45.2102 33.3561 45.6047 33.3561 46.0908C33.3561 46.5783 33.7498 46.9715 34.2324 46.9715C34.5805 46.9715 34.8792 46.7653 35.0203 46.4695L35.7838 46.3375V47.4291L34.7493 47.7468C34.601 47.632 34.4183 47.5604 34.2166 47.5604C33.7333 47.5604 33.3403 47.9543 33.3403 48.4411C33.3403 48.9285 33.7333 49.3225 34.2166 49.3225C34.6036 49.3225 34.9287 49.0685 35.044 48.717L35.7838 48.4895V49.54L34.628 50.0413C34.4849 49.9531 34.3148 49.9054 34.1348 49.912C33.6522 49.9312 33.275 50.3417 33.2942 50.8278C33.3133 51.3146 33.7227 51.6933 34.2047 51.6734C34.6135 51.6568 34.9425 51.3597 35.0236 50.9751L35.7832 50.6448V51.68C35.7832 51.68 45.9172 51.68 46.5066 51.68C46.9609 52.44 47.7297 52.8352 48.8829 52.8352C50.0374 52.8352 50.8048 52.44 51.2598 51.68C51.8492 51.68 62.0057 51.68 62.0057 51.68V36.2879L60.8874 36.2873Z" fill="white"/>
<path d="M41.8586 33.1662C44.018 33.1662 45.7685 32.8287 45.7685 32.4122C45.7685 31.9958 44.018 31.6582 41.8586 31.6582C39.6992 31.6582 37.9487 31.9958 37.9487 32.4122C37.9487 32.8287 39.6992 33.1662 41.8586 33.1662Z" fill="white"/>
<path d="M47.2407 26.7879L44.9838 28.3828L44.9647 28.5447L45.5007 28.7867C45.6069 28.8404 45.6082 28.926 45.5541 28.9777L44.1366 30.1807L44.0014 30.1687L42.9979 28.6799C42.9293 28.5831 42.9537 28.487 43.0744 28.4671L43.7482 28.3563V28.1852L42.0016 25.7017H41.7142L39.9676 28.1852V28.3563L40.6414 28.4671C40.7621 28.4876 40.7878 28.5838 40.7179 28.6799L39.7137 30.1687L39.5779 30.1813L38.2546 28.9784C38.2006 28.9266 38.2012 28.8404 38.3067 28.7874L38.8434 28.5453L38.8243 28.3835L36.4738 26.7886L36.2832 26.8635L37.6632 31.1051C38.3634 30.7888 39.9729 30.566 41.8566 30.5567C43.7403 30.5653 45.3504 30.7888 46.05 31.1051L47.4306 26.8635L47.2407 26.7879Z" fill="white"/>
<path d="M48.8698 61.6089C51.0292 61.6089 52.7797 61.2713 52.7797 60.8548C52.7797 60.4384 51.0292 60.1008 48.8698 60.1008C46.7105 60.1008 44.96 60.4384 44.96 60.8548C44.96 61.2713 46.7105 61.6089 48.8698 61.6089Z" fill="white"/>
<path d="M54.2518 55.2299L51.9949 56.8255L51.9758 56.9873L52.5118 57.2293C52.618 57.2824 52.6193 57.3679 52.5652 57.4197L51.1476 58.6233L51.0125 58.6107L50.009 57.1226C49.9404 57.0257 49.9648 56.9296 50.0861 56.909L50.7593 56.7989V56.6278L49.012 54.1443H48.7252L46.9786 56.6278V56.7989L47.6525 56.909C47.7731 56.9296 47.7989 57.0257 47.729 57.1226L46.7248 58.6107L46.5903 58.6233L45.2663 57.4197C45.2123 57.3679 45.2136 57.2824 45.3191 57.2293L45.8558 56.9873L45.8354 56.8255L43.4855 55.2299L43.2949 55.3048L44.6756 59.5464C45.3758 59.2294 46.9852 59.0066 48.869 58.998C50.7527 59.0066 52.3621 59.2301 53.0623 59.5464L54.443 55.3048L54.2518 55.2299Z" fill="white"/>
<path d="M55.863 33.1662C58.0224 33.1662 59.7729 32.8287 59.7729 32.4122C59.7729 31.9958 58.0224 31.6582 55.863 31.6582C53.7036 31.6582 51.9531 31.9958 51.9531 32.4122C51.9531 32.8287 53.7036 33.1662 55.863 33.1662Z" fill="white"/>
<path d="M61.2459 26.7879L58.989 28.3828L58.9699 28.5447L59.5059 28.7867C59.6121 28.8404 59.6134 28.926 59.5593 28.9777L58.1418 30.1807L58.0073 30.1687L57.0031 28.6799C56.9345 28.5831 56.9589 28.487 57.0796 28.4671L57.7541 28.3563V28.1852L56.0068 25.7017H55.7187L53.9721 28.1852V28.3563L54.646 28.4671C54.7673 28.4876 54.7923 28.5838 54.7224 28.6799L53.7183 30.1687L53.5838 30.1807L52.2598 28.9618C52.2064 28.9101 52.2064 28.8238 52.3119 28.7708L52.8499 28.544L52.8295 28.3822L50.479 26.7873L50.2891 26.8622L51.6691 31.1038C52.3693 30.7875 53.9787 30.5647 55.8624 30.5554C57.7468 30.564 59.3563 30.7875 60.0565 31.1038L61.4365 26.8622L61.2459 26.7879Z" fill="white"/>
<path d="M48.8389 16.1773C49.2817 16.1773 49.6406 15.8162 49.6406 15.3709C49.6406 14.9255 49.2817 14.5645 48.8389 14.5645C48.3961 14.5645 48.0371 14.9255 48.0371 15.3709C48.0371 15.8162 48.3961 16.1773 48.8389 16.1773Z" fill="white"/>
<path d="M67.5591 23.6526C68.0019 23.6526 68.3608 23.2916 68.3608 22.8462C68.3608 22.4008 68.0019 22.0398 67.5591 22.0398C67.1163 22.0398 66.7573 22.4008 66.7573 22.8462C66.7573 23.2916 67.1163 23.6526 67.5591 23.6526Z" fill="white"/>
<path d="M40.014 37.634C39.9467 37.634 39.9092 37.6433 39.8887 37.6546C39.8736 37.6599 39.8716 37.7282 39.8716 37.8012V38.9285C39.8716 39.1892 39.9362 39.2396 40.076 39.2396C40.3272 39.2396 40.5817 38.961 40.5817 38.4411C40.581 37.8104 40.2626 37.634 40.014 37.634Z" fill="white"/>
<path d="M42.398 39.2859C42.6492 39.2859 42.7857 39.0419 42.7857 38.5114C42.7857 37.9218 42.576 37.5962 42.3248 37.5962C42.1007 37.5962 41.9141 37.8542 41.9141 38.3675C41.9134 38.8986 42.1119 39.2859 42.398 39.2859Z" fill="white"/>
<path d="M48.3072 38.5087C48.3072 37.3256 47.909 36.372 47.0479 35.8627C46.5085 35.5437 45.7773 35.4396 44.876 35.4396L38.3525 35.4382V48.746H45.4556C47.1 48.746 48.0666 49.1187 48.151 50.6022H48.3085L48.3072 38.5087ZM43.4947 39.2806C43.6351 39.268 43.6899 39.2395 43.7077 39.1301C43.7228 39.0392 43.7393 38.884 43.7538 38.6168L43.7861 38.0246C43.8066 37.6552 43.7835 37.6227 43.5527 37.6021V37.4874H44.2384L44.7488 38.6499L45.1951 37.4874H45.9039V37.6021C45.6824 37.6227 45.6712 37.6346 45.6791 37.943L45.7081 38.9258C45.7173 39.2514 45.722 39.2601 45.9329 39.2813V39.3947H45.0198V39.2813C45.238 39.2601 45.2472 39.2514 45.2446 38.9258L45.2354 37.8926H45.2235L44.6604 39.3628H44.5028L43.9688 37.9954H43.9628L43.9424 38.6466C43.9332 38.8986 43.9365 39.0392 43.9483 39.1301C43.9602 39.2395 44.0242 39.266 44.2134 39.2806V39.394H43.4927V39.2806H43.4947ZM45.1477 42.1641L45.1042 42.1428C44.8655 42.0314 44.5938 41.8789 44.5938 41.5652C44.5938 41.2336 44.8325 40.9637 45.2914 40.9637C45.3817 40.9637 45.4754 40.9757 45.5598 40.9995C45.6264 41.0168 45.6732 41.0281 45.7107 41.0407C45.7226 41.1547 45.7431 41.2986 45.7754 41.4976L45.6468 41.5181C45.5822 41.3245 45.4806 41.1163 45.2499 41.1163C45.1009 41.1163 44.996 41.2303 44.996 41.3716C44.996 41.5181 45.1094 41.603 45.296 41.6886L45.3606 41.7178C45.6296 41.8411 45.8598 41.991 45.8598 42.3338C45.8598 42.6946 45.571 42.9585 45.1193 42.9585C45.0026 42.9585 44.8826 42.9353 44.8035 42.9088C44.7171 42.879 44.6551 42.8557 44.6209 42.8378C44.5978 42.7026 44.5589 42.5447 44.5239 42.3478L44.6525 42.3093C44.7132 42.4797 44.8859 42.8053 45.1714 42.8053C45.3231 42.8053 45.4398 42.7052 45.4398 42.5149C45.4391 42.3438 45.325 42.247 45.1477 42.1641ZM43.227 41.2754C43.2798 41.4392 43.5105 42.0182 43.6187 42.3053C43.709 42.056 43.8956 41.4949 43.9417 41.3577C44.0037 41.1779 43.9853 41.1461 43.854 41.1322L43.7664 41.1229V41.0082H44.4732V41.1229C44.3057 41.1435 44.2661 41.158 44.1514 41.4253C44.1349 41.4658 43.7789 42.3372 43.56 42.936H43.3352C43.1334 42.4081 42.8598 41.6826 42.7543 41.4067C42.6593 41.1547 42.6 41.1401 42.4596 41.1222V41.0075H43.4024V41.1222L43.3035 41.1335C43.1954 41.1461 43.1954 41.172 43.227 41.2754ZM42.3831 37.443C42.9171 37.443 43.3292 37.8362 43.3292 38.4172C43.3292 39.0452 42.9026 39.4378 42.3428 39.4378C41.7534 39.4378 41.371 39.0067 41.371 38.4669C41.371 37.9914 41.6862 37.443 42.3831 37.443ZM39.1391 39.394V39.2806C39.3521 39.262 39.3752 39.2422 39.3752 38.9252V37.9563C39.3752 37.6399 39.3521 37.6187 39.1622 37.6015V37.4868H40.0141C40.3734 37.4868 40.6708 37.5577 40.8653 37.748C41.0031 37.88 41.1171 38.0969 41.1171 38.3495C41.1171 39.0803 40.5653 39.394 39.8921 39.394H39.1391ZM41.0802 44.6436C40.8791 44.6609 40.856 44.6814 40.856 44.9984V45.9667C40.856 46.2837 40.8791 46.3042 41.0802 46.3221V46.4362H40.1354V46.3221C40.3365 46.3042 40.3602 46.283 40.3602 45.9667V44.9984C40.3602 44.6814 40.3365 44.6615 40.1354 44.6436V44.5289H41.0802V44.6436ZM41.127 42.9154H40.4004V42.8014C40.529 42.7947 40.6048 42.7543 40.6193 42.6508C40.6312 42.56 40.6424 42.3988 40.6424 42.0905V41.5506C40.6424 41.3338 40.6358 41.2953 40.5778 41.2131C40.5343 41.1514 40.4611 41.1315 40.3563 41.1222V41.0075H41.0018L41.973 42.2251H41.9782V41.8318C41.9782 41.5234 41.967 41.3623 41.9558 41.2714C41.9413 41.1693 41.8622 41.1309 41.6697 41.1216V41.0068H42.4134V41.1216C42.2677 41.1275 42.1919 41.1687 42.178 41.2714C42.1661 41.3623 42.1536 41.5234 42.1536 41.8318V42.936H41.9031L40.8237 41.5506H40.8178V42.0905C40.8178 42.3988 40.8297 42.56 40.8409 42.6508C40.856 42.7536 40.9345 42.7921 41.127 42.8014V42.9154ZM42.7174 46.4362H41.2714V46.3221C41.493 46.3042 41.516 46.283 41.516 45.9667V44.9984C41.516 44.6814 41.493 44.6615 41.2971 44.6436V44.5289H42.2453V44.6436C42.0356 44.6609 42.0119 44.6814 42.0119 44.9984V46.0051C42.0119 46.1576 42.0178 46.2306 42.0699 46.2571C42.1174 46.281 42.1846 46.2837 42.2749 46.2837C42.3686 46.2837 42.4938 46.275 42.5552 46.1988C42.6013 46.1437 42.6514 46.0641 42.6982 45.9083L42.8235 45.9289C42.805 46.0403 42.7444 46.3453 42.7174 46.4362ZM44.3453 46.4362H42.8987V46.3221C43.1209 46.3042 43.1439 46.283 43.1439 45.9667V44.9984C43.1439 44.6814 43.1209 44.6615 42.925 44.6436V44.5289H43.8732V44.6436C43.6628 44.6609 43.6398 44.6814 43.6398 44.9984V46.0051C43.6398 46.1576 43.6464 46.2306 43.6991 46.2571C43.7453 46.281 43.8125 46.2837 43.9028 46.2837C43.9965 46.2837 44.1217 46.275 44.1831 46.1988C44.2299 46.1437 44.2793 46.0641 44.3261 45.9083L44.4514 45.9289C44.4343 46.0403 44.3723 46.3453 44.3453 46.4362ZM46.1716 44.6436C46.0048 44.6642 45.9646 44.6788 45.8505 44.946C45.8334 44.9872 45.4773 45.8586 45.2584 46.4567H45.0336C44.8312 45.9289 44.5576 45.2034 44.4527 44.9275C44.3558 44.6755 44.2984 44.6609 44.158 44.643V44.5283H45.1009V44.643L45.002 44.6543C44.8938 44.6662 44.8938 44.6927 44.9261 44.7955C44.9789 44.9593 45.2096 45.5383 45.3178 45.8254C45.4081 45.5761 45.5947 45.0157 45.6409 44.8777C45.7022 44.6987 45.6844 44.6662 45.5532 44.6516L45.4655 44.643V44.5283H46.1716V44.6436ZM47.0769 37.6015C46.8745 37.6187 46.8521 37.6399 46.8521 37.9563V38.9252C46.8521 39.2422 46.8745 39.262 47.0769 39.2806V39.394H46.1314V39.2806C46.3325 39.262 46.3556 39.2422 46.3556 38.9252V37.9563C46.3556 37.6399 46.3325 37.6187 46.1314 37.6015V37.4868H47.0769V37.6015Z" fill="white"/>
<path d="M57.2386 38.1467L57.0586 38.7071H57.4318L57.2478 38.1467H57.2386Z" fill="white"/>
<path d="M55.606 41.9519C55.606 42.4831 55.8044 42.8711 56.0899 42.8711C56.3411 42.8711 56.4783 42.627 56.4783 42.0958C56.4783 41.5056 56.2693 41.1807 56.0174 41.1807C55.7925 41.1807 55.606 41.4386 55.606 41.9519Z" fill="white"/>
<path d="M56.5535 45.1887L56.3735 45.7491H56.7467L56.5628 45.1887H56.5535Z" fill="white"/>
<path d="M52.8745 35.4396C51.9746 35.4396 51.2427 35.5437 50.7034 35.8627C49.8416 36.372 49.444 37.3257 49.444 38.5088L49.4434 50.6029H49.6003C49.6847 49.1194 50.6519 48.7467 52.2957 48.7467H59.4448V35.439L52.8745 35.4396ZM54.4128 37.5505H55.0576L56.0288 38.7681H56.0341V38.3748C56.0341 38.0664 56.0229 37.9053 56.0117 37.8144C55.9965 37.7123 55.9181 37.6738 55.7255 37.6652V37.5505H56.4693V37.6652C56.3235 37.6705 56.2477 37.7123 56.2332 37.8144C56.222 37.9053 56.2095 38.0664 56.2095 38.3748V39.4783H55.9596L54.8796 38.093H54.8737V38.6328C54.8737 38.9405 54.8855 39.1023 54.8967 39.1931C54.9119 39.2959 54.9904 39.3337 55.1829 39.3437V39.4578H54.457V39.3437C54.5849 39.3371 54.6607 39.2966 54.6745 39.1931C54.6871 39.1023 54.6983 38.9405 54.6983 38.6328V38.093C54.6983 37.8761 54.6917 37.8376 54.6337 37.7561C54.5901 37.6944 54.5163 37.6738 54.4128 37.6652V37.5505ZM57.0211 42.0023C57.0211 42.6303 56.5952 43.0229 56.0348 43.0229C55.446 43.0229 55.0635 42.5919 55.0635 42.0521C55.0635 41.5766 55.3781 41.0281 56.075 41.0281C56.6097 41.0281 57.0211 41.4214 57.0211 42.0023ZM54.8203 42.8651V42.9792H53.8748V42.8651C54.0759 42.8472 54.0989 42.826 54.0989 42.5096V41.5414C54.0989 41.2244 54.0759 41.2039 53.8748 41.1866V41.0719H54.8203V41.1866C54.6178 41.2039 54.5954 41.2244 54.5954 41.5414V42.5096C54.5961 42.8266 54.6185 42.8472 54.8203 42.8651ZM53.3183 39.3444C53.52 39.3264 53.5431 39.3059 53.5431 38.9889V38.02C53.5431 37.7037 53.52 37.6825 53.3183 37.6652V37.5505H54.2631V37.6652C54.062 37.6825 54.0389 37.703 54.0389 38.02V38.9889C54.0389 39.3059 54.062 39.3264 54.2631 39.3444V39.4584H53.3183V39.3444ZM53.3354 42.8651V42.9792H52.3161V42.8651C52.5495 42.8472 52.5726 42.826 52.5726 42.5096V41.2244H52.5231C52.328 41.2244 52.2482 41.2602 52.202 41.3133C52.1671 41.3564 52.1328 41.4333 52.0939 41.5978H51.9713C51.9838 41.3511 52.0009 41.1488 52.0062 40.9996H52.0972C52.1414 41.0666 52.1697 41.0726 52.2482 41.0726H53.4126C53.4884 41.0726 53.5029 41.0553 53.5504 40.9996H53.6407C53.6433 41.123 53.6578 41.3723 53.6723 41.5892L53.5444 41.5985C53.5009 41.4227 53.4693 41.3458 53.4251 41.296C53.3756 41.243 53.2787 41.2258 53.1389 41.2258H53.0677V42.511C53.0677 42.8266 53.0915 42.8472 53.3354 42.8651ZM51.4016 39.4584H50.6816V39.3444C50.8214 39.3324 50.8768 39.3032 50.8939 39.1938C50.9084 39.103 50.9262 38.9471 50.9401 38.6805L50.9724 38.0883C50.9928 37.7189 50.9697 37.6864 50.739 37.6659V37.5512H51.424L51.935 38.7137L52.382 37.5512H53.0908V37.6659C52.8686 37.6864 52.8567 37.6977 52.8653 38.0061L52.8943 38.9889C52.9036 39.3145 52.9088 39.3231 53.1192 39.3444V39.4584H52.2066V39.3444C52.4242 39.3231 52.4341 39.3145 52.4308 38.9889L52.4216 37.9557H52.4097L51.8466 39.4259H51.6891L51.155 38.0585H51.1491L51.1293 38.7104C51.1194 38.9624 51.1227 39.103 51.1346 39.1938C51.1464 39.3026 51.2104 39.3291 51.3996 39.3444V39.4584H51.4016ZM53.9578 46.5006H53.0447V46.3865C53.2636 46.366 53.2728 46.3567 53.2688 46.0311L53.2609 44.9978H53.2491L52.6853 46.4681H52.5291L51.995 45.1006H51.9884L51.9686 45.7519C51.9594 46.0039 51.9627 46.1445 51.9746 46.2353C51.9864 46.3441 52.0491 46.3706 52.2396 46.3859V46.4999H51.5183V46.3859C51.6587 46.3733 51.7141 46.3447 51.7319 46.2353C51.7458 46.1445 51.7636 45.9886 51.7774 45.722L51.8104 45.1291C51.8308 44.7591 51.8071 44.7273 51.577 44.7067V44.592H52.2627L52.773 45.7539L53.2194 44.592H53.9288V44.7067C53.7073 44.7273 53.6961 44.7392 53.7033 45.0469L53.733 46.0297C53.7416 46.3553 53.7469 46.364 53.9572 46.3852L53.9578 46.5006ZM55.6174 46.5006H54.1326V46.3865C54.3567 46.3686 54.3798 46.3474 54.3798 46.0311V45.0622C54.3798 44.7452 54.3567 44.7253 54.1622 44.7074V44.5926H55.5442C55.5475 44.6431 55.562 44.8572 55.5765 45.0768L55.4486 45.086C55.4189 44.9421 55.3873 44.8606 55.3405 44.8128C55.295 44.7631 55.1981 44.7452 55.0438 44.7452H54.9943C54.8829 44.7452 54.8776 44.7452 54.8776 44.848V45.4143H55.0233C55.2739 45.4143 55.2825 45.3971 55.3121 45.1736H55.4407V45.8659H55.3121C55.2825 45.608 55.2739 45.5907 55.0233 45.5907H54.8776V46.0689C54.8776 46.222 54.8829 46.2943 54.9356 46.3209C54.9824 46.3447 55.049 46.3474 55.14 46.3474C55.2567 46.3474 55.3853 46.3301 55.4493 46.2598C55.4987 46.2068 55.5482 46.0987 55.593 45.9574L55.7202 45.978C55.7051 46.1219 55.6444 46.421 55.6174 46.5006ZM57.66 46.5006H56.7435V46.3865L56.8319 46.3739C56.9387 46.3593 56.9446 46.3301 56.9071 46.224L56.8022 45.925H56.3235L56.2352 46.2068C56.1976 46.3328 56.1976 46.362 56.3321 46.3766L56.4172 46.3859V46.4999H55.7374V46.3859C55.8864 46.3653 55.9299 46.3527 56.0262 46.1067L56.6104 44.59L56.8121 44.5489L57.0106 45.1033C57.1358 45.4528 57.2605 45.7989 57.3712 46.098C57.4655 46.3527 57.5183 46.3673 57.6607 46.3859L57.66 46.5006ZM58.3451 39.4584H57.4279V39.3444L57.5169 39.3324C57.6238 39.3178 57.6297 39.288 57.5915 39.1825L57.4873 38.8835H57.0079L56.9202 39.1653C56.8827 39.292 56.8827 39.3205 57.0165 39.3351L57.1009 39.3444V39.4584H56.4224V39.3444C56.5708 39.3231 56.6156 39.3112 56.7119 39.0652L57.2954 37.5485L57.4965 37.5074L57.6943 38.0618C57.8202 38.4106 57.9462 38.7574 58.0563 39.0565C58.1506 39.3112 58.2033 39.3264 58.3464 39.3444V39.4584H58.3451Z" fill="white"/>
<path d="M45.4062 71.4649C45.849 71.4649 46.208 71.1038 46.208 70.6585C46.208 70.2131 45.849 69.8521 45.4062 69.8521C44.9635 69.8521 44.6045 70.2131 44.6045 70.6585C44.6045 71.1038 44.9635 71.4649 45.4062 71.4649Z" fill="white"/>
<path d="M53.3018 72.7666C53.7445 72.7666 54.1035 72.4056 54.1035 71.9602C54.1035 71.5148 53.7445 71.1538 53.3018 71.1538C52.859 71.1538 52.5 71.5148 52.5 71.9602C52.5 72.4056 52.859 72.7666 53.3018 72.7666Z" fill="white"/>
<path d="M27.4011 55.4666C27.6753 55.4679 28.4514 55.5428 29.1087 56.4832C29.3791 56.8692 29.5709 57.3254 29.5696 57.8022C29.5683 58.5914 29.1859 59.0483 28.2648 59.6996L25.8213 61.4337L25.1567 60.4821L27.8929 58.5404C28.1461 58.3613 28.4837 58.0675 28.4843 57.6902C28.4843 57.4826 28.4567 57.3135 28.2694 57.0449C27.9793 56.6298 27.6753 56.5946 27.4828 56.594C27.1927 56.5933 26.9184 56.7697 26.3296 57.1862L23.9587 58.7413L23.3125 57.8168L25.8299 56.1596C26.4951 55.6901 26.9244 55.4639 27.4011 55.4666Z" fill="white"/>
<path d="M23.0501 53.2192L26.3949 51.8995L26.7556 52.8425L21.7064 54.8114L21.349 53.828L23.9613 50.4816L20.5927 51.6654L20.2334 50.674L25.3288 48.8821L25.667 49.8118L23.0501 53.2192Z" fill="white"/>
<path d="M19.4209 46.4636L24.7846 45.6426L24.9587 46.7912L19.5943 47.6115L19.4209 46.4636Z" fill="white"/>
<path d="M24.593 42.0607L19.0928 43.7186L19.1416 42.5487L23.2677 41.4307L19.251 39.9418L19.2985 38.8052L24.6398 40.932L24.593 42.0607Z" fill="white"/>
<path d="M19.874 35.8516L20.7734 32.6724L21.6654 32.9277L21.078 35.0054L22.2905 35.3529L22.8424 33.4018L23.7186 33.6519L23.1661 35.6036L24.496 35.9842L25.1012 33.8435L26.0092 34.1028L25.092 37.345L19.874 35.8516Z" fill="white"/>
<path d="M28.1594 29.7298L26.5519 29.5872C25.7911 29.5163 25.7172 29.6993 25.5029 30.0859L25.439 30.1993L27.3464 31.2193L26.7801 32.2286L22.0098 29.6025L22.7917 28.2211C23.1445 27.5851 23.5203 26.9087 24.475 26.9087C25.0744 26.9087 25.9084 27.4154 25.9084 28.3265C25.9084 28.4884 25.8695 28.6588 25.8023 28.8378C26.0172 28.5268 26.4056 28.4804 26.7583 28.4844C26.9548 28.4857 27.1467 28.5155 27.3056 28.5288L28.7535 28.6568L28.1594 29.7298ZM24.1539 28.0779C23.8777 28.1561 23.7339 28.371 23.5276 28.7423L23.3489 29.0514L24.6649 29.7649L24.8865 29.3644C25.073 29.0288 25.1139 28.8365 25.048 28.6031C24.9979 28.4247 24.8311 28.2377 24.6682 28.1462C24.477 28.0387 24.2871 28.0394 24.1539 28.0779Z" fill="white"/>
<path d="M30.562 18.9851L31.4844 18.2861L34.7495 22.6438L33.8277 23.3434L30.562 18.9851Z" fill="white"/>
<path d="M36.651 16.2794L38.7127 20.3009L37.6861 20.8334L35.6244 16.8119L34.3017 17.4983L33.8765 16.6694L37.5424 14.7681L37.967 15.597L36.651 16.2794Z" fill="white"/>
<path d="M43.001 16.5712L43.5238 18.6827L42.4511 18.9519L41.9276 16.8398L39.4814 14.0717L40.6181 13.7865L42.2362 15.6905L42.7801 13.2408L43.87 12.9722L43.001 16.5712Z" fill="white"/>
<path d="M62.6401 18.5316L64.353 19.5569L63.8869 20.3447L62.1746 19.3195L60.9838 21.3295L60.0054 20.7439L62.7818 16.0547L65.5629 17.7206L65.0889 18.5217L63.2862 17.442L62.6401 18.5316Z" fill="white"/>
<path d="M72.391 36.2614L73.8745 34.6194L71.7204 34.1068L71.3657 32.9668L74.5681 33.809L76.5765 31.4448L76.9483 32.6392L75.5703 34.1532L77.5714 34.638L77.9176 35.7547L74.94 34.953L72.7596 37.4491L72.391 36.2614Z" fill="white"/>
<path d="M77.5812 40.1507L76.3225 40.2528L76.4564 42.2689L75.5472 42.3299L75.4133 40.3298L73.0931 40.4869L73.0146 39.3907L78.4311 38.9451L78.6474 42.2264L77.7217 42.2888L77.5812 40.1507Z" fill="white"/>
<path d="M81.3943 42.828C81.5401 24.8257 67.0709 10.0603 49.1415 9.91443C40.7633 9.84612 32.7814 12.9723 26.666 18.7166C20.0944 24.8907 16.4344 33.2658 16.3619 42.2988C16.2749 53.07 21.4698 63.1528 30.2621 69.3295C31.0968 72.8277 34.2365 75.4392 37.9816 75.4392C39.053 75.4392 40.0908 75.229 41.0699 74.8158C42.1123 75.1481 43.1811 75.4293 44.2473 75.6541C43.9011 76.6124 43.4099 77.5156 42.9319 78.3333L43.7106 79.1158C43.8965 78.9911 44.1147 78.9308 44.3343 78.9295C44.9297 78.9295 45.5 79.3393 45.4954 80.0781C45.4954 80.6789 45.0925 81.2426 44.2552 81.2413C43.8016 81.2413 43.2134 81.0005 42.8963 80.3162C42.8963 80.3162 42.6853 80.982 42.6853 81.7837C42.6853 84.2109 45.3088 86.8835 48.8185 88.0022C52.3485 86.8921 54.9608 84.2109 54.9608 81.7837C54.9608 80.982 54.7499 80.3162 54.7499 80.3162C54.4334 80.9999 53.8446 81.2413 53.3903 81.2413C52.5536 81.2426 52.1507 80.6789 52.1507 80.0781C52.1461 79.3393 52.7158 78.9295 53.3112 78.9295C53.5301 78.9308 53.749 78.9918 53.9356 79.1158L54.6503 78.4009L54.6681 78.3903L54.6978 78.3525C54.7017 78.3552 54.7057 78.3552 54.7083 78.3578L54.7096 78.3386L54.7136 78.3333L54.711 78.3267V78.3253C54.3595 77.4798 54.103 76.7079 53.923 75.9718C59.745 75.1693 64.659 72.6831 68.5715 68.5476L68.565 68.5396C76.6379 62.3662 81.3113 53.0269 81.3943 42.828ZM37.9809 74.341C34.2346 74.341 31.1878 71.2646 31.1878 67.4839C31.1878 66.3015 31.4851 65.1887 32.0087 64.2171C32.3561 64.5348 32.7273 64.8644 33.113 65.1973C32.7821 65.9002 32.5915 66.6808 32.5915 67.5071C32.5915 69.5603 33.6207 71.2553 35.5664 72.4099C36.6952 73.0803 37.9763 73.6832 39.3332 74.2064C38.8915 74.2959 38.4398 74.341 37.9809 74.341ZM48.8778 64.3285C47.6066 64.3285 46.3552 64.2125 45.1248 63.9956C43.7989 61.2793 41.0027 59.5272 37.9816 59.5272C37.2075 59.5272 36.4605 59.6439 35.7524 59.8515C30.4229 55.7445 27.2496 49.3271 27.2496 42.5634C27.2496 30.5628 36.9524 20.799 48.8778 20.799C60.8039 20.799 70.506 30.5628 70.506 42.5634C70.506 54.5654 60.8039 64.3285 48.8778 64.3285ZM53.4932 64.9552C52.9327 65.8638 52.5892 67.0449 52.4705 68.2406C50.4899 67.7186 48.6892 67.0296 47.1095 66.3094C47.3284 65.8498 47.8407 65.4234 48.7143 65.4234C48.7697 65.4234 48.8231 65.4274 48.8778 65.4274C50.4582 65.4274 52.0017 65.2643 53.4932 64.9552ZM46.576 65.3127C46.3974 65.4712 46.2477 65.6502 46.1257 65.8426C45.4308 65.5468 44.0917 64.9168 43.6572 64.6542C44.3442 64.877 45.8798 65.243 46.576 65.3127ZM37.9809 60.6254C40.2563 60.6254 42.3873 61.7999 43.6367 63.6826C42.5383 63.4074 41.4589 63.0466 40.4079 62.5957L40.4046 62.6023L40.3737 62.5851C39.6411 62.2369 38.8552 62.0605 38.0403 62.0605C36.2277 62.0605 34.6236 62.9531 33.6326 64.3179C33.2179 64.0858 32.8038 63.8424 32.3963 63.5871C33.624 61.8006 35.6686 60.6254 37.9809 60.6254ZM53.2156 77.9175C51.9688 77.9175 51.0437 78.895 51.0437 80.1026C51.0437 81.5112 52.0235 82.3587 53.2868 82.3587C53.4437 82.3587 53.5973 82.3408 53.745 82.3096C53.3685 84.0657 51.3048 85.9677 48.8178 86.8185C46.3743 85.9677 44.2763 84.0664 43.9005 82.3096C44.0488 82.3408 44.2018 82.3587 44.3587 82.3587C45.6213 82.3587 46.6011 81.5112 46.6011 80.1026C46.6011 78.895 45.6767 77.9175 44.4292 77.9175C44.7437 77.3359 45.1005 76.6197 45.3642 75.8683C46.8319 76.1223 48.2765 76.2609 49.6222 76.2609C50.7075 76.2609 51.7637 76.2039 52.7949 76.1017C52.934 76.6362 53.269 77.6602 53.358 77.9268C53.3138 77.9208 53.2677 77.9175 53.2156 77.9175ZM49.6235 75.1614C45.2936 75.1614 39.8877 73.6805 36.1737 71.4768C35.0647 70.819 33.742 69.5954 33.742 67.5071C33.742 66.9646 33.8456 66.446 34.0256 65.9672C35.4286 67.1291 36.8666 68.2081 37.7746 68.7094C37.9882 68.8275 38.1121 68.8852 38.3607 68.8852C38.9567 68.8852 39.4414 68.3971 39.4414 67.7943C39.4414 67.334 39.1928 66.9607 38.782 66.7809C38.0033 66.4374 36.3893 65.7656 34.6394 64.8604C35.426 63.8285 36.6557 63.1614 38.0403 63.1614C38.6765 63.1614 39.2897 63.2986 39.862 63.5699L41.0442 64.2636C44.8024 66.5727 54.409 72.4716 66.0496 69.4077C61.6525 73.2693 56.2584 75.1614 49.6235 75.1614ZM67.8133 67.7074C62.6105 69.5523 57.7518 69.4343 53.5967 68.5131C53.7292 66.7239 54.3918 64.741 55.4883 64.4419C64.8344 61.5917 71.6566 52.8631 71.6566 42.5634C71.6566 29.9566 61.4375 19.7001 48.8778 19.7001C36.3174 19.7001 26.0984 29.9566 26.0984 42.5634C26.0984 49.4491 29.2348 56.0005 34.5385 60.3237C33.2957 60.9252 32.2355 61.843 31.4541 62.9684C31.081 62.7071 30.721 62.4372 30.3854 62.16L30.1731 62.3742C30.4038 62.6547 30.7467 63.0148 31.1627 63.42C30.4506 64.6097 30.0366 65.9977 30.0366 67.4832C30.0366 67.5854 30.0484 67.6848 30.0517 67.7856C22.1001 61.774 17.4307 52.3531 17.5118 42.3068C17.5823 33.5669 21.1197 25.467 27.4724 19.4992C33.3682 13.9604 41.0607 10.947 49.1316 11.0126C66.4261 11.1532 80.3829 25.4219 80.2431 42.8194C80.164 52.6993 75.635 61.7435 67.8133 67.7074Z" fill="white"/>
<path d="M31.5474 24.8436C31.5474 25.3112 31.3443 25.8046 30.9382 26.2509C30.1582 27.1084 29.3268 27.1866 29.2411 27.1846L29.005 26.2801C29.1356 26.2449 29.7468 26.1196 30.18 25.6421C30.3758 25.4266 30.4773 25.1971 30.4773 24.9942C30.4773 24.7787 30.3362 24.4046 29.8945 24.4046C29.423 24.4046 28.6345 25.0917 27.8261 25.0917C27.5156 25.0917 27.1707 25.0479 26.8114 24.7163C26.4646 24.3973 26.3037 23.9895 26.3037 23.5757C26.3037 23.1234 26.5094 22.6479 26.8905 22.2281C27.6151 21.4317 28.4123 21.3667 28.4815 21.364L28.676 22.252C28.5844 22.2679 27.9916 22.3986 27.6237 22.8031C27.4345 23.0107 27.3343 23.2368 27.3343 23.4351C27.3343 23.6499 27.4701 23.9132 27.8228 23.9185C28.2105 23.9232 29.1863 23.2056 29.9795 23.2056C30.3474 23.2056 30.6151 23.2713 30.987 23.6141C31.3608 23.957 31.5474 24.3887 31.5474 24.8436Z" fill="white"/>
<path d="M56.5423 19.3566C55.1577 19.3566 53.9023 18.2962 53.9023 16.702C53.9023 15.2782 54.8511 13.6262 56.5746 13.6262C57.977 13.6262 59.2753 14.623 59.2753 16.2265C59.2746 17.4335 58.465 19.3566 56.5423 19.3566ZM58.1181 16.2119C58.1181 15.8352 58.0331 15.4406 57.8056 15.1349C57.5709 14.8173 57.1845 14.5951 56.7256 14.5951C55.7531 14.5951 55.041 15.8087 55.041 16.8101C55.041 17.7398 55.6654 18.3718 56.5041 18.3718C57.6045 18.3725 58.1181 16.9348 58.1181 16.2119Z" fill="white"/>
<path d="M71.5938 31.0163C69.9421 31.0163 69.0322 29.4161 69.0322 28.3424C69.0322 26.7143 70.7742 25.4702 72.1351 25.4702C73.6186 25.4702 74.7071 26.8894 74.7071 28.1753C74.7078 29.6369 73.1894 31.0163 71.5938 31.0163ZM71.4006 29.9094C72.3533 29.9094 73.6746 29.0805 73.6746 27.9644C73.6746 27.1958 73.0812 26.5963 72.3197 26.5963C71.4283 26.5963 70.0694 27.3934 70.0694 28.5188C70.0694 29.119 70.5256 29.9094 71.4006 29.9094Z" fill="white"/>
<path d="M72.6611 47.0928C72.6611 45.7452 73.5684 44.4209 75.3717 44.4209C76.8881 44.4209 78.3539 45.3613 78.3539 47.0497C78.3539 48.4364 77.4703 49.7693 75.6789 49.7693C74.1473 49.7693 72.6611 48.7958 72.6611 47.0928ZM75.7389 48.6035C76.7009 48.6035 77.4057 48.0113 77.4057 47.1425C77.4057 46.1053 76.211 45.5775 75.2899 45.5775C74.1097 45.5775 73.6304 46.3494 73.6304 47.0749C73.631 48.2109 75.015 48.6035 75.7389 48.6035Z" fill="white"/>
<path d="M70.5975 53.5261L72.2109 53.5328C72.9757 53.5394 73.0344 53.351 73.2157 52.9485L73.2691 52.8291L71.328 51.9226L71.7935 50.8867L76.7049 53.1667L76.0752 54.5885C75.6447 55.5448 75.2761 56.0276 74.3761 56.0276C73.7979 56.0276 72.9493 55.5441 72.9559 54.6548C72.9572 54.5182 72.9757 54.3717 73.0199 54.2158C72.7311 54.7205 72.0038 54.6502 71.5489 54.6502L70.0957 54.6436L70.5975 53.5261ZM73.7445 54.1336C73.7445 54.5507 74.0926 54.8823 74.4803 54.8823C74.8271 54.8823 75.044 54.6906 75.2471 54.237L75.4179 53.8292L74.0768 53.1959L73.8533 53.6992C73.7788 53.8643 73.7445 54.0096 73.7445 54.1336Z" fill="white"/>
<path d="M67.2949 59.561C67.2949 58.4442 67.8092 57.8368 68.4606 57.0304L69.1648 56.1616L73.3734 59.6061L72.4279 60.7733C71.8945 61.4325 71.2661 62.2442 70.0582 62.2442C69.3712 62.2442 68.7679 61.9239 68.3406 61.5737C67.8066 61.1367 67.2949 60.3953 67.2949 59.561ZM70.1855 61.1619C70.7584 61.1619 71.0901 60.9888 71.7481 60.1758L71.9538 59.9218L69.1582 57.6339L68.8147 58.0589C68.4784 58.4761 68.3037 58.8852 68.3037 59.2805C68.3037 59.8051 68.5622 60.2673 69.0903 60.7017C69.4714 61.0114 69.8215 61.1619 70.1855 61.1619Z" fill="white"/>
</g>
<defs>
<clipPath id="clip0_845_1114">
<rect width="307" height="97" fill="white" transform="translate(0.544922 0.161865)"/>
</clipPath>
</defs>
</svg>
