<svg width="353" height="104" viewBox="0 0 353 104" fill="none" xmlns="http://www.w3.org/2000/svg">
<path fill-rule="evenodd" clip-rule="evenodd" d="M210.257 67.9899C209.402 69.1143 206.615 72.4723 203.147 72.4723C198.457 72.4723 197.473 69.3471 197.473 66.7263C197.473 62.4158 200.949 60.4221 210.257 58.2405V67.9899ZM221.842 73.2695C221.706 72.9348 221.341 72.7452 220.981 72.8259L220.867 72.8534C219.798 73.0734 218.975 73.011 218.399 72.6424C217.581 72.1163 217.183 70.9319 217.183 69.0217V51.7415C217.183 44.9925 212.944 41.5706 204.582 41.5706C197.091 41.5706 191.223 44.9362 191.223 49.2326C191.223 51.4417 192.641 53.0381 194.735 53.2782C196.103 53.4345 197.408 52.8466 198.356 51.8968C200.197 50.0521 199.958 47.8589 197.726 45.5033C199.046 44.1914 201.385 43.4153 204.052 43.4153C208.4 43.4153 210.255 45.8627 210.255 51.5989V55.9654C209.235 56.2648 208.282 56.5481 206.538 56.9366C203.018 57.7214 198.189 58.7648 194.547 60.6757C191.54 62.2393 190.016 64.7096 190.016 68.0181C190.016 71.6183 192.505 75.823 199.521 75.823C203.449 75.823 206.969 74.0531 210.583 70.2587C210.894 74.2024 212.468 75.6798 216.286 75.6798C218.123 75.6798 219.592 75.2733 221.339 74.4713C221.811 74.2541 222.037 73.7323 221.842 73.2695Z" fill="black"/>
<path fill-rule="evenodd" clip-rule="evenodd" d="M297.623 43.3964C293.382 43.3964 288.516 45.1316 288.516 58.6617C288.516 68.981 291.715 73.9962 298.294 73.9962C304.59 73.9962 307.399 69.2673 307.399 58.6617C307.399 48.3896 304.2 43.3964 297.623 43.3964ZM297.998 75.823C288.186 75.823 280.786 68.5059 280.786 58.8027C280.786 49.3005 288.508 41.5706 297.998 41.5706C307.608 41.5706 315.137 49.0145 315.137 58.5192C315.137 69.2067 306.241 75.823 297.998 75.823Z" fill="black"/>
<path fill-rule="evenodd" clip-rule="evenodd" d="M130.445 67.0659V54.7367H135.186C142.26 54.7367 147.641 53.2369 151.181 50.2797C154.881 47.1887 155.658 43.2722 155.658 40.5318C155.658 29.2578 144.795 26.8918 135.681 26.8918L135.717 26.8909H117.232C116.813 26.8909 116.473 27.2317 116.473 27.6507V27.7011V27.6849C116.473 28.0719 116.708 28.4166 117.071 28.5499C118.717 29.1559 123.19 28.3033 123.19 33.1056L123.19 67.0592C123.19 69.5295 122.096 71.2712 117.096 71.744C116.7 71.782 116.4 72.1071 116.4 72.5005V72.6167C116.4 73.0355 116.741 73.3765 117.159 73.3765H136.909C137.327 73.3765 137.667 73.0355 137.667 72.6167V72.5127C137.667 72.12 137.357 71.7878 136.96 71.7569C131.528 71.3213 130.438 69.6365 130.438 67.0592V54.7581M147.49 40.3896C147.49 48.2339 145.559 52.5554 135.686 52.5554H130.451V28.8529H135.898C146.113 28.8529 147.49 34.6846 147.49 40.3896Z" fill="black"/>
<path fill-rule="evenodd" clip-rule="evenodd" d="M163.628 54.4418C164.415 47.3456 167.426 43.4554 172.154 43.4554C174.521 43.4554 176.275 44.0574 177.516 45.2977C179.22 47.0009 179.94 50.0771 179.657 54.4418H163.628ZM172.698 41.5706C163.302 41.5706 155.658 49.3963 155.658 59.0163C155.658 68.7546 162.825 75.823 172.698 75.823C180.996 75.823 185.033 71.2629 187.347 67.833C187.575 67.4959 187.475 67.0484 187.12 66.8147L187.01 66.7431C186.653 66.5088 186.155 66.5743 185.879 66.8946C182.828 70.4128 180.158 72.4497 175.547 72.4497C169.714 72.4497 163.483 68.7528 163.483 58.3782V58.3017C163.473 57.8432 163.485 57.2152 163.504 56.6291H187.365C187.431 56.6291 187.484 56.5823 187.489 56.523L187.503 56.3462C187.839 52.0908 186.531 48.2694 183.819 45.5843C181.164 42.9587 177.319 41.5706 172.698 41.5706Z" fill="black"/>
<path fill-rule="evenodd" clip-rule="evenodd" d="M265.08 54.8266L265.073 54.825C258.764 53.1415 256.306 51.4368 256.306 48.7466C256.306 45.6807 258.863 43.4557 262.387 43.4557C266.532 43.4557 268.307 45.3406 272.682 52.3012L272.74 52.3939C272.761 52.4288 272.802 52.4508 272.844 52.4508H273.444C273.886 52.4508 274.246 52.1079 274.246 51.6879V41.6853C274.246 41.6216 274.192 41.5706 274.125 41.5706H273.334C273.093 41.5706 272.866 41.6724 272.714 41.8498L271.318 43.4667C269.554 42.5417 266.683 41.5706 263.802 41.5706C256.556 41.5706 251.495 45.8321 251.495 51.9329C251.495 57.6597 255.486 59.8054 262.376 61.5762C269.072 63.3203 271.445 65.1339 271.445 68.5059C271.445 72.2521 267.628 73.9372 264.919 73.9372C259.878 73.9372 257.746 72.1548 252.915 63.8963L252.858 63.7984C252.837 63.7617 252.797 63.7388 252.753 63.7388H252.148C251.706 63.7388 251.347 64.081 251.347 64.5016V75.7082C251.347 75.7713 251.4 75.823 251.467 75.823H252.287C252.498 75.823 252.704 75.7413 252.854 75.5997L255.063 73.4979C257.648 75.0243 261.513 75.823 264.025 75.823C267.794 75.823 270.892 74.6872 272.987 72.5375C274.854 70.622 275.882 67.9076 275.882 64.8941C275.882 59.6745 272.954 56.946 265.08 54.8266Z" fill="black"/>
<path fill-rule="evenodd" clip-rule="evenodd" d="M228.59 71.7615C228.59 73.5209 228.115 74.0966 225.134 74.2734C224.702 74.2994 224.362 74.6392 224.362 75.0475C224.362 75.4749 224.732 75.823 225.188 75.823H239.912C240.359 75.823 240.723 75.4804 240.723 75.0601C240.723 74.6459 240.38 74.3055 239.94 74.285C236.532 74.1308 235.65 73.6127 235.65 71.7602V51.4744C238.073 47.6873 239.816 45.7052 242.756 45.1066C242.613 45.5847 242.52 46.1591 242.52 46.624C242.52 49.0882 244.353 50.8088 246.975 50.8088C249.551 50.8088 251.352 49.0882 251.352 46.624C251.352 44.2929 249.803 41.5706 245.436 41.5706C241.856 41.5706 238.434 43.4988 235.497 48.1131V42.8953C235.497 42.3631 235.03 41.9358 234.465 41.9499L225.188 42.1826C224.738 42.1946 224.386 42.5341 224.386 42.9556V43.0685C224.386 43.4511 224.683 43.7787 225.074 43.8304C228.167 44.2434 228.593 45.6253 228.591 47.0572L228.59 71.7615Z" fill="black"/>
<path fill-rule="evenodd" clip-rule="evenodd" d="M325.18 41.7994C325.388 41.7994 325.584 41.8774 325.734 42.019C325.89 42.1658 325.979 42.364 325.979 42.5757L326.013 48.3902C326.013 48.3902 328.939 41.5706 338.443 41.5706H338.526C344.448 41.5706 347.846 45.2509 347.846 51.6659V71.7416C347.846 73.5108 348.308 74.0901 351.195 74.2666C351.614 74.292 351.945 74.6331 351.945 75.0442C351.945 75.4733 351.586 75.823 351.146 75.823H338.327C337.886 75.823 337.525 75.4724 337.525 75.0417C337.525 74.6251 337.846 74.2847 338.256 74.2504C340.586 74.0568 340.956 73.4836 340.956 71.7416V53.6235C340.956 47.6414 339.211 45.3115 334.73 45.3115C331.703 45.3115 329.224 47.887 327.678 50.0469C327.678 50.0469 326.888 51.0125 326.031 52.8283L326.126 71.741C326.126 73.4799 326.487 74.0528 328.749 74.2486C329.159 74.2831 329.478 74.6236 329.478 75.0237C329.478 75.4724 329.12 75.823 328.679 75.823H315.939C315.499 75.823 315.141 75.4733 315.141 75.0433C315.141 74.6331 315.468 74.292 315.887 74.2657C318.777 74.0886 319.236 73.5093 319.236 71.7416V46.9596C319.236 45.5131 318.823 44.117 315.811 43.7004C315.428 43.6478 315.141 43.3171 315.141 42.9308V42.817C315.141 42.3909 315.483 42.0483 315.921 42.0361L325.18 41.7994Z" fill="black"/>
<path fill-rule="evenodd" clip-rule="evenodd" d="M78.1727 6.69582C100.255 19.2161 105.394 47.2912 90.0311 75.6958C76.5281 100.665 47.0446 111.329 25.0762 98.6165C3.10289 85.9025 -1.185 50.4348 8.25737 30.0246C21.968 0.387607 53.7757 -7.14104 78.1727 6.69582ZM50.6754 79.735C49.9861 79.2104 49.2126 78.8497 48.4336 78.6977C48.1676 78.6469 47.8952 78.6191 47.6268 78.6191C46.1551 78.6191 44.7131 79.4098 43.7701 80.7398C42.9816 81.8431 42.6593 83.1621 42.8683 84.4431C43.0012 85.2577 43.3137 85.9658 43.7753 86.4934C44.2938 87.0908 45.0872 87.5457 46.0691 87.8197C46.6381 87.9736 47.2212 88.0556 47.8037 88.0556C49.0727 88.0556 50.216 87.6842 51.1036 86.9798C52.1348 86.1591 52.6968 84.9873 52.6842 83.6836C52.6732 82.1612 51.9215 80.6832 50.6754 79.735ZM79.2621 26.9893C83.6893 31.609 85.0685 38.6195 84.2984 44.3682C83.4181 50.9242 79.353 56.9908 72.59 61.0128C67.227 64.2026 60.1815 65.4756 53.2484 65.5362C53.193 66.6102 52.9738 70.3104 52.8633 70.8962C52.7005 71.7597 52.3913 72.2252 52.0124 72.7082C51.268 73.6565 49.9766 74.2688 48.6935 74.6264C47.6736 74.9097 46.6653 75.0317 45.95 75.0317C45.8294 75.0317 45.7113 75.025 45.5953 75.0106C44.8414 74.9271 44.0048 74.5815 43.4872 74.0165C42.9706 73.4521 42.6773 72.7388 42.6085 71.9298L42.5512 71.1993C42.404 70.5698 41.6008 38.7137 41.7572 39.2805C41.8732 35.4637 48.1786 34.7975 51.6001 35.472C55.0282 36.1473 54.1602 40.2183 54.0674 45.2226C54.0674 45.2226 53.9046 51.8042 53.5884 58.7575C57.9535 58.5905 61.4212 57.3747 64.666 55.7991C71.2203 52.6237 74.6901 47.7534 74.6901 40.5793C74.6901 33.4048 67.5432 25.3712 54.361 25.3712C41.1787 25.3712 35.5201 28.6207 29.137 33.7816C27.698 34.9449 26.5897 36.1174 25.5417 36.8891C24.4932 37.6615 21.7096 37.7798 20.9632 35.9736C20.064 33.7954 21.7448 31.3682 22.732 30.1932C24.2816 28.3491 28.1056 24.6348 32.3438 22.4768C37.1978 20.0005 43.1365 17.3336 51.4036 17.1297C58.8828 16.9455 70.6923 17.5374 79.1987 26.9274" fill="black"/>
</svg>
