<svg width="80" height="62" viewBox="0 0 80 62" fill="none" xmlns="http://www.w3.org/2000/svg">
<path d="M56.7859 61.0596L68.7247 61.0596C74.9516 61.0596 80 56.0111 80 49.7843L80 37.8455C80 31.6186 74.9516 26.5704 68.7247 26.5704L67.5436 26.5704C66.5533 26.5704 65.6256 26.0816 65.0639 25.2638C64.5047 24.446 64.3819 23.4047 64.7398 22.4808L71.4737 5.03004C71.8317 4.10504 71.7089 3.06379 71.1497 2.24722C70.588 1.42941 69.6603 0.940663 68.67 0.940663L60.7422 0.940664C59.6239 0.940664 58.5969 1.56269 58.0795 2.55285L48.5081 20.8388C46.538 24.6029 45.5084 28.7889 45.5084 33.0375L45.5084 49.7844C45.5081 56.0111 50.5591 61.0596 56.7859 61.0596Z" fill="#0ABCAA"/>
<path d="M11.2752 61.0596L23.2143 61.0596C29.4411 61.0596 34.4893 56.0111 34.4893 49.7843L34.4893 37.8455C34.4893 31.6186 29.441 26.5704 23.2143 26.5704L22.0357 26.5704C21.0453 26.5704 20.1152 26.0816 19.556 25.2638C18.9941 24.446 18.8739 23.4047 19.2293 22.4808L25.9657 5.02988C26.3236 4.10488 26.2008 3.06363 25.6391 2.24707C25.0799 1.42925 24.1522 0.940507 23.1592 0.940507L15.2339 0.940508C14.1157 0.940508 13.0886 1.56254 12.5686 2.5527L2.99988 20.8386C1.02972 24.6029 0.000191728 28.7888 0.0001921 33.0375L0.000193564 49.7844C0.000194108 56.0111 5.04848 61.0596 11.2752 61.0596Z" fill="#0ABCAA"/>
</svg>
