<svg width="440" height="104" viewBox="0 0 440 104" fill="none" xmlns="http://www.w3.org/2000/svg">
<g clip-path="url(#clip0_473_942)">
<path d="M204.698 67.4686C204.698 67.4686 205.156 65.642 201.722 65.4137C197.258 65.1855 195.541 63.1306 195.541 56.8517C195.541 54.226 195.426 48.1757 195.426 33.6771C195.426 17.3523 195.541 13.1283 195.541 9.93184C195.541 6.96368 196.228 5.13713 201.264 5.13713C210.879 5.13713 217.289 13.2425 217.289 23.631C217.289 33.7913 212.367 39.6135 204.24 39.271C201.15 39.1568 197.258 37.787 197.258 37.787C197.258 37.787 196.8 39.7277 201.264 40.9834C214.199 44.6365 227.248 35.1612 227.248 21.5762C227.248 9.01857 218.319 2.73975 201.608 2.73975C197.258 2.73975 192.679 3.1964 188.101 3.42472C184.438 3.53887 179.974 3.7672 179.974 3.7672C179.974 4.9088 180.432 5.36543 181.347 5.70793C185.239 6.96368 185.811 9.70354 185.811 18.9505C185.811 20.6629 185.926 23.0603 185.926 33.7913C185.926 49.7739 185.926 54.226 185.811 56.5092C185.697 60.7332 185.468 64.6147 183.866 66.4412C183.408 67.0121 183.179 67.6969 184.209 67.6969L204.698 67.4686Z" fill="#1A171B"/>
<path d="M349.267 66.2131C348.466 67.0123 348.582 67.469 349.724 67.469H384.752C387.383 67.469 388.528 66.5556 388.757 64.3865C388.872 63.5875 390.474 53.313 390.474 53.313C390.474 53.313 388.3 52.8563 387.383 55.5962C384.523 64.0442 379.601 65.0716 374.107 65.0716C361.401 65.0716 361.172 63.3592 361.172 53.6555V33.6776C361.172 21.6906 361.172 19.8641 361.172 16.8959C361.172 8.33391 362.774 6.27903 368.497 5.70822C370.443 5.4799 370.559 3.65332 370.559 3.65332H349.955C349.267 3.65332 348.923 4.10997 349.611 4.56662C351.557 5.93653 351.67 8.67638 351.67 14.0419C351.67 18.7225 351.67 20.4349 351.67 33.5634C351.67 56.0529 352.014 63.7017 349.267 66.2131Z" fill="#1A171B"/>
<path d="M240.526 67.4686C240.526 67.4686 240.526 65.7562 238.808 65.6421C232.169 65.1856 231.597 61.8748 234.572 53.6554C236.978 46.8056 237.779 44.9791 237.779 44.9791H261.815C267.538 60.0482 268.226 63.9297 266.852 66.4413C266.395 67.4686 266.624 67.4686 268.111 67.4686H286.54C286.54 67.4686 286.311 65.7562 284.709 65.5279C280.588 64.9572 278.871 63.359 274.637 52.0572C262.388 19.7497 255.748 2.2832 253.345 2.2832C252.429 2.2832 250.827 5.70801 247.05 14.0417C244.531 19.7497 239.61 31.0517 235.717 40.2986C231.484 50.3446 227.132 63.359 222.554 66.4413C221.753 67.0122 221.868 67.4686 222.783 67.4686H240.526ZM238.924 41.8968C242.814 31.9648 245.448 25.0011 250.37 13.8134C254.375 23.9736 256.208 29.5674 260.901 41.8968H238.924Z" fill="#1A171B"/>
<path d="M288.142 38.8145C288.486 60.6192 298.445 68.7247 312.637 68.7247C331.754 68.7247 334.386 53.4272 334.386 38.9287V15.64C334.386 7.64883 335.646 6.16475 340.453 5.7081C342.283 5.47979 342.283 3.65321 342.283 3.65321H327.977C326.26 3.65321 327.061 4.45234 327.747 5.36562C328.892 6.96387 329.58 9.36123 329.808 14.9551C330.037 19.7498 330.152 18.9507 330.494 33.9057C330.953 52.7421 327.862 65.2997 314.47 65.2997C302.221 65.2997 297.528 56.0527 297.528 34.3624C297.528 34.3624 297.528 26.942 297.528 17.4666C297.528 7.19218 299.361 6.39307 305.885 5.7081C307.487 5.59394 307.716 3.53906 307.716 3.53906H286.082C284.937 3.53906 284.709 3.88154 285.281 4.68067C287.571 8.10548 287.456 12.3294 287.684 20.3206C287.8 28.6544 288.142 38.8145 288.142 38.8145Z" fill="#1A171B"/>
<path d="M93.5527 69.7519C93.5527 71.5784 94.5828 72.3776 96.5289 73.0625C101.107 74.6609 106.373 76.1449 112.325 76.1449C128.236 76.1449 136.706 65.9846 136.706 55.4819C136.706 49.3172 134.302 42.9242 126.633 37.5587C122.97 35.0473 118.621 32.3073 113.012 28.5401C107.403 24.7728 104.198 21.1196 104.198 15.2975C104.198 9.4753 109.12 4.68056 116.331 4.68056C123.543 4.68056 127.434 9.24697 128.579 13.8134C129.38 17.0099 130.41 16.8957 131.555 16.8957V4.56641C131.555 3.99561 131.326 3.53896 130.754 3.53896C129.724 3.42481 121.711 2.2832 116.903 2.2832C104.427 2.2832 95.0408 8.21952 95.0408 18.1515C95.0408 24.3161 97.6735 29.7957 104.656 34.9331C109.807 38.8146 113.355 40.8693 118.621 44.7507C124.229 48.9747 127.778 52.6278 127.778 59.7057C127.778 67.697 122.627 73.5192 111.981 73.5192C102.71 73.5192 98.2457 67.2405 96.6432 61.0758C95.9564 58.5642 94.9263 58.2217 93.7817 58.2217L93.5527 69.7519Z" fill="#1A171B"/>
<path d="M398.831 63.5873C398.831 65.4138 400.433 66.213 401.578 66.5556C405.927 68.0396 410.965 68.7244 416.572 68.7244C430.996 68.7244 439.694 60.1625 439.694 50.1163C439.694 43.2668 436.603 38.4719 428.249 33.1064C423.784 30.2526 421.609 28.9966 417.145 25.9144C412.107 22.4896 409.019 19.7498 409.019 13.8134C409.019 8.33374 413.596 4.33813 420.58 4.33813C427.332 4.33813 431.337 7.53461 432.598 13.3568C433.284 16.0966 435.116 15.4117 435.116 15.4117L435.001 4.10982C435.001 3.65317 434.772 3.3107 434.2 3.19652C434.085 3.19652 425.157 2.05493 420.58 2.05493C409.132 2.05493 400.318 7.30631 400.318 16.7816C400.318 22.9463 403.524 27.8551 409.132 31.9649C413.139 34.8188 416.459 36.6454 422.295 40.8694C427.561 44.6367 431.337 47.4908 431.337 53.9978C431.337 60.505 426.875 66.213 416.459 66.213C410.277 66.213 404.325 63.5873 402.035 55.3679C401.234 52.6279 399.517 52.9704 399.517 52.9704L398.831 63.5873Z" fill="#1A171B"/>
<path d="M140.827 13.8134C138.08 13.8134 136.134 14.4983 135.905 16.7816H142.659C142.659 16.7816 142.659 19.5214 142.659 24.3161C142.659 35.5038 143.345 44.6366 153.876 44.6366C159.371 44.6366 164.178 42.3535 164.75 39.2711C164.865 38.8144 164.865 38.3579 164.75 37.9012C164.75 37.9012 164.407 38.3579 163.949 38.8144C162.804 39.9561 160.515 41.5543 157.882 41.5543C151.93 41.5543 150.786 35.1613 150.786 24.5445C150.786 19.2931 150.786 16.8957 150.786 16.8957H158.226C161.66 16.8957 162.919 15.7541 163.491 13.8134C163.262 13.8134 163.148 13.8134 162.69 13.8134C161.545 13.8134 150.786 13.8134 150.786 13.8134C150.786 13.8134 150.786 0 149.641 0C148.496 0 142.773 6.16465 142.773 13.8134H140.827Z" fill="#1A171B"/>
<path d="M382.004 6.05059C383.149 2.96826 384.523 1.82666 387.154 1.82666C391.275 1.82666 393.565 6.73555 390.703 13.5852C390.245 14.6126 389.901 15.4117 389.673 15.7542C388.071 19.0649 386.125 18.6082 386.125 18.6082C386.125 18.6082 386.81 17.5808 387.498 15.64C387.842 14.7268 387.955 14.156 388.184 13.3568C388.987 10.2745 387.383 8.44795 383.722 7.87715C382.805 7.763 382.233 7.763 381.547 7.64882C381.547 7.53467 381.775 6.62139 382.004 6.05059Z" fill="#1A171B"/>
<path d="M4.6137 70.0944C4.49922 70.0944 4.49922 69.9802 4.38477 69.9802C4.49922 70.0944 4.6137 70.0944 4.6137 70.0944Z" fill="#BC9755"/>
<path d="M68.3711 72.8341C68.4856 72.6057 68.6001 72.4915 68.7146 72.2632C68.6001 72.3774 68.4856 72.6057 68.3711 72.8341Z" fill="#BC9755"/>
<path d="M6.78877 72.1492C6.55983 71.8069 6.33092 71.4643 5.87305 71.1218C6.21644 71.3502 6.55983 71.8069 6.78877 72.1492Z" fill="#BC9755"/>
<path d="M70.8887 70.0944C71.0029 70.0944 71.0029 69.9802 71.1174 69.9802C71.1174 70.0944 71.0029 70.0944 70.8887 70.0944Z" fill="#BC9755"/>
<path d="M69.6302 71.1218C69.2869 71.4643 69.0579 71.8069 68.8291 72.1492C69.0579 71.6927 69.2869 71.3502 69.6302 71.1218Z" fill="#BC9755"/>
<path d="M28.8804 19.4073C27.6213 19.8639 27.5068 21.2339 27.5068 21.2339C27.5068 21.2339 30.254 21.0055 32.0856 21.0055C34.1459 21.0055 38.9534 21.1197 38.9534 21.1197C47.4236 21.1197 50.9721 15.8683 50.8578 11.1877C50.8578 6.62133 47.5381 2.05493 39.4112 2.05493C38.1521 2.05493 33.9169 2.28325 32.1998 2.28325C30.1395 2.28325 27.6213 2.16909 27.6213 2.16909C27.6213 2.16909 27.7358 3.53902 28.7659 4.10982C30.5975 4.90893 30.8263 5.0231 30.8263 8.44791L30.9408 15.2975C30.9408 18.1515 30.5975 18.7223 28.8804 19.4073ZM38.6099 3.99565C43.0741 3.99565 44.791 8.21959 44.791 11.6444C44.791 15.0692 43.5319 18.8365 39.1822 18.8365C36.3206 18.8365 36.2063 17.4666 36.2063 14.6126C36.2063 14.6126 36.0918 8.67622 36.0918 6.84966C36.0918 4.33813 36.2063 3.99565 38.6099 3.99565Z" fill="#BC9755"/>
<path d="M22.0128 61.8747C19.8379 60.1623 20.8681 57.0801 20.6392 56.395C20.0669 56.0525 16.8619 57.1943 15.0304 55.1394C13.199 52.9703 14.5726 49.6597 14.2292 49.3172C13.8858 48.9746 11.1386 49.6597 10.5663 50.2303C9.99398 50.8012 10.4518 54.6827 16.6329 60.5049C22.814 66.4412 26.8202 66.6696 27.3925 66.2129C27.965 65.642 28.6518 62.9023 28.3083 62.5598C27.6215 62.2172 24.3021 63.7013 22.0128 61.8747Z" fill="#BC9755"/>
<path d="M12.6264 58.5642C11.9397 59.1351 9.87928 60.7333 8.04786 62.9024C5.87302 65.4137 3.35479 69.6377 3.35479 69.6377C3.58373 69.6377 3.81266 69.7519 3.92712 69.8661C2.89694 69.5235 1.86676 69.5235 1.4089 70.0944C0.49318 71.0076 0.95104 72.9483 2.43908 74.3182C1.98122 73.8617 1.17997 73.5192 0.836574 73.8617C0.49318 74.2042 0.836574 75.2316 1.17997 75.6883C1.52336 76.0308 2.66801 76.3731 3.0114 76.0308C3.35479 75.6883 3.0114 74.889 2.55355 74.4323C4.0416 75.9166 5.98748 76.2589 7.01768 75.3457C7.70446 74.6607 7.58998 73.405 6.9032 72.2635C7.13213 72.72 7.36107 73.0625 7.47553 73.5192C7.47553 73.5192 11.8252 71.0076 14.3434 68.8385C16.5182 66.8978 18.1208 64.957 18.6931 64.2722C17.7774 63.5872 16.7472 62.674 15.6025 61.6465C14.3434 60.5049 13.4277 59.4774 12.6264 58.5642ZM4.38499 69.9802C4.49945 69.9802 4.49945 70.0944 4.6139 70.0944C4.6139 70.0944 4.49945 70.0944 4.38499 69.9802ZM5.87302 71.1218C6.21641 71.4643 6.44535 71.8068 6.78874 72.1493C6.55981 71.8068 6.21641 71.3501 5.87302 71.1218Z" fill="#BC9755"/>
<path d="M65.1657 50.2303C64.5934 49.6597 61.8463 48.9746 61.5028 49.3172C61.1595 49.6597 62.5331 52.9703 60.7015 55.1394C58.8701 57.1943 55.6652 56.0525 55.0927 56.395C54.7494 56.9659 55.894 60.1623 53.7191 61.8747C51.43 63.7013 48.1103 62.2172 47.6526 62.5598C47.3093 62.9023 47.9961 65.642 48.5683 66.2129C49.1406 66.7837 53.0323 66.4412 59.3279 60.5049C65.3947 54.5685 65.738 50.8012 65.1657 50.2303Z" fill="#BC9755"/>
<path d="M33.0011 39.157C24.5307 47.1481 17.7774 53.5411 16.6327 54.5685C18.4641 55.8244 21.0968 55.0252 21.6692 55.2535C22.0125 55.8244 21.0968 58.3358 22.4704 60.0484C23.5006 59.0208 29.7962 52.2855 37.6941 44.0658C45.5923 52.3996 51.8879 59.0208 52.9179 60.0484C54.2915 58.3358 53.4904 55.7102 53.7192 55.2535C54.2915 54.911 56.9244 55.8244 58.7557 54.5685C57.6112 53.5411 50.8576 47.0339 42.3874 39.157C56.8099 24.2021 73.2927 6.8496 73.6362 6.50712C74.323 5.82217 75.1241 2.85399 74.6663 2.51151C74.323 2.16904 71.3469 2.96816 70.5456 3.65312C70.2023 3.99559 52.6891 20.5488 37.8086 34.7047C22.8138 20.4347 5.41516 3.99559 4.95731 3.53896C4.27052 2.85399 1.17997 2.05488 0.836575 2.39736C0.493181 2.73984 1.29443 5.708 1.86676 6.39297C2.32462 6.8496 18.8075 24.2021 33.0011 39.157Z" fill="#BC9755"/>
<path d="M74.6665 73.8617C74.3232 73.5192 73.5219 73.8617 73.0641 74.3182C74.552 72.9483 75.01 71.0076 74.0942 70.0944C73.5219 69.5235 72.4916 69.4094 71.4616 69.8661C71.6903 69.7519 71.9194 69.7519 72.1484 69.6377C72.1484 69.6377 69.63 65.4137 67.4554 62.9024C65.5093 60.7333 63.5634 59.1351 62.8766 58.5642C62.0753 59.4774 61.1598 60.5049 60.1295 61.5323C58.9849 62.5598 58.0691 63.473 57.0391 64.1581C57.6113 64.8429 59.2139 66.7836 61.3886 68.7243C63.9069 70.8934 68.2564 73.405 68.2564 73.405C68.2564 73.1767 68.3709 72.9483 68.4854 72.72C68.0276 73.7475 68.1421 74.6607 68.7144 75.2316C69.63 76.145 71.5761 75.6883 73.1784 74.3182C72.7206 74.7749 72.2629 75.5741 72.7206 75.9166C73.0641 76.2589 74.2087 75.9166 74.552 75.5741C74.6665 75.3457 75.01 74.2042 74.6665 73.8617ZM68.3709 72.8341C68.4854 72.6058 68.5999 72.4916 68.7144 72.2635C68.5999 72.3777 68.4854 72.6058 68.3709 72.8341ZM71.2326 69.9802C71.1181 69.9802 71.1181 70.0944 71.0036 70.0944C71.0036 70.0944 71.1181 70.0944 71.2326 69.9802Z" fill="#BC9755"/>
<path d="M201.265 88.9309C200.12 87.2185 197.945 86.191 195.198 86.191C191.65 86.191 188.216 88.7026 188.216 93.9539C188.216 99.4336 191.535 102.402 195.885 102.402C198.06 102.402 200.006 101.603 201.494 99.7761L201.265 101.488C201.15 102.516 201.036 103.201 200.921 103.315C200.692 103.543 198.289 104 195.656 104C189.933 104 184.438 101.374 184.438 94.4106C184.438 89.7299 187.3 84.5928 195.084 84.5928C198.06 84.5928 201.265 85.2778 201.265 85.2778C201.379 85.2778 201.494 85.392 201.494 85.6203L201.265 88.9309Z" fill="#1A171B"/>
<path d="M256.78 84.821C256.894 84.821 257.009 84.9352 257.009 85.1633C257.009 85.2775 256.894 85.62 256.78 86.5334L256.436 88.36C255.977 86.7618 253.918 86.6476 252.429 86.6476H249.569V93.8397C249.569 101.146 249.453 102.516 250.827 103.772H244.988C246.134 102.516 246.134 101.146 246.134 93.8397V86.6476H242.814C241.784 86.6476 240.067 86.7618 239.037 88.2458C239.037 88.2458 239.037 88.0175 239.153 86.9899C239.266 85.9626 239.61 84.821 239.838 84.821L242.929 84.9352H254.262C255.063 84.9352 256.78 84.821 256.78 84.821Z" fill="#1A171B"/>
<path d="M273.492 94.4106C273.492 99.5478 273.377 102.402 274.406 103.772H269.256C270.172 102.516 270.172 99.2052 270.172 93.8397C270.172 88.9309 270.172 85.8487 269.371 84.9353H274.406C273.721 85.7345 273.605 88.5884 273.605 92.8124H283.22C283.22 88.4742 283.107 85.7345 282.419 84.9353H287.456C286.655 85.8487 286.655 88.9309 286.655 93.8397C286.655 99.3194 286.655 102.516 287.572 103.772H282.306C283.336 102.402 283.22 99.5478 283.22 94.4106H273.492Z" fill="#1A171B"/>
<path d="M308.632 86.5333C308.632 86.5333 308.517 89.2733 308.517 92.8122H314.011C315.272 92.8122 316.073 92.5839 316.53 92.1272V95.0955C316.186 94.6388 315.156 94.4104 314.011 94.4104C312.982 94.4104 308.632 94.4104 308.632 94.4104V98.2919C308.632 100.461 308.517 101.602 310.35 101.945C311.38 102.173 313.326 102.173 314.24 102.173C315.957 102.173 317.218 102.059 318.132 100.575C318.132 100.575 317.904 103.087 317.79 103.429C317.675 103.772 317.446 103.886 317.102 103.886H304.283C305.197 102.63 305.197 99.3192 305.197 93.9537C305.197 89.0449 305.197 85.9625 304.396 85.0493H309.434H317.446C317.56 85.0493 317.675 85.1635 317.675 85.2777V87.6749C316.645 86.5334 315.272 86.7617 314.011 86.7617L308.632 86.5333Z" fill="#1A171B"/>
<path d="M337.02 86.876C337.02 86.876 336.905 88.0175 336.905 93.8397C336.905 96.6939 336.905 97.7212 336.905 98.8629C336.905 101.374 337.706 102.174 340.797 102.288C344.689 102.402 347.665 100.119 347.665 95.324C347.665 92.8124 347.092 90.7575 345.834 89.1593C344.461 87.3327 342.399 86.5335 339.996 86.5335C338.05 86.4193 337.02 86.876 337.02 86.876ZM332.556 103.772C333.472 102.516 333.472 99.2052 333.472 93.8397C333.472 88.9309 333.472 85.8487 332.669 84.9353H339.652C343.657 84.9353 346.291 85.6203 347.778 86.7619C350.184 88.4742 351.329 90.9858 351.329 94.2964C351.329 96.5797 350.756 98.6346 349.496 100.347C347.436 103.087 344.574 103.886 339.537 103.886C338.851 103.886 337.706 103.886 336.104 103.772H332.556Z" fill="#1A171B"/>
<path d="M369.299 86.6478C369.186 88.3601 369.186 90.1867 369.186 92.8123V94.1823C369.186 94.2963 369.299 94.4105 369.527 94.5246C370.1 94.753 371.129 94.8672 372.161 94.8672C374.793 94.8672 376.053 93.1548 376.053 90.6432C376.053 88.0176 374.336 86.4194 371.702 86.4194C369.987 86.3052 369.299 86.6478 369.299 86.6478ZM371.589 84.9352C376.51 84.9352 379.486 86.7617 379.486 90.0725C379.486 92.5839 377.769 94.2965 376.167 95.0955C376.968 96.3512 377.769 97.4929 379.602 99.5478C380.975 101.146 383.15 103.429 384.523 103.429C384.865 103.429 384.867 103.315 384.867 103.429C384.867 103.543 383.951 103.886 382.233 103.886C379.371 103.886 377.769 102.858 376.167 100.461C375.25 99.2053 374.336 97.9496 373.876 97.2646C373.075 96.1231 372.847 96.0089 372.046 96.0089C371.245 96.0089 370.215 96.0089 369.07 95.6664C369.07 102.059 369.07 102.63 370.672 103.543H364.834C365.75 102.288 365.75 99.0911 365.75 93.6115C365.75 88.7024 365.75 85.6202 364.949 84.707L371.589 84.9352Z" fill="#1A171B"/>
<path d="M430.88 84.9353C430.194 85.2778 429.85 85.8487 429.735 87.4469C429.735 88.9309 429.735 90.9858 429.735 93.8397C429.735 96.6939 429.85 98.4062 429.85 98.4062C429.85 100.575 429.735 101.717 431.568 102.059C432.598 102.288 434.544 102.288 435.458 102.288C437.175 102.288 438.664 102.174 439.35 100.689C439.35 100.689 439.006 103.201 438.893 103.543C438.777 103.886 438.549 104 438.205 104C438.205 104 432.598 104 430.536 104C428.59 104 425.386 104 425.386 104C426.302 102.744 426.302 99.4336 426.302 94.0681C426.302 89.1593 426.302 86.0768 425.501 85.1636H430.88V84.9353Z" fill="#1A171B"/>
<path d="M226.446 103.772C226.561 103.543 226.675 103.087 226.218 102.174C225.531 100.461 224.386 97.9495 224.386 97.9495H216.717C215.115 101.603 214.428 102.859 214.886 103.772H211.223C212.482 103.087 214.313 98.7488 216.374 94.5248C219.693 87.6752 221.067 84.5928 221.524 84.5928C221.982 84.5928 223.013 86.6477 226.332 93.7256C228.965 99.4336 230.567 102.973 232.056 103.772H226.446ZM220.609 88.9309L217.289 96.4655H223.814L220.609 88.9309Z" fill="#1A171B"/>
<path d="M408.103 103.772C408.218 103.543 408.331 103.087 407.874 102.174C407.186 100.461 406.041 97.9495 406.041 97.9495H398.372C396.77 101.603 396.084 102.859 396.542 103.772H392.878C394.138 103.087 395.969 98.7488 398.031 94.5248C401.35 87.6752 402.837 84.5928 403.181 84.5928C403.638 84.5928 404.668 86.6477 407.987 93.7256C410.621 99.4336 412.223 102.973 413.712 103.772H408.103ZM402.264 88.9309L398.945 96.4655H405.471L402.264 88.9309Z" fill="#1A171B"/>
</g>
<defs>
<clipPath id="clip0_473_942">
<rect width="439" height="104" fill="white" transform="translate(0.694336)"/>
</clipPath>
</defs>
</svg>
