<svg width="140" height="35" viewBox="0 0 140 35" fill="none" xmlns="http://www.w3.org/2000/svg">
<g clip-path="url(#clip0_495_856)">
<path d="M36.785 12.4702H50.958V15.0672H45.386V29.6692H42.32V15.0672H36.772V12.4692H36.784L36.785 12.4702ZM50.353 17.2152H52.973V19.6192H53.022C53.109 19.2792 53.269 18.9512 53.504 18.6352C54.0065 17.958 54.6866 17.4329 55.469 17.1182C55.8664 16.9608 56.2895 16.8784 56.717 16.8752C57.037 16.8752 57.273 16.8872 57.397 16.9002C57.52 16.9122 57.643 16.9362 57.779 16.9482V19.5942C57.5783 19.5591 57.3765 19.5308 57.174 19.5092C56.9728 19.4854 56.7705 19.4734 56.568 19.4732C56.098 19.4732 55.654 19.5702 55.234 19.7532C54.814 19.9342 54.455 20.2132 54.147 20.5662C53.8183 20.9609 53.5667 21.4138 53.405 21.9012C53.22 22.4352 53.133 23.0412 53.133 23.7342V29.6572H50.341V17.2152H50.353ZM70.618 29.6702H67.875V27.9342H67.825C67.479 28.5662 66.973 29.0642 66.293 29.4402C65.613 29.8162 64.921 30.0102 64.217 30.0102C62.549 30.0102 61.337 29.6102 60.597 28.7962C59.855 27.9832 59.484 26.7572 59.484 25.1182V17.2162H62.277V24.8512C62.277 25.9442 62.487 26.7212 62.92 27.1702C63.34 27.6192 63.945 27.8502 64.711 27.8502C65.304 27.8502 65.786 27.7652 66.181 27.5822C66.577 27.4002 66.898 27.1702 67.133 26.8662C67.38 26.5752 67.553 26.2112 67.665 25.7982C67.775 25.3852 67.825 24.9362 67.825 24.4512V17.2282H70.618V29.6702ZM75.375 25.6772C75.462 26.4772 75.77 27.0372 76.302 27.3642C76.845 27.6802 77.488 27.8502 78.242 27.8502C78.502 27.8502 78.798 27.8252 79.132 27.7892C79.465 27.7522 79.786 27.6672 80.071 27.5592C80.367 27.4492 80.601 27.2792 80.799 27.0612C80.985 26.8412 81.071 26.5632 81.059 26.2112C81.0574 26.0479 81.0214 25.8867 80.9533 25.7382C80.8853 25.5896 80.7867 25.4571 80.664 25.3492C80.416 25.1192 80.108 24.9492 79.724 24.8032C79.2962 24.655 78.8584 24.5374 78.414 24.4512C77.92 24.3542 77.426 24.2442 76.92 24.1352C76.4102 24.0249 75.9068 23.8871 75.412 23.7222C74.9479 23.5735 74.5102 23.3524 74.115 23.0672C73.7299 22.7985 73.4159 22.4402 73.2 22.0232C72.966 21.5982 72.854 21.0762 72.854 20.4452C72.854 19.7652 73.027 19.2072 73.361 18.7452C73.6979 18.2871 74.1328 17.9099 74.634 17.6412C75.1726 17.3565 75.7516 17.1558 76.351 17.0462C76.981 16.9372 77.587 16.8762 78.155 16.8762C78.81 16.8762 79.44 16.9492 80.034 17.0832C80.6091 17.2064 81.1572 17.4323 81.652 17.7502C82.134 18.0542 82.529 18.4542 82.851 18.9402C83.172 19.4252 83.37 20.0202 83.456 20.7122H80.54C80.404 20.0572 80.107 19.6082 79.626 19.3892C79.144 19.1592 78.588 19.0492 77.97 19.0492C77.772 19.0492 77.537 19.0612 77.266 19.0982C77.0048 19.133 76.7479 19.1939 76.499 19.2802C76.2715 19.364 76.065 19.4964 75.894 19.6682C75.8109 19.7579 75.7464 19.863 75.704 19.9777C75.6616 20.0923 75.6422 20.2141 75.647 20.3362C75.647 20.6762 75.77 20.9432 76.005 21.1492C76.24 21.3552 76.549 21.5252 76.932 21.6712C77.315 21.8052 77.748 21.9262 78.242 22.0232C78.736 22.1202 79.242 22.2292 79.762 22.3392C80.268 22.4482 80.762 22.5942 81.257 22.7512C81.751 22.9092 82.183 23.1282 82.567 23.4072C82.95 23.6862 83.259 24.0262 83.493 24.4392C83.728 24.8512 83.852 25.3732 83.852 25.9802C83.852 26.7202 83.679 27.3402 83.332 27.8622C82.987 28.3722 82.542 28.7962 81.998 29.1122C81.4285 29.4403 80.8114 29.6778 80.169 29.8162C79.5154 29.96 78.8482 30.0331 78.179 30.0342C77.4295 30.0427 76.6821 29.9529 75.956 29.7672C75.276 29.5852 74.683 29.3182 74.189 28.9672C73.7007 28.6125 73.2993 28.1516 73.015 27.6192C72.731 27.0852 72.582 26.4412 72.558 25.7012H75.375V25.6772ZM84.593 17.2172H86.706V13.4772H89.499V17.2172H92.019V19.2672H89.5V25.9202C89.5 26.2102 89.512 26.4542 89.537 26.6722C89.561 26.8792 89.623 27.0612 89.71 27.2062C89.8045 27.3586 89.948 27.4743 90.117 27.5342C90.303 27.6072 90.537 27.6442 90.859 27.6442C91.056 27.6442 91.254 27.6442 91.452 27.6312C91.65 27.6192 91.847 27.5952 92.045 27.5462V29.6702C91.736 29.7072 91.427 29.7312 91.143 29.7672C90.8436 29.802 90.5424 29.8184 90.241 29.8162C89.5 29.8162 88.907 29.7432 88.461 29.6102C88.017 29.4762 87.658 29.2702 87.411 29.0032C87.151 28.7362 86.991 28.4082 86.892 28.0072C86.7957 27.5563 86.7421 27.0972 86.732 26.6362V19.2902H84.619V17.2142H84.594L84.593 17.2172ZM93.996 17.2172H96.641V18.9032H96.691C97.085 18.1752 97.629 17.6652 98.333 17.3502C99.0526 17.0303 99.8325 16.8687 100.62 16.8762C101.62 16.8762 102.485 17.0462 103.227 17.3982C103.968 17.7382 104.586 18.2122 105.08 18.8182C105.574 19.4252 105.933 20.1292 106.18 20.9312C106.432 21.7655 106.557 22.6328 106.551 23.5042C106.551 24.3412 106.44 25.1542 106.217 25.9322C106.012 26.6827 105.673 27.3898 105.216 28.0192C104.767 28.6261 104.183 29.1206 103.511 29.4642C102.819 29.8282 102.016 30.0102 101.077 30.0102C100.667 30.0098 100.257 29.973 99.853 29.9002C99.45 29.8276 99.0566 29.7099 98.68 29.5492C98.3059 29.3931 97.956 29.1844 97.641 28.9292C97.33 28.6812 97.0592 28.3868 96.838 28.0562H96.788V34.2712H93.996V17.2152V17.2172ZM103.758 23.4552C103.759 22.9017 103.684 22.3507 103.536 21.8172C103.399 21.3118 103.173 20.835 102.868 20.4092C102.579 20.0042 102.203 19.6682 101.769 19.4252C101.302 19.1731 100.779 19.0437 100.249 19.0492C99.075 19.0492 98.185 19.4492 97.592 20.2512C96.999 21.0522 96.702 22.1212 96.702 23.4552C96.702 24.0862 96.777 24.6692 96.937 25.2032C97.097 25.7372 97.32 26.1992 97.641 26.5872C97.951 26.9762 98.321 27.2792 98.754 27.4972C99.186 27.7282 99.693 27.8372 100.261 27.8372C100.904 27.8372 101.435 27.7042 101.88 27.4492C102.311 27.2013 102.682 26.8616 102.967 26.4542C103.251 26.0412 103.462 25.5792 103.585 25.0582C103.699 24.5315 103.757 23.9942 103.758 23.4552ZM108.688 12.4702H111.481V15.0682H108.688V12.4702ZM108.688 17.2162H111.481V29.6702H108.688V17.2162ZM113.977 12.4702H116.77V29.6702H113.977V12.4702ZM125.333 30.0102C124.319 30.0102 123.417 29.8402 122.627 29.5132C121.87 29.2026 121.184 28.7397 120.613 28.1532C120.058 27.555 119.632 26.8481 119.364 26.0772C119.07 25.2264 118.924 24.3314 118.932 23.4312C118.932 22.4842 119.08 21.6112 119.364 20.8092C119.633 20.0388 120.058 19.3323 120.613 18.7342C121.156 18.1512 121.836 17.7022 122.627 17.3742C123.417 17.0462 124.319 16.8762 125.333 16.8762C126.346 16.8762 127.248 17.0462 128.039 17.3742C128.83 17.7022 129.497 18.1642 130.053 18.7342C130.608 19.3321 131.033 20.0386 131.301 20.8092C131.585 21.6102 131.733 22.4842 131.733 23.4312C131.733 24.3912 131.585 25.2762 131.301 26.0772C131.033 26.8482 130.608 27.5552 130.053 28.1532C129.509 28.7362 128.83 29.1852 128.039 29.5132C127.248 29.8402 126.346 30.0102 125.333 30.0102ZM125.333 27.8372C125.951 27.8372 126.494 27.7042 126.951 27.4492C127.396 27.2013 127.781 26.8569 128.076 26.4412C128.372 26.0292 128.582 25.5552 128.731 25.0332C128.867 24.5112 128.941 23.9772 128.941 23.4312C128.941 22.8972 128.867 22.3752 128.731 21.8412C128.604 21.3347 128.381 20.8569 128.076 20.4332C127.78 20.0215 127.396 19.6815 126.951 19.4382C126.494 19.1832 125.951 19.0492 125.333 19.0492C124.715 19.0492 124.171 19.1832 123.714 19.4382C123.272 19.6852 122.889 20.0246 122.59 20.4332C122.289 20.8595 122.067 21.3364 121.935 21.8412C121.798 22.3603 121.727 22.8945 121.724 23.4312C121.724 23.9772 121.799 24.5112 121.935 25.0332C122.071 25.5552 122.293 26.0292 122.59 26.4412C122.886 26.8542 123.257 27.1942 123.714 27.4492C124.171 27.7162 124.715 27.8372 125.333 27.8372ZM132.549 17.2172H134.662V13.4772H137.455V17.2172H139.975V19.2672H137.455V25.9202C137.455 26.2102 137.467 26.4542 137.491 26.6722C137.516 26.8792 137.578 27.0612 137.665 27.2062C137.759 27.3587 137.903 27.4745 138.072 27.5342C138.258 27.6072 138.492 27.6442 138.814 27.6442C139.011 27.6442 139.209 27.6442 139.407 27.6312C139.605 27.6192 139.802 27.5952 140 27.5462V29.6702C139.691 29.7072 139.382 29.7312 139.098 29.7672C138.799 29.802 138.497 29.8184 138.196 29.8162C137.455 29.8162 136.861 29.7432 136.416 29.6102C135.972 29.4762 135.613 29.2702 135.366 29.0032C135.107 28.7362 134.946 28.4082 134.847 28.0072C134.751 27.5562 134.697 27.0972 134.687 26.6362V19.2902H132.574V17.2142H132.549V17.2172Z" fill="black"/>
<path d="M33.523 12.469H20.722L16.768 0.5L12.8 12.47L0 12.457L10.367 19.861L6.401 31.817L16.768 24.425L27.123 31.817L23.169 19.861L33.523 12.469Z" fill="#04DA8D"/>
<path d="M24.0581 22.5688L23.1681 19.8618L16.7681 24.4258L24.0581 22.5688Z" fill="#126849"/>
</g>
<defs>
<clipPath id="clip0_495_856">
<rect width="140" height="34" fill="white" transform="translate(0 0.5)"/>
</clipPath>
</defs>
</svg>
