<svg width="362" height="133" viewBox="0 0 362 133" fill="none" xmlns="http://www.w3.org/2000/svg">
<path d="M0.59375 0V133H151.089C150.235 132.397 149.444 131.757 148.737 131.082C142.431 124.985 142.345 117.904 142.164 111.268V73.611H162.336V113.152C162.336 115.841 162.428 118.621 164.679 120.771C166.298 122.475 168.733 123.102 171.072 123.102C174.222 123.102 176.297 121.936 177.467 120.863C179.807 118.621 179.898 115.842 179.898 113.152V73.611H200.159V107.322C200.159 114.583 200.159 123.999 192.685 131.081C191.971 131.75 191.183 132.391 190.332 132.999H220.539C211.647 126.619 207.469 115.958 207.469 105.616C207.469 88.582 218.908 71.277 240.427 71.277C250.064 71.277 259.246 74.685 265.912 81.501C268.613 84.28 269.877 86.431 271.224 88.939L254.386 97.28C252.763 93.511 249.702 86.788 241.237 86.788C236.824 86.788 234.033 88.85 232.683 90.196C227.909 94.766 227.909 101.939 227.909 104.455C227.909 113.866 231.425 122.744 241.329 122.744C250.695 122.744 253.486 114.494 254.209 112.343L271.316 120.592C269.694 123.64 268.166 126.508 265.103 129.557C263.791 130.844 262.368 131.987 260.865 132.999H279.366V73.521H299.444V120.269H325.503V133H361.789V0H0.59375Z" fill="black"/>
<path d="M133.845 87.8331C133.806 87.8251 122.97 85.4971 122.97 85.4971C122.97 85.4971 112.12 87.8291 112.099 87.8331C112.04 87.8451 112.06 87.8951 112.06 87.8951L112.21 88.4521L112.241 88.4511L112.235 88.4521C112.235 88.4521 112.403 88.4311 112.503 88.5861L112.665 89.4801C112.665 89.4801 112.669 89.5421 112.731 89.5421C112.797 89.5421 113.126 89.5421 113.126 89.5421H132.814C132.814 89.5421 133.156 89.5421 133.21 89.5421C133.264 89.5421 133.271 89.4961 133.271 89.4961L133.433 88.6011C133.527 88.4261 133.708 88.4511 133.708 88.4511L133.704 88.4501L133.731 88.4511L133.881 87.8941C133.885 87.8951 133.906 87.8451 133.845 87.8331Z" fill="white"/>
<path d="M132.709 89.8292C132.721 89.8292 132.73 89.8202 132.73 89.8052V89.5292C132.73 89.5142 132.718 89.5272 132.709 89.5272H131.057C131.045 89.5272 131.032 89.5142 131.032 89.5292V89.8052C131.032 89.8212 131.046 89.8292 131.057 89.8292L131.127 89.8302C131.158 89.8302 131.162 89.8632 131.162 89.8942C131.162 89.9362 131.18 90.1512 131.33 90.2812C131.35 90.3002 131.346 90.3512 131.299 90.3512C131.295 90.3512 131.252 90.3512 131.248 90.3512C131.211 90.3512 131.209 90.3762 131.221 90.3962C131.235 90.4212 131.239 90.4952 131.239 90.5292C131.239 90.5642 131.239 90.6252 131.239 90.6502C131.239 90.6712 131.241 90.6902 131.262 90.6902C131.264 90.6902 131.283 90.6902 131.285 90.6902C131.285 90.6902 131.303 90.6872 131.303 90.7082C131.303 90.7242 131.303 90.7322 131.303 90.7322V96.8072C131.283 96.8272 131.221 96.8912 131.215 96.8952C131.211 96.9012 131.203 96.9092 131.203 96.9172V97.0202C131.203 97.0282 131.201 97.0392 131.195 97.0422C131.191 97.0472 131.181 97.0492 131.174 97.0492H131.098C131.082 97.0492 131.073 97.0612 131.073 97.0742C131.073 97.0742 131.073 97.2432 131.073 97.2502H132.692C132.692 97.2442 132.692 97.0742 132.692 97.0742C132.692 97.0602 132.68 97.0492 132.669 97.0492H132.593C132.583 97.0492 132.575 97.0472 132.57 97.0422C132.566 97.0382 132.562 97.0272 132.562 97.0202V96.9202C132.562 96.9122 132.56 96.9062 132.552 96.8992C132.542 96.8902 132.49 96.8372 132.464 96.8092V90.7342C132.464 90.7342 132.464 90.7252 132.464 90.7102C132.464 90.6902 132.48 90.6922 132.48 90.6922C132.482 90.6922 132.501 90.6922 132.503 90.6922C132.524 90.6922 132.528 90.6732 132.528 90.6522C132.528 90.6282 132.528 90.5662 132.528 90.5312C132.528 90.4972 132.534 90.4242 132.546 90.3992C132.56 90.3782 132.556 90.3532 132.517 90.3532C132.515 90.3532 132.47 90.3532 132.468 90.3532C132.421 90.3532 132.415 90.3002 132.435 90.2832C132.587 90.1592 132.603 89.9432 132.603 89.9022C132.603 89.8652 132.601 89.8322 132.642 89.8322L132.709 89.8292Z" fill="white"/>
<path d="M129.146 89.8292C129.158 89.8292 129.169 89.8202 129.169 89.8052V89.5292C129.169 89.5142 129.155 89.5272 129.146 89.5272H127.492C127.478 89.5272 127.469 89.5142 127.469 89.5292V89.8052C127.469 89.8212 127.479 89.8292 127.492 89.8292L127.564 89.8302C127.595 89.8302 127.597 89.8632 127.597 89.8942C127.597 89.9362 127.617 90.1512 127.765 90.2812C127.785 90.3002 127.779 90.3512 127.736 90.3512C127.732 90.3512 127.687 90.3512 127.685 90.3512C127.646 90.3512 127.642 90.3762 127.654 90.3962C127.67 90.4212 127.672 90.4952 127.672 90.5292C127.672 90.5642 127.672 90.6252 127.672 90.6502C127.672 90.6712 127.676 90.6902 127.697 90.6902H127.72C127.72 90.6902 127.738 90.6872 127.738 90.7082C127.738 90.7242 127.74 90.7322 127.74 90.7322V96.8072C127.72 96.8272 127.654 96.8912 127.65 96.8952C127.644 96.9012 127.64 96.9092 127.64 96.9172V97.0202C127.64 97.0282 127.64 97.0392 127.63 97.0422C127.626 97.0472 127.618 97.0492 127.61 97.0492H127.532C127.52 97.0492 127.511 97.0612 127.511 97.0742C127.511 97.0742 127.511 97.2432 127.511 97.2502H129.126C129.126 97.2442 129.126 97.0742 129.126 97.0742C129.126 97.0602 129.114 97.0492 129.103 97.0492H129.027C129.017 97.0492 129.007 97.0472 129.004 97.0422C128.998 97.0382 128.996 97.0272 128.996 97.0202V96.9202C128.996 96.9122 128.994 96.9062 128.986 96.8992C128.978 96.8902 128.925 96.8372 128.898 96.8092V90.7342C128.898 90.7342 128.898 90.7252 128.898 90.7102C128.898 90.6902 128.916 90.6922 128.916 90.6922C128.918 90.6922 128.937 90.6922 128.937 90.6922C128.958 90.6922 128.96 90.6732 128.96 90.6522C128.96 90.6282 128.96 90.5662 128.96 90.5312C128.96 90.4972 128.968 90.4242 128.981 90.3992C128.991 90.3782 128.987 90.3532 128.95 90.3532C128.948 90.3532 128.905 90.3532 128.901 90.3532C128.854 90.3532 128.848 90.3002 128.87 90.2832C129.022 90.1592 129.038 89.9432 129.038 89.9022C129.038 89.8652 129.036 89.8322 129.075 89.8322L129.146 89.8292Z" fill="white"/>
<path d="M125.582 89.8292C125.596 89.8292 125.602 89.8202 125.602 89.8052V89.5292C125.602 89.5142 125.594 89.5272 125.582 89.5272H123.928C123.914 89.5272 123.905 89.5142 123.905 89.5292V89.8052C123.905 89.8212 123.915 89.8292 123.928 89.8292L124 89.8302C124.029 89.8302 124.031 89.8632 124.031 89.8942C124.031 89.9362 124.052 90.1512 124.203 90.2812C124.223 90.3002 124.215 90.3512 124.172 90.3512C124.168 90.3512 124.123 90.3512 124.121 90.3512C124.082 90.3512 124.08 90.3762 124.092 90.3962C124.106 90.4212 124.11 90.4952 124.11 90.5292C124.11 90.5642 124.11 90.6252 124.11 90.6502C124.11 90.6712 124.112 90.6902 124.131 90.6902C124.133 90.6902 124.154 90.6902 124.154 90.6902C124.154 90.6902 124.175 90.6872 124.175 90.7082C124.175 90.7242 124.175 90.7322 124.175 90.7322V96.8072C124.155 96.8272 124.091 96.8912 124.085 96.8952C124.079 96.9012 124.073 96.9092 124.073 96.9172V97.0202C124.073 97.0282 124.071 97.0392 124.067 97.0422C124.061 97.0472 124.051 97.0492 124.046 97.0492H123.97C123.958 97.0492 123.947 97.0612 123.947 97.0742C123.947 97.0742 123.947 97.2432 123.947 97.2502H125.562C125.562 97.2442 125.562 97.0742 125.562 97.0742C125.562 97.0602 125.55 97.0492 125.539 97.0492H125.463C125.453 97.0492 125.443 97.0472 125.44 97.0422C125.436 97.0382 125.432 97.0272 125.432 97.0202V96.9202C125.432 96.9122 125.43 96.9062 125.424 96.8992C125.414 96.8902 125.363 96.8372 125.334 96.8092V90.7342C125.334 90.7342 125.334 90.7252 125.334 90.7102C125.334 90.6902 125.352 90.6922 125.352 90.6922C125.354 90.6922 125.373 90.6922 125.373 90.6922C125.396 90.6922 125.398 90.6732 125.398 90.6522C125.398 90.6282 125.398 90.5662 125.398 90.5312C125.398 90.4972 125.404 90.4242 125.419 90.3992C125.429 90.3782 125.429 90.3532 125.39 90.3532C125.388 90.3532 125.343 90.3532 125.339 90.3532C125.292 90.3532 125.284 90.3002 125.31 90.2832C125.46 90.1592 125.474 89.9432 125.474 89.9022C125.474 89.8652 125.474 89.8322 125.513 89.8322L125.582 89.8292Z" fill="white"/>
<path d="M122.017 89.8292C122.031 89.8292 122.04 89.8202 122.04 89.8052V89.5292C122.04 89.5142 122.028 89.5272 122.017 89.5272H120.363C120.349 89.5272 120.342 89.5142 120.342 89.5292V89.8052C120.342 89.8212 120.35 89.8292 120.363 89.8292L120.433 89.8302C120.466 89.8302 120.468 89.8632 120.468 89.8942C120.468 89.9362 120.488 90.1512 120.638 90.2812C120.658 90.3002 120.65 90.3512 120.607 90.3512C120.603 90.3512 120.558 90.3512 120.556 90.3512C120.517 90.3512 120.515 90.3762 120.527 90.3962C120.541 90.4212 120.545 90.4952 120.545 90.5292C120.545 90.5642 120.545 90.6252 120.545 90.6502C120.545 90.6712 120.547 90.6902 120.57 90.6902C120.57 90.6902 120.591 90.6902 120.593 90.6902C120.593 90.6902 120.611 90.6872 120.611 90.7082C120.611 90.7242 120.611 90.7322 120.611 90.7322V96.8072C120.593 96.8272 120.527 96.8912 120.521 96.8952C120.517 96.9012 120.513 96.9092 120.513 96.9172V97.0202C120.513 97.0282 120.511 97.0392 120.503 97.0422C120.497 97.0472 120.487 97.0492 120.482 97.0492H120.406C120.392 97.0492 120.383 97.0612 120.383 97.0742C120.383 97.0742 120.383 97.2432 120.383 97.2502H121.998C121.998 97.2442 121.998 97.0742 121.998 97.0742C121.998 97.0602 121.988 97.0492 121.975 97.0492H121.899C121.889 97.0492 121.881 97.0472 121.876 97.0422C121.872 97.0382 121.87 97.0272 121.87 97.0202V96.9202C121.87 96.9122 121.868 96.9062 121.86 96.8992C121.85 96.8902 121.799 96.8372 121.772 96.8092V90.7342C121.772 90.7342 121.77 90.7252 121.77 90.7102C121.77 90.6902 121.788 90.6922 121.788 90.6922C121.79 90.6922 121.809 90.6922 121.811 90.6922C121.831 90.6922 121.834 90.6732 121.834 90.6522C121.834 90.6282 121.834 90.5662 121.834 90.5312C121.834 90.4972 121.84 90.4242 121.854 90.3992C121.866 90.3782 121.862 90.3532 121.825 90.3532C121.821 90.3532 121.778 90.3532 121.776 90.3532C121.727 90.3532 121.721 90.3002 121.743 90.2832C121.895 90.1592 121.911 89.9432 121.911 89.9022C121.911 89.8652 121.909 89.8322 121.948 89.8322L122.017 89.8292Z" fill="white"/>
<path d="M118.453 89.8292C118.467 89.8292 118.474 89.8202 118.474 89.8052V89.5292C118.474 89.5142 118.464 89.5272 118.453 89.5272H116.801C116.787 89.5272 116.778 89.5142 116.778 89.5292V89.8052C116.778 89.8212 116.788 89.8292 116.801 89.8292L116.869 89.8302C116.902 89.8302 116.904 89.8632 116.904 89.8942C116.904 89.9362 116.925 90.1512 117.076 90.2812C117.096 90.3002 117.088 90.3512 117.043 90.3512C117.041 90.3512 116.994 90.3512 116.992 90.3512C116.953 90.3512 116.951 90.3762 116.963 90.3962C116.977 90.4212 116.981 90.4952 116.981 90.5292C116.981 90.5642 116.981 90.6252 116.981 90.6502C116.981 90.6712 116.983 90.6902 117.006 90.6902C117.008 90.6902 117.027 90.6902 117.027 90.6902C117.027 90.6902 117.047 90.6872 117.047 90.7082C117.047 90.7242 117.047 90.7322 117.047 90.7322V96.8072C117.027 96.8272 116.963 96.8912 116.959 96.8952C116.951 96.9012 116.947 96.9092 116.947 96.9172V97.0202C116.947 97.0282 116.945 97.0392 116.939 97.0422C116.935 97.0472 116.925 97.0492 116.918 97.0492H116.844C116.828 97.0492 116.819 97.0612 116.819 97.0742C116.819 97.0742 116.819 97.2432 116.819 97.2502H118.434C118.434 97.2442 118.434 97.0742 118.434 97.0742C118.434 97.0602 118.424 97.0492 118.413 97.0492H118.335C118.327 97.0492 118.319 97.0472 118.314 97.0422C118.308 97.0382 118.306 97.0272 118.306 97.0202V96.9202C118.306 96.9122 118.304 96.9062 118.296 96.8992C118.288 96.8902 118.234 96.8372 118.206 96.8092V90.7342C118.206 90.7342 118.206 90.7252 118.206 90.7102C118.206 90.6902 118.224 90.6922 118.224 90.6922C118.226 90.6922 118.245 90.6922 118.245 90.6922C118.268 90.6922 118.27 90.6732 118.27 90.6522C118.27 90.6282 118.27 90.5662 118.27 90.5312C118.27 90.4972 118.276 90.4242 118.29 90.3992C118.304 90.3782 118.3 90.3532 118.261 90.3532C118.259 90.3532 118.214 90.3532 118.21 90.3532C118.163 90.3532 118.157 90.3002 118.179 90.2832C118.331 90.1592 118.347 89.9432 118.347 89.9022C118.347 89.8652 118.345 89.8322 118.384 89.8322L118.453 89.8292Z" fill="white"/>
<path d="M114.888 89.8292C114.902 89.8292 114.913 89.8202 114.913 89.8052V89.5292C114.913 89.5142 114.899 89.5272 114.888 89.5272H113.236C113.222 89.5272 113.213 89.5142 113.213 89.5292V89.8052C113.213 89.8212 113.223 89.8292 113.236 89.8292L113.306 89.8302C113.339 89.8302 113.341 89.8632 113.341 89.8942C113.341 89.9362 113.361 90.1512 113.511 90.2812C113.531 90.3002 113.523 90.3512 113.48 90.3512C113.476 90.3512 113.431 90.3512 113.427 90.3512C113.39 90.3512 113.388 90.3762 113.4 90.3962C113.414 90.4212 113.416 90.4952 113.416 90.5292C113.416 90.5642 113.416 90.6252 113.416 90.6502C113.416 90.6712 113.418 90.6902 113.441 90.6902H113.464C113.464 90.6902 113.482 90.6872 113.482 90.7082C113.482 90.7242 113.482 90.7322 113.482 90.7322V96.8072C113.464 96.8272 113.4 96.8912 113.394 96.8952C113.388 96.9012 113.384 96.9092 113.384 96.9172V97.0202C113.384 97.0282 113.382 97.0392 113.378 97.0422C113.372 97.0472 113.36 97.0492 113.355 97.0492H113.279C113.265 97.0492 113.254 97.0612 113.254 97.0742C113.254 97.0742 113.254 97.2432 113.254 97.2502H114.871C114.871 97.2442 114.871 97.0742 114.871 97.0742C114.871 97.0602 114.861 97.0492 114.848 97.0492H114.77C114.762 97.0492 114.752 97.0472 114.75 97.0422C114.742 97.0382 114.74 97.0272 114.74 97.0202V96.9202C114.74 96.9122 114.738 96.9062 114.732 96.8992C114.722 96.8902 114.67 96.8372 114.642 96.8092V90.7342C114.642 90.7342 114.642 90.7252 114.642 90.7102C114.642 90.6902 114.658 90.6922 114.658 90.6922C114.66 90.6922 114.679 90.6922 114.679 90.6922C114.702 90.6922 114.706 90.6732 114.706 90.6522C114.706 90.6282 114.706 90.5662 114.706 90.5312C114.706 90.4972 114.71 90.4242 114.726 90.3992C114.736 90.3782 114.734 90.3532 114.697 90.3532C114.693 90.3532 114.65 90.3532 114.646 90.3532C114.597 90.3532 114.593 90.3002 114.615 90.2832C114.765 90.1592 114.781 89.9432 114.781 89.9022C114.781 89.8652 114.779 89.8322 114.82 89.8322L114.888 89.8292Z" fill="white"/>
<path d="M128.031 83.3941C128.031 83.3941 127.896 83.3941 127.861 83.3941C127.816 83.3941 127.818 83.3581 127.818 83.3581C127.818 83.3581 127.818 83.2121 127.818 83.1741C127.818 83.1271 127.771 83.1271 127.771 83.1271C127.771 83.1271 127.646 83.1271 127.605 83.1271C127.558 83.1271 127.56 83.0851 127.56 83.0851V82.9161C127.56 82.9161 127.56 82.8791 127.517 82.8791C127.501 82.8791 127.445 82.8791 127.417 82.8791C127.382 82.8791 127.345 82.8501 127.343 82.8011C127.337 82.5711 127.417 80.9411 126.556 79.7591C125.878 78.7451 124.945 78.2321 124.429 77.9911C124.419 77.7701 124.107 77.6871 123.97 77.6391C123.898 77.6161 123.835 77.5861 123.835 77.5231C123.835 77.5191 123.833 77.4511 123.833 77.4481C123.833 77.3801 123.894 77.3511 123.989 77.3541C124.016 77.3561 124.04 77.3311 124.04 77.3111V77.1141C124.04 77.0861 124.015 77.0531 123.974 77.0531C123.906 77.0531 123.828 77.0531 123.788 77.0531C123.743 77.0531 123.722 77.0121 123.722 76.9891C123.722 76.9491 123.722 76.9671 123.722 76.8891C123.722 76.8311 123.677 76.7981 123.642 76.7821V75.5651C123.642 75.5241 123.673 75.5291 123.701 75.5291C123.705 75.5291 123.711 75.5291 123.715 75.5281H123.719C123.735 75.5281 123.748 75.5131 123.748 75.4981V75.3821C123.748 75.3651 123.734 75.3531 123.719 75.3531H123.664C123.644 75.3441 123.631 75.3201 123.631 75.2641C123.631 75.2081 123.649 75.1811 123.672 75.1771H123.719C123.735 75.1771 123.748 75.1641 123.748 75.1491V75.0301C123.748 75.0141 123.734 75.0021 123.719 75.0021H123.658C123.631 74.9981 123.609 74.9861 123.584 74.9651C123.377 74.8011 123.168 74.5661 123.168 74.5291C123.168 74.5091 123.168 74.5081 123.168 74.4851C123.168 74.4601 123.143 74.4111 123.086 74.4111C123.029 74.4111 123.039 74.3531 123.066 74.3531C123.087 74.3531 123.089 74.3481 123.089 74.3211C123.089 74.3031 123.089 74.2741 123.089 74.2421C123.089 74.2071 122.984 74.0591 122.984 74.0591H122.976C122.976 74.0591 122.871 74.2051 122.871 74.2421C122.871 74.2741 122.871 74.3041 122.871 74.3211C122.871 74.3471 122.879 74.3531 122.894 74.3531C122.923 74.3531 122.931 74.4111 122.878 74.4111C122.821 74.4111 122.796 74.4601 122.796 74.4851C122.796 74.5071 122.794 74.5091 122.794 74.5291C122.794 74.5641 122.585 74.8001 122.378 74.9651C122.351 74.9861 122.331 74.9981 122.304 75.0021H122.243C122.225 75.0021 122.214 75.0151 122.214 75.0301V75.1481C122.214 75.1641 122.228 75.1761 122.243 75.1761H122.292C122.312 75.1811 122.331 75.2071 122.331 75.2631C122.331 75.3191 122.315 75.3431 122.298 75.3521H122.241C122.225 75.3521 122.214 75.3651 122.214 75.3811V75.4971C122.214 75.5131 122.228 75.5271 122.241 75.5271H122.247C122.253 75.5281 122.257 75.5281 122.261 75.5281C122.288 75.5281 122.322 75.5231 122.322 75.5641V76.7811C122.287 76.7981 122.24 76.8311 122.24 76.8881C122.24 76.9651 122.24 76.9481 122.24 76.9881C122.24 77.0121 122.219 77.0521 122.174 77.0521C122.135 77.0521 122.055 77.0521 121.988 77.0521C121.947 77.0521 121.92 77.0841 121.92 77.1131V77.3101C121.92 77.3301 121.943 77.3551 121.971 77.3531C122.065 77.3501 122.129 77.3771 122.129 77.4471C122.129 77.4501 122.127 77.5181 122.127 77.5221C122.127 77.5851 122.063 77.6151 121.992 77.6381C121.855 77.6851 121.543 77.7691 121.535 77.9901C121.017 78.2291 120.082 78.7441 119.408 79.7581C118.545 80.9381 118.627 82.5701 118.619 82.8001C118.617 82.8481 118.582 82.8781 118.545 82.8781C118.52 82.8781 118.461 82.8781 118.445 82.8781C118.402 82.8781 118.402 82.9151 118.402 82.9151V83.0841C118.402 83.0841 118.404 83.1261 118.359 83.1261C118.316 83.1261 118.189 83.1261 118.189 83.1261C118.189 83.1261 118.146 83.1261 118.146 83.1731C118.146 83.2101 118.146 83.3571 118.146 83.3571C118.146 83.3571 118.148 83.3931 118.099 83.3931C118.066 83.3931 117.929 83.3931 117.929 83.3931C117.929 83.3931 117.882 83.3931 117.882 83.4421C117.882 83.4691 117.882 83.5791 117.882 83.6381C117.882 83.6601 117.896 83.6641 117.911 83.6661C117.962 83.6731 118.063 83.7191 118.063 83.8321C118.063 84.0241 118.18 84.0431 118.227 84.0431V84.7521C118.227 84.9181 118.098 84.9821 118.026 85.0001C118.01 85.0021 117.993 85.0201 117.993 85.0401C117.993 85.0591 117.993 85.7691 117.993 85.7691L122.975 84.6691H122.983L127.967 85.7691C127.967 85.7691 127.967 85.0571 127.967 85.0401C127.967 85.0191 127.947 85.0031 127.93 85.0001C127.858 84.9821 127.731 84.9171 127.731 84.7521V84.0431C127.78 84.0431 127.895 84.0241 127.895 83.8321C127.895 83.7201 128 83.6731 128.047 83.6661C128.065 83.6641 128.078 83.6601 128.078 83.6381C128.078 83.5781 128.078 83.4691 128.078 83.4421C128.08 83.3941 128.031 83.3941 128.031 83.3941Z" fill="white"/>
<path d="M133.545 99.3252V97.8682H132.693V97.2322H113.254V97.8672H112.4V99.3232H111.543V100.795L134.402 100.796V99.3252H133.545Z" fill="white"/>
</svg>
