<svg width="175" height="115" viewBox="0 0 175 115" fill="none" xmlns="http://www.w3.org/2000/svg">
<g id="warwick" clip-path="url(#clip0_473_980)">
<g id="Layer 1">
<g id="Group">
<g id="Group_2">
<path id="Vector" d="M171.084 98.626H174.694L160.804 85.5285L173.934 72.431H170.476L157.042 85.5285L171.087 98.626H171.084ZM153.152 98.626H155.66V72.4281H153.152V98.626ZM139.563 97.0737C132.533 97.0737 128.163 92.0409 128.163 85.5285C128.163 79.0162 132.533 73.9251 139.563 73.9251C142.264 73.9251 145.605 75.1833 147.505 77.9968L149.557 76.4794C147.011 73.0747 143.515 71.7058 139.563 71.7058C131.355 71.7058 125.655 77.5366 125.655 85.5285C125.655 93.5204 131.355 99.2959 139.563 99.2959C143.515 99.2959 147.011 97.927 149.557 94.5223L147.505 93.0049C145.605 95.8155 142.264 97.0766 139.563 97.0766M118.725 98.629H121.233V72.4339H118.725V98.629ZM106.796 98.629L114.507 72.4339H111.923L105.262 95.6349L99.1788 74.6533H95.753L89.5651 95.6349L82.8919 72.4339H80.3079L88.0188 98.629H91.0967L97.4688 77.5366L103.721 98.629H106.799H106.796ZM71.1443 86.4372C74.0703 85.9421 77.7474 84.3927 77.7474 79.555C77.7474 72.6728 70.7644 72.4398 68.6364 72.4398H61.1039V98.6348H63.5972V74.6562H68.9755C74.2573 74.6562 75.2395 77.7405 75.2395 79.555C75.2395 81.3695 74.2193 84.4334 68.9755 84.4509H66.108V86.6702H68.6393L75.8504 98.6348H78.7003L71.1443 86.4401V86.4372ZM46.2434 72.4369H43.8845L32.1428 98.6319H34.7677L37.8076 91.6768H52.3261L55.366 98.6319H57.9879L46.2463 72.4369H46.2434ZM38.7926 89.4604L45.0654 75.1018L51.3352 89.4604H38.7926ZM3.27826 72.4369L9.95438 95.6378L16.2593 74.6562H19.4512L25.6509 95.6378L32.3124 72.4369H34.8963L27.1854 98.6319H24.1075L17.8552 77.5425L11.4831 98.6319H8.40519L0.694336 72.4369" fill="black"/>
<path id="Vector_2" d="M168.723 106.347H167.867V114.753H168.723V110.276H168.735L172.944 114.753H174.21L169.726 110.163L173.97 106.347H172.742L168.735 110.125H168.723V106.347ZM165.432 112.961C165.137 113.395 164.774 113.716 164.336 113.911C163.9 114.112 163.438 114.211 162.956 114.211C162.415 114.211 161.933 114.115 161.497 113.914C161.065 113.719 160.697 113.451 160.395 113.116C160.091 112.781 159.861 112.391 159.697 111.948C159.536 111.505 159.454 111.042 159.454 110.553C159.454 110.064 159.533 109.598 159.694 109.158C159.852 108.715 160.083 108.328 160.387 107.993C160.685 107.658 161.053 107.39 161.486 107.192C161.918 106.997 162.409 106.898 162.959 106.898C163.228 106.898 163.479 106.93 163.716 106.994C163.947 107.055 164.166 107.136 164.362 107.241C164.558 107.343 164.733 107.463 164.879 107.6C165.028 107.734 165.142 107.865 165.23 107.999L165.946 107.477C165.803 107.27 165.625 107.084 165.408 106.924C165.195 106.761 164.958 106.621 164.695 106.507C164.429 106.391 164.154 106.298 163.856 106.231C163.555 106.167 163.254 106.14 162.947 106.14C162.322 106.14 161.74 106.248 161.202 106.469C160.664 106.694 160.2 107.002 159.808 107.39C159.413 107.78 159.109 108.249 158.884 108.785C158.659 109.324 158.551 109.912 158.551 110.556C158.551 111.199 158.659 111.785 158.878 112.327C159.095 112.865 159.402 113.328 159.79 113.722C160.176 114.112 160.641 114.421 161.182 114.639C161.72 114.86 162.304 114.974 162.944 114.974C163.321 114.974 163.672 114.93 163.997 114.846C164.318 114.761 164.61 114.645 164.876 114.502C165.139 114.359 165.376 114.191 165.578 114.001C165.78 113.809 165.955 113.608 166.095 113.395L165.432 112.964V112.961ZM156.648 106.379H155.795V114.785H156.648V106.379ZM143.889 106.379H142.983L145.468 114.785H146.467L148.584 107.57H148.607L150.723 114.785H151.723L154.21 106.379H153.304L151.247 113.608H151.223L149.119 106.379H148.093L145.988 113.608H145.962L143.881 106.379H143.889ZM137.202 107.116H138.724C139.04 107.116 139.329 107.145 139.593 107.201C139.85 107.259 140.075 107.343 140.259 107.463C140.443 107.582 140.58 107.734 140.686 107.926C140.788 108.115 140.841 108.348 140.841 108.628C140.841 109.126 140.654 109.498 140.282 109.749C139.908 109.999 139.373 110.125 138.686 110.125H137.202V107.119V107.116ZM137.202 110.856H138.628L140.96 114.785H142.007L139.543 110.783C139.85 110.751 140.136 110.684 140.399 110.57C140.659 110.463 140.887 110.311 141.08 110.125C141.267 109.935 141.419 109.72 141.528 109.466C141.639 109.213 141.694 108.931 141.694 108.622C141.694 108.208 141.624 107.862 141.481 107.579C141.338 107.294 141.136 107.064 140.879 106.88C140.621 106.702 140.314 106.577 139.964 106.496C139.613 106.417 139.227 106.376 138.815 106.376H136.342V114.782H137.199V110.853L137.202 110.856ZM130.929 107.332L132.785 111.796H129.07L130.926 107.332H130.929ZM128.751 112.58H133.109L134.033 114.785H134.989L131.373 106.379H130.54L126.898 114.785H127.839L128.751 112.58ZM117.001 106.379H116.097L118.588 114.785H119.582L121.701 107.57H121.724L123.841 114.785H124.84L127.331 106.379H126.43L124.364 113.608H124.34L122.239 106.379H121.216L119.105 113.608H119.082L117.001 106.379ZM108.147 110.809H112.073V110.046H108.147V107.142H112.374V106.379H107.293V114.785H108.15V110.809H108.147ZM104.245 111.989C104.087 112.431 103.862 112.819 103.558 113.151C103.257 113.48 102.888 113.748 102.456 113.946C102.023 114.144 101.535 114.243 100.997 114.243C100.459 114.243 99.9713 114.147 99.5387 113.946C99.1032 113.748 98.7437 113.483 98.4368 113.151C98.1386 112.819 97.9077 112.431 97.7469 111.989C97.5891 111.546 97.5102 111.08 97.5102 110.588C97.5102 110.096 97.5891 109.632 97.7469 109.19C97.9077 108.747 98.1386 108.36 98.4368 108.025C98.7408 107.687 99.1032 107.419 99.5387 107.221C99.9713 107.026 100.454 106.927 100.997 106.927C101.541 106.927 102.023 107.026 102.456 107.221C102.888 107.419 103.257 107.684 103.558 108.025C103.862 108.36 104.087 108.747 104.245 109.19C104.406 109.632 104.484 110.101 104.484 110.588C104.484 111.074 104.406 111.546 104.245 111.989ZM105.057 108.814C104.838 108.278 104.528 107.809 104.137 107.419C103.739 107.029 103.28 106.72 102.742 106.499C102.21 106.277 101.626 106.17 101 106.17C100.375 106.17 99.7901 106.28 99.2552 106.499C98.7203 106.723 98.2555 107.029 97.8639 107.419C97.4722 107.809 97.1623 108.278 96.9402 108.814C96.718 109.353 96.607 109.941 96.607 110.582C96.607 111.223 96.718 111.814 96.9402 112.353C97.1623 112.892 97.4722 113.355 97.8639 113.748C98.2555 114.138 98.7203 114.447 99.2552 114.665C99.7901 114.887 100.372 115 101 115C101.629 115 102.207 114.887 102.742 114.665C103.28 114.444 103.739 114.138 104.137 113.748C104.528 113.352 104.838 112.892 105.057 112.353C105.282 111.814 105.391 111.226 105.391 110.582C105.391 109.938 105.282 109.353 105.057 108.814ZM89.8636 111.162L93.0175 106.379H92.0179L89.4603 110.454L86.9231 106.379H85.8503L89.0072 111.162V114.785H89.8636V111.162ZM82.0446 107.142H84.8653V106.379H78.3704V107.142H81.1882V114.785H82.0446V107.142ZM77.1661 106.379H76.3097V114.785H77.1661V106.379ZM74.4098 107.189C74.2051 106.915 73.8982 106.673 73.4949 106.472C73.0944 106.269 72.6033 106.17 72.0334 106.17C71.7264 106.17 71.4078 106.21 71.0922 106.298C70.7765 106.385 70.4842 106.525 70.224 106.711C69.961 106.903 69.7476 107.142 69.5839 107.436C69.4231 107.728 69.3413 108.074 69.3413 108.482C69.3413 108.861 69.4085 109.181 69.54 109.44C69.6687 109.702 69.844 109.921 70.0574 110.101C70.2708 110.276 70.5134 110.419 70.7823 110.532C71.0542 110.643 71.3289 110.745 71.6037 110.832C71.8755 110.917 72.1298 111.007 72.3754 111.092C72.6238 111.182 72.8401 111.287 73.0272 111.418C73.2201 111.549 73.3721 111.712 73.489 111.907C73.603 112.099 73.6615 112.341 73.6615 112.635C73.6615 112.903 73.603 113.142 73.489 113.34C73.375 113.544 73.2289 113.713 73.0476 113.85C72.8723 113.99 72.6735 114.089 72.4484 114.158C72.2234 114.228 72.01 114.26 71.7937 114.26C71.3494 114.26 70.9665 114.158 70.6332 113.955C70.3059 113.757 70.0486 113.506 69.8674 113.203L69.125 113.751C69.2799 113.955 69.4524 114.138 69.6482 114.295C69.8499 114.453 70.0633 114.584 70.2942 114.686C70.5222 114.788 70.7619 114.866 71.0191 114.919C71.2705 114.971 71.5277 114.997 71.7791 114.997C72.1123 114.997 72.4455 114.948 72.7729 114.855C73.1032 114.756 73.3984 114.613 73.6527 114.412C73.907 114.214 74.1145 113.96 74.2753 113.658C74.4361 113.355 74.515 112.988 74.515 112.571C74.515 112.155 74.439 111.805 74.2899 111.534C74.1408 111.258 73.945 111.03 73.7082 110.853C73.4685 110.678 73.2026 110.532 72.9044 110.419C72.6121 110.311 72.314 110.209 72.0246 110.113C71.7849 110.031 71.5598 109.953 71.3435 109.874C71.1243 109.793 70.9285 109.697 70.7648 109.571C70.5923 109.446 70.4579 109.295 70.3556 109.123C70.2503 108.948 70.1977 108.727 70.1977 108.459C70.1977 108.191 70.2503 107.958 70.3614 107.76C70.4637 107.562 70.6099 107.399 70.7794 107.265C70.9577 107.136 71.1506 107.037 71.3611 106.973C71.5803 106.912 71.7878 106.88 71.9954 106.88C72.3987 106.88 72.7437 106.956 73.0272 107.11C73.3166 107.265 73.5504 107.468 73.7316 107.722L74.4068 107.177L74.4098 107.189ZM63.2644 107.116H64.7873C65.1029 107.116 65.3923 107.145 65.6554 107.201C65.9155 107.259 66.1377 107.343 66.3218 107.463C66.5031 107.582 66.6463 107.734 66.7515 107.926C66.8538 108.115 66.9035 108.348 66.9035 108.628C66.9035 109.126 66.7194 109.498 66.3452 109.749C65.9711 109.999 65.442 110.125 64.7522 110.125H63.2644V107.119V107.116ZM63.2644 110.856H64.6908L67.0233 114.785H68.0727L65.6086 110.783C65.9155 110.751 66.1991 110.684 66.4651 110.57C66.7252 110.463 66.9532 110.311 67.1403 110.125C67.3332 109.935 67.4823 109.72 67.5933 109.466C67.7044 109.213 67.757 108.931 67.757 108.622C67.757 108.208 67.6869 107.862 67.5436 107.579C67.4004 107.294 67.1987 107.064 66.9473 106.88C66.6872 106.702 66.3803 106.577 66.0266 106.496C65.6729 106.417 65.29 106.376 64.8779 106.376H62.405V114.782H63.2615V110.853L63.2644 110.856ZM56.103 110.783H60.1865V110.023H56.103V107.139H60.4671V106.376H55.2466V114.782H60.6132V114.025H56.103V110.78V110.783ZM47.562 106.379H46.6325L49.842 114.785H50.751L53.9722 106.379H53.0573L50.3214 113.681H50.298L47.562 106.379ZM45.1886 106.379H44.3321V114.785H45.1886V106.379ZM36.5394 106.379H35.4696V114.785H36.3261V107.556H36.3494L41.2542 114.785H42.324V106.379H41.4676V113.541H41.4442L36.5424 106.379H36.5394ZM31.9094 114.674C32.3186 114.456 32.6402 114.182 32.8799 113.847C33.1166 113.518 33.2832 113.157 33.3768 112.763C33.4674 112.37 33.5083 112 33.5083 111.651V106.379H32.6519V111.558C32.6519 111.895 32.6168 112.228 32.5379 112.548C32.4589 112.868 32.3274 113.157 32.1462 113.401C31.9708 113.652 31.7311 113.853 31.4417 114.01C31.1465 114.161 30.7841 114.24 30.3573 114.24C29.9306 114.24 29.571 114.161 29.2729 114.01C28.9777 113.853 28.7438 113.652 28.5626 113.401C28.3872 113.157 28.2586 112.868 28.1768 112.548C28.0978 112.228 28.0598 111.895 28.0598 111.558V106.379H27.2034V111.651C27.2034 112 27.2472 112.37 27.3379 112.763C27.4314 113.157 27.5951 113.518 27.8318 113.847C28.0715 114.182 28.3931 114.456 28.7935 114.674C29.1969 114.892 29.7172 115.003 30.3544 115.003C30.9916 115.003 31.4973 114.892 31.9065 114.674M18.7063 110.873H22.7868V110.113H18.7063V107.23H23.0732V106.467H17.8498V114.872H23.2164V114.115H18.7063V110.87V110.873ZM9.36437 114.875H10.2208V110.899H14.8128V114.875H15.6693V106.469H14.8128V110.116H10.2208V106.469H9.36437V114.875ZM1.31152 106.469H7.80641V107.233H4.98864V114.875H4.13221V107.233H1.30859V106.469H1.31152Z" fill="black"/>
</g>
<path id="Vector_3" d="M27.0889 0L62.0771 61.1625L88.1035 13.1499L114.13 61.1625L149.118 0H27.0889Z" fill="#3C1053"/>
</g>
</g>
</g>
<defs>
<clipPath id="clip0_473_980">
<rect width="174" height="115" fill="white" transform="translate(0.694336)"/>
</clipPath>
</defs>
</svg>
