<svg width="68" height="45" viewBox="0 0 68 45" fill="none" xmlns="http://www.w3.org/2000/svg">
<path d="M12.9375 20.5876V28.2376C12.9375 43.9876 55.35 43.9876 55.35 28.2376V20.5876H12.9375Z" fill="#596066"/>
<path d="M67.95 15.1874L34.2 30.3749L0.449951 15.1874L34.2 -7.62939e-05L67.95 15.1874Z" fill="#3E4347"/>
<path d="M34.0875 14.5124C28.9125 16.8749 17.6625 21.9374 17.2125 22.1624C16.9875 22.2749 16.7625 22.4999 16.7625 22.8374V30.4874C16.7625 31.3874 17.8875 31.3874 17.8875 30.4874V23.3999C22.95 21.1499 33.8624 16.1999 34.3125 15.9749C34.9874 15.6374 34.7625 14.2874 34.0875 14.5124Z" fill="#FFCE31"/>
<path d="M17.325 33.0749C18.5055 33.0749 19.4625 31.866 19.4625 30.3749C19.4625 28.8837 18.5055 27.6749 17.325 27.6749C16.1445 27.6749 15.1875 28.8837 15.1875 30.3749C15.1875 31.866 16.1445 33.0749 17.325 33.0749Z" fill="#FFCE31"/>
<path d="M17.325 44.9999C18.45 44.9999 19.4625 44.4374 19.4625 43.6499V30.3749H15.1875V43.6499C15.1875 44.4374 16.2 44.9999 17.325 44.9999Z" fill="#FFCE31"/>
<path d="M18.7874 30.7126C18.6749 30.7126 18.6749 30.8251 18.5624 30.8251V44.7751C18.6749 44.7751 18.6749 44.6626 18.7874 44.6626V30.7126Z" fill="#594640"/>
<path d="M17.8875 31.0501H17.6625V45.0001H17.8875V31.0501Z" fill="#594640"/>
<path d="M16.9875 31.0501H16.7625V45.0001H16.9875V31.0501Z" fill="#594640"/>
<path d="M16.0874 30.8251C15.9749 30.8251 15.9749 30.7126 15.8624 30.7126V44.7751C15.9749 44.7751 15.9749 44.8876 16.0874 44.8876V30.8251Z" fill="#594640"/>
</svg>
