<svg width="37" height="61" viewBox="0 0 37 61" fill="none" xmlns="http://www.w3.org/2000/svg">
<path d="M8.02412 11.2077C6.86818 11.2077 5.93115 10.2706 5.93115 9.11474V2.59291C5.93115 1.43697 6.8683 0.499939 8.02412 0.499939C9.17994 0.499939 10.1171 1.43709 10.1171 2.59291V9.11451C10.1171 10.2706 9.18006 11.2077 8.02412 11.2077Z" fill="#FF905E"/>
<path d="M11.9001 60.4999C7.06891 60.4999 3.13867 56.5695 3.13867 51.7385V33.7706C3.13867 32.6147 4.07582 31.6777 5.23164 31.6777H18.5684C19.7243 31.6777 20.6614 32.6148 20.6614 33.7706V51.7385C20.6615 56.5799 16.742 60.4999 11.9001 60.4999Z" fill="#FFDB77"/>
<path d="M18.5687 31.6777H11.9004V60.5001C16.7423 60.5001 20.6618 56.58 20.6618 51.7386V33.7708C20.6618 32.6148 19.7247 31.6777 18.5687 31.6777Z" fill="#FF905E"/>
<path d="M20.6615 35.8635H3.13867V17.1896C3.13867 16.0337 4.07582 15.0966 5.23164 15.0966H18.5684C19.7243 15.0966 20.6614 16.0338 20.6614 17.1896V35.8635H20.6615Z" fill="#28D2E4"/>
<path d="M20.6618 17.1896C20.6618 16.0337 19.7246 15.0966 18.5688 15.0966H11.9004V35.8635H20.6618V17.1896Z" fill="#28C3E4"/>
<path d="M11.9004 44.1387C12.7415 44.1387 13.4234 43.4568 13.4234 42.6157C13.4234 41.7746 12.7415 41.0927 11.9004 41.0927C11.0593 41.0927 10.3774 41.7746 10.3774 42.6157C10.3774 43.4568 11.0593 44.1387 11.9004 44.1387Z" fill="#FF905E"/>
<path d="M11.9002 52.5492C13.5324 52.5492 14.8555 51.226 14.8555 49.5938C14.8555 47.9617 13.5324 46.6385 11.9002 46.6385C10.268 46.6385 8.94482 47.9617 8.94482 49.5938C8.94482 51.226 10.268 52.5492 11.9002 52.5492Z" fill="#FF905E"/>
<path d="M21.626 19.283H2.17451C1.01857 19.283 0.081543 18.3459 0.081543 17.1901C0.081543 16.0341 1.01869 15.0971 2.17451 15.0971H21.626C22.7819 15.0971 23.719 16.0343 23.719 17.1901C23.719 18.3459 22.7819 19.283 21.626 19.283Z" fill="#28C3E4"/>
<path d="M15.7761 11.2077C14.6201 11.2077 13.6831 10.2706 13.6831 9.11474V2.59291C13.6831 1.43697 14.6203 0.499939 15.7761 0.499939C16.9319 0.499939 17.869 1.43709 17.869 2.59291V9.11451C17.869 10.2706 16.932 11.2077 15.7761 11.2077Z" fill="#DC554F"/>
<path d="M11.9004 41.093V44.1392C12.7416 44.1392 13.4234 43.4572 13.4234 42.616C13.4234 41.7749 12.7416 41.093 11.9004 41.093Z" fill="#DC554F"/>
<path d="M11.9004 46.6378V52.549C13.5327 52.549 14.856 51.2258 14.856 49.5934C14.856 47.9612 13.5327 46.6378 11.9004 46.6378Z" fill="#DC554F"/>
<path d="M21.6261 15.0969H11.9004V19.2829H21.6261C22.7821 19.2829 23.7191 18.3458 23.7191 17.1899C23.7191 16.034 22.7821 15.0969 21.6261 15.0969Z" fill="#28B6E4"/>
<path d="M26.7593 18.6031C26.0258 18.6031 25.4312 18.0252 25.4312 17.3125V13.2907C25.4312 12.5778 26.0259 12 26.7593 12C27.4928 12 28.0875 12.5779 28.0875 13.2907V17.3123C28.0875 18.0252 27.4929 18.6031 26.7593 18.6031Z" fill="#FF905E"/>
<path d="M29.2186 48.9999C26.1528 48.9999 23.6587 46.5761 23.6587 43.5971V32.5169C23.6587 31.8041 24.2534 31.2262 24.9869 31.2262H33.4502C34.1837 31.2262 34.7784 31.8041 34.7784 32.5169V43.5971C34.7784 46.5826 32.2912 48.9999 29.2186 48.9999Z" fill="#FFDB77"/>
<path d="M33.4504 31.2262H29.2188V49C32.2914 49 34.7786 46.5826 34.7786 43.5971V32.517C34.7786 31.8041 34.1839 31.2262 33.4504 31.2262Z" fill="#FF905E"/>
<path d="M34.7784 33.8075H23.6587V22.2919C23.6587 21.5791 24.2534 21.0013 24.9869 21.0013H33.4502C34.1837 21.0013 34.7784 21.5792 34.7784 22.2919V33.8075H34.7784Z" fill="#28D2E4"/>
<path d="M34.7786 22.2919C34.7786 21.5791 34.1839 21.0013 33.4505 21.0013H29.2188V33.8075H34.7786V22.2919Z" fill="#28C3E4"/>
<path d="M29.2189 38.9105C29.7527 38.9105 30.1854 38.49 30.1854 37.9713C30.1854 37.4526 29.7527 37.0322 29.2189 37.0322C28.6851 37.0322 28.2524 37.4526 28.2524 37.9713C28.2524 38.49 28.6851 38.9105 29.2189 38.9105Z" fill="#FF905E"/>
<path d="M29.2187 44.097C30.2545 44.097 31.0941 43.281 31.0941 42.2745C31.0941 41.268 30.2545 40.4521 29.2187 40.4521C28.1829 40.4521 27.3433 41.268 27.3433 42.2745C27.3433 43.281 28.1829 44.097 29.2187 44.097Z" fill="#FF905E"/>
<path d="M35.3906 23.5829H23.0469C22.3134 23.5829 21.7188 23.005 21.7188 22.2922C21.7188 21.5794 22.3135 21.0016 23.0469 21.0016H35.3906C36.1241 21.0016 36.7187 21.5795 36.7187 22.2922C36.7187 23.005 36.1241 23.5829 35.3906 23.5829Z" fill="#28C3E4"/>
<path d="M31.6783 18.6031C30.9447 18.6031 30.3501 18.0252 30.3501 17.3125V13.2907C30.3501 12.5778 30.9448 12 31.6783 12C32.4117 12 33.0064 12.5779 33.0064 13.2907V17.3123C33.0064 18.0252 32.4118 18.6031 31.6783 18.6031Z" fill="#DC554F"/>
<path d="M29.2188 37.0323V38.9108C29.7525 38.9108 30.1852 38.4903 30.1852 37.9715C30.1852 37.4528 29.7525 37.0323 29.2188 37.0323Z" fill="#DC554F"/>
<path d="M29.2188 40.4516V44.0969C30.2546 44.0969 31.0943 43.2809 31.0943 42.2743C31.0943 41.2677 30.2546 40.4516 29.2188 40.4516Z" fill="#DC554F"/>
<path d="M35.3906 21.0014H29.2188V23.5828H35.3906C36.1241 23.5828 36.7187 23.0049 36.7187 22.2922C36.7187 21.5793 36.1241 21.0014 35.3906 21.0014Z" fill="#28B6E4"/>
</svg>
