<svg width="60" height="59" viewBox="0 0 60 59" fill="none" xmlns="http://www.w3.org/2000/svg">
<g clip-path="url(#clip0_1102_1012)">
<path d="M59.1001 53.4688C59.1001 56.5109 56.611 59 53.5688 59H5.63135C2.58916 59 0.100098 56.5109 0.100098 53.4688V5.53125C0.100098 2.48906 2.58916 0 5.63135 0H53.5688C56.611 0 59.1001 2.48906 59.1001 5.53125V53.4688Z" fill="#E54D2E"/>
<path d="M53.5688 0H29.6001V9.21875H36.9751V16.5938H33.2876V23.2589C51.4688 47.0341 42.0362 34.6994 49.0369 43.8536C50.8917 46.28 49.1623 49.7812 46.1072 49.7812H29.6001V59H53.5688C56.611 59 59.1001 56.5109 59.1001 53.4688V5.53125C59.1001 2.48906 56.611 0 53.5688 0Z" fill="#F27261"/>
<path d="M33.3611 37.7416C33.3906 36.2352 34.6075 35.0312 36.088 35.0312C36.1065 35.0312 36.1249 35.0312 36.1434 35.0312C37.6497 35.0626 38.8463 36.3256 38.8168 37.8522L38.7652 40.5625H46.52L33.2874 23.2589V16.5938H36.9749V9.21875H22.2249V16.5938H25.9124V23.2589L12.6816 40.5625H33.3058L33.3611 37.7416ZM27.3911 36.0877C25.8645 36.0877 24.6255 34.8487 24.6255 33.3221C24.6255 31.7955 25.8645 30.5565 27.3911 30.5565C28.9177 30.5565 30.1567 31.7955 30.1567 33.3221C30.1567 34.8487 28.9177 36.0877 27.3911 36.0877Z" fill="#F4D6B0"/>
<path d="M46.1071 49.7813H13.0929C10.0378 49.7813 8.30839 46.28 10.1632 43.8536L12.6818 40.5625H33.306L33.3613 37.7416C33.3908 36.2353 34.6076 35.0313 36.0882 35.0313C36.1066 35.0313 36.125 35.0313 36.1435 35.0313C37.6498 35.0626 38.8464 36.3256 38.8169 37.8522L38.7653 40.5625H46.5201L49.0368 43.8536C50.8916 46.28 49.1622 49.7813 46.1071 49.7813ZM27.3912 30.5565C25.8646 30.5565 24.6256 31.7955 24.6256 33.3221C24.6256 34.8488 25.8646 36.0878 27.3912 36.0878C28.9178 36.0878 30.1568 34.8488 30.1568 33.3221C30.1568 31.7955 28.9178 30.5565 27.3912 30.5565Z" fill="#01A59C"/>
</g>
<defs>
<clipPath id="clip0_1102_1012">
<rect width="59" height="59" fill="white" transform="translate(0.100098)"/>
</clipPath>
</defs>
</svg>
