<svg width="17" height="11" viewBox="0 0 17 11" fill="none" xmlns="http://www.w3.org/2000/svg">
<path d="M8.18452 5.69093C7.77185 5.72532 7.39358 5.55338 6.98091 5.41582C4.81442 4.69366 2.61354 3.9715 0.447053 3.24934C0.309499 3.18056 0.206332 3.14617 0.103166 3.043C-0.0343887 2.93984 -0.0343887 2.80228 0.103166 2.69912C0.206332 2.63034 0.343887 2.52717 0.481442 2.49278C2.81988 1.80501 5.12392 1.11723 7.46235 0.395071C7.97818 0.223127 8.5284 0.223127 9.07862 0.395071C11.3827 1.08285 13.6867 1.77062 15.9908 2.45839C16.1283 2.52717 16.2659 2.56156 16.4034 2.66473C16.5754 2.76789 16.5754 2.93984 16.4034 3.043C16.3003 3.11178 16.1971 3.18056 16.0595 3.21495C13.7555 3.9715 11.4514 4.76244 9.11301 5.51899C8.80351 5.65655 8.5284 5.69093 8.18452 5.69093Z" fill="#DA9694"/>
<path d="M3.61091 5.79434C3.26702 5.72556 3.19824 5.93189 3.19824 6.10383C3.19824 6.99794 3.19824 7.85766 3.19824 8.71738C3.19824 9.02688 3.30141 9.19882 3.50774 9.40515C3.57652 9.47393 3.67968 9.54271 3.74846 9.61149C4.29868 9.98976 4.95207 10.2305 5.60545 10.4024C6.91222 10.7463 8.219 10.8151 9.56016 10.6431C10.4199 10.54 11.2796 10.2993 12.0705 9.95537C12.4144 9.78343 12.7583 9.61149 12.999 9.33638C13.171 9.16443 13.2397 8.99249 13.2054 8.75177C13.2397 7.92644 13.2397 7.06672 13.2397 6.207C13.2397 5.72556 12.8959 5.79434 12.7583 5.82873C11.5547 6.24139 10.2823 6.61967 9.07871 7.03233C8.45972 7.23866 7.87511 7.23866 7.2905 7.03233L3.61091 5.79434Z" fill="#DA9694"/>
<path d="M15.0969 5.00332C14.9937 5.0377 14.9593 5.07209 14.9593 5.20965C14.9593 6.00059 14.9593 6.75714 14.9593 7.54808C14.9593 7.61686 14.9249 7.72002 14.8906 7.7888C14.7186 8.20147 14.5467 8.61413 14.4091 9.0268C14.2716 9.40507 14.3403 9.81774 14.6154 10.0928C14.6842 10.196 14.8218 10.2992 14.9249 10.368C15.0281 10.4711 15.2 10.5055 15.3376 10.5399C15.5783 10.5743 15.7847 10.4367 15.9566 10.2992C16.0254 10.2304 16.1285 10.1616 16.1973 10.0585C16.4037 9.78335 16.438 9.43946 16.3693 9.12996C16.2661 8.64852 16.0598 8.23586 15.8534 7.82319C15.7847 7.75441 15.7847 7.61686 15.7847 7.54808C15.7847 6.68836 15.7847 5.86303 15.7847 5.00332C15.7847 4.83137 15.6471 4.86576 15.5783 4.90015L15.0969 5.00332Z" fill="#DA9694"/>
</svg>
