<svg width="165" height="32" viewBox="0 0 165 32" fill="none" xmlns="http://www.w3.org/2000/svg">
<g id="Frame 481823">
<path id="Vector" d="M82.5 28.5L74.1654 17.8784L81.5739 8.5H77.3521L72.0409 15.1757L66.8113 8.5H62.644L69.9708 17.7973L61.5 28.5H65.7218L72.0953 20.473L78.4144 28.5H82.5Z" fill="#00324C"/>
<g id="Group">
<path id="Vector_2" d="M37.1616 3.27429V8.2224C35.9314 7.94902 34.7832 7.83967 33.307 7.83967C26.3906 7.83967 21.7705 12.5144 21.7705 18.72C21.7705 24.953 25.9258 28.9716 33.2523 28.9716C36.3141 28.9716 39.0752 28.2882 40.6061 27.4954V3.27429H37.1616ZM37.1616 25.6638C36.2047 25.9645 34.8652 26.1832 33.553 26.1832C28.0582 26.1832 25.3517 23.3674 25.3517 18.6654C25.3517 13.1432 29.2883 10.6554 33.4983 10.6554C35.0839 10.6554 36.0134 10.8195 37.1616 11.1749V25.6638Z" fill="#00324C"/>
<path id="Vector_3" d="M61.82 27.0306L60.6172 24.7342C58.7309 25.6364 57.118 26.1831 54.1655 26.1831C49.6002 26.1831 46.0736 23.3947 45.9916 19.0754H62.3121L62.3395 18.0912C62.5308 11.8036 58.5395 7.86694 52.8533 7.86694C47.2218 7.86694 42.4924 12.1863 42.4104 18.1185C42.301 24.7342 46.9484 28.9989 53.6188 28.9989C56.7899 28.9715 59.7697 28.3428 61.82 27.0306ZM46.1283 16.3143C46.511 12.9244 49.5181 10.6007 52.7986 10.6007C56.5166 10.6007 58.5395 13.5805 58.6762 16.3143H46.1283Z" fill="#00324C"/>
</g>
<g id="Group_2">
<path id="Vector_4" d="M118.354 27.0306L117.151 24.7342C115.265 25.6364 113.652 26.1831 110.7 26.1831C106.134 26.1831 102.608 23.3947 102.526 19.0754H118.846L118.874 18.0912C119.065 11.8036 115.074 7.86694 109.387 7.86694C103.756 7.86694 99.0265 12.1863 98.9445 18.1185C98.8352 24.7342 103.51 28.9989 110.153 28.9989C113.297 28.9715 116.277 28.3428 118.354 27.0306ZM102.662 16.3143C103.045 12.9244 106.052 10.6007 109.333 10.6007C113.051 10.6007 115.046 13.5805 115.183 16.3143H102.662Z" fill="#00324C"/>
<path id="Vector_5" d="M19.9116 27.0306L18.7087 24.7342C16.8224 25.6364 15.2095 26.1831 12.257 26.1831C7.69166 26.1831 4.19245 23.3947 4.0831 19.0754H20.4036L20.431 18.0912C20.6223 11.8036 16.6311 7.86694 10.9448 7.86694C5.31329 7.86694 0.583892 12.1863 0.501879 18.1185C0.392528 24.7342 5.06726 28.9989 11.7103 28.9989C14.8814 28.9715 17.8612 28.3428 19.9116 27.0306ZM4.21979 16.3143C4.60252 12.9244 7.60965 10.6007 10.8902 10.6007C14.6081 10.6007 16.6311 13.5805 16.7404 16.3143H4.21979Z" fill="#00324C"/>
</g>
<g id="Group_3">
<path id="Vector_6" d="M99.6279 27.0306L98.3157 24.6522C96.8395 25.4997 94.2971 26.1284 92.4382 26.1284C87.5447 26.1284 84.9477 23.2307 84.893 18.3646C84.8383 13.7172 87.7088 10.71 92.5748 10.71C94.3245 10.71 96.2381 11.1201 98.1244 12.1316L99.3819 9.67122C98.0697 8.76908 95.4453 7.8396 92.5202 7.8396C84.4829 7.8396 81.2298 13.4438 81.2844 18.6653C81.3391 23.8047 84.5103 28.9715 92.2195 28.9715C93.7777 28.9715 96.6208 28.7255 99.6279 27.0306Z" fill="#00324C"/>
</g>
<g id="Group_4">
<path id="Vector_7" d="M126.145 26.1013L127.321 28.3156C127.02 28.4797 125.407 28.9717 124.286 28.9717C121.662 28.9717 120.623 27.5775 120.623 25.1992V3.30176H124.068V24.3517C124.068 26.3747 124.806 26.402 126.145 26.1013Z" fill="#00324C"/>
<path id="Vector_8" d="M142.548 1.57944C142.958 1.9895 143.204 4.61391 143.204 5.24267C143.204 5.87144 142.958 8.49584 142.548 8.90591C142.138 9.31597 139.513 9.56201 138.885 9.56201C138.256 9.56201 135.632 9.31597 135.221 8.90591C134.811 8.49584 134.565 5.87144 134.565 5.24267C134.565 4.61391 134.811 1.9895 135.221 1.57944C135.632 1.16938 138.256 0.92334 138.885 0.92334C139.513 0.92334 142.138 1.16938 142.548 1.57944Z" fill="#89C7E5"/>
</g>
<g id="Group_5">
<path id="Vector_9" d="M163.844 22.848C164.254 23.2581 164.5 25.8825 164.5 26.5112C164.5 27.14 164.254 29.7644 163.844 30.1745C163.434 30.5845 160.809 30.8306 160.181 30.8306C159.552 30.8306 156.928 30.5845 156.517 30.1745C156.107 29.7644 155.861 27.14 155.861 26.5112C155.861 25.8825 156.107 23.2581 156.517 22.848C156.928 22.4379 159.552 22.1919 160.181 22.1919C160.809 22.1919 163.434 22.4379 163.844 22.848Z" fill="#89C7E5"/>
<path id="Vector_10" d="M142.302 12.4324C142.931 13.0611 143.313 14.9474 143.313 15.8769C143.313 16.8064 142.931 18.6927 142.302 19.3215C141.673 19.9502 139.814 20.333 138.857 20.333C137.901 20.333 136.042 19.9502 135.413 19.3215C134.784 18.6927 134.429 16.8064 134.401 15.8769C134.401 14.9474 134.784 13.0611 135.413 12.4324C136.042 11.8036 137.901 11.4209 138.857 11.4209C139.814 11.4482 141.701 11.831 142.302 12.4324Z" fill="#89C7E5"/>
<path id="Vector_11" d="M152.991 23.094C153.592 23.7228 153.975 25.6091 153.975 26.5385C153.975 27.468 153.592 29.3543 152.991 29.9831C152.362 30.6118 150.476 30.9946 149.546 30.9946C148.59 30.9946 146.731 30.6118 146.102 29.9831C145.473 29.3543 145.118 27.4954 145.09 26.5385C145.09 25.6091 145.473 23.7228 146.102 23.094C146.731 22.4652 148.59 22.0825 149.546 22.0825C150.503 22.0825 152.389 22.4652 152.991 23.094Z" fill="#89C7E5"/>
<path id="Vector_12" d="M153.428 1.38803C153.62 1.60673 153.756 4.96926 153.756 5.29731C153.756 5.59802 153.62 8.98788 153.428 9.20658C153.21 9.42528 149.847 9.53463 149.519 9.53463C149.191 9.53463 145.828 9.39794 145.61 9.20658C145.391 8.98788 145.282 5.62536 145.282 5.29731C145.282 4.96926 145.418 1.60673 145.61 1.38803C145.828 1.19667 149.191 1.05998 149.519 1.05998C149.847 1.03265 153.237 1.16933 153.428 1.38803Z" fill="#89C7E5"/>
<path id="Vector_13" d="M164.117 11.995C164.309 12.2137 164.445 15.5763 164.445 15.9043C164.445 16.205 164.309 19.5949 164.117 19.8136C163.899 20.0323 160.536 20.1416 160.208 20.1416C159.907 20.1416 156.517 20.005 156.299 19.8136C156.08 19.5949 155.971 16.2324 155.971 15.9043C155.971 15.6036 156.107 12.2137 156.299 11.995C156.49 11.8037 159.88 11.667 160.208 11.667C160.536 11.667 163.899 11.8037 164.117 11.995Z" fill="#89C7E5"/>
<path id="Vector_14" d="M153.182 12.2137C153.592 12.6238 153.838 15.2482 153.838 15.877C153.838 16.5057 153.592 19.1301 153.182 19.5402C152.772 19.9502 150.148 20.1963 149.519 20.1963C148.89 20.1963 146.266 19.9502 145.856 19.5402C145.446 19.1301 145.2 16.5057 145.2 15.877C145.2 15.2482 145.446 12.6238 145.856 12.2137C146.266 11.8037 148.89 11.5576 149.519 11.5576C150.148 11.5576 152.772 11.8037 153.182 12.2137Z" fill="#89C7E5"/>
<path id="Vector_15" d="M164.281 1.14197H156.025V9.39792H164.281V1.14197Z" fill="#89C7E5"/>
<path id="Vector_16" d="M138.885 31.0766C136.37 31.0766 134.347 29.0536 134.347 26.5385C134.347 24.0235 136.37 22.0005 138.885 22.0005C141.4 22.0005 143.423 24.0235 143.423 26.5385C143.423 29.0262 141.4 31.0766 138.885 31.0766Z" fill="#89C7E5"/>
</g>
</g>
</svg>
