<svg width="61" height="60" viewBox="0 0 61 60" fill="none" xmlns="http://www.w3.org/2000/svg">
<g clip-path="url(#clip0_1102_381)">
<path d="M58.0531 53.496H60.8V47.1795L56.8284 44.7299L58.0531 53.496Z" fill="#288FD9"/>
<path d="M55.3066 47.1795V53.496H58.0533V44.7299L55.3066 47.1795Z" fill="#8BCBF1"/>
<path d="M47.0957 0H23.948L21.4983 31.8357L23.948 60H47.0957V0Z" fill="#F7C02D"/>
<path d="M23.9481 0H0.800049V59.9995H23.9481V0Z" fill="#FBE27B"/>
<path d="M31.7784 7.95141H23.9477L22.7229 9.78715L23.9477 11.623H31.7784V7.95141Z" fill="#F39624"/>
<path d="M38.9141 14.2679H23.9477L22.7229 16.1038L23.9477 17.9395H38.9141V14.2679Z" fill="#F39624"/>
<path d="M58.0531 6.50402L56.8284 31.0199L58.0531 47.1794H60.8V10.294L58.0531 6.50402Z" fill="#D9000C"/>
<path d="M58.0533 6.50402L55.3066 10.294V47.1794H58.0533V6.50402Z" fill="#E43138"/>
<path d="M23.9474 7.95141H16.1167V11.623H23.9474V7.95141Z" fill="#F7C02D"/>
<path d="M23.9479 14.2677H8.98145V17.9393H23.9479V14.2677Z" fill="#F7C02D"/>
<path d="M38.9141 20.5843H23.9477L22.7229 22.4202L23.9477 24.2559H38.9141V20.5843Z" fill="#F39624"/>
<path d="M23.9479 20.584H8.98145V24.2556H23.9479V20.584Z" fill="#F7C02D"/>
<path d="M38.9141 26.901H23.9477L22.7229 28.7367L23.9477 30.5725H38.9141V26.901Z" fill="#F39624"/>
<path d="M23.9479 26.9016H8.98145V30.5732H23.9479V26.9016Z" fill="#F7C02D"/>
<path d="M38.9141 42.0605H23.9477L22.7229 43.8962L23.9477 45.7321H38.9141V42.0605Z" fill="#F39624"/>
<path d="M23.9479 42.0602H8.98145V45.7318H23.9479V42.0602Z" fill="#F7C02D"/>
<path d="M38.9141 48.3769H23.9477L22.7229 50.2127L23.9477 52.0485H38.9141V48.3769Z" fill="#F39624"/>
<path d="M23.9479 48.3765H8.98145V52.0481H23.9479V48.3765Z" fill="#F7C02D"/>
</g>
<defs>
<clipPath id="clip0_1102_381">
<rect width="60" height="60" fill="white" transform="translate(0.800049)"/>
</clipPath>
</defs>
</svg>
