<svg width="61" height="61" viewBox="0 0 61 61" fill="none" xmlns="http://www.w3.org/2000/svg">
<g id="studying-exam_svgrepo.com" clip-path="url(#clip0_936_1700)">
<path id="Vector" d="M58.2015 53.5443H60.9484V47.2278L56.9768 44.7782L58.2015 53.5443Z" fill="#288FD9"/>
<path id="Vector_2" d="M55.4548 47.2278V53.5443H58.2015V44.7782L55.4548 47.2278Z" fill="#8BCBF1"/>
<path id="Vector_3" d="M47.2439 0.0483398H24.0962L21.6465 31.8841L24.0962 60.0483H47.2439V0.0483398Z" fill="#F7C02D"/>
<path id="Vector_4" d="M24.0964 0.0483398H0.948364V60.0479H24.0964V0.0483398Z" fill="#FBE27B"/>
<g id="Group">
<path id="Vector_5" d="M31.9269 7.99976H24.0962L22.8713 9.8355L24.0962 11.6714H31.9269V7.99976Z" fill="#F39624"/>
<path id="Vector_6" d="M39.0625 14.3163H24.0962L22.8713 16.1521L24.0962 17.9879H39.0625V14.3163Z" fill="#F39624"/>
</g>
<path id="Vector_7" d="M58.2015 6.55237L56.9768 31.0682L58.2015 47.2278H60.9484V10.3423L58.2015 6.55237Z" fill="#D9000C"/>
<path id="Vector_8" d="M58.2015 6.55237L55.4548 10.3423V47.2278H58.2015V6.55237Z" fill="#E43138"/>
<g id="Group_2">
<path id="Vector_9" d="M24.0956 7.99976H16.2649V11.6714H24.0956V7.99976Z" fill="#F7C02D"/>
<path id="Vector_10" d="M24.0961 14.316H9.12964V17.9876H24.0961V14.316Z" fill="#F7C02D"/>
</g>
<path id="Vector_11" d="M39.0625 20.6327H24.0962L22.8713 22.4685L24.0962 24.3043H39.0625V20.6327Z" fill="#F39624"/>
<path id="Vector_12" d="M24.0961 20.6323H9.12964V24.3039H24.0961V20.6323Z" fill="#F7C02D"/>
<path id="Vector_13" d="M39.0625 26.9493H24.0962L22.8713 28.7851L24.0962 30.6208H39.0625V26.9493Z" fill="#F39624"/>
<path id="Vector_14" d="M24.0961 26.95H9.12964V30.6216H24.0961V26.95Z" fill="#F7C02D"/>
<path id="Vector_15" d="M39.0625 42.1088H24.0962L22.8713 43.9445L24.0962 45.7804H39.0625V42.1088Z" fill="#F39624"/>
<path id="Vector_16" d="M24.0961 42.1085H9.12964V45.7801H24.0961V42.1085Z" fill="#F7C02D"/>
<path id="Vector_17" d="M39.0625 48.4252H24.0962L22.8713 50.261L24.0962 52.0968H39.0625V48.4252Z" fill="#F39624"/>
<path id="Vector_18" d="M24.0961 48.4248H9.12964V52.0964H24.0961V48.4248Z" fill="#F7C02D"/>
</g>
<defs>
<clipPath id="clip0_936_1700">
<rect width="60" height="60" fill="white" transform="translate(0.948364 0.0483398)"/>
</clipPath>
</defs>
</svg>
