<svg width="16" height="15" viewBox="0 0 16 15" fill="none" xmlns="http://www.w3.org/2000/svg">
<g clip-path="url(#clip0_1590_1436)">
<path d="M8.76147 5.77678C8.85712 5.77678 8.94931 5.79119 9.0381 5.8152L10.6945 3.91179C10.8003 3.79012 10.9967 3.76771 11.1248 3.87016C11.2494 3.96782 11.2665 4.14231 11.1623 4.26077L9.52476 6.14338C9.63575 6.28745 9.70235 6.46516 9.70235 6.65727C9.70235 7.01426 9.47353 7.32322 9.14739 7.46088H15.573C15.8086 7.46088 15.9999 7.2816 15.9999 7.06067V1.99396C15.9999 1.77305 15.8086 1.59375 15.573 1.59375H7.41078C7.17514 1.59375 6.98389 1.77305 6.98389 1.99396V5.32054L7.3698 5.77838H8.76147V5.77678Z" fill="#DA9694"/>
<path d="M3.43752 3.59007C4.40323 3.59007 5.18608 2.85614 5.18608 1.9508C5.18608 1.04545 4.40323 0.311523 3.43752 0.311523C2.47182 0.311523 1.68896 1.04545 1.68896 1.9508C1.68896 2.85614 2.47182 3.59007 3.43752 3.59007Z" fill="#DA9694"/>
<path d="M5.23031 14.2887C5.23031 14.5096 5.03906 14.6889 4.80341 14.6889H4.08623C3.85059 14.6889 3.65934 14.5096 3.65934 14.2887V10.9333C3.65934 10.8148 3.55688 10.7188 3.43052 10.7188C3.30416 10.7188 3.20171 10.8148 3.20171 10.9333V14.2727C3.20171 14.5016 3.00192 14.6889 2.75774 14.6889H2.05592C1.82028 14.6889 1.62903 14.5096 1.62903 14.2887L1.62561 6.18834C1.62561 6.07948 1.5317 5.98985 1.41387 5.98985C1.29776 5.98985 1.20213 6.0779 1.20213 6.18834V9.3036C1.20213 9.52452 1.01089 9.70382 0.77524 9.70382H0.426894C0.191249 9.70382 0 9.52452 0 9.3036V5.03252C0 4.52505 0.438847 4.11523 0.978442 4.11523H4.8666C5.28323 4.11523 5.67769 4.29453 5.93725 4.60029L6.98227 5.83615L7.20254 6.09709C7.20254 6.09709 8.19294 6.09709 8.76327 6.09869C8.99891 6.09869 9.19016 6.27799 9.19016 6.49891V6.81748C9.19016 7.03839 8.99891 7.21769 8.76327 7.21769H6.91569C6.73298 7.21769 6.56051 7.13925 6.44781 7.00476L5.66916 6.06666C5.62988 6.01863 5.5667 5.98982 5.50181 5.98982H5.44888C5.33276 5.98982 5.23716 6.07787 5.23716 6.18831L5.23031 14.2887Z" fill="#DA9694"/>
</g>
<defs>
<clipPath id="clip0_1590_1436">
<rect width="16" height="15" fill="white"/>
</clipPath>
</defs>
</svg>
