<svg width="62" height="62" viewBox="0 0 62 62" fill="none" xmlns="http://www.w3.org/2000/svg">
<g clip-path="url(#clip0_1102_716)">
<path d="M30.7999 61.5001C47.6446 61.5001 61.2999 47.8448 61.2999 31.0001C61.2999 14.1553 47.6446 0.5 30.7999 0.5C13.9551 0.5 0.299805 14.1553 0.299805 31.0001C0.299805 47.8448 13.9551 61.5001 30.7999 61.5001Z" fill="#FFC200"/>
<path d="M30.9288 61.5001C47.7735 61.5001 61.4288 47.8448 61.4288 31.0001H0.428711C0.428711 47.8448 14.0841 61.5001 30.9288 61.5001Z" fill="#F39624"/>
<path d="M11.7126 45.7217L9.78809 45.6389C9.79439 45.4876 10.6497 30.5184 30.7966 30.5184C49.112 30.5184 49.3557 16.472 49.3572 15.8742L51.2836 15.879C51.2831 16.0447 51.011 32.4447 30.7966 32.4447C12.5473 32.4448 11.7382 45.1795 11.7126 45.7217Z" fill="white"/>
<path d="M33.4506 33.9927C33.4506 34.0688 33.3895 34.1252 33.3182 34.1252L28.3591 34.0572C28.2902 34.0533 28.2291 33.997 28.2305 33.9248L28.3013 28.9662C28.3013 28.892 28.36 28.8357 28.4337 28.8362L33.3914 28.907C33.4627 28.907 33.5205 28.9686 33.5191 29.0394L33.4506 33.9927Z" fill="#448590"/>
<path d="M13.3882 48.1755C13.3882 48.2487 13.3279 48.307 13.2543 48.307L8.25339 48.3167C8.18209 48.3147 8.12095 48.2564 8.12095 48.1833L8.11426 43.1819C8.11426 43.1087 8.17449 43.0486 8.2458 43.0486L13.2478 43.0438C13.3219 43.041 13.3792 43.1011 13.3802 43.1743L13.3882 48.1755Z" fill="#DCDBDC"/>
<path d="M8.24766 48.7982H8.24097C7.90967 48.789 7.63951 48.5131 7.63951 48.1832L7.63281 43.1823C7.63281 42.8427 7.90787 42.5668 8.24586 42.5668L13.2473 42.562C13.5844 42.562 13.8575 42.8336 13.8618 43.1684L13.87 48.1751C13.87 48.5141 13.594 48.7892 13.2545 48.7892L8.24766 48.7982ZM8.59673 43.5294L8.60252 47.8345L12.9071 47.8259L12.8999 43.5252L8.59673 43.5294Z" fill="#448590"/>
<path d="M52.6044 18.8558C52.6044 18.9238 52.5513 18.9762 52.4835 18.9762L47.9367 18.9848C47.8717 18.9834 47.8158 18.9298 47.8158 18.8634L47.8105 14.3171C47.8105 14.2491 47.865 14.1952 47.9305 14.1952L52.4768 14.1908C52.5448 14.188 52.5968 14.2428 52.5968 14.3092L52.6044 18.8558Z" fill="#DCDBDC"/>
<path d="M47.9311 19.4666H47.9253C47.5988 19.4593 47.3334 19.1887 47.3334 18.8635L47.3281 14.3177C47.3281 13.9845 47.5983 13.7138 47.9296 13.7138L52.4754 13.7095C52.8097 13.7095 53.0774 13.9787 53.0774 14.3095L53.0851 18.8553C53.0851 19.1882 52.8149 19.4578 52.4826 19.4578L47.9311 19.4666ZM48.2918 14.6765L48.2962 18.5024L52.1216 18.4952L52.1153 14.6722L48.2918 14.6765Z" fill="#448590"/>
<path d="M49.294 31.1638H11.9697V32.1271H49.294V31.1638Z" fill="#448590"/>
<path d="M50.6183 30.4698C51.2844 31.3015 51.1466 32.5128 50.3149 33.1784C49.4807 33.842 48.2705 33.7071 47.6059 32.8745C46.9437 32.0413 47.0776 30.8325 47.9108 30.1689C48.7424 29.5047 49.9555 29.6395 50.6183 30.4698Z" fill="#448590"/>
<path d="M13.6525 30.4698C14.3194 31.3015 14.1808 32.5128 13.3491 33.1784C12.5149 33.842 11.3046 33.7071 10.6401 32.8745C9.97789 32.0413 10.1118 30.8325 10.945 30.1689C11.7777 29.5047 12.9908 29.6395 13.6525 30.4698Z" fill="#448590"/>
</g>
<defs>
<clipPath id="clip0_1102_716">
<rect width="61" height="61" fill="white" transform="translate(0.299805 0.5)"/>
</clipPath>
</defs>
</svg>
