<svg width="46" height="51" viewBox="0 0 46 51" fill="none" xmlns="http://www.w3.org/2000/svg">
<path d="M41.5564 5.60746H20.9742V7.59925C20.9742 8.5444 20.0193 9.31194 18.8434 9.31194H16.6731C15.4972 9.31194 14.5422 8.5444 14.5422 7.59925V5.60746H12.7429V7.59925C12.7429 8.5444 11.7879 9.31194 10.612 9.31194H8.44175C7.26584 9.31194 6.31092 8.5444 6.31092 7.59925V5.60746H3.65132C2.99629 5.60746 2.46753 6.03246 2.46753 6.55896V48.1455C2.46753 48.672 2.99629 49.097 3.65132 49.097H21.3293L42.7402 31.8877V6.55896C42.7402 6.03881 42.2115 5.60746 41.5564 5.60746ZM32.3228 15.6489C30.4919 15.6489 29.0003 14.4563 29.0003 12.9784C29.0003 11.5004 30.484 10.3078 32.3228 10.3078C34.1616 10.3078 35.6453 11.5004 35.6453 12.9784C35.6453 14.4563 34.1538 15.6489 32.3228 15.6489ZM30.7839 49.097L42.7402 39.4869V34.5836L24.6834 49.097H30.7839ZM40.2385 49.097L42.7402 47.0862V42.1828L34.138 49.097H40.2385Z" fill="url(#paint0_linear_1102_314)"/>
<path d="M41.5565 3.70448H20.9742V1.71269C20.9742 0.767537 20.0193 0 18.8434 0H16.6731C15.4972 0 14.5423 0.767537 14.5423 1.71269V3.70448H12.7429V1.71269C12.7429 0.767537 11.788 0 10.6121 0H8.44178C7.26588 0 6.31095 0.767537 6.31095 1.71269V3.70448H3.65136C1.69415 3.70448 0.0999756 4.98582 0.0999756 6.55895V48.1455C0.0999756 49.7187 1.69415 51 3.65136 51H41.5486C43.5058 51 45.0999 49.7187 45.0999 48.1455V6.55895C45.1078 4.98582 43.5137 3.70448 41.5565 3.70448ZM18.6066 1.90299V7.4153H16.9099V1.90299H18.6066ZM10.3753 1.90299V7.4153H8.67854V1.90299H10.3753ZM42.7402 47.0862L40.2385 49.097H34.138L42.7402 42.1828V47.0862ZM42.7402 39.4869L30.7839 49.097H24.6834L42.7402 34.5836V39.4869ZM42.7402 31.894L21.3372 49.097H3.65925C3.00422 49.097 2.47546 48.672 2.47546 48.1455V6.55895C2.47546 6.03246 3.00422 5.60746 3.65925 5.60746H6.31884V7.59925C6.31884 8.5444 7.27377 9.31194 8.44967 9.31194H10.6121C11.788 9.31194 12.7429 8.5444 12.7429 7.59925V5.60746H14.5423V7.59925C14.5423 8.5444 15.4972 9.31194 16.6731 9.31194H18.8434C20.0193 9.31194 20.9742 8.5444 20.9742 7.59925V5.60746H41.5565C42.2115 5.60746 42.7402 6.03246 42.7402 6.55895V31.894Z" fill="#FF7F7B"/>
<path d="M8.6864 1.90299H10.3832V7.4153H8.6864V1.90299ZM16.9098 1.90299H18.6066V7.4153H16.9098V1.90299Z" fill="url(#paint1_linear_1102_314)"/>
<path d="M29.0004 12.9784C29.0004 13.6866 29.3504 14.3659 29.9735 14.8667C30.5966 15.3675 31.4417 15.6489 32.3229 15.6489C33.2041 15.6489 34.0492 15.3675 34.6723 14.8667C35.2953 14.3659 35.6454 13.6866 35.6454 12.9784C35.6454 12.2701 35.2953 11.5908 34.6723 11.09C34.0492 10.5892 33.2041 10.3078 32.3229 10.3078C31.4417 10.3078 30.5966 10.5892 29.9735 11.09C29.3504 11.5908 29.0004 12.2701 29.0004 12.9784Z" fill="white"/>
<defs>
<linearGradient id="paint0_linear_1102_314" x1="3.88611" y1="5.60746" x2="31.2008" y2="54.7253" gradientUnits="userSpaceOnUse">
<stop stop-color="#FFD255"/>
<stop offset="1" stop-color="#FFBC00"/>
</linearGradient>
<linearGradient id="paint1_linear_1102_314" x1="13.6465" y1="1.90299" x2="13.6465" y2="7.4153" gradientUnits="userSpaceOnUse">
<stop stop-color="#FFD255"/>
<stop offset="1" stop-color="#FFBC00"/>
</linearGradient>
</defs>
</svg>
