<svg width="46" height="53" viewBox="0 0 46 53" fill="none" xmlns="http://www.w3.org/2000/svg">
<path d="M39.1 0H6.9C3.08925 0 0 2.54239 0 5.67857V47.3214C0 50.4577 3.08925 53 6.9 53H39.1C42.9109 53 46 50.4577 46 47.3214V5.67857C46 2.54239 42.9109 0 39.1 0Z" fill="#FF8F00"/>
<path d="M30.5 37.75H15.5C15.0028 37.75 14.5258 37.5524 14.1742 37.2008C13.8226 36.8492 13.625 36.3723 13.625 35.875C13.625 35.3778 13.8226 34.9008 14.1742 34.5492C14.5258 34.1976 15.0028 34 15.5 34H30.5C30.9972 34 31.4743 34.1976 31.8258 34.5492C32.1774 34.9008 32.375 35.3778 32.375 35.875C32.375 36.3723 32.1774 36.8492 31.8258 37.2008C31.4743 37.5524 30.9972 37.75 30.5 37.75Z" fill="#E0E0E0"/>
<path d="M26.75 43.375H19.25C18.7528 43.375 18.2758 43.1774 17.9242 42.8258C17.5726 42.4742 17.375 41.9973 17.375 41.5C17.375 41.0028 17.5726 40.5258 17.9242 40.1742C18.2758 39.8226 18.7528 39.625 19.25 39.625H26.75C27.2472 39.625 27.7242 39.8226 28.0758 40.1742C28.4274 40.5258 28.625 41.0028 28.625 41.5C28.625 41.9973 28.4274 42.4742 28.0758 42.8258C27.7242 43.1774 27.2472 43.375 26.75 43.375Z" fill="#E0E0E0"/>
<path d="M34.2501 16.7688C34.1929 16.4183 34.0375 16.0913 33.802 15.8258C33.5663 15.5603 33.2601 15.3672 32.9188 15.2688L27.1251 13.6188L24.6313 8.78132C24.4723 8.47897 24.2336 8.22583 23.9411 8.04924C23.6488 7.87265 23.3136 7.7793 22.972 7.7793C22.6303 7.7793 22.2953 7.87265 22.0028 8.04924C21.7103 8.22583 21.4716 8.47897 21.3126 8.78132L18.7813 13.6188L13.1563 15.2875C12.8177 15.3844 12.5132 15.5749 12.2777 15.8369C12.0424 16.0988 11.8855 16.4219 11.8251 16.7688C11.7581 17.1203 11.7932 17.4837 11.9261 17.8159C12.0591 18.1482 12.2843 18.4354 12.5751 18.6438L16.3251 21.3063L15.5001 26.1625C15.4331 26.5141 15.4682 26.8774 15.6011 27.2097C15.7341 27.5419 15.9593 27.8292 16.2501 28.0375C16.5793 28.2676 16.9736 28.3859 17.3751 28.375C17.673 28.378 17.9678 28.3139 18.2376 28.1875L23.0001 25.7125L27.7813 28.0938C28.081 28.2334 28.4123 28.2914 28.7415 28.2618C29.0708 28.2321 29.3865 28.1161 29.6563 27.925C29.9473 27.7167 30.1725 27.4294 30.3053 27.0972C30.4382 26.7649 30.4733 26.4016 30.4063 26.05L29.6376 21.1938L33.3876 18.55C33.6831 18.3631 33.9206 18.0972 34.0731 17.7826C34.2253 17.4678 34.2868 17.1166 34.2501 16.7688Z" fill="#FF3F39"/>
<path d="M6.9 0C5.07 0 3.31497 0.598275 2.02096 1.66322C0.726962 2.72816 0 4.17252 0 5.67857V47.3214C0 48.8274 0.726962 50.2718 2.02096 51.3367C3.31497 52.4017 5.07 53 6.9 53H23V0H6.9Z" fill="#FFA726"/>
<path d="M15.5 34C15.0028 34 14.5258 34.1976 14.1742 34.5492C13.8226 34.9008 13.625 35.3778 13.625 35.875C13.625 36.3723 13.8226 36.8492 14.1742 37.2008C14.5258 37.5524 15.0028 37.75 15.5 37.75H23V34H15.5Z" fill="#FAFAFA"/>
<path d="M19.25 39.625C18.7528 39.625 18.2758 39.8226 17.9242 40.1742C17.5726 40.5258 17.375 41.0028 17.375 41.5C17.375 41.9973 17.5726 42.4742 17.9242 42.8258C18.2758 43.1774 18.7528 43.375 19.25 43.375H23V39.625H19.25Z" fill="#FAFAFA"/>
<path d="M21.3126 8.78129L18.7813 13.6188L13.1563 15.2876C12.8177 15.3845 12.5132 15.5748 12.2777 15.8368C12.0424 16.0987 11.8855 16.4218 11.8251 16.7688C11.7581 17.1204 11.7932 17.4836 11.9261 17.8158C12.0591 18.1481 12.2843 18.4353 12.5751 18.6438L16.3251 21.3063L15.5001 26.1626C15.4331 26.5141 15.4682 26.8773 15.6011 27.2096C15.7341 27.5418 15.9593 27.8291 16.2501 28.0376C16.5793 28.2676 16.9736 28.386 17.3751 28.3751C17.673 28.3779 17.9678 28.3139 18.2376 28.1876L23.0001 25.7126V7.86254C22.662 7.84922 22.3268 7.92758 22.0298 8.08934C21.7326 8.25108 21.4849 8.49018 21.3126 8.78129Z" fill="#FF7F7B"/>
</svg>
