<svg width="147" height="63" viewBox="0 0 147 63" fill="none" xmlns="http://www.w3.org/2000/svg">
<g clip-path="url(#clip0_1102_877)">
<path fill-rule="evenodd" clip-rule="evenodd" d="M32.165 63C23.619 63 15.5775 59.7201 9.53754 53.7739C3.49754 47.8283 0.165039 39.9125 0.165039 31.5C0.165039 23.0875 3.49704 15.1717 9.53754 9.22606C12.546 6.26899 16.0445 3.97146 19.8535 2.40827L19.9135 2.30639L19.993 2.35167C23.8035 0.809156 27.921 0 32.165 0C40.711 0 48.7525 3.27994 54.7925 9.22606C60.833 15.1717 64.165 23.0875 64.165 31.5C64.165 32.9347 64.068 34.3547 63.8775 35.753L63.916 35.846L63.8885 35.8731L63.855 35.9154C62.8995 42.6549 59.763 48.8816 54.7925 53.7739C48.7525 59.7201 40.7205 63 32.165 63ZM63.735 35.7806L63.725 35.8509L56.361 45.1666L51.835 42.5944V39.913H51.6975V42.5166L32.4265 31.563H56.346L46.4675 37.1828L46.5365 37.2999L56.6215 31.5635H61.9925L63.735 35.7806ZM32.238 31.6132L51.6975 42.6727V51.0654L48.88 54.6299L38.28 48.6055L38.211 48.7231L48.7945 54.7376L44.2345 60.5056L32.238 58.9301V53.9034L38.7795 50.1825L38.7105 50.0648L32.238 53.7469V31.6132ZM51.835 42.7514V50.8917L56.2755 45.2749L51.835 42.7514ZM49.0035 54.7002L51.6975 51.2923V56.2314L49.0035 54.7002ZM51.835 51.1181V56.1768C52.8368 55.3992 53.7906 54.5636 54.6915 53.6745C56.6475 51.7531 58.3431 49.5909 59.736 47.2416L56.3995 45.3452L51.835 51.1181ZM63.7725 35.499C63.939 34.2036 64.0245 32.8904 64.0275 31.5635H62.145L63.7725 35.499ZM62.089 31.4286H64.027C64.0246 30.1138 63.9394 28.8005 63.772 27.4961L61.0935 29.0199L62.089 31.4286ZM61.041 28.8934L63.706 27.3774L63.7705 27.4872L63.757 27.3809L59.3895 24.8988L61.041 28.8934ZM59.193 24.7875L60.9185 28.9628L56.5845 31.4286H32.427L44.3735 24.633L44.3535 29.6779L44.491 29.6784L44.511 24.5547L51.6445 20.4971L59.193 24.7875ZM44.512 24.3972L51.5065 20.4189L44.5435 16.4617L44.512 24.3972ZM44.406 16.3834L39.666 13.6892L32.238 17.9146V31.3794L44.374 24.476L44.406 16.3834ZM44.544 16.3052L51.6445 20.3406L56.2695 17.7099L51.771 6.82172L51.745 6.81827L44.5655 10.902L44.544 16.3052ZM44.4275 10.9807L44.407 16.2274L39.8035 13.611L44.4275 10.9807ZM44.566 10.7454L51.5225 6.78825L44.5855 5.85802L44.566 10.7454ZM44.448 5.8398L44.428 10.8237L39.666 13.5327L32.4625 9.43868L39.8685 5.22555L44.448 5.8398ZM44.586 5.72808L51.6435 6.67505C49.4844 5.02284 47.1162 3.65392 44.5985 2.60269L44.586 5.72808ZM44.461 2.61401L44.4485 5.70987L40.0545 5.12023L44.461 2.61401ZM59.305 24.6945L63.734 27.2116C63.1849 23.2114 61.8477 19.3551 59.7975 15.8593L56.441 17.7685L59.305 24.6945ZM56.3215 17.8364L59.1085 24.5828L51.782 20.4189L56.3215 17.8364ZM56.389 17.642L59.7285 15.7421C58.3376 13.3984 56.6445 11.2417 54.6915 9.32548C53.826 8.47169 52.9118 7.66698 51.9535 6.91523L56.389 17.642ZM39.832 5.08971L44.371 2.50819C40.5765 0.959766 36.4725 0.144703 32.2375 0.135844V4.07187L39.8315 5.0907L39.832 5.08971ZM32.2375 4.20328L39.6455 5.19652L32.3245 9.36091L32.2375 9.3117V4.2023V4.20328ZM32.0995 4.05366V0.135352C27.934 0.144211 23.89 0.934664 20.142 2.43633L20.165 2.44962L20.166 2.44814L20.2025 2.45749L32.1 4.05316L32.0995 4.05366ZM20.4745 2.62631L32.0995 4.18507V9.23295L20.475 2.62582L20.4745 2.62631ZM20.131 2.71884V10.7021L15.832 8.18213L20.131 2.71884ZM20.0795 2.5579L15.713 8.11125L12.939 6.48457C15.1022 4.86369 17.4692 3.52484 19.981 2.5013L20.08 2.55741L20.0795 2.5579ZM15.628 8.21953L12.87 6.6022V11.7274L15.628 8.21953ZM9.63804 9.32597C10.6102 8.36702 11.6436 7.47023 12.732 6.64109V11.9026L8.13004 17.7542L4.60004 15.748C5.99211 13.4026 7.68575 11.2438 9.63904 9.32498L9.63804 9.32597ZM8.24704 17.8216L12.732 12.1221V20.3711L8.24704 17.8216ZM20.132 16.2968L12.87 20.4268V11.9464L15.748 8.28942L20.1315 10.8596V16.2963L20.132 16.2968ZM20.054 24.6886L12.87 20.6054V25.9875H12.732V20.6615L0.892539 27.3961L0.823539 27.279L12.713 20.5163L8.16154 17.9294L0.733039 27.3705L2.41904 31.4286H8.20504L20.054 24.6886ZM8.04454 17.863L4.53104 15.8657C2.45806 19.4008 1.11453 23.304 0.577539 27.3514L0.604539 27.3248L8.04454 17.863ZM0.577039 27.3528C0.397173 28.7041 0.305651 30.0653 0.303039 31.4281H2.27104L0.577039 27.3528ZM2.32754 31.5635H0.302539C0.305539 32.9785 0.403039 34.3793 0.592539 35.7584L3.40554 34.1578L2.32704 31.564L2.32754 31.5635ZM3.57754 34.2164L8.24204 31.5635H20.132V38.2656L12.608 42.5447L5.32004 38.4103L3.57754 34.2164ZM5.21354 38.5058L7.98554 45.1749L4.53154 47.1388C2.50052 43.6748 1.1694 39.8569 0.611539 35.8952L5.21354 38.5058ZM5.12854 38.3015L3.45854 34.2848L0.756539 35.8214L5.12804 38.301L5.12854 38.3015ZM5.40554 38.6151L12.4705 42.6229L8.10304 45.1075L5.40554 38.6151ZM12.6085 42.7012L8.15604 45.234L12.786 56.3761L20.1315 57.3408V46.969L12.6085 42.7012ZM12.7465 42.6229L20.1315 46.8124V38.4221L12.7465 42.6229ZM20.2695 47.0472V57.3585L24.834 57.958L32.1 53.8251V31.6142L20.27 38.3439V46.8907L23.29 48.6035L23.221 48.7216L20.2695 47.0472ZM8.03804 45.3009L4.60004 47.2564C5.99106 49.6008 7.68445 51.7581 9.63804 53.6745C10.5671 54.5899 11.5519 55.4487 12.587 56.2462L8.03704 45.3009H8.03804ZM12.9595 56.5287L20.1315 57.4708V60.5583C17.572 59.5298 15.1608 58.175 12.9595 56.5287ZM20.2695 57.489V60.5548L24.6475 58.0643L20.2695 57.489ZM24.8715 58.0934L20.371 60.6533C24.054 62.0973 28.0175 62.8563 32.1 62.8646V59.0433L24.8715 58.0934ZM32.1 58.9124L25.0575 57.9876L32.1 53.9817V58.9124ZM32.238 59.0615V62.8646C36.354 62.8553 40.3515 62.0831 44.0605 60.6149L32.238 59.0615ZM44.452 60.4569C47.0145 59.4021 49.4243 58.0189 51.619 56.3432L48.918 54.808L44.452 60.4569ZM56.485 45.2374L59.805 47.1245C61.7919 43.7339 63.1083 40.0035 63.6845 36.1305L56.485 45.2374ZM3.52504 34.0904L2.47504 31.5635H7.96654L3.52504 34.0904ZM60.9705 29.0898L61.9365 31.4281H56.8595L60.9705 29.0898ZM31.9125 31.4281L20.27 24.8112V31.4286H31.913L31.9125 31.4281ZM20.2695 31.5635V38.1869L31.9135 31.564L20.2695 31.5635ZM20.1315 31.4281V24.8013L8.48004 31.4281H20.1315ZM20.2695 2.6652L32.1 9.38897V9.48839L24.975 13.5416L20.2695 10.7824V2.6652ZM25.1105 13.6213L32.1005 9.64491V17.7192L25.1105 13.6213ZM20.329 24.6881L32.1 17.9929V31.3784L20.329 24.6881ZM32.238 9.56665V17.7581L39.528 13.611L32.325 9.51694L32.238 9.56665ZM20.2695 24.5651L32.0645 17.8556L24.974 13.6981L20.269 16.3741L20.2695 24.5651ZM20.1315 16.4524L12.988 20.5159L20.1315 24.5754V16.4528V16.4524ZM20.2695 16.2176L24.838 13.6188L20.2695 10.9399V16.2176Z" fill="#CCCCCC"/>
<path d="M63.8433 35.7377L39.6833 49.4732L0.715332 27.3252L24.8753 13.5996L63.8428 35.7382L63.8433 35.7377Z" fill="#008083"/>
<path opacity="0.5" d="M44.3101 24.6507L20.1401 38.3857L0.661133 27.3066L24.8221 13.5809L44.3101 24.6507Z" fill="url(#paint0_linear_1102_877)"/>
<path d="M44.3651 60.5514L20.2036 46.8169V2.52148L44.3651 16.257V60.5514Z" fill="#ADEFEE"/>
<path d="M44.3476 38.4133L44.3661 16.2565L39.6846 13.6002L51.7651 6.73267V34.1933L44.3476 38.4133Z" fill="#3FE0CE"/>
<path d="M20.2041 24.7954L44.3651 38.5304V60.6778L20.2051 46.9429V24.7954H20.2041Z" fill="url(#paint1_linear_1102_877)"/>
<path opacity="0.5" d="M32.1752 31.5276L32.2582 45.2626L20.2052 52.1571L20.1592 38.3404L32.1752 31.5276Z" fill="url(#paint2_linear_1102_877)"/>
<path d="M12.7959 56.3407V28.8801L32.1644 17.8379L32.2564 45.2626L12.7959 56.3407Z" fill="#3FE0CE"/>
<path opacity="0.5" d="M44.3651 38.5304L32.1281 31.5005L32.1651 17.8369L20.2041 24.6685V2.65686L44.3651 16.3918V38.5304Z" fill="url(#paint3_linear_1102_877)"/>
<path d="M63.8458 35.7382L39.6858 49.4732L20.1143 38.3498L32.1308 31.5L44.3488 38.4123L44.3578 24.6685L63.8458 35.7382Z" fill="#008083"/>
<path opacity="0.5" d="M63.8458 35.7382L39.6858 49.4732L20.1143 38.3498L32.1308 31.5L44.3488 38.4123L44.3578 24.6685L63.8458 35.7382Z" fill="url(#paint4_linear_1102_877)"/>
<path opacity="0.5" d="M20.1123 38.3139V24.7148L32.1648 17.8192L32.1283 31.5001L20.1123 38.3139Z" fill="url(#paint5_linear_1102_877)"/>
<path d="M100.299 32.5291C100.299 33.9062 100.021 35.1032 99.4636 36.1122C98.9071 37.1222 98.1326 37.891 97.1411 38.4191C96.1496 38.9472 95.0016 39.215 93.6976 39.215C93.1886 39.218 92.6807 39.1663 92.1831 39.0609C91.7211 38.961 91.1711 38.8001 90.5256 38.5732C89.8806 38.3527 89.3981 38.1917 89.0856 38.1051C88.7652 38.0162 88.4339 37.9712 88.1011 37.9712C87.7751 37.9712 87.4831 38.0116 87.2181 38.0982C86.9531 38.1853 86.7291 38.2788 86.5456 38.3925C86.3621 38.5057 86.1651 38.6465 85.9616 38.8139C85.7576 38.9812 85.5811 39.1279 85.4451 39.2421H85.1531V31.907H85.5746C86.4031 34.0195 87.5576 35.6707 89.0316 36.8677C90.5051 38.0642 92.0401 38.6593 93.6366 38.6593C94.5126 38.6593 95.2666 38.4787 95.9051 38.111C96.5431 37.7433 97.0256 37.2556 97.3516 36.6404C97.6798 36.0261 97.85 35.342 97.8471 34.648C97.8471 33.4716 97.4396 32.475 96.6181 31.6727C96.0841 31.1402 95.4495 30.7156 94.7501 30.4225C94.0301 30.1218 93.1336 29.8142 92.0541 29.5002C90.9741 29.1857 90.0571 28.8579 89.3031 28.5109C88.539 28.1562 87.8427 27.6743 87.2451 27.0865C86.0021 25.8629 85.3841 24.3386 85.3841 22.5131C85.3841 21.45 85.6221 20.4676 86.0976 19.5516C86.5726 18.6356 87.2451 17.92 88.1146 17.3919C88.9841 16.8638 89.9486 16.6029 91.0216 16.6029C91.7211 16.6029 92.3256 16.6767 92.8281 16.817C93.3306 16.9573 93.9691 17.1783 94.7366 17.4721C95.5111 17.7664 96.0201 17.9136 96.2646 17.9136C96.6451 17.9136 97.0121 17.7999 97.3786 17.5725C97.7375 17.3526 98.0288 17.0405 98.2211 16.6698H98.5471L98.8866 22.8675H98.5811C97.6981 21.3633 96.8831 20.2466 96.1356 19.5245C95.6447 19.0373 95.1029 18.6026 94.5191 18.2276C93.9556 17.8732 93.3921 17.5991 92.8146 17.4121C92.2585 17.2286 91.6761 17.1339 91.0896 17.1315C90.1533 17.1247 89.2393 17.4127 88.4811 17.9535C87.7071 18.5018 87.3131 19.3975 87.3131 20.6546C87.3131 21.7044 87.6731 22.5869 88.3996 23.2957C88.9701 23.8371 89.6021 24.2451 90.2881 24.5192C90.9741 24.7929 91.9521 25.1207 93.2221 25.4889C94.4921 25.8629 95.5451 26.237 96.3801 26.6115C97.2091 26.9861 97.9766 27.5211 98.6761 28.2097C99.7561 29.2861 100.299 30.7233 100.299 32.5286V32.5291ZM71.1006 38.8532V38.2656H71.7321C72.9616 38.2656 73.8581 38.018 74.4286 37.5297C74.9926 37.042 75.2776 36.253 75.2776 35.1697V20.5547C75.2776 19.4517 74.9926 18.6494 74.4286 18.1543C73.8581 17.6596 72.9616 17.4126 71.7321 17.4126H71.1686V16.8711H83.2716V17.4126H82.7351C81.5261 17.4126 80.6366 17.6596 80.0726 18.1612C79.5091 18.6627 79.2236 19.4581 79.2236 20.5483V35.1697C79.2236 36.2397 79.5091 37.0282 80.0726 37.5164C80.6366 38.0111 81.5261 38.2587 82.7351 38.2587H83.2716V38.8537L71.1006 38.8532ZM122.487 30.5899L122.488 30.5702V30.5899H122.487ZM122.128 30.5899H122.487L122.162 38.8537H100.692V38.299H101.419C102.628 38.299 103.518 38.0515 104.095 37.5499C104.673 37.0484 104.958 36.2599 104.958 35.1766V20.5547C104.958 19.4517 104.673 18.6494 104.102 18.1548C103.532 17.6596 102.635 17.4126 101.419 17.4126H100.754V16.8711H121.027L121.224 23.9109H120.871C120.07 22.1794 119.35 20.8288 118.711 19.8528C118.066 18.8768 117.468 18.2281 116.898 17.9003C116.334 17.5794 115.669 17.4126 114.901 17.4126H110.534C109.929 17.4126 109.508 17.4928 109.264 17.6463C109.019 17.8004 108.897 18.108 108.897 18.5623V27.4345H110.432C111.098 27.4345 111.804 27.2337 112.538 26.8389C113.271 26.4383 113.889 25.8098 114.399 24.9538C114.908 24.0915 115.173 23.0082 115.207 21.7049H115.723V33.7788H115.207C115.118 31.7396 114.562 30.2621 113.529 29.3461C112.497 28.4302 111.329 27.969 110.025 27.969H108.89V36.3795C108.89 36.9613 109.053 37.4293 109.386 37.7837C109.712 38.1312 110.181 38.3118 110.785 38.3118H115.458C116.592 38.3118 117.516 37.9574 118.243 37.2418C118.576 36.9145 118.942 36.4597 119.343 35.8912C119.744 35.3164 120.178 34.5879 120.654 33.7118C121.129 32.8293 121.618 31.7938 122.128 30.5899Z" fill="black"/>
<path fill-rule="evenodd" clip-rule="evenodd" d="M145.662 33.3713C145.662 34.9291 145.078 36.2329 143.91 37.2827C142.741 38.3257 140.867 38.8538 138.286 38.8538H123.962V38.2986H124.655C125.864 38.2986 126.753 38.0515 127.331 37.55C127.908 37.0484 128.193 36.2595 128.193 35.1767V20.5548C128.193 19.4582 127.901 18.6628 127.331 18.1676C126.753 17.6666 125.864 17.4195 124.655 17.4195H123.962V16.8707H137.084C138.789 16.8707 140.242 17.105 141.437 17.5795C142.633 18.0544 143.543 18.7164 144.161 19.5719C144.779 20.4278 145.091 21.4038 145.091 22.5137C145.091 23.3095 144.874 24.0581 144.433 24.76C143.998 25.4624 143.244 26.0771 142.178 26.6057C141.111 27.1338 139.699 27.4946 137.94 27.6752C139.787 27.8426 141.274 28.1901 142.415 28.7182C143.556 29.2463 144.378 29.9014 144.888 30.6904C145.404 31.4793 145.662 32.3751 145.662 33.3713ZM140.887 22.5402C140.887 20.8289 140.5 19.5517 139.733 18.6963C138.958 17.8403 137.858 17.4126 136.425 17.4126H133.138C132.717 17.4126 132.445 17.4993 132.329 17.6735C132.214 17.8472 132.153 18.1411 132.153 18.5555V27.4277H135.861C137.036 27.4277 138.007 27.187 138.768 26.7056C139.529 26.2243 140.072 25.609 140.405 24.8737C140.724 24.1384 140.887 23.3622 140.887 22.5402ZM141.58 33.4048C141.58 31.6398 141.057 30.2961 140.018 29.36C138.979 28.4238 137.43 27.9558 135.379 27.9558H132.146V35.8849C132.146 36.7477 132.329 37.3566 132.689 37.7173C133.049 38.0781 133.674 38.2587 134.557 38.2587H136.642C139.936 38.2656 141.58 36.6409 141.58 33.4048Z" fill="black"/>
<path d="M74.5196 43.8495H73.6196V49.3585H74.5196V43.8495ZM76.4901 46.1564L76.5476 46.7327C76.6566 46.5206 76.8171 46.3464 77.0426 46.2164C77.2746 46.0825 77.5336 46.0161 77.8471 46.0161C78.1541 46.0161 78.4131 46.1027 78.6111 46.2834C78.8086 46.4571 78.9176 46.6914 78.9176 46.9788V49.3521H78.0516V47.2795C78.0451 47.1191 77.9971 46.9852 77.9156 46.8917C77.8266 46.7913 77.6906 46.7445 77.4996 46.7381C77.3221 46.7381 77.1656 46.7913 77.0291 46.8917C76.8926 46.9921 76.7836 47.1393 76.7016 47.313C76.6174 47.5074 76.5757 47.717 76.5791 47.9282V49.3521H75.7061V46.1495H76.4901V46.1564Z" fill="black"/>
<path fill-rule="evenodd" clip-rule="evenodd" d="M80.4578 49.2252C80.7083 49.3681 80.9933 49.4419 81.2828 49.4388C81.5758 49.4388 81.8348 49.3787 82.0603 49.265C82.2444 49.1739 82.4143 49.0572 82.5648 48.9185V49.3522H83.4308V43.4484H82.5713V46.4999C82.4388 46.3368 82.2647 46.2111 82.0668 46.1357C81.8505 46.0481 81.6188 46.0029 81.3848 46.0028C81.0643 46.0028 80.7713 46.0693 80.5123 46.2031C80.2553 46.335 80.0423 46.537 79.8988 46.7849C79.7488 47.0389 79.6738 47.3396 79.6738 47.7004C79.6738 48.0483 79.7488 48.356 79.8848 48.6163C80.0101 48.8708 80.2096 49.0828 80.4578 49.2252ZM82.0123 48.6365C81.867 48.6931 81.7116 48.7204 81.5553 48.7167C81.3783 48.7167 81.2148 48.6769 81.0578 48.5765C80.9061 48.4857 80.7795 48.3594 80.6893 48.2088C80.5983 48.0497 80.5514 47.8697 80.5533 47.6871C80.5533 47.4932 80.5943 47.3194 80.6893 47.1654C80.7848 47.0118 80.9078 46.8917 81.0578 46.8046C81.2078 46.718 81.3783 46.6712 81.5553 46.6712C81.7193 46.6712 81.8758 46.6978 82.0123 46.7578C82.1488 46.8184 82.2648 46.8981 82.3603 46.999C82.4553 47.0989 82.5238 47.2126 82.5648 47.3465V48.0282C82.5219 48.1642 82.4497 48.2896 82.3533 48.3958C82.2597 48.5006 82.1431 48.5826 82.0123 48.6365ZM86.0143 49.4388C85.6253 49.4388 85.2983 49.3654 85.0253 49.2183C84.7601 49.0806 84.542 48.869 84.3983 48.6099C84.2548 48.356 84.1798 48.0547 84.1798 47.7274C84.1798 47.4065 84.2618 47.1191 84.4253 46.8582C84.5888 46.5974 84.8138 46.3907 85.0938 46.2366C85.3772 46.0812 85.6965 46.0005 86.0208 46.0023C86.4708 46.0023 86.8393 46.1293 87.1253 46.3838C87.4188 46.6377 87.6098 46.999 87.7053 47.4602L85.1833 48.2925C85.2668 48.4195 85.3718 48.5199 85.5028 48.5898C85.6528 48.67 85.8233 48.7167 86.0143 48.7167C86.1503 48.7167 86.2733 48.6971 86.3958 48.6498C86.5188 48.603 86.6348 48.543 86.7503 48.4697L87.1458 49.0982C86.9709 49.2053 86.7831 49.2906 86.5868 49.3522C86.4007 49.4059 86.2082 49.435 86.0143 49.4388ZM85.0188 47.6871C85.0188 47.727 85.0198 47.7658 85.0228 47.8032L86.7383 47.2072C86.6827 47.0674 86.5933 46.943 86.4778 46.845C86.3483 46.7313 86.1708 46.6776 85.9458 46.6776C85.7688 46.6776 85.6048 46.718 85.4688 46.8046C85.3297 46.8921 85.2167 47.0144 85.1413 47.159C85.0562 47.3221 85.0141 47.5037 85.0188 47.6871ZM89.6773 49.2921C89.8813 49.3894 90.1052 49.4395 90.3318 49.4388C90.6728 49.4388 90.9793 49.3723 91.2523 49.2449C91.5148 49.1157 91.733 48.9136 91.8798 48.6636C92.0298 48.4096 92.1048 48.1084 92.1048 47.754C92.1048 47.3996 92.0298 47.0925 91.8933 46.8317C91.7619 46.5832 91.5637 46.375 91.3203 46.2297C91.0702 46.0858 90.785 46.012 90.4953 46.0161C90.2023 46.0161 89.9498 46.0693 89.7183 46.1834C89.5088 46.2888 89.3233 46.4172 89.1723 46.5747L89.0978 46.0963H88.3473V50.8897H89.2068V48.9476C89.3303 49.0913 89.4873 49.2079 89.6773 49.2921ZM90.6998 48.6365C90.5364 48.7222 90.3535 48.7659 90.1683 48.7635C90.0113 48.7635 89.8683 48.7369 89.7383 48.67C89.6073 48.6172 89.4923 48.5321 89.4043 48.4229C89.3164 48.3151 89.2536 48.1896 89.2203 48.0552V47.4134C89.2748 47.2727 89.3428 47.1457 89.4383 47.0453C89.5338 46.9385 89.6433 46.8582 89.7793 46.8046C89.9158 46.7514 90.0658 46.7244 90.2363 46.7244C90.4124 46.7234 90.5856 46.7688 90.7378 46.8559C90.8901 46.9429 91.0159 47.0685 91.1023 47.2195C91.1908 47.3731 91.2388 47.5537 91.2388 47.754C91.2394 47.9383 91.1875 48.1191 91.0888 48.2757C90.9946 48.4284 90.8602 48.553 90.6998 48.6365ZM94.4713 49.4388C94.0828 49.4388 93.7553 49.3654 93.4828 49.2183C93.2175 49.0806 92.9992 48.869 92.8553 48.6099C92.7123 48.356 92.6373 48.0547 92.6373 47.7274C92.6373 47.4065 92.7193 47.1191 92.8828 46.8582C93.0463 46.5974 93.2713 46.3907 93.5508 46.2366C93.8343 46.0812 94.1538 46.0005 94.4783 46.0023C94.9283 46.0023 95.2963 46.1293 95.5828 46.3838C95.8763 46.6377 96.0668 46.999 96.1623 47.4602L93.6408 48.2925C93.7243 48.4195 93.8293 48.5199 93.9603 48.5898C94.1103 48.67 94.2808 48.7167 94.4713 48.7167C94.6078 48.7167 94.7308 48.6971 94.8533 48.6498C94.9763 48.603 95.0918 48.543 95.2013 48.4697L95.5963 49.0982C95.4215 49.2054 95.2337 49.2907 95.0373 49.3522C94.8537 49.4069 94.6632 49.436 94.4713 49.4388ZM93.4758 47.6871C93.4758 47.7258 93.4773 47.7646 93.4803 47.8032L95.1958 47.2072C95.1402 47.0674 95.0508 46.943 94.9353 46.845C94.8058 46.7313 94.6283 46.6776 94.4033 46.6776C94.235 46.6736 94.0692 46.7177 93.9258 46.8046C93.7869 46.8921 93.674 47.0144 93.5988 47.159C93.5168 47.3066 93.4758 47.4799 93.4758 47.6871Z" fill="black"/>
<path d="M97.652 46.7327L97.5945 46.1564V46.1495H96.8105V49.3522H97.6765V47.9278C97.6765 47.7009 97.7175 47.4937 97.7995 47.3125C97.881 47.1393 97.99 46.9921 98.1265 46.8917C98.263 46.7913 98.42 46.7382 98.597 46.7382C98.788 46.7446 98.9245 46.7913 99.013 46.8917C99.095 46.9852 99.1425 47.1191 99.1495 47.2796V49.3522H100.022V46.9788C100.022 46.6914 99.913 46.4571 99.7155 46.2834C99.5175 46.1027 99.2655 46.0161 98.9515 46.0161C98.638 46.0161 98.372 46.0826 98.147 46.2164C97.934 46.3368 97.7618 46.5164 97.652 46.7327Z" fill="black"/>
<path fill-rule="evenodd" clip-rule="evenodd" d="M102.387 49.4388C102.098 49.4419 101.813 49.3681 101.562 49.2252C101.314 49.0828 101.115 48.8709 100.989 48.6163C100.853 48.3555 100.778 48.0483 100.778 47.7009C100.778 47.3396 100.853 47.0389 101.003 46.7849C101.153 46.5304 101.358 46.337 101.617 46.2031C101.887 46.067 102.186 45.9981 102.489 46.0023C102.728 46.0023 102.953 46.0491 103.171 46.1362C103.382 46.2199 103.548 46.3414 103.676 46.5004V43.4489H104.535V49.3522H103.669V48.919C103.523 49.0559 103.353 49.17 103.164 49.265C102.939 49.3787 102.68 49.4388 102.387 49.4388ZM102.653 48.7167C102.83 48.7167 102.98 48.6902 103.11 48.6365C103.239 48.5834 103.355 48.5031 103.451 48.3958C103.546 48.2954 103.614 48.1684 103.662 48.0282V47.3465C103.623 47.2163 103.553 47.097 103.458 46.9985C103.359 46.8962 103.241 46.8143 103.11 46.7578C102.966 46.6977 102.81 46.6682 102.653 46.6712C102.476 46.6712 102.305 46.718 102.155 46.8046C102.004 46.8929 101.877 47.0171 101.787 47.1659C101.692 47.3194 101.651 47.4932 101.651 47.6876C101.651 47.881 101.698 48.0547 101.787 48.2088C101.883 48.3624 102.005 48.4893 102.155 48.5765C102.319 48.6769 102.483 48.7167 102.653 48.7167ZM106.122 49.2188C106.395 49.3654 106.722 49.4388 107.111 49.4388C107.302 49.4388 107.493 49.4053 107.677 49.3522C107.882 49.2852 108.066 49.2045 108.236 49.0982L107.841 48.4697C107.732 48.5435 107.616 48.603 107.493 48.6503C107.371 48.6961 107.242 48.7187 107.111 48.7167C106.92 48.7167 106.75 48.67 106.6 48.5898C106.47 48.519 106.36 48.4169 106.28 48.293L108.802 47.4602C108.707 46.9985 108.516 46.6377 108.223 46.3838C107.936 46.1293 107.568 46.0023 107.118 46.0023C106.793 46.0004 106.474 46.0811 106.191 46.2366C105.917 46.3837 105.687 46.5979 105.522 46.8582C105.358 47.1192 105.273 47.4206 105.277 47.7274C105.277 48.0547 105.352 48.356 105.495 48.6099C105.638 48.8708 105.85 49.0716 106.122 49.2188ZM106.12 47.8032C106.117 47.7646 106.116 47.7258 106.116 47.6871C106.116 47.4804 106.157 47.3061 106.238 47.159C106.32 47.0054 106.429 46.8917 106.566 46.8046C106.702 46.718 106.866 46.6776 107.043 46.6776C107.268 46.6776 107.445 46.7313 107.575 46.8449C107.695 46.9503 107.78 47.0679 107.835 47.2072L106.12 47.8032Z" fill="black"/>
<path d="M110.235 46.1564L110.292 46.7327C110.401 46.5206 110.562 46.3464 110.788 46.2164C111.013 46.0826 111.279 46.0161 111.592 46.0161C111.899 46.0161 112.158 46.1027 112.356 46.2834C112.554 46.4571 112.663 46.6914 112.663 46.9788V49.3522H111.797V47.2796C111.79 47.1191 111.742 46.9852 111.66 46.8917C111.572 46.7913 111.435 46.7445 111.244 46.7381C111.067 46.7381 110.91 46.7913 110.774 46.8917C110.638 46.9921 110.529 47.1393 110.447 47.313C110.362 47.5073 110.32 47.7169 110.324 47.9283V49.3522H109.458V46.1495H110.235V46.1564ZM114.763 44.7453H113.897V46.1495H113.331V46.8179H113.897V49.3517H114.763V46.8179H115.609V46.1495H114.763V44.7453ZM122.053 44.9663C121.846 44.8632 121.632 44.776 121.412 44.7054C121.203 44.6359 120.985 44.5998 120.765 44.5986C120.485 44.5986 120.267 44.6587 120.103 44.7792C119.94 44.8993 119.858 45.0667 119.858 45.2803C119.858 45.4343 119.912 45.5608 120.021 45.675C120.131 45.7882 120.274 45.8886 120.451 45.9689C120.628 46.0496 120.812 46.1298 121.01 46.21C121.181 46.2701 121.351 46.3434 121.515 46.4236C121.685 46.5039 121.835 46.6107 121.965 46.7313C122.101 46.8518 122.203 47.0054 122.278 47.1791C122.353 47.3598 122.394 47.5803 122.394 47.8411C122.394 48.1286 122.319 48.3894 122.176 48.6301C122.033 48.8708 121.815 49.0583 121.542 49.1981C121.262 49.3389 120.928 49.4122 120.533 49.4122C120.294 49.4122 120.069 49.3856 119.844 49.3389C119.627 49.289 119.414 49.2196 119.21 49.1317C119.016 49.0489 118.831 48.948 118.658 48.8304L119.06 48.1419C119.183 48.2354 119.326 48.3156 119.483 48.3894C119.64 48.4633 119.81 48.5233 119.974 48.5701C120.144 48.6168 120.301 48.6365 120.451 48.6365C120.608 48.6365 120.771 48.6099 120.928 48.5568C121.079 48.5052 121.215 48.4178 121.324 48.3023C121.426 48.1891 121.481 48.0351 121.481 47.8411C121.481 47.6876 121.433 47.5537 121.344 47.44C121.256 47.3268 121.133 47.2328 120.983 47.1457C120.827 47.0602 120.665 46.9865 120.499 46.9252C120.319 46.8574 120.141 46.7838 119.967 46.7047C119.787 46.6238 119.618 46.5229 119.462 46.4039C119.305 46.2868 119.175 46.1386 119.08 45.9689C118.985 45.7951 118.937 45.5879 118.937 45.3339C118.937 45.0332 119.012 44.7723 119.155 44.545C119.302 44.3179 119.51 44.1351 119.756 44.0168C120.008 43.883 120.308 43.8165 120.642 43.8027C121.037 43.8027 121.378 43.85 121.658 43.9435C121.917 44.028 122.166 44.1401 122.401 44.2777L122.053 44.9663ZM125.558 49.332C125.75 49.2735 125.93 49.1806 126.089 49.0578L125.674 48.5297C125.585 48.5966 125.489 48.6429 125.38 48.6833C125.271 48.7167 125.155 48.7369 125.019 48.7369C124.832 48.7404 124.649 48.6941 124.487 48.603C124.335 48.5185 124.209 48.3935 124.126 48.2423C124.038 48.0892 123.994 47.9162 123.996 47.7407C123.996 47.5537 124.037 47.3795 124.119 47.2328C124.201 47.0787 124.317 46.965 124.46 46.8784C124.603 46.7913 124.76 46.7514 124.93 46.7514C125.101 46.7514 125.251 46.778 125.38 46.8381C125.51 46.8981 125.619 46.9586 125.701 47.0251L126.124 46.4704C125.965 46.3378 125.782 46.2358 125.585 46.1697C125.373 46.0958 125.128 46.0624 124.848 46.0624C124.555 46.0624 124.276 46.1293 124.01 46.2632C123.746 46.3958 123.524 46.597 123.369 46.845C123.205 47.0989 123.123 47.3996 123.123 47.7476C123.123 48.0951 123.198 48.3958 123.348 48.6434C123.498 48.8905 123.71 49.0844 123.982 49.2252C124.255 49.3654 124.569 49.4324 124.93 49.4324C125.142 49.4324 125.346 49.3989 125.558 49.332ZM126.756 43.4484H127.601V46.7007C127.716 46.5044 127.876 46.3449 128.092 46.2164C128.311 46.0826 128.576 46.0156 128.89 46.0156C129.197 46.0156 129.456 46.1027 129.654 46.2834C129.852 46.4571 129.961 46.6909 129.961 46.9783V49.3522H129.095V47.2796C129.088 47.1191 129.04 46.9852 128.958 46.8917C128.87 46.7913 128.733 46.7445 128.542 46.7377C128.365 46.7377 128.208 46.7918 128.072 46.8981C127.929 47.0123 127.816 47.1594 127.745 47.3263C127.66 47.5181 127.618 47.7256 127.622 47.9347V49.3585H126.756V43.4484Z" fill="black"/>
<path fill-rule="evenodd" clip-rule="evenodd" d="M130.951 46.8449C130.792 47.1101 130.709 47.413 130.712 47.721C130.712 48.0754 130.794 48.3756 130.957 48.6365C131.114 48.8973 131.332 49.0912 131.605 49.2315C131.885 49.3718 132.198 49.4387 132.553 49.4387C132.914 49.4387 133.235 49.3654 133.508 49.2113C133.78 49.0642 133.985 48.857 134.135 48.5961C134.281 48.3269 134.357 48.0258 134.353 47.7205C134.353 47.3927 134.278 47.1053 134.135 46.8444C133.985 46.5835 133.78 46.3768 133.508 46.2292C133.235 46.0825 132.921 46.0092 132.553 46.0092C132.198 46.0092 131.885 46.083 131.605 46.2297C131.326 46.3832 131.107 46.584 130.951 46.8449ZM131.707 48.2353C131.625 48.0785 131.583 47.904 131.585 47.7274C131.582 47.5484 131.624 47.3716 131.707 47.2126C131.789 47.0585 131.898 46.9384 132.042 46.8449C132.185 46.7514 132.354 46.7023 132.526 46.7041C132.717 46.7041 132.88 46.7445 133.023 46.838C133.167 46.9315 133.276 47.0521 133.358 47.2057C133.439 47.3661 133.48 47.5335 133.48 47.7274C133.48 47.9144 133.439 48.0818 133.358 48.2353C133.281 48.3843 133.165 48.5109 133.023 48.603C132.874 48.6932 132.701 48.7397 132.526 48.7369C132.357 48.74 132.191 48.6934 132.048 48.603C131.905 48.511 131.787 48.3845 131.707 48.2353ZM134.891 47.7205C134.891 47.3996 134.966 47.1053 135.129 46.8444C135.286 46.5835 135.504 46.3832 135.784 46.2292C136.063 46.0825 136.377 46.0092 136.732 46.0092C137.1 46.0092 137.413 46.083 137.686 46.2297C137.959 46.3768 138.164 46.584 138.314 46.8449C138.464 47.1058 138.532 47.3927 138.532 47.721C138.532 48.0414 138.457 48.3357 138.314 48.5966C138.17 48.8574 137.959 49.0642 137.686 49.2118C137.413 49.3654 137.093 49.4387 136.732 49.4387C136.377 49.4387 136.063 49.3718 135.784 49.2315C135.515 49.0979 135.29 48.8914 135.136 48.6365C134.966 48.3756 134.891 48.0749 134.891 47.7205ZM135.763 47.7274C135.763 47.9144 135.804 48.0818 135.886 48.2353C135.968 48.3894 136.084 48.5095 136.227 48.603C136.37 48.6965 136.534 48.7369 136.704 48.7369C136.895 48.7369 137.059 48.6901 137.202 48.603C137.345 48.5095 137.454 48.3894 137.536 48.2353C137.618 48.0818 137.659 47.9144 137.659 47.7274C137.659 47.5335 137.618 47.3661 137.536 47.2057C137.459 47.0569 137.344 46.9302 137.202 46.838C137.059 46.7445 136.895 46.7041 136.704 46.7041C136.527 46.7041 136.363 46.7514 136.22 46.8449C136.079 46.9369 135.964 47.0636 135.886 47.2126C135.803 47.3714 135.76 47.5484 135.763 47.7274Z" fill="black"/>
<path d="M140.156 43.4552H139.29V49.359H140.156V43.4552ZM142.139 49.4259C141.896 49.4278 141.656 49.3845 141.43 49.2985C141.215 49.2178 141.023 49.0871 140.871 48.9175L141.232 48.443C141.375 48.5764 141.518 48.6768 141.662 48.7438C141.805 48.8038 141.941 48.8373 142.064 48.8373C142.159 48.8373 142.248 48.824 142.33 48.8038C142.402 48.7863 142.469 48.7494 142.521 48.697C142.572 48.6398 142.599 48.5657 142.596 48.4898C142.598 48.444 142.59 48.3983 142.571 48.3564C142.552 48.3145 142.523 48.2776 142.487 48.2486C142.404 48.1837 142.309 48.1361 142.207 48.1088C142.088 48.0682 141.968 48.0324 141.846 48.0015C141.566 47.908 141.362 47.781 141.218 47.6206C141.082 47.4613 141.008 47.2601 141.007 47.0521C141.007 46.8848 141.048 46.7248 141.137 46.5707C141.232 46.409 141.371 46.2769 141.539 46.1898C141.723 46.0894 141.948 46.0357 142.221 46.0357C142.466 46.0357 142.684 46.0628 142.869 46.116C143.053 46.1701 143.223 46.2636 143.38 46.3837L143.046 46.8985C142.953 46.8077 142.841 46.7371 142.719 46.6913C142.61 46.6488 142.495 46.6218 142.378 46.6111C142.295 46.6038 142.211 46.6152 142.132 46.6446C142.064 46.6686 142.002 46.71 141.955 46.7647C141.91 46.8117 141.886 46.874 141.887 46.9384C141.887 47.0388 141.921 47.119 141.996 47.1796C142.071 47.2396 142.166 47.2864 142.282 47.3199C142.398 47.3533 142.521 47.3932 142.637 47.4331C142.794 47.4803 142.937 47.5404 143.059 47.6201C143.182 47.7008 143.278 47.8012 143.346 47.9149C143.421 48.0281 143.455 48.1689 143.455 48.3357C143.455 48.5297 143.407 48.7103 143.305 48.8771C143.209 49.0445 143.059 49.1784 142.869 49.2852C142.684 49.3723 142.439 49.4259 142.139 49.4259ZM78.2769 51.4109H74.5469V56.9269H78.3789V56.0778H75.4469V54.5801H77.9634V53.7311H75.4469V52.2599H78.2769V51.4109ZM82.4639 56.9205H81.4209L80.5939 55.8628L79.8319 56.9205H78.9589L80.1704 55.3204L78.9184 53.7178H79.9819L80.7864 54.7563L81.4479 53.7247H82.3139L81.1804 55.2643L82.4639 56.9205Z" fill="black"/>
<path fill-rule="evenodd" clip-rule="evenodd" d="M83.4511 56.8132C83.7036 56.9402 83.9761 57.0007 84.2831 57.0007C84.4741 57.0007 84.6241 56.9806 84.7671 56.9205C85.009 56.8236 85.2274 56.6777 85.4081 56.4923L85.4491 56.4515V56.9205H86.3151V53.7178H85.5171L85.4571 54.149C85.3424 53.9932 85.1985 53.8604 85.0331 53.7577C84.8421 53.6307 84.5901 53.5707 84.2761 53.5707C83.9831 53.5707 83.7171 53.644 83.4651 53.7848C83.2138 53.9286 83.0064 54.1364 82.8646 54.3862C82.7146 54.6471 82.6396 54.9611 82.6396 55.3224C82.6396 55.69 82.7146 56.0045 82.8581 56.2516C83.0081 56.4992 83.1991 56.6862 83.4511 56.8132ZM84.9511 56.225C84.8151 56.2806 84.6689 56.3079 84.5216 56.3053C84.3446 56.3053 84.1806 56.2649 84.0241 56.165C83.8724 56.0741 83.7458 55.9476 83.6556 55.7968C83.5646 55.6379 83.5177 55.4581 83.5196 55.2756C83.5196 55.0817 83.5671 54.908 83.6556 54.7539C83.7446 54.6072 83.8606 54.4866 84.0106 54.3995C84.1606 54.3129 84.3241 54.2725 84.5011 54.2725C84.6581 54.2725 84.8081 54.2996 84.9376 54.3528C85.0671 54.4133 85.1761 54.4866 85.2716 54.587C85.3606 54.6874 85.4286 54.8007 85.4696 54.9345V55.63C85.4286 55.7703 85.3671 55.8909 85.2786 55.9908C85.1894 56.0928 85.0773 56.173 84.9511 56.225Z" fill="black"/>
<path d="M88.0885 53.7178L88.1485 54.2897C88.27 54.0668 88.4365 53.894 88.6405 53.7715C88.852 53.6376 89.1045 53.5775 89.384 53.5775C89.561 53.5775 89.725 53.6041 89.861 53.6578C89.9975 53.7109 90.1205 53.7912 90.209 53.8916C90.2965 53.9836 90.3555 54.0983 90.3855 54.2351C90.516 54.0446 90.676 53.8876 90.8705 53.7646C91.0705 53.64 91.3019 53.5728 91.5385 53.5707C91.859 53.5707 92.1115 53.6578 92.302 53.8379C92.493 54.0185 92.5885 54.2459 92.5955 54.5334V56.9136H91.7365V54.8543C91.7295 54.7007 91.6955 54.5737 91.634 54.4733C91.5725 54.3729 91.4565 54.3129 91.2865 54.306C91.102 54.306 90.9385 54.3596 90.802 54.4733C90.6627 54.5931 90.5551 54.7445 90.4885 54.9143C90.4162 55.0932 90.377 55.2834 90.3725 55.4759V56.9136H89.5065V54.8543C89.5 54.7007 89.4655 54.5737 89.3975 54.4733C89.3295 54.3729 89.2135 54.3129 89.043 54.306C88.8655 54.306 88.709 54.3596 88.5725 54.4733C88.433 54.5916 88.3272 54.7436 88.2655 54.9143C88.1905 55.095 88.1565 55.2825 88.1565 55.4759V56.9136H87.2905V53.7109H88.0885V53.7178ZM93.694 52.2403C93.6444 52.2796 93.6045 52.3295 93.5774 52.3862C93.5502 52.4429 93.5364 52.5049 93.537 52.5676C93.537 52.6951 93.585 52.8019 93.694 52.889C93.7965 52.9756 93.9125 53.016 94.035 53.016C94.1575 53.016 94.2735 52.9692 94.369 52.889C94.4161 52.8496 94.4534 52.8002 94.4783 52.7445C94.5031 52.6888 94.5149 52.6283 94.5125 52.5676C94.5142 52.506 94.5023 52.4449 94.4775 52.3883C94.4527 52.3318 94.4157 52.2813 94.369 52.2403C94.2779 52.1581 94.1586 52.1128 94.035 52.1133C93.9093 52.1128 93.7879 52.158 93.694 52.2403ZM94.4375 53.7178H93.5715V56.9205H94.4375V53.7178ZM96.1955 53.7178L96.2525 54.2942C96.3615 54.082 96.5225 53.9078 96.748 53.7779C96.973 53.644 97.239 53.5771 97.5525 53.5771C97.8595 53.5771 98.1185 53.6642 98.316 53.8448C98.514 54.0185 98.623 54.2523 98.623 54.5403V56.9136H97.757V54.841C97.7505 54.6805 97.7025 54.5467 97.6205 54.4531C97.532 54.3527 97.3955 54.306 97.205 54.2991C97.0275 54.2991 96.8705 54.3527 96.7345 54.4531C96.598 54.5536 96.489 54.7007 96.407 54.8745C96.3226 55.0686 96.2809 55.2781 96.2845 55.4892V56.9136H95.4185V53.7109H96.1955V53.7178Z" fill="black"/>
<path fill-rule="evenodd" clip-rule="evenodd" d="M100.192 56.8132C100.444 56.9402 100.717 57.0002 101.023 57.0002C101.214 57.0002 101.385 56.9737 101.508 56.92C101.643 56.866 101.771 56.7965 101.889 56.7128C101.998 56.6326 102.087 56.5592 102.148 56.4923L102.189 56.451V56.92H103.055V53.7178H102.258L102.198 54.149C102.083 53.9932 101.939 53.8604 101.773 53.7577C101.583 53.6307 101.33 53.5707 101.017 53.5707C100.729 53.5698 100.446 53.6451 100.198 53.7885C99.9496 53.932 99.745 54.1384 99.6054 54.3862C99.4554 54.6471 99.3804 54.9611 99.3804 55.3224C99.3804 55.69 99.4554 56.0041 99.5984 56.2516C99.7484 56.4992 99.9394 56.6862 100.192 56.8132ZM101.692 56.2251C101.556 56.2802 101.41 56.3075 101.262 56.3053C101.085 56.3053 100.921 56.2649 100.764 56.1645C100.613 56.0739 100.486 55.9475 100.396 55.7968C100.305 55.638 100.258 55.4582 100.26 55.2756C100.26 55.0817 100.307 54.908 100.396 54.7539C100.485 54.6067 100.601 54.4866 100.751 54.3995C100.9 54.3141 101.07 54.2702 101.242 54.2725C101.398 54.2725 101.548 54.2996 101.678 54.3528C101.808 54.4133 101.917 54.4866 102.012 54.5871C102.101 54.687 102.169 54.8007 102.21 54.9345V55.63C102.169 55.7703 102.108 55.8909 102.019 55.9908C101.93 56.0927 101.818 56.1729 101.692 56.2251Z" fill="black"/>
<path d="M104.316 52.3136H105.182V53.7178H106.027V54.3862H105.182V56.9205H104.316V54.3862H103.75V53.7178H104.316V52.3136ZM106.786 52.2403C106.736 52.2795 106.696 52.3294 106.669 52.3861C106.641 52.4428 106.628 52.5049 106.629 52.5676C106.629 52.6951 106.677 52.8019 106.786 52.889C106.888 52.9756 107.004 53.016 107.127 53.016C107.249 53.016 107.365 52.9692 107.461 52.889C107.508 52.8496 107.545 52.8002 107.57 52.7445C107.595 52.6888 107.606 52.6283 107.604 52.5676C107.606 52.506 107.594 52.4449 107.569 52.3883C107.544 52.3318 107.507 52.2813 107.461 52.2403C107.369 52.1581 107.25 52.1128 107.127 52.1133C107.004 52.1133 106.888 52.1532 106.786 52.2403ZM107.529 53.7178H106.663V56.9205H107.529V53.7178Z" fill="black"/>
<path fill-rule="evenodd" clip-rule="evenodd" d="M108.271 55.2889C108.271 54.9679 108.346 54.6736 108.509 54.4128C108.666 54.1524 108.884 53.9516 109.164 53.798C109.444 53.6509 109.757 53.577 110.112 53.577C110.48 53.577 110.794 53.6509 111.066 53.798C111.339 53.9452 111.544 54.1524 111.694 54.4128C111.844 54.6736 111.912 54.9611 111.912 55.2889C111.912 55.6098 111.837 55.9041 111.694 56.1645C111.55 56.4253 111.339 56.6325 111.066 56.7797C110.794 56.9337 110.473 57.0071 110.112 57.0071C109.757 57.0071 109.444 56.9401 109.164 56.7999C108.895 56.6661 108.67 56.4597 108.516 56.2048C108.353 55.944 108.271 55.6363 108.271 55.2889ZM109.144 55.2953C109.144 55.4828 109.184 55.6496 109.266 55.8037C109.348 55.9572 109.464 56.0778 109.607 56.1713C109.75 56.2649 109.914 56.3052 110.084 56.3052C110.275 56.3052 110.439 56.2585 110.582 56.1713C110.725 56.0778 110.835 55.9572 110.916 55.8037C110.998 55.6496 111.039 55.4828 111.039 55.2953C111.039 55.1018 110.998 54.9345 110.916 54.774C110.839 54.6251 110.724 54.4985 110.582 54.4064C110.439 54.3128 110.275 54.2725 110.084 54.2725C109.907 54.2725 109.744 54.3192 109.6 54.4128C109.459 54.5052 109.344 54.632 109.266 54.7809C109.182 54.9394 109.14 55.1164 109.144 55.2953Z" fill="black"/>
<path d="M113.497 54.2941L113.44 53.7178V53.7109H112.663V56.9136H113.529V55.4897C113.529 55.2623 113.57 55.0551 113.652 54.8744C113.733 54.7007 113.842 54.5535 113.979 54.4531C114.115 54.3527 114.272 54.2996 114.449 54.2996C114.64 54.3059 114.777 54.3527 114.865 54.4531C114.947 54.5466 114.995 54.6805 115.002 54.841V56.9136H115.868V54.5402C115.868 54.2528 115.758 54.0185 115.561 53.8448C115.363 53.6641 115.104 53.5775 114.797 53.5775C114.483 53.5775 114.217 53.644 113.992 53.7778C113.779 53.8983 113.607 54.0779 113.497 54.2941ZM117.838 56.9869C117.592 56.9869 117.353 56.9465 117.128 56.8599C116.913 56.779 116.722 56.6483 116.569 56.479L116.931 56.004C117.074 56.1379 117.217 56.2383 117.36 56.3047C117.503 56.3653 117.64 56.3987 117.763 56.3987C117.858 56.3987 117.947 56.3849 118.028 56.3653C118.101 56.3476 118.167 56.3104 118.219 56.258C118.27 56.2008 118.297 56.1267 118.294 56.0508C118.296 56.005 118.288 55.9594 118.269 55.9176C118.25 55.8758 118.221 55.839 118.185 55.8101C118.103 55.745 118.008 55.6973 117.906 55.6698C117.787 55.6292 117.666 55.5936 117.544 55.563C117.265 55.469 117.06 55.342 116.917 55.1816C116.781 55.0226 116.706 54.8215 116.706 54.6136C116.706 54.4462 116.747 54.2858 116.835 54.1322C116.924 53.9782 117.053 53.8512 117.237 53.7508C117.422 53.6508 117.647 53.5972 117.919 53.5972C118.165 53.5972 118.383 53.6238 118.56 53.6774C118.746 53.7343 118.92 53.825 119.072 53.9447L118.738 54.4595C118.644 54.3685 118.533 54.2979 118.41 54.2523C118.301 54.209 118.186 54.182 118.069 54.1721C117.986 54.165 117.902 54.1765 117.824 54.2055C117.756 54.2313 117.695 54.2726 117.647 54.3261C117.601 54.3729 117.577 54.4353 117.578 54.4999C117.578 54.6003 117.613 54.6805 117.688 54.7406C117.763 54.8006 117.858 54.8474 117.974 54.8808C118.09 54.9143 118.213 54.9547 118.328 54.9945C118.485 55.0413 118.628 55.1013 118.751 55.1816C118.874 55.2618 118.969 55.3622 119.038 55.4759C119.113 55.5896 119.147 55.7298 119.147 55.8972C119.147 56.0911 119.099 56.2717 118.997 56.4386C118.901 56.6059 118.751 56.7393 118.553 56.8466C118.383 56.9401 118.138 56.9869 117.838 56.9869Z" fill="black"/>
<path fill-rule="evenodd" clip-rule="evenodd" d="M125.659 51.752C125.325 51.5246 124.875 51.4114 124.302 51.4114V51.4045H122.775V56.9136H124.527C124.773 56.9136 125.011 56.887 125.236 56.8265C125.461 56.7733 125.666 56.6798 125.843 56.5523C126.027 56.4253 126.17 56.2649 126.273 56.0646C126.375 55.8638 126.43 55.6231 126.43 55.3356C126.43 55.028 126.341 54.7677 126.15 54.5403C125.957 54.3185 125.711 54.1467 125.434 54.0397C125.639 53.9255 125.805 53.7774 125.932 53.5908C126.082 53.3767 126.157 53.1095 126.157 52.795C126.157 52.3274 125.993 51.9794 125.659 51.752ZM125.045 53.5239C124.916 53.6844 124.718 53.7577 124.445 53.7577V53.7513H123.682V52.2536H124.35C124.623 52.2536 124.841 52.3136 124.998 52.4273C125.154 52.5479 125.236 52.7285 125.236 52.9825C125.236 53.1897 125.168 53.3703 125.045 53.5239ZM124.998 56.0242C124.831 56.0795 124.656 56.1067 124.479 56.1044H123.661V54.6072H124.411C124.595 54.6072 124.766 54.6269 124.929 54.6736C125.093 54.7209 125.229 54.7942 125.339 54.901C125.448 55.0083 125.502 55.155 125.502 55.3489C125.502 55.5232 125.461 55.6634 125.366 55.7771C125.277 55.8908 125.154 55.9711 124.998 56.0242ZM127.126 55.2889C127.126 54.968 127.201 54.6737 127.364 54.4128C127.521 54.1524 127.739 53.9516 128.019 53.798C128.298 53.6509 128.612 53.5771 128.967 53.5771C129.335 53.5771 129.649 53.6509 129.921 53.798C130.194 53.9452 130.399 54.1524 130.549 54.4128C130.699 54.6737 130.767 54.9611 130.767 55.2889C130.767 55.6098 130.692 55.9041 130.549 56.1645C130.405 56.4253 130.194 56.6326 129.921 56.7797C129.649 56.9338 129.328 57.0071 128.967 57.0071C128.612 57.0071 128.298 56.9402 128.019 56.7999C127.75 56.6663 127.525 56.4598 127.371 56.2048C127.207 55.944 127.126 55.6364 127.126 55.2889ZM127.998 55.2953C127.998 55.4828 128.039 55.6497 128.121 55.8037C128.203 55.9573 128.319 56.0779 128.462 56.1714C128.605 56.2649 128.769 56.3053 128.939 56.3053C129.13 56.3053 129.294 56.2585 129.437 56.1714C129.58 56.0779 129.689 55.9573 129.771 55.8037C129.853 55.6497 129.894 55.4828 129.894 55.2953C129.894 55.1019 129.853 54.9345 129.771 54.7741C129.694 54.6253 129.579 54.4986 129.437 54.4064C129.294 54.3129 129.13 54.2725 128.939 54.2725C128.762 54.2725 128.598 54.3193 128.455 54.4128C128.314 54.5052 128.199 54.632 128.121 54.7809C128.037 54.9394 127.995 55.1164 127.998 55.2953ZM132.123 56.8132C132.375 56.9402 132.648 57.0007 132.955 57.0007C133.153 57.0007 133.323 56.9736 133.439 56.9205C133.681 56.8229 133.899 56.6771 134.08 56.4923L134.121 56.4514V56.9205H134.987V53.7178H134.189L134.129 54.149C134.014 53.9933 133.871 53.8605 133.705 53.7577C133.514 53.6307 133.262 53.5707 132.948 53.5707C132.661 53.5701 132.378 53.6454 132.13 53.7888C131.881 53.9323 131.677 54.1385 131.537 54.3862C131.387 54.6471 131.312 54.9611 131.312 55.3224C131.312 55.69 131.387 56.0045 131.53 56.2516C131.68 56.4992 131.871 56.6862 132.123 56.8132ZM133.623 56.225C133.487 56.2805 133.341 56.3078 133.194 56.3053C133.023 56.3053 132.853 56.2649 132.696 56.165C132.544 56.074 132.418 55.9475 132.328 55.7968C132.237 55.6379 132.19 55.4581 132.191 55.2756C132.191 55.0817 132.239 54.9079 132.328 54.7539C132.416 54.6072 132.539 54.4866 132.682 54.3995C132.831 54.3141 133.001 54.2702 133.173 54.2725C133.33 54.2725 133.48 54.2996 133.61 54.3527C133.739 54.4133 133.848 54.4866 133.944 54.587C134.032 54.6874 134.101 54.8006 134.142 54.9345V55.63C134.101 55.7702 134.039 55.8908 133.951 55.9907C133.861 56.0926 133.749 56.1727 133.623 56.225Z" fill="black"/>
<path d="M136.767 53.7178L136.828 54.4576C136.915 54.2829 137.031 54.1352 137.183 54.0053C137.336 53.8767 137.506 53.7688 137.688 53.6844C137.858 53.611 138.001 53.5707 138.11 53.5707L138.069 54.4197C137.824 54.3995 137.606 54.4399 137.428 54.5467C137.249 54.6487 137.1 54.7966 136.999 54.9749C136.898 55.1456 136.844 55.3391 136.842 55.5365V56.9136H135.983V53.711H136.767V53.7178Z" fill="black"/>
<path fill-rule="evenodd" clip-rule="evenodd" d="M139.337 56.7866C139.588 56.9295 139.873 57.0033 140.162 57.0002C140.456 57.0002 140.715 56.947 140.94 56.8264C141.124 56.7355 141.294 56.619 141.444 56.4804V56.9136H142.31V51.0098H141.451V54.0613C141.318 53.8986 141.144 53.7732 140.947 53.6976C140.73 53.6099 140.499 53.5644 140.265 53.5637C139.944 53.5637 139.651 53.6307 139.392 53.7645C139.135 53.8965 138.922 54.0984 138.778 54.3463C138.628 54.6003 138.553 54.901 138.553 55.2623C138.553 55.6097 138.628 55.9174 138.765 56.1782C138.901 56.4455 139.092 56.6463 139.337 56.7866ZM140.892 56.2048C140.762 56.2585 140.612 56.285 140.435 56.285C140.259 56.2851 140.087 56.2365 139.937 56.1448C139.786 56.0539 139.659 55.9276 139.569 55.7771C139.478 55.6179 139.431 55.438 139.433 55.2554C139.433 55.0615 139.474 54.8877 139.569 54.7341C139.659 54.5854 139.786 54.4612 139.937 54.3729C140.087 54.2858 140.258 54.239 140.435 54.239C140.599 54.239 140.756 54.2661 140.892 54.3261C141.028 54.3862 141.144 54.4664 141.24 54.5668C141.335 54.6672 141.403 54.7809 141.444 54.9143V55.5965C141.401 55.7326 141.329 55.858 141.233 55.9641C141.137 56.0709 141.022 56.1512 140.892 56.2048Z" fill="black"/>
</g>
<defs>
<linearGradient id="paint0_linear_1102_877" x1="17.6116" y1="17.6784" x2="27.1243" y2="34.4165" gradientUnits="userSpaceOnUse">
<stop offset="0.242" stop-color="white"/>
<stop offset="0.296" stop-color="#E0E0E0"/>
<stop offset="0.405" stop-color="#A5A5A5"/>
<stop offset="0.514" stop-color="#737373"/>
<stop offset="0.621" stop-color="#494949"/>
<stop offset="0.725" stop-color="#292929"/>
<stop offset="0.824" stop-color="#131313"/>
<stop offset="0.918" stop-color="#050505"/>
<stop offset="1"/>
</linearGradient>
<linearGradient id="paint1_linear_1102_877" x1="27.4106" y1="51.0393" x2="36.9233" y2="34.3007" gradientUnits="userSpaceOnUse">
<stop offset="0.255" stop-color="white"/>
<stop offset="0.311" stop-color="#EFEFEF"/>
<stop offset="0.421" stop-color="#C6C6C6"/>
<stop offset="0.574" stop-color="#848484"/>
<stop offset="0.761" stop-color="#292929"/>
<stop offset="0.842"/>
</linearGradient>
<linearGradient id="paint2_linear_1102_877" x1="17.9587" y1="49.9236" x2="34.2501" y2="33.5956" gradientUnits="userSpaceOnUse">
<stop offset="0.376" stop-color="white"/>
<stop offset="0.406" stop-color="#F9F9F9"/>
<stop offset="0.448" stop-color="#E8E8E8"/>
<stop offset="0.495" stop-color="#CCCCCC"/>
<stop offset="0.547" stop-color="#A5A5A5"/>
<stop offset="0.602" stop-color="#737373"/>
<stop offset="0.659" stop-color="#373737"/>
<stop offset="0.707"/>
</linearGradient>
<linearGradient id="paint3_linear_1102_877" x1="37.1516" y1="12.2914" x2="27.6389" y2="29.03" gradientUnits="userSpaceOnUse">
<stop offset="0.5" stop-color="white"/>
<stop offset="0.542" stop-color="#F6F6F6"/>
<stop offset="0.612" stop-color="#DEDEDE"/>
<stop offset="0.699" stop-color="#B6B6B6"/>
<stop offset="0.802" stop-color="#7F7F7F"/>
<stop offset="0.915" stop-color="#393939"/>
<stop offset="1"/>
</linearGradient>
<linearGradient id="paint4_linear_1102_877" x1="46.8738" y1="45.39" x2="37.3078" y2="28.5582" gradientUnits="userSpaceOnUse">
<stop stop-color="white"/>
<stop offset="0.085" stop-color="#F6F6F6"/>
<stop offset="0.224" stop-color="#DEDEDE"/>
<stop offset="0.399" stop-color="#B6B6B6"/>
<stop offset="0.603" stop-color="#7F7F7F"/>
<stop offset="0.83" stop-color="#393939"/>
<stop offset="1"/>
</linearGradient>
<linearGradient id="paint5_linear_1102_877" x1="32.1418" y1="31.4774" x2="20.2365" y2="24.4948" gradientUnits="userSpaceOnUse">
<stop/>
<stop offset="0.011" stop-color="#0B0B0B"/>
<stop offset="0.065" stop-color="#3E3E3E"/>
<stop offset="0.122" stop-color="#6C6C6C"/>
<stop offset="0.183" stop-color="#939393"/>
<stop offset="0.246" stop-color="#B5B5B5"/>
<stop offset="0.314" stop-color="#D0D0D0"/>
<stop offset="0.387" stop-color="#E5E5E5"/>
<stop offset="0.469" stop-color="#F4F4F4"/>
<stop offset="0.565" stop-color="#FCFCFC"/>
<stop offset="0.716" stop-color="white"/>
</linearGradient>
<clipPath id="clip0_1102_877">
<rect width="146" height="63" fill="white" transform="translate(0.165039)"/>
</clipPath>
</defs>
</svg>
