<svg width="70" height="69" viewBox="0 0 70 69" fill="none" xmlns="http://www.w3.org/2000/svg">
<path d="M45.0743 62.0336C44.8736 62.1913 45.1746 62.2773 45.0743 62.0336V62.0336ZM54.6067 50.9818L61.2435 24.4775C62.3186 20.2059 59.7241 15.8769 55.4524 14.8161C51.1808 13.741 46.8518 16.3355 45.791 20.6072L39.1112 47.2835L39.1685 47.2978C39.0539 47.3981 39.0109 47.5702 39.0825 47.7278L45.0743 62.0335L47.7405 58.8226L54.6067 50.9818Z" fill="white"/>
<path d="M57.6885 51.9278L42.2217 48.0575L48.9015 21.3813C49.9766 17.1096 54.2913 14.5151 58.5629 15.5902C62.8346 16.6653 65.4291 20.9799 64.354 25.2516L57.6885 51.9278Z" fill="#D0481F"/>
<path d="M56.7281 14.8163C52.7001 14.4149 48.9158 16.8661 47.9555 20.7364L41.2756 47.4126L55.008 50.8529L61.6878 24.1766C62.6339 20.3063 60.4694 16.3644 56.7281 14.8163Z" fill="#F16723"/>
<path d="M60.8564 27.4592L61.6735 24.1766C62.6339 20.3063 60.4694 16.3643 56.7281 14.8163C52.7002 14.4149 48.9159 16.8661 47.9555 20.7364L47.1384 24.0189L60.8564 27.4592Z" fill="#F05225"/>
<path d="M57.4163 51.6842L41.2184 47.6276L44.7017 58.063L45.5474 62.1483C45.3467 62.306 45.6477 62.392 45.5474 62.1483L57.5739 52.3579C57.8176 52.1572 57.7173 51.7559 57.4163 51.6842Z" fill="#FFE4B8"/>
<path d="M43.1249 57.676L44.9454 62.005C45.0457 62.2487 45.3467 62.3204 45.5474 62.1484L49.1883 59.1812L43.1249 57.676Z" fill="#F16723"/>
<path d="M54.9363 51.0677L48.3138 58.966L49.4893 59.267L57.0865 52.7449L57.3589 51.6698L54.9363 51.0677Z" fill="#E7D0A9"/>
<path d="M49.8763 20.4067C49.8334 20.4067 49.7903 20.4067 49.7473 20.3923C49.4749 20.3206 49.3173 20.0483 49.389 19.7903C49.6183 18.8873 50.1773 18.1132 50.9801 17.6401C51.7828 17.1528 52.7145 17.0238 53.6319 17.2531C53.9043 17.3248 54.062 17.5971 53.9903 17.8551C53.9186 18.1275 53.6463 18.2852 53.3882 18.2135C52.7432 18.0558 52.0695 18.1561 51.5104 18.5001C50.937 18.8441 50.5357 19.3889 50.378 20.0339C50.3064 20.249 50.1057 20.4067 49.8763 20.4067Z" fill="white"/>
<path d="M63.6804 18.7009C62.2469 16.3214 59.9821 14.6443 57.2872 13.9706C54.5924 13.2969 51.7972 13.7126 49.4176 15.146C47.0381 16.5795 45.361 18.8443 44.6873 21.5391L43.3399 26.9145C43.2396 27.3016 43.4259 27.7029 43.7699 27.8892C43.3829 27.8749 43.0245 28.1473 42.9242 28.5343L42.2505 31.2435C42.1645 31.6162 42.3222 31.9889 42.6375 32.1896C42.2792 32.2039 41.9495 32.462 41.8492 32.8347L38.3802 46.6817C38.1366 47.6564 38.2082 48.7028 38.5953 49.6202L43.6697 61.9048C43.9133 62.4925 44.4007 62.9082 45.0171 63.0658C45.1747 63.1088 45.3324 63.1232 45.4901 63.1232C45.9345 63.1232 46.3789 62.9655 46.7372 62.6788L57.0006 54.2359C57.7604 53.6051 58.2907 52.7738 58.5487 51.8277C58.5631 51.799 58.5631 51.7704 58.5774 51.7417C58.5774 51.713 58.5918 51.6987 58.5918 51.67L60.2259 45.1335C60.3263 44.7465 60.1399 44.3595 59.8103 44.1731C60.183 44.1588 60.527 43.9008 60.6273 43.5281L64.8703 26.5848C65.5152 23.8756 65.0995 21.0804 63.6804 18.7009ZM63.1787 26.1548L58.9357 43.098C58.8354 43.4851 59.0218 43.8721 59.3371 44.0584C58.9644 44.0728 58.6204 44.3308 58.52 44.7035L57.0722 50.4802L41.4621 46.5669C41.0034 46.4522 40.5304 46.7245 40.4157 47.1976C40.301 47.6564 40.5734 48.1294 41.0464 48.244L56.5275 52.1286C56.3555 52.4297 56.1261 52.6877 55.8682 52.9027L45.6048 61.3457C45.5331 61.4173 45.4471 61.403 45.3897 61.3886C45.3467 61.3743 45.2607 61.3457 45.2177 61.2453L40.1433 48.9607C39.8996 48.373 39.8567 47.7136 40.0143 47.0972L43.4832 33.2502C43.5836 32.8775 43.4116 32.4905 43.0962 32.3041C43.4689 32.2898 43.7843 32.0317 43.8846 31.659L44.5583 28.9499C44.6586 28.5628 44.4723 28.1615 44.1283 27.9751C44.5153 27.9895 44.8736 27.7171 44.974 27.3301L45.6477 24.6495L61.2865 28.5628C61.3582 28.5772 61.4299 28.5915 61.5015 28.5915C61.8886 28.5915 62.2326 28.3335 62.3329 27.9464C62.4476 27.4877 62.1753 27.0147 61.7022 26.9L46.0633 22.9867L46.3214 21.9547C46.8804 19.7041 48.2852 17.812 50.2777 16.6222C52.2702 15.4325 54.5923 15.0885 56.8571 15.6475C59.1077 16.2066 60.9998 17.6113 62.1895 19.6038C63.3937 21.5678 63.7377 23.9043 63.1787 26.1548Z" fill="black"/>
<path d="M49.3317 22.571C49.2887 22.571 49.2457 22.571 49.2171 22.5567C48.9447 22.485 48.787 22.2127 48.8444 21.9547L49.002 21.3096C49.0737 21.0372 49.346 20.8796 49.604 20.9369C49.8764 21.0086 50.0341 21.2809 49.9767 21.5389L49.8191 22.184C49.7618 22.4134 49.5611 22.571 49.3317 22.571ZM43.5406 45.7354C43.4976 45.7354 43.4546 45.7354 43.4259 45.721C43.1535 45.6494 42.9959 45.3771 43.0532 45.119L44.0136 41.2488C44.0853 40.9764 44.3576 40.8187 44.6156 40.8761C44.888 40.9477 45.0457 41.2201 44.9883 41.4781L44.0279 45.3484C43.9706 45.5778 43.77 45.7354 43.5406 45.7354Z" fill="white"/>
<path d="M26.1958 62.1198C26.0955 62.3634 26.3822 62.2774 26.1958 62.1198V62.1198ZM29.3208 47.8571L22.5406 21.3958C21.4512 17.1384 17.1079 14.5583 12.8362 15.662C8.57894 16.7514 5.99877 21.0947 7.10251 25.3664L13.9256 51.9997L13.983 51.9853C13.94 52.1287 13.9686 52.3007 14.112 52.401L26.1958 62.1198L27.0129 58.0344L29.3208 47.8571Z" fill="white"/>
<path d="M32.4744 47.2263L17.0363 51.1826L10.2131 24.5637C9.12369 20.3064 11.6895 15.963 15.9468 14.8593C20.2041 13.7699 24.5475 16.3357 25.6512 20.593L32.4744 47.2263Z" fill="#D99816"/>
<path d="M13.9544 15.0456C10.2132 16.6081 8.06297 20.5644 9.05204 24.4346L15.8752 51.0679L29.5789 47.556L22.7557 20.9227C21.781 17.0524 17.9824 14.6156 13.9544 15.0456Z" fill="#FBD20A"/>
<path d="M23.6014 24.1908L22.7556 20.9082C21.7666 17.0522 17.9679 14.6154 13.94 15.0311C10.1988 16.5936 8.04856 20.5499 9.03764 24.4201L9.88334 27.7027L23.6014 24.1908Z" fill="#FAAF1A"/>
<path d="M32.116 47.1402L15.9325 51.2828L23.9597 58.8084L26.6403 62.0049C26.54 62.2486 26.841 62.1626 26.6403 62.0049L32.5604 47.6705C32.6894 47.3696 32.4314 47.0686 32.116 47.1402Z" fill="#FFE4B8"/>
<path d="M22.3973 59.2099L26.0526 62.1484C26.2533 62.306 26.5543 62.2344 26.6546 61.9907L28.4464 57.6474L22.3973 59.2099Z" fill="#FBD20A"/>
<path d="M29.6505 47.7709L27.5864 57.8909L28.7618 57.5756L32.3311 48.2296L32.0587 47.1545L29.6505 47.7709Z" fill="#E7D0A9"/>
<path d="M10.3564 23.2879C10.1271 23.2879 9.9264 23.1445 9.86907 22.9152C9.38171 21.0517 10.5141 19.1452 12.3776 18.6579C12.6499 18.5862 12.9223 18.7439 12.9939 19.0162C13.0656 19.2886 12.9079 19.5609 12.6356 19.6326C11.3025 19.9766 10.4998 21.3384 10.8438 22.6572C10.9155 22.9295 10.7578 23.2018 10.4854 23.2735C10.4424 23.2879 10.3994 23.2879 10.3564 23.2879Z" fill="white"/>
<path d="M33.1624 46.7963C33.1624 46.739 33.1481 46.6816 33.1337 46.6387C33.1194 46.5957 33.105 46.5526 33.0907 46.524L31.4423 40.0449C31.342 39.6578 31.0123 39.4141 30.6396 39.3998C30.9693 39.2134 31.1413 38.8264 31.041 38.4394L26.712 21.5392C26.0239 18.8444 24.3324 16.5795 21.9386 15.1747C19.5448 13.7556 16.7496 13.3542 14.0547 14.0423C8.49298 15.4613 5.13872 21.1377 6.55782 26.6995L7.93394 32.0749C8.03425 32.4619 8.36397 32.7056 8.73666 32.72C8.40695 32.9063 8.23495 33.2933 8.33527 33.6803L9.03768 36.3752C9.13799 36.7479 9.45336 36.9915 9.82605 37.0202C9.51069 37.2066 9.33869 37.5936 9.43901 37.9663L12.9796 51.799C13.2233 52.7737 13.7967 53.6625 14.5707 54.2932L24.8771 62.6788C25.2355 62.9655 25.6655 63.1232 26.1099 63.1232C26.2675 63.1232 26.4396 63.1088 26.5972 63.0659C27.1993 62.9082 27.701 62.4782 27.9303 61.9048L32.9331 49.5915C33.2914 48.7028 33.3631 47.7137 33.1624 46.7963ZM31.3276 48.9178L26.3249 61.2454C26.282 61.3457 26.2103 61.3744 26.1673 61.3887C26.1243 61.4031 26.0383 61.4031 25.9666 61.3457L15.6602 52.9601C15.1585 52.5587 14.8145 51.9997 14.6568 51.3833L11.1161 37.5507C11.0158 37.178 10.7005 36.9199 10.3278 36.9056C10.6431 36.7192 10.8008 36.3322 10.7148 35.9595L10.0124 33.2646C9.91209 32.892 9.58237 32.6339 9.20968 32.6196C9.53939 32.4332 9.71139 32.0462 9.61107 31.6592L8.90866 28.9644L24.5331 24.9507C24.9919 24.8361 25.2642 24.3631 25.1495 23.9043C25.0348 23.4456 24.5618 23.1733 24.1031 23.288L8.47863 27.3016L8.2206 26.2695C7.64721 24.019 7.97692 21.6825 9.16669 19.69C10.3565 17.6975 12.2342 16.2784 14.4848 15.7051C16.7353 15.1317 19.0718 15.4614 21.0643 16.6512C23.0568 17.8409 24.4759 19.7187 25.0492 21.9692L29.3782 38.8694C29.4785 39.2565 29.8082 39.5002 30.1953 39.5145C29.8656 39.7009 29.6936 40.0879 29.7796 40.4749L31.256 46.2373L15.6889 50.2366C15.2301 50.3513 14.9578 50.8243 15.0725 51.283C15.1196 51.4677 15.2269 51.6314 15.3775 51.7482C15.5281 51.8651 15.7133 51.9284 15.9039 51.9281C15.9756 51.9281 16.0473 51.9137 16.119 51.8994L31.5715 47.9287C31.5427 48.2727 31.471 48.6025 31.3276 48.9178Z" fill="black"/>
<path d="M10.9154 25.4521C10.7003 25.4521 10.4854 25.3088 10.428 25.0795L10.256 24.4344C10.1844 24.162 10.3421 23.8897 10.6144 23.818C10.8868 23.7463 11.1591 23.904 11.2308 24.1763L11.4028 24.8214C11.4744 25.0938 11.3167 25.3661 11.0444 25.4378C11.0014 25.4521 10.9584 25.4521 10.9154 25.4521ZM16.8356 48.5735C16.6062 48.5735 16.4055 48.4159 16.3482 48.2008L15.3735 44.3449C15.3018 44.0725 15.4738 43.8002 15.7318 43.7285C16.0042 43.6568 16.2765 43.8288 16.3482 44.0868L17.3229 47.9428C17.3946 48.2152 17.2226 48.4875 16.9646 48.5592C16.9215 48.5735 16.8785 48.5735 16.8356 48.5735Z" fill="white"/>
<path d="M35.4846 62.7933C35.2983 63.037 35.671 63.037 35.4846 62.7933V62.7933ZM43.2395 47.3981V15.1601C43.2395 9.97106 39.0252 5.75674 33.8361 5.75674C28.6471 5.75674 24.4328 9.97106 24.4328 15.1601V47.6132H24.5044C24.4041 47.7565 24.4041 47.9715 24.5188 48.1292L35.4846 62.7933L37.6204 58.364L43.2395 47.3981Z" fill="white"/>
<path d="M47.0381 47.6132H28.217V15.1601C28.217 9.97106 32.4314 5.75674 37.6204 5.75674C42.8095 5.75674 47.0238 9.97106 47.0238 15.1601V47.6132H47.0381Z" fill="#3769A5"/>
<path d="M35.2983 5.38417C30.5679 6.08658 26.9413 9.97119 26.9413 14.6729V47.1259H43.6409V14.6729C43.6409 9.97119 40.0286 6.07223 35.2983 5.38417Z" fill="#4E9BD4"/>
<path d="M43.6408 18.6721V14.6729C43.6408 9.97119 40.0142 6.07223 35.2838 5.38417C30.5535 6.08658 26.9269 9.97119 26.9269 14.6729V18.6721H43.6408Z" fill="#4077BB"/>
<path d="M46.6511 47.3982H26.9413L33.9221 58.3497L36.0579 62.7933C35.8716 63.037 36.2443 63.037 36.0579 62.7933L47.0238 48.1292C47.2531 47.8282 47.0381 47.3982 46.6511 47.3982Z" fill="#FFE4B8"/>
<path d="M32.0156 58.3642L35.3268 62.7935C35.3694 62.8502 35.4246 62.8963 35.488 62.928C35.5515 62.9597 35.6214 62.9762 35.6924 62.9762C35.7633 62.9762 35.8332 62.9597 35.8967 62.928C35.9601 62.8963 36.0153 62.8502 36.0579 62.7935L39.3691 58.3642H32.0156Z" fill="#4077BB"/>
<path d="M43.6409 47.3982L38.3229 58.364H39.7563L46.5795 48.7026V47.3982H43.6409Z" fill="#E7D0A9"/>
<path d="M28.9194 13.6693C28.6471 13.6693 28.4177 13.44 28.4177 13.1676C28.4177 10.9458 30.2239 9.13964 32.4457 9.13964C32.7181 9.13964 32.9474 9.36897 32.9474 9.64135C32.9474 9.91373 32.7181 10.1431 32.4457 10.1431C30.7829 10.1431 29.4211 11.5048 29.4211 13.1676C29.4211 13.44 29.1918 13.6693 28.9194 13.6693Z" fill="white"/>
<path d="M24.4328 24.1764C23.9598 24.1764 23.5728 24.5634 23.5728 25.0364V28.3334C23.5728 28.8064 23.9598 29.1934 24.4328 29.1934C24.9058 29.1934 25.2929 28.8064 25.2929 28.3334V25.0364C25.2929 24.5634 24.9058 24.1764 24.4328 24.1764Z" fill="black"/>
<path d="M24.4185 23.9471C24.8915 23.9471 25.2786 23.5601 25.2786 23.0871V19.6611H44.4867C44.9597 19.6611 45.3467 19.2741 45.3467 18.8011C45.3467 18.3281 44.9597 17.941 44.4867 17.941H25.2786V16.5363C25.2786 10.8025 29.9516 6.12948 35.6854 6.12948C41.4192 6.12948 46.0922 10.8025 46.0922 16.5363V37.1348C46.0922 37.6078 46.4792 37.9949 46.9522 37.9949C47.4252 37.9949 47.8123 37.6078 47.8123 37.1348V16.5363C47.8123 9.85644 42.3652 4.40936 35.6854 4.40936C29.0056 4.40936 23.5585 9.85644 23.5585 16.5363V23.0871C23.5585 23.5601 23.9455 23.9471 24.4185 23.9471ZM46.9665 38.2386C46.4935 38.2386 46.1065 38.6256 46.1065 39.0986V46.2658H26.9414C26.4684 46.2658 26.0813 46.6528 26.0813 47.1259C26.0813 47.5989 26.4684 47.9859 26.9414 47.9859H46.0061C45.8914 48.4589 45.6907 48.9177 45.3897 49.319L36.058 61.9333C35.929 62.0909 35.7713 62.1196 35.6853 62.1196C35.5993 62.1196 35.456 62.0909 35.3413 61.9476L26.0096 49.3333C25.5366 48.6883 25.2786 47.9142 25.2786 47.1259V30.2686C25.2786 29.7956 24.8915 29.4086 24.4185 29.4086C23.9455 29.4086 23.5585 29.7956 23.5585 30.2686V47.1259C23.5585 48.2869 23.9168 49.3907 24.6192 50.3511L33.9509 62.9653C34.3523 63.5244 34.983 63.8397 35.671 63.8397H35.6854C36.3734 63.8397 37.0042 63.5244 37.4342 62.9653L46.7659 50.351C47.4539 49.4049 47.8123 48.2869 47.8123 47.1401V39.1129C47.8162 38.9994 47.7973 38.8863 47.7565 38.7803C47.7158 38.6743 47.6541 38.5777 47.5751 38.4961C47.4962 38.4144 47.4016 38.3496 47.297 38.3053C47.1925 38.2611 47.0801 38.2384 46.9665 38.2386Z" fill="black"/>
<path d="M28.9194 16.3212C28.6471 16.3212 28.4177 16.0919 28.4177 15.8195V15.0311C28.4177 14.7587 28.6471 14.5294 28.9194 14.5294C29.1918 14.5294 29.4211 14.7587 29.4211 15.0311V15.8195C29.4211 16.0919 29.1918 16.3212 28.9194 16.3212ZM28.9194 44.4883C28.6471 44.4883 28.4177 44.2589 28.4177 43.9866V39.2992C28.4177 39.0269 28.6471 38.7975 28.9194 38.7975C29.1918 38.7975 29.4211 39.0269 29.4211 39.2992V43.9866C29.4211 44.2589 29.1918 44.4883 28.9194 44.4883Z" fill="white"/>
<path d="M52.3562 7.20461H51.8545V6.7029C51.8545 6.43051 51.6252 6.20118 51.3528 6.20118C51.0804 6.20118 50.8511 6.43051 50.8511 6.7029V7.20461H50.3494C50.077 7.20461 49.8477 7.43394 49.8477 7.70632C49.8477 7.9787 50.077 8.20803 50.3494 8.20803H50.8511V8.70974C50.8511 8.98212 51.0804 9.21145 51.3528 9.21145C51.6252 9.21145 51.8545 8.98212 51.8545 8.70974V8.20803H52.3562C52.6286 8.20803 52.8579 7.9787 52.8579 7.70632C52.8579 7.43394 52.6285 7.20461 52.3562 7.20461Z" fill="#FBD20A"/>
<path d="M8.09157 42.8111H7.58985V42.3094C7.58985 42.037 7.36052 41.8077 7.08814 41.8077C6.81576 41.8077 6.58643 42.037 6.58643 42.3094V42.8111H6.08472C5.81234 42.8111 5.58301 43.0404 5.58301 43.3128C5.58301 43.5852 5.81234 43.8145 6.08472 43.8145H6.58643V44.3162C6.58643 44.5886 6.81576 44.8179 7.08814 44.8179C7.36052 44.8179 7.58985 44.5886 7.58985 44.3162V43.8145H8.09157C8.36395 43.8145 8.59328 43.5852 8.59328 43.3128C8.59328 43.0404 8.36395 42.8111 8.09157 42.8111Z" fill="#F16723"/>
<path d="M60.9999 56.3716H60.4982V55.8699C60.4982 55.5975 60.2689 55.3682 59.9965 55.3682C59.7241 55.3682 59.4948 55.5975 59.4948 55.8699V56.3716H58.993C58.7207 56.3716 58.4913 56.6009 58.4913 56.8733C58.4913 57.1457 58.7207 57.375 58.993 57.375H59.4948V57.8767C59.4948 58.1491 59.7241 58.3784 59.9965 58.3784C60.2689 58.3784 60.4982 58.1491 60.4982 57.8767V57.375H60.9999C61.2723 57.375 61.5016 57.1457 61.5016 56.8733C61.5016 56.6009 61.2722 56.3716 60.9999 56.3716Z" fill="#4E9BD4"/>
<path d="M63.967 40.2167C63.15 40.2167 62.4906 39.5573 62.4906 38.7403C62.4906 37.9232 63.15 37.2638 63.967 37.2638C64.7841 37.2638 65.4435 37.9232 65.4435 38.7403C65.4435 39.5573 64.784 40.2167 63.967 40.2167ZM63.967 38.2672C63.709 38.2672 63.494 38.4823 63.494 38.7403C63.494 38.9983 63.7091 39.2133 63.967 39.2133C64.225 39.2133 64.44 38.9982 64.44 38.7403C64.44 38.4823 64.2251 38.2672 63.967 38.2672Z" fill="#F16723"/>
<path d="M62.978 42.9834C62.978 43.0229 62.9858 43.0621 63.0009 43.0986C63.016 43.1352 63.0382 43.1684 63.0661 43.1963C63.0941 43.2243 63.1273 43.2465 63.1638 43.2616C63.2003 43.2768 63.2395 43.2845 63.279 43.2845C63.3186 43.2845 63.3577 43.2768 63.3943 43.2616C63.4308 43.2465 63.464 43.2243 63.4919 43.1963C63.5199 43.1684 63.5421 43.1352 63.5572 43.0986C63.5723 43.0621 63.5801 43.0229 63.5801 42.9834C63.5801 42.9439 63.5723 42.9047 63.5572 42.8682C63.5421 42.8316 63.5199 42.7984 63.4919 42.7705C63.464 42.7425 63.4308 42.7203 63.3943 42.7052C63.3577 42.69 63.3186 42.6822 63.279 42.6822C63.2395 42.6822 63.2003 42.69 63.1638 42.7052C63.1273 42.7203 63.0941 42.7425 63.0661 42.7705C63.0382 42.7984 63.016 42.8316 63.0009 42.8682C62.9858 42.9047 62.978 42.9439 62.978 42.9834Z" fill="black"/>
<path d="M54.922 7.70625C54.922 7.74579 54.9298 7.78495 54.9449 7.82148C54.96 7.85802 54.9822 7.89122 55.0101 7.91919C55.0381 7.94715 55.0713 7.96934 55.1078 7.98447C55.1443 7.99961 55.1835 8.0074 55.223 8.0074C55.2626 8.0074 55.3017 7.99961 55.3382 7.98447C55.3748 7.96934 55.408 7.94715 55.4359 7.91919C55.4639 7.89122 55.486 7.85802 55.5012 7.82148C55.5163 7.78495 55.524 7.74579 55.524 7.70625C55.524 7.6667 55.5163 7.62755 55.5012 7.59101C55.486 7.55447 55.4639 7.52127 55.4359 7.49331C55.408 7.46534 55.3748 7.44315 55.3382 7.42802C55.3017 7.41288 55.2626 7.40509 55.223 7.40509C55.1835 7.40509 55.1443 7.41288 55.1078 7.42802C55.0713 7.44315 55.0381 7.46534 55.0101 7.49331C54.9822 7.52127 54.96 7.55447 54.9449 7.59101C54.9298 7.62755 54.922 7.6667 54.922 7.70625Z" fill="black"/>
<path d="M17.7816 6.21568C17.7816 6.25522 17.7894 6.29438 17.8045 6.33092C17.8196 6.36746 17.8418 6.40066 17.8697 6.42862C17.8977 6.45659 17.9309 6.47877 17.9674 6.49391C18.0039 6.50905 18.0431 6.51684 18.0826 6.51684C18.1222 6.51684 18.1613 6.50905 18.1979 6.49391C18.2344 6.47877 18.2676 6.45659 18.2955 6.42862C18.3235 6.40066 18.3457 6.36746 18.3608 6.33092C18.3759 6.29438 18.3837 6.25522 18.3836 6.21568C18.3837 6.17614 18.3759 6.13698 18.3608 6.10045C18.3457 6.06391 18.3235 6.03071 18.2955 6.00274C18.2676 5.97477 18.2344 5.95259 18.1979 5.93745C18.1613 5.92232 18.1222 5.91453 18.0826 5.91453C18.0431 5.91453 18.0039 5.92232 17.9674 5.93745C17.9309 5.95259 17.8977 5.97477 17.8697 6.00274C17.8418 6.03071 17.8196 6.06391 17.8045 6.10045C17.7894 6.13698 17.7816 6.17614 17.7816 6.21568Z" fill="black"/>
<path d="M8.52161 48.9607C8.52161 49.0002 8.52939 49.0393 8.54452 49.0759C8.55965 49.1124 8.58182 49.1456 8.60977 49.1735C8.63772 49.2015 8.67091 49.2236 8.70743 49.2388C8.74395 49.2539 8.78309 49.2617 8.82262 49.2617C8.86215 49.2617 8.90129 49.2539 8.93781 49.2388C8.97433 49.2236 9.00752 49.2015 9.03547 49.1735C9.06342 49.1456 9.08559 49.1124 9.10072 49.0759C9.11585 49.0393 9.12363 49.0002 9.12363 48.9607C9.12363 48.8808 9.09192 48.8043 9.03547 48.7478C8.97902 48.6914 8.90245 48.6597 8.82262 48.6597C8.74279 48.6597 8.66622 48.6914 8.60977 48.7478C8.55332 48.8043 8.52161 48.8808 8.52161 48.9607Z" fill="black"/>
<path d="M15.2588 6.07225C15.2588 6.1901 15.3056 6.30313 15.3889 6.38647C15.4723 6.46981 15.5853 6.51663 15.7032 6.51663C15.821 6.51663 15.9341 6.46981 16.0174 6.38647C16.1007 6.30313 16.1475 6.1901 16.1475 6.07225C16.1475 5.95439 16.1007 5.84136 16.0174 5.75802C15.9341 5.67469 15.821 5.62787 15.7032 5.62787C15.5853 5.62787 15.4723 5.67469 15.3889 5.75802C15.3056 5.84136 15.2588 5.95439 15.2588 6.07225Z" fill="black"/>
<path d="M19.8458 11.3902C18.8997 11.3902 18.14 10.6305 18.14 9.68446C18.14 8.73844 18.8998 7.97869 19.8458 7.97869C20.07 7.97802 20.2921 8.02168 20.4993 8.10716C20.7066 8.19265 20.8949 8.31827 21.0534 8.4768C21.212 8.63533 21.3376 8.82364 21.4231 9.03089C21.5086 9.23815 21.5522 9.46027 21.5515 9.68446C21.5522 9.90865 21.5086 10.1308 21.4231 10.338C21.3376 10.5453 21.212 10.7336 21.0534 10.8921C20.8949 11.0506 20.7066 11.1763 20.4993 11.2618C20.2921 11.3472 20.07 11.3909 19.8458 11.3902ZM19.8458 8.98205C19.4587 8.98205 19.1434 9.29741 19.1434 9.68446C19.1434 10.0715 19.4587 10.3869 19.8458 10.3869C20.2328 10.3869 20.5482 10.0715 20.5482 9.68446C20.5482 9.29741 20.2328 8.98205 19.8458 8.98205Z" fill="#FBD20A"/>
<path d="M12.5066 55.9701C11.8473 55.9701 11.3025 56.5148 11.3025 57.1742C11.3025 57.8336 11.8472 58.3784 12.5066 58.3784C13.166 58.3784 13.7107 57.8337 13.7107 57.1742C13.7107 56.5149 13.166 55.9701 12.5066 55.9701ZM12.5066 57.3749C12.3919 57.3749 12.3059 57.2889 12.3059 57.1742C12.3059 57.0596 12.3919 56.9735 12.5066 56.9735C12.6213 56.9735 12.7073 57.0596 12.7073 57.1742C12.7073 57.2889 12.6213 57.3749 12.5066 57.3749Z" fill="#4E9BD4"/>
</svg>
