<svg width="54" height="54" viewBox="0 0 54 54" fill="none" xmlns="http://www.w3.org/2000/svg">
<g id="calculating-maths_svgrepo.com" clip-path="url(#clip0_936_1642)">
<path id="Vector" d="M49.3903 54.0001H27.0001C25.909 54.0001 25.0244 53.1155 25.0244 52.0244V27.0001C25.0244 25.909 25.909 25.0244 27.0001 25.0244H52.0244C53.1155 25.0244 54.0001 25.909 54.0001 27.0001V49.3903C54.0001 51.9321 51.9321 54.0001 49.3903 54.0001Z" fill="#FF4F19"/>
<path id="Vector_2" d="M52.0244 25.0244H39.5122V54.0001H49.3903C51.9321 54.0001 54 51.9321 54 49.3903V27.0001C54 25.909 53.1155 25.0244 52.0244 25.0244Z" fill="#FC0023"/>
<path id="Vector_3" d="M54.0001 27H25.0244V1.97564C25.0244 0.884566 25.909 0 27.0001 0H49.3903C51.9362 0 54.0001 2.06381 54.0001 4.60972V27Z" fill="#B9F7F9"/>
<path id="Vector_4" d="M54 4.60972C54 2.06381 51.9362 0 49.3903 0H39.5122V27H54V4.60972Z" fill="#00D8E0"/>
<path id="Vector_5" d="M27.1317 54.0001H4.60972C2.06381 54.0001 0 51.9362 0 49.3903V27.0001C0 25.909 0.884566 25.0244 1.97564 25.0244H27.1317V54.0001Z" fill="#FFDB2D"/>
<path id="Vector_6" d="M27.1317 25.0244H14.4878V54.0001H27.1317V25.0244Z" fill="#FFBB6E"/>
<path id="Vector_7" d="M27.1317 27H0V4.60972C0 2.06381 2.06381 0 4.60972 0H27.1316V27H27.1317Z" fill="#85EDC1"/>
<path id="Vector_8" d="M27.1317 0H14.4878V27H27.1317V0Z" fill="#56D7BA"/>
<g id="Group">
<path id="Vector_9" d="M18.7024 12.5121H16.4634V10.2731C16.4634 9.18205 15.5788 8.29749 14.4878 8.29749C13.3967 8.29749 12.5121 9.18205 12.5121 10.2731V12.5121H10.2731C9.18205 12.5121 8.29749 13.3967 8.29749 14.4878C8.29749 15.5788 9.18205 16.4634 10.2731 16.4634H12.5121V18.7024C12.5121 19.7935 13.3967 20.678 14.4878 20.678C15.5788 20.678 16.4634 19.7935 16.4634 18.7024V16.4634H18.7024C19.7935 16.4634 20.678 15.5788 20.678 14.4878C20.678 13.3967 19.7935 12.5121 18.7024 12.5121Z" fill="#808285"/>
<path id="Vector_10" d="M43.7268 44.5171H35.2975C34.2065 44.5171 33.3219 43.6325 33.3219 42.5414C33.3219 41.4504 34.2065 40.5658 35.2975 40.5658H43.7268C44.8179 40.5658 45.7025 41.4504 45.7025 42.5414C45.7025 43.6325 44.8179 44.5171 43.7268 44.5171Z" fill="#808285"/>
<path id="Vector_11" d="M43.7268 38.4585H35.2975C34.2065 38.4585 33.3219 37.5739 33.3219 36.4828C33.3219 35.3918 34.2065 34.5072 35.2975 34.5072H43.7268C44.8179 34.5072 45.7025 35.3918 45.7025 36.4828C45.7025 37.5739 44.8179 38.4585 43.7268 38.4585Z" fill="#808285"/>
<path id="Vector_12" d="M43.7268 16.4634H35.2975C34.2065 16.4634 33.3219 15.5788 33.3219 14.4877C33.3219 13.3967 34.2065 12.5121 35.2975 12.5121H43.7268C44.8179 12.5121 45.7025 13.3967 45.7025 14.4877C45.7025 15.5788 44.8179 16.4634 43.7268 16.4634Z" fill="#808285"/>
<path id="Vector_13" d="M17.2816 39.5122L18.8649 37.9289C19.6364 37.1574 19.6364 35.9065 18.8649 35.135C18.0935 34.3636 16.8426 34.3635 16.0711 35.135L14.4878 36.7183L12.9045 35.135C12.1332 34.3636 10.8822 34.3635 10.1106 35.135C9.33911 35.9065 9.33911 37.1574 10.1106 37.9289L11.6939 39.5122L10.1106 41.0954C9.33911 41.867 9.33911 43.1178 10.1106 43.8893C10.882 44.6607 12.133 44.6608 12.9045 43.8893L14.4878 42.306L16.0711 43.8893C16.8425 44.6608 18.0933 44.6608 18.8649 43.8893C19.6364 43.1178 19.6364 41.867 18.8649 41.0954L17.2816 39.5122Z" fill="#808285"/>
</g>
<g id="Group_2">
<path id="Vector_14" d="M18.7024 12.5121H16.4634V10.2731C16.4634 9.18205 15.5789 8.29749 14.4878 8.29749V20.6779C15.5789 20.6779 16.4634 19.7934 16.4634 18.7023V16.4633H18.7024C19.7935 16.4633 20.6781 15.5787 20.6781 14.4877C20.6781 13.3966 19.7935 12.5121 18.7024 12.5121Z" fill="#58595B"/>
<path id="Vector_15" d="M43.7268 40.5658H39.5122V44.517H43.7268C44.8179 44.517 45.7025 43.6324 45.7025 42.5413C45.7025 41.4504 44.8179 40.5658 43.7268 40.5658Z" fill="#58595B"/>
<path id="Vector_16" d="M43.7268 34.5072H39.5122V38.4584H43.7268C44.8179 38.4584 45.7025 37.5738 45.7025 36.4827C45.7025 35.3918 44.8179 34.5072 43.7268 34.5072Z" fill="#58595B"/>
<path id="Vector_17" d="M43.7268 12.5121H39.5122V16.4633H43.7268C44.8179 16.4633 45.7025 15.5787 45.7025 14.4876C45.7025 13.3965 44.8179 12.5121 43.7268 12.5121Z" fill="#58595B"/>
<path id="Vector_18" d="M17.2817 39.5121L18.865 37.9289C19.6365 37.1574 19.6365 35.9065 18.865 35.135C18.0936 34.3636 16.8426 34.3635 16.0711 35.135L14.4878 36.7183V42.3061L16.0711 43.8894C16.8425 44.6609 18.0933 44.6609 18.865 43.8894C19.6365 43.1179 19.6365 41.8671 18.865 41.0956L17.2817 39.5121Z" fill="#58595B"/>
</g>
</g>
<defs>
<clipPath id="clip0_936_1642">
<rect width="54" height="54" fill="white"/>
</clipPath>
</defs>
</svg>
