<svg width="55" height="55" viewBox="0 0 55 55" fill="none" xmlns="http://www.w3.org/2000/svg">
<g clip-path="url(#clip0_1102_988)">
<path d="M49.5905 54.5001H27.2002C26.1092 54.5001 25.2246 53.6155 25.2246 52.5244V27.5001C25.2246 26.409 26.1092 25.5244 27.2002 25.5244H52.2246C53.3157 25.5244 54.2002 26.409 54.2002 27.5001V49.8903C54.2002 52.4321 52.1323 54.5001 49.5905 54.5001Z" fill="#FF4F19"/>
<path d="M52.2246 25.5244H39.7124V54.5001H49.5905C52.1323 54.5001 54.2002 52.4321 54.2002 49.8903V27.5001C54.2002 26.409 53.3157 25.5244 52.2246 25.5244Z" fill="#FC0023"/>
<path d="M54.2002 27.5H25.2246V2.47564C25.2246 1.38457 26.1092 0.5 27.2002 0.5H49.5905C52.1364 0.5 54.2002 2.56381 54.2002 5.10972V27.5Z" fill="#B9F7F9"/>
<path d="M54.2002 5.10972C54.2002 2.56381 52.1364 0.5 49.5905 0.5H39.7124V27.5H54.2002V5.10972Z" fill="#00D8E0"/>
<path d="M27.3319 54.5001H4.80992C2.26401 54.5001 0.200195 52.4362 0.200195 49.8903V27.5001C0.200195 26.409 1.08476 25.5244 2.17584 25.5244H27.3319V54.5001Z" fill="#FFDB2D"/>
<path d="M27.3319 25.5244H14.688V54.5001H27.3319V25.5244Z" fill="#FFBB6E"/>
<path d="M27.3319 27.5H0.200195V5.10972C0.200195 2.56381 2.26401 0.5 4.80992 0.5H27.3318V27.5H27.3319Z" fill="#85EDC1"/>
<path d="M27.3319 0.5H14.688V27.5H27.3319V0.5Z" fill="#56D7BA"/>
<path d="M18.9025 13.0121H16.6635V10.7731C16.6635 9.68205 15.7789 8.79749 14.6878 8.79749C13.5968 8.79749 12.7122 9.68205 12.7122 10.7731V13.0121H10.4732C9.38213 13.0121 8.49756 13.8967 8.49756 14.9878C8.49756 16.0788 9.38213 16.9634 10.4732 16.9634H12.7122V19.2024C12.7122 20.2935 13.5968 21.178 14.6878 21.178C15.7789 21.178 16.6635 20.2935 16.6635 19.2024V16.9634H18.9025C19.9935 16.9634 20.8781 16.0788 20.8781 14.9878C20.8781 13.8967 19.9935 13.0121 18.9025 13.0121Z" fill="#808285"/>
<path d="M43.9269 45.0171H35.4976C34.4065 45.0171 33.522 44.1325 33.522 43.0414C33.522 41.9504 34.4065 41.0658 35.4976 41.0658H43.9269C45.018 41.0658 45.9025 41.9504 45.9025 43.0414C45.9025 44.1325 45.018 45.0171 43.9269 45.0171Z" fill="#808285"/>
<path d="M43.9269 38.9585H35.4976C34.4065 38.9585 33.522 38.0739 33.522 36.9828C33.522 35.8918 34.4065 35.0072 35.4976 35.0072H43.9269C45.018 35.0072 45.9025 35.8918 45.9025 36.9828C45.9025 38.0739 45.018 38.9585 43.9269 38.9585Z" fill="#808285"/>
<path d="M43.9269 16.9634H35.4976C34.4065 16.9634 33.522 16.0788 33.522 14.9877C33.522 13.8967 34.4065 13.0121 35.4976 13.0121H43.9269C45.018 13.0121 45.9025 13.8967 45.9025 14.9877C45.9025 16.0788 45.018 16.9634 43.9269 16.9634Z" fill="#808285"/>
<path d="M17.4816 40.0122L19.0649 38.4289C19.8364 37.6574 19.8364 36.4065 19.0649 35.635C18.2935 34.8636 17.0425 34.8635 16.271 35.635L14.6877 37.2183L13.1044 35.635C12.3331 34.8636 11.0822 34.8635 10.3106 35.635C9.53906 36.4065 9.53906 37.6574 10.3106 38.4289L11.8939 40.0122L10.3106 41.5954C9.53906 42.367 9.53906 43.6178 10.3106 44.3893C11.082 45.1607 12.3329 45.1608 13.1044 44.3893L14.6877 42.806L16.271 44.3893C17.0424 45.1608 18.2933 45.1608 19.0649 44.3893C19.8364 43.6178 19.8364 42.367 19.0649 41.5954L17.4816 40.0122Z" fill="#808285"/>
<path d="M18.9026 13.0121H16.6636V10.7731C16.6636 9.68205 15.7791 8.79749 14.688 8.79749V21.1779C15.7791 21.1779 16.6636 20.2934 16.6636 19.2023V16.9633H18.9026C19.9937 16.9633 20.8783 16.0787 20.8783 14.9877C20.8783 13.8966 19.9937 13.0121 18.9026 13.0121Z" fill="#58595B"/>
<path d="M43.927 41.0658H39.7124V45.017H43.927C45.0181 45.017 45.9027 44.1324 45.9027 43.0413C45.9027 41.9504 45.0181 41.0658 43.927 41.0658Z" fill="#58595B"/>
<path d="M43.927 35.0072H39.7124V38.9584H43.927C45.0181 38.9584 45.9027 38.0738 45.9027 36.9827C45.9027 35.8918 45.0181 35.0072 43.927 35.0072Z" fill="#58595B"/>
<path d="M43.927 13.0121H39.7124V16.9633H43.927C45.0181 16.9633 45.9027 16.0787 45.9027 14.9876C45.9027 13.8965 45.0181 13.0121 43.927 13.0121Z" fill="#58595B"/>
<path d="M17.4819 40.0121L19.0652 38.4289C19.8367 37.6574 19.8367 36.4065 19.0652 35.635C18.2938 34.8636 17.0428 34.8635 16.2713 35.635L14.688 37.2183V42.8061L16.2713 44.3894C17.0427 45.1609 18.2935 45.1609 19.0652 44.3894C19.8367 43.6179 19.8367 42.3671 19.0652 41.5956L17.4819 40.0121Z" fill="#58595B"/>
</g>
<defs>
<clipPath id="clip0_1102_988">
<rect width="54" height="54" fill="white" transform="translate(0.200195 0.5)"/>
</clipPath>
</defs>
</svg>
