<svg width="108" height="23" viewBox="0 0 108 23" fill="none" xmlns="http://www.w3.org/2000/svg">
<mask id="mask0_1433_416" style="mask-type:luminance" maskUnits="userSpaceOnUse" x="40" y="1" width="17" height="15">
<path d="M43.085 2.48372V2.42773H43.4116H46.6404C46.9483 2.42773 47.2283 2.43706 47.4989 2.46506C49.4119 2.63303 50.3824 3.39823 50.3824 4.74201C50.3824 6.28175 49.1133 7.05629 46.6217 7.05629H43.085V2.48372ZM45.7445 1.30792C42.8797 1.36391 40.584 1.35458 40.584 1.35458L40.5747 15.2869H43.085V9.36124V9.14661H44.2794L51.1663 15.2776H56.0001L52.7993 12.534L48.3854 9.10928C48.3481 9.08129 48.3294 9.03463 48.3294 8.97864C48.3294 8.95998 48.3294 8.94131 48.3387 8.92265L47.5362 8.6147C47.5362 8.6147 47.2656 8.14811 48.1334 8.03613C49.0013 7.92415 52.1741 7.6162 52.1741 4.63936C52.1741 1.82116 48.9733 1.29858 46.2111 1.29858C46.0431 1.29858 45.8938 1.29858 45.7445 1.30792Z" fill="white"/>
</mask>
<g mask="url(#mask0_1433_416)">
<path d="M55.9908 1.29785H40.5747V15.2769H55.9908V1.29785Z" fill="url(#paint0_linear_1433_416)"/>
</g>
<mask id="mask1_1433_416" style="mask-type:luminance" maskUnits="userSpaceOnUse" x="39" y="0" width="17" height="16">
<path d="M43.0849 2.47932V2.42333H46.6216C49.1132 2.42333 50.3823 3.20719 50.3823 4.73761C50.3823 6.27735 49.1132 7.05189 46.6216 7.05189H43.0849V2.47932ZM39.5015 0.333008V15.2732H43.0755V9.3475V9.1422H44.27L51.1568 15.2732H55.9907L48.7213 9.04889C49.8224 8.93691 50.6809 8.73161 51.5768 8.35834C53.1352 7.70511 54.1057 6.32401 54.1057 4.74694C54.1057 3.16987 53.1352 1.78876 51.5768 1.13554C50.1583 0.547638 48.8146 0.333008 46.4256 0.333008H39.5015Z" fill="white"/>
</mask>
<g mask="url(#mask1_1433_416)">
<path d="M41.3393 0.342827L39.3796 0.333496L39.3049 15.4323H43.1683L43.0936 9.14269L41.0313 7.49097L41.3393 0.342827Z" fill="#000023"/>
</g>
<mask id="mask2_1433_416" style="mask-type:luminance" maskUnits="userSpaceOnUse" x="39" y="0" width="17" height="16">
<path d="M43.0849 2.47932V2.42333H46.6216C49.1132 2.42333 50.3823 3.20719 50.3823 4.73761C50.3823 6.27735 49.1132 7.05189 46.6216 7.05189H43.0849V2.47932ZM39.5015 0.333008V15.2732H43.0755V9.3475V9.1422H44.27L51.1568 15.2732H55.9907L48.7213 9.04889C49.8224 8.93691 50.6809 8.73161 51.5768 8.35834C53.1352 7.70511 54.1057 6.32401 54.1057 4.74694C54.1057 3.16987 53.1352 1.78876 51.5768 1.13554C50.1583 0.547638 48.8146 0.333008 46.4256 0.333008H39.5015Z" fill="white"/>
</mask>
<g mask="url(#mask2_1433_416)">
<mask id="mask3_1433_416" style="mask-type:luminance" maskUnits="userSpaceOnUse" x="42" y="1" width="2" height="8">
<path d="M43.29 1.48999H42.1609V8.00357H43.29V1.48999Z" fill="white"/>
</mask>
<g mask="url(#mask3_1433_416)">
<mask id="mask4_1433_416" style="mask-type:luminance" maskUnits="userSpaceOnUse" x="42" y="1" width="2" height="8">
<path d="M43.29 1.48975H42.1609V8.00333H43.29V1.48975Z" fill="white"/>
</mask>
<g mask="url(#mask4_1433_416)">
<path d="M43.2807 2.55308L42.1609 1.48926L42.2075 8.00284L43.2434 6.90169C43.1967 6.86436 43.3274 2.57174 43.2807 2.55308Z" fill="#9193B6"/>
</g>
</g>
</g>
<mask id="mask5_1433_416" style="mask-type:luminance" maskUnits="userSpaceOnUse" x="39" y="0" width="17" height="16">
<path d="M43.0849 2.47932V2.42333H46.6216C49.1132 2.42333 50.3823 3.20719 50.3823 4.73761C50.3823 6.27735 49.1132 7.05189 46.6216 7.05189H43.0849V2.47932ZM39.5015 0.333008V15.2732H43.0755V9.3475V9.1422H44.27L51.1568 15.2732H55.9907L48.7213 9.04889C49.8224 8.93691 50.6809 8.73161 51.5768 8.35834C53.1352 7.70511 54.1057 6.32401 54.1057 4.74694C54.1057 3.16987 53.1352 1.78876 51.5768 1.13554C50.1583 0.547638 48.8146 0.333008 46.4256 0.333008H39.5015Z" fill="white"/>
</mask>
<g mask="url(#mask5_1433_416)">
<mask id="mask6_1433_416" style="mask-type:luminance" maskUnits="userSpaceOnUse" x="41" y="8" width="3" height="8">
<path d="M43.6538 8.20264H41.9741V15.8827H43.6538V8.20264Z" fill="white"/>
</mask>
<g mask="url(#mask6_1433_416)">
<mask id="mask7_1433_416" style="mask-type:luminance" maskUnits="userSpaceOnUse" x="41" y="8" width="3" height="8">
<path d="M43.6538 8.2041H41.9741V15.8842H43.6538V8.2041Z" fill="white"/>
</mask>
<g mask="url(#mask7_1433_416)">
<path d="M41.9741 14.1757L43.6538 15.8834C43.6538 15.8834 43.2992 9.34185 43.3366 9.08056L42.2074 8.20337L41.9741 14.1757Z" fill="#787CA5"/>
</g>
</g>
</g>
<mask id="mask8_1433_416" style="mask-type:luminance" maskUnits="userSpaceOnUse" x="39" y="0" width="17" height="16">
<path d="M43.0849 2.47932V2.42333H46.6216C49.1132 2.42333 50.3823 3.20719 50.3823 4.73761C50.3823 6.27735 49.1132 7.05189 46.6216 7.05189H43.0849V2.47932ZM39.5015 0.333008V15.2732H43.0755V9.3475V9.1422H44.27L51.1568 15.2732H55.9907L48.7213 9.04889C49.8224 8.93691 50.6809 8.73161 51.5768 8.35834C53.1352 7.70511 54.1057 6.32401 54.1057 4.74694C54.1057 3.16987 53.1352 1.78876 51.5768 1.13554C50.1583 0.547638 48.8146 0.333008 46.4256 0.333008H39.5015Z" fill="white"/>
</mask>
<g mask="url(#mask8_1433_416)">
<mask id="mask9_1433_416" style="mask-type:luminance" maskUnits="userSpaceOnUse" x="39" y="0" width="16" height="10">
<path d="M54.3946 0.0471191H39.1558V9.36957H54.3946V0.0471191Z" fill="white"/>
</mask>
<g mask="url(#mask9_1433_416)">
<mask id="mask10_1433_416" style="mask-type:luminance" maskUnits="userSpaceOnUse" x="39" y="0" width="16" height="10">
<path d="M39.1555 0.0488281L40.4806 1.50459C40.4806 1.50459 43.6534 1.40194 45.6878 1.36461C45.8464 1.36461 46.005 1.35528 46.1637 1.35528C50.2043 1.35528 52.164 2.43776 52.164 4.66806C52.164 7.52358 49.2058 7.90618 48.2353 8.0275L48.1514 8.03683C47.7128 8.09282 47.4421 8.24213 47.3208 8.48475C47.1902 8.75538 48.7486 9.35261 48.7486 9.35261C48.7486 9.35261 50.8296 9.00733 51.7814 8.60607C53.4051 7.91552 54.413 6.45043 54.413 4.78004C54.413 3.10965 53.4051 1.64456 51.7814 0.95401C50.2977 0.319449 48.8886 0.095487 46.397 0.095487L39.1555 0.0488281Z" fill="white"/>
</mask>
<g mask="url(#mask10_1433_416)">
<path d="M35.1985 7.17721L42.7386 -6.41919L58.3506 2.2407L50.8106 15.8278L35.1985 7.17721Z" fill="url(#paint1_linear_1433_416)"/>
</g>
</g>
</g>
<mask id="mask11_1433_416" style="mask-type:luminance" maskUnits="userSpaceOnUse" x="39" y="0" width="17" height="16">
<path d="M43.0849 2.47932V2.42333H46.6216C49.1132 2.42333 50.3823 3.20719 50.3823 4.73761C50.3823 6.27735 49.1132 7.05189 46.6216 7.05189H43.0849V2.47932ZM39.5015 0.333008V15.2732H43.0755V9.3475V9.1422H44.27L51.1568 15.2732H55.9907L48.7213 9.04889C49.8224 8.93691 50.6809 8.73161 51.5768 8.35834C53.1352 7.70511 54.1057 6.32401 54.1057 4.74694C54.1057 3.16987 53.1352 1.78876 51.5768 1.13554C50.1583 0.547638 48.8146 0.333008 46.4256 0.333008H39.5015Z" fill="white"/>
</mask>
<g mask="url(#mask11_1433_416)">
<mask id="mask12_1433_416" style="mask-type:luminance" maskUnits="userSpaceOnUse" x="41" y="7" width="16" height="9">
<path d="M56.8211 7.91992H41.7036V15.5813H56.8211V7.91992Z" fill="white"/>
</mask>
<g mask="url(#mask12_1433_416)">
<mask id="mask13_1433_416" style="mask-type:luminance" maskUnits="userSpaceOnUse" x="41" y="7" width="16" height="9">
<path d="M56.8211 7.92017H41.7036V15.5816H56.8211V7.92017Z" fill="white"/>
</mask>
<g mask="url(#mask13_1433_416)">
<path d="M50.8021 15.5818L43.43 9.37617L41.7036 8.12571L42.4408 8.04172L44.3165 7.92041L47.592 8.37767L48.5718 8.95624L56.8211 15.5911L50.8021 15.5818Z" fill="#000023"/>
</g>
</g>
</g>
<mask id="mask14_1433_416" style="mask-type:luminance" maskUnits="userSpaceOnUse" x="39" y="0" width="17" height="16">
<path d="M43.0849 2.47932V2.42333H46.6216C49.1132 2.42333 50.3823 3.20719 50.3823 4.73761C50.3823 6.27735 49.1132 7.05189 46.6216 7.05189H43.0849V2.47932ZM39.5015 0.333008V15.2732H43.0755V9.3475V9.1422H44.27L51.1568 15.2732H55.9907L48.7213 9.04889C49.8224 8.93691 50.6809 8.73161 51.5768 8.35834C53.1352 7.70511 54.1057 6.32401 54.1057 4.74694C54.1057 3.16987 53.1352 1.78876 51.5768 1.13554C50.1583 0.547638 48.8146 0.333008 46.4256 0.333008H39.5015Z" fill="white"/>
</mask>
<g mask="url(#mask14_1433_416)">
<mask id="mask15_1433_416" style="mask-type:luminance" maskUnits="userSpaceOnUse" x="45" y="8" width="12" height="8">
<path d="M56.7093 8.4353H45.5579V15.6114H56.7093V8.4353Z" fill="white"/>
</mask>
<g mask="url(#mask15_1433_416)">
<mask id="mask16_1433_416" style="mask-type:luminance" maskUnits="userSpaceOnUse" x="45" y="8" width="12" height="8">
<path d="M56.7093 8.43604H45.5579V15.6122H56.7093V8.43604Z" fill="white"/>
</mask>
<g mask="url(#mask16_1433_416)">
<path d="M53.5085 14.3801L45.5579 8.43579L47.3869 8.53844L49.1413 9.19167L50.3917 9.45295L55.9628 14.4828L56.7093 15.6026L53.5085 14.3801Z" fill="#9193B6"/>
</g>
</g>
</g>
<mask id="mask17_1433_416" style="mask-type:luminance" maskUnits="userSpaceOnUse" x="39" y="0" width="17" height="16">
<path d="M43.0849 2.47932V2.42333H46.6216C49.1132 2.42333 50.3823 3.20719 50.3823 4.73761C50.3823 6.27735 49.1132 7.05189 46.6216 7.05189H43.0849V2.47932ZM39.5015 0.333008V15.2732H43.0755V9.3475V9.1422H44.27L51.1568 15.2732H55.9907L48.7213 9.04889C49.8224 8.93691 50.6809 8.73161 51.5768 8.35834C53.1352 7.70511 54.1057 6.32401 54.1057 4.74694C54.1057 3.16987 53.1352 1.78876 51.5768 1.13554C50.1583 0.547638 48.8146 0.333008 46.4256 0.333008H39.5015Z" fill="white"/>
</mask>
<g mask="url(#mask17_1433_416)">
<mask id="mask18_1433_416" style="mask-type:luminance" maskUnits="userSpaceOnUse" x="40" y="0" width="15" height="15">
<path d="M54.2084 0.99585H40.1641V14.6109H54.2084V0.99585Z" fill="white"/>
</mask>
<g mask="url(#mask18_1433_416)">
<mask id="mask19_1433_416" style="mask-type:luminance" maskUnits="userSpaceOnUse" x="40" y="0" width="15" height="15">
<path d="M54.2084 0.99585H40.1641V14.6109H54.2084V0.99585Z" fill="white"/>
</mask>
<g mask="url(#mask19_1433_416)">
<mask id="mask20_1433_416" style="mask-type:luminance" maskUnits="userSpaceOnUse" x="40" y="0" width="15" height="15">
<path d="M54.2084 0.99585H40.1641V14.6109H54.2084V0.99585Z" fill="white"/>
</mask>
<g mask="url(#mask20_1433_416)">
<mask id="mask21_1433_416" style="mask-type:luminance" maskUnits="userSpaceOnUse" x="40" y="0" width="15" height="15">
<path d="M54.2084 0.99585H40.1641V14.6109H54.2084V0.99585Z" fill="white"/>
</mask>
<g mask="url(#mask21_1433_416)">
<path d="M51.4082 14.6109L44.5213 8.47994H42.8976C42.627 8.47994 42.4123 8.7039 42.4123 8.96519V14.6109H40.1541V0.99585H46.4157C48.73 0.99585 49.9618 1.18249 51.3149 1.74239C52.6213 2.29297 53.4332 3.44078 53.4332 4.73789C53.4332 6.04434 52.6213 7.19215 51.3149 7.73339C50.335 8.14399 49.4205 8.33996 48.0767 8.42394C47.8621 8.44261 47.6941 8.61991 47.6941 8.83455C47.6941 8.95586 47.7501 9.06784 47.8341 9.14249L54.2077 14.6016H51.4082V14.6109ZM42.4217 7.22948C42.4217 7.5001 42.6456 7.72406 42.9163 7.72406H46.621C50.4657 7.72406 51.0442 5.85771 51.0442 4.74722C51.0442 3.63674 50.4657 1.77039 46.621 1.77039H42.9069C42.6456 1.77972 42.431 1.98502 42.431 2.25564V2.31163V7.17349L42.4217 7.22948Z" fill="#002565"/>
</g>
</g>
</g>
</g>
</g>
<mask id="mask22_1433_416" style="mask-type:luminance" maskUnits="userSpaceOnUse" x="0" y="0" width="20" height="16">
<path d="M4.18997 7.8445C4.18997 4.47572 6.3736 2.38541 9.90102 2.38541C13.4191 2.38541 15.6121 4.47572 15.6121 7.8445C15.6121 11.2133 13.4284 13.3036 9.90102 13.3036C6.3736 13.3036 4.18997 11.2133 4.18997 7.8445ZM0 7.8445C0 12.4731 3.97534 15.5899 9.89168 15.5899C15.808 15.5899 19.7834 12.4824 19.7834 7.8445C19.7834 3.21593 15.808 0.0991211 9.89168 0.0991211C3.97534 0.0991211 0 3.21593 0 7.8445Z" fill="white"/>
</mask>
<g mask="url(#mask22_1433_416)">
<path d="M-6.10303 12.6138L3.80732 -7.69214L25.8863 3.07673L15.9853 23.3827L-6.10303 12.6138Z" fill="url(#paint2_linear_1433_416)"/>
</g>
<mask id="mask23_1433_416" style="mask-type:luminance" maskUnits="userSpaceOnUse" x="1" y="1" width="17" height="14">
<path d="M4.18955 7.8457C4.18955 4.47692 6.37319 2.38661 9.9006 2.38661C13.4187 2.38661 15.6116 4.47692 15.6116 7.8457C15.6116 11.2145 13.428 13.3048 9.9006 13.3048C6.37319 13.3048 4.18955 11.2145 4.18955 7.8457ZM1.99658 7.83636C1.99658 11.5038 5.55199 14.4806 9.93792 14.4806C14.3239 14.4806 17.8793 11.5038 17.8793 7.83636C17.8793 4.16898 14.3239 1.19214 9.93792 1.19214C5.55199 1.20147 1.99658 4.16898 1.99658 7.83636Z" fill="white"/>
</mask>
<g mask="url(#mask23_1433_416)">
<path d="M-3.75171 4.51408L13.9133 -5.68555L23.6371 11.1583L5.972 21.3579L-3.75171 4.51408Z" fill="url(#paint3_linear_1433_416)"/>
</g>
<mask id="mask24_1433_416" style="mask-type:luminance" maskUnits="userSpaceOnUse" x="1" y="1" width="17" height="14">
<path d="M3.91893 7.8457C3.91893 4.25296 6.32653 2.12532 9.89126 2.12532C13.456 2.12532 15.8636 4.25296 15.8636 7.8457C15.8636 11.4384 13.456 13.5661 9.89126 13.5661C6.32653 13.5661 3.91893 11.4384 3.91893 7.8457ZM1.99658 7.83636C1.99658 11.5038 5.55199 14.4806 9.93792 14.4806C14.3239 14.4806 17.8793 11.5038 17.8793 7.83636C17.8793 4.16898 14.3239 1.19214 9.93792 1.19214C5.55199 1.20147 1.99658 4.16898 1.99658 7.83636Z" fill="white"/>
</mask>
<g mask="url(#mask24_1433_416)">
<path d="M5.972 21.3579L23.6371 11.1583L13.9133 -5.68555L-3.75171 4.51408L5.972 21.3579Z" fill="url(#paint4_linear_1433_416)"/>
</g>
<mask id="mask25_1433_416" style="mask-type:luminance" maskUnits="userSpaceOnUse" x="21" y="0" width="18" height="16">
<path d="M21.1458 7.80928C21.1458 12.4658 25.1864 15.592 31.1961 15.592C33.809 15.592 35.9739 15.1067 37.831 14.0989L38.1483 13.9309L36.1792 11.9153L36.0019 12.0179C34.5742 12.8484 33.2117 13.2217 31.5787 13.2217C31.476 13.2217 31.364 13.2217 31.2521 13.2124C27.7247 13.1004 25.3544 10.9354 25.3544 7.80928C25.3544 4.68314 27.7247 2.50883 31.2521 2.40618C31.364 2.40618 31.476 2.40618 31.5787 2.40618C33.2117 2.40618 34.5742 2.77945 36.0113 3.61931L36.1886 3.72196L37.9056 1.95826L38.1576 1.7063L37.8496 1.53833C35.9926 0.530494 33.8183 0.0359095 31.1961 0.0359095C25.1864 0.0265777 21.1458 3.15272 21.1458 7.80928Z" fill="white"/>
</mask>
<g mask="url(#mask25_1433_416)">
<path d="M13.3718 8.08021L29.3572 -8.47437L45.9397 7.53897L29.9544 24.0935L13.3718 8.08021Z" fill="url(#paint5_linear_1433_416)"/>
</g>
<mask id="mask26_1433_416" style="mask-type:luminance" maskUnits="userSpaceOnUse" x="22" y="1" width="16" height="14">
<path d="M22.8442 7.90079C22.8442 11.5962 26.7263 14.5917 31.5135 14.5917C33.6971 14.5917 35.6848 13.9664 37.2058 12.9493L36.1887 11.9041L36.0114 12.0068C34.5836 12.8373 33.2212 13.2106 31.5881 13.2106C31.4855 13.2106 31.3735 13.2106 31.2615 13.2012C27.7341 13.0893 25.3638 10.9243 25.3638 7.79814C25.3638 4.672 27.7341 2.49769 31.2615 2.39504C31.3735 2.39504 31.4855 2.39504 31.5881 2.39504C33.2212 2.39504 34.5836 2.76831 36.0207 3.60817L36.198 3.71082L37.0939 2.79631C35.5914 1.81647 33.6411 1.21924 31.5135 1.21924C26.7169 1.21924 22.8442 4.21474 22.8442 7.90079Z" fill="white"/>
</mask>
<g mask="url(#mask26_1433_416)">
<path d="M17.0491 4.56043L33.613 -5.00464L42.9914 11.2513L26.4275 20.8164L17.0491 4.56043Z" fill="url(#paint6_linear_1433_416)"/>
</g>
<mask id="mask27_1433_416" style="mask-type:luminance" maskUnits="userSpaceOnUse" x="22" y="1" width="15" height="14">
<path d="M22.8442 7.90079C22.8442 11.5962 26.7263 14.5917 31.5135 14.5917C33.5851 14.5917 35.4888 14.0318 36.9819 13.0986L36.1514 12.2401C34.6956 13.0893 33.2118 13.5372 31.2615 13.4812C27.7901 13.3785 25.1119 11.2696 25.1119 7.80747C25.1119 4.34538 27.7901 2.2364 31.2615 2.13375C33.2118 2.07776 34.7049 2.52569 36.1607 3.37488L36.8699 2.647C35.4048 1.75115 33.5478 1.21924 31.5135 1.21924C26.7169 1.21924 22.8442 4.21474 22.8442 7.90079Z" fill="white"/>
</mask>
<g mask="url(#mask27_1433_416)">
<path d="M17.0491 4.56057L33.4357 -4.90186L42.7674 11.2515L26.3715 20.7139L17.0491 4.56057Z" fill="url(#paint7_linear_1433_416)"/>
</g>
<mask id="mask28_1433_416" style="mask-type:luminance" maskUnits="userSpaceOnUse" x="21" y="0" width="17" height="15">
<path d="M37.1313 0.748047H21.8645V14.8764H37.1313V0.748047Z" fill="white"/>
</mask>
<g mask="url(#mask28_1433_416)">
<mask id="mask29_1433_416" style="mask-type:luminance" maskUnits="userSpaceOnUse" x="21" y="0" width="17" height="15">
<path d="M37.1313 0.749023H21.8645V14.8773H37.1313V0.749023Z" fill="white"/>
</mask>
<g mask="url(#mask29_1433_416)">
<mask id="mask30_1433_416" style="mask-type:luminance" maskUnits="userSpaceOnUse" x="21" y="0" width="17" height="15">
<path d="M37.1313 0.750488H21.8645V14.8788H37.1313V0.750488Z" fill="white"/>
</mask>
<g mask="url(#mask30_1433_416)">
<mask id="mask31_1433_416" style="mask-type:luminance" maskUnits="userSpaceOnUse" x="21" y="0" width="17" height="15">
<path d="M37.1313 0.751465H21.8645V14.8798H37.1313V0.751465Z" fill="white"/>
</mask>
<g mask="url(#mask31_1433_416)">
<path d="M31.1961 14.8793C28.4619 14.8793 26.1196 14.2074 24.4306 12.9383C22.7508 11.6692 21.855 9.90545 21.855 7.81513C21.855 5.72482 22.7415 3.96111 24.4306 2.69199C26.1196 1.42286 28.4525 0.750977 31.1961 0.750977C33.4451 0.750977 35.3487 1.10558 37.1311 1.96411L36.2166 2.90662C34.6302 2.02943 33.2304 1.68415 31.588 1.68415C31.476 1.68415 31.3547 1.68415 31.2334 1.69349C27.2861 1.8148 24.6358 4.27839 24.6358 7.81513C24.6358 11.3612 27.2861 13.8248 31.2334 13.9368C31.3547 13.9368 31.4667 13.9461 31.5787 13.9461C33.2211 13.9461 34.6209 13.5915 36.0579 12.817L36.9631 13.7408C35.3301 14.506 33.4451 14.8793 31.1961 14.8793Z" fill="#002565"/>
</g>
</g>
</g>
</g>
<mask id="mask32_1433_416" style="mask-type:luminance" maskUnits="userSpaceOnUse" x="0" y="0" width="20" height="15">
<path d="M19.0645 0.82251H0.718262V14.8668H19.0645V0.82251Z" fill="white"/>
</mask>
<g mask="url(#mask32_1433_416)">
<mask id="mask33_1433_416" style="mask-type:luminance" maskUnits="userSpaceOnUse" x="0" y="0" width="20" height="15">
<path d="M19.0645 0.82373H0.718262V14.8681H19.0645V0.82373Z" fill="white"/>
</mask>
<g mask="url(#mask33_1433_416)">
<mask id="mask34_1433_416" style="mask-type:luminance" maskUnits="userSpaceOnUse" x="0" y="0" width="20" height="15">
<path d="M19.0645 0.825439H0.718262V14.8698H19.0645V0.825439Z" fill="white"/>
</mask>
<g mask="url(#mask34_1433_416)">
<mask id="mask35_1433_416" style="mask-type:luminance" maskUnits="userSpaceOnUse" x="0" y="0" width="20" height="15">
<path d="M19.0645 0.82666H0.718262V14.871H19.0645V0.82666Z" fill="white"/>
</mask>
<g mask="url(#mask35_1433_416)">
<path d="M9.8914 14.8798C7.20385 14.8798 4.8989 14.2173 3.24717 12.9482C1.59545 11.6884 0.718262 9.92466 0.718262 7.853C0.718262 5.77201 1.59545 4.01764 3.24717 2.75785C4.90823 1.49806 7.20385 0.826172 9.8914 0.826172C12.579 0.826172 14.8839 1.48873 16.5356 2.75785C18.1874 4.01764 19.0645 5.78135 19.0645 7.853C19.0645 9.92466 18.1874 11.6884 16.5356 12.9482C14.8839 14.2079 12.5883 14.8798 9.8914 14.8798ZM9.8914 1.67536C5.99072 1.67536 3.4618 4.10163 3.4618 7.853C3.4618 11.6044 5.98138 14.0306 9.8914 14.0306C13.7921 14.0306 16.321 11.6044 16.321 7.853C16.321 4.10163 13.8014 1.67536 9.8914 1.67536Z" fill="#002565"/>
</g>
</g>
</g>
</g>
<mask id="mask36_1433_416" style="mask-type:luminance" maskUnits="userSpaceOnUse" x="21" y="0" width="17" height="15">
<path d="M37.1313 0.748047H21.8645V14.8764H37.1313V0.748047Z" fill="white"/>
</mask>
<g mask="url(#mask36_1433_416)">
<mask id="mask37_1433_416" style="mask-type:luminance" maskUnits="userSpaceOnUse" x="21" y="0" width="17" height="15">
<path d="M24.4403 2.68911C22.7606 3.95823 21.8647 5.72194 21.8647 7.81226C21.8647 9.89325 22.7513 11.6663 24.4403 12.9354C26.1294 14.2045 28.4623 14.8764 31.2059 14.8764C33.4455 14.8764 35.3398 14.5031 36.9636 13.7379L36.0584 12.8141C34.6213 13.5886 33.2308 13.9432 31.5791 13.9432C31.4671 13.9432 31.3458 13.9432 31.2339 13.9339C27.2865 13.8126 24.6363 11.349 24.6363 7.81226C24.6363 4.26618 27.2865 1.80259 31.2339 1.69061C31.3552 1.69061 31.4671 1.68128 31.5885 1.68128C33.2402 1.68128 34.6306 2.03589 36.217 2.90374L37.1315 1.96123C35.3492 1.10271 33.4455 0.73877 31.1965 0.73877C28.4623 0.748101 26.1294 1.41999 24.4403 2.68911Z" fill="white"/>
</mask>
<g mask="url(#mask37_1433_416)">
<path d="M15.7522 4.28476L33.3146 -5.85889L43.2529 11.3396L25.6812 21.4832L15.7522 4.28476Z" fill="url(#paint8_linear_1433_416)"/>
</g>
</g>
<mask id="mask38_1433_416" style="mask-type:luminance" maskUnits="userSpaceOnUse" x="0" y="0" width="20" height="15">
<path d="M19.0645 0.82251H0.718262V14.8668H19.0645V0.82251Z" fill="white"/>
</mask>
<g mask="url(#mask38_1433_416)">
<mask id="mask39_1433_416" style="mask-type:luminance" maskUnits="userSpaceOnUse" x="0" y="0" width="20" height="15">
<path d="M3.47114 7.84669C3.47114 4.09532 5.99072 1.66906 9.90073 1.66906C13.8014 1.66906 16.3303 4.09532 16.3303 7.84669C16.3303 11.5981 13.8107 14.0243 9.90073 14.0243C5.99072 14.0243 3.47114 11.5981 3.47114 7.84669ZM3.24717 2.75154C1.59545 4.01133 0.718262 5.77504 0.718262 7.84669C0.718262 9.91835 1.59545 11.6821 3.24717 12.9418C4.90823 14.2016 7.20385 14.8735 9.8914 14.8735C12.579 14.8735 14.8839 14.2016 16.5356 12.9418C18.1874 11.6821 19.0645 9.91835 19.0645 7.84669C19.0645 5.77504 18.1874 4.01133 16.5356 2.75154C14.8746 1.49175 12.579 0.829197 9.8914 0.829197C7.20385 0.819866 4.90823 1.49175 3.24717 2.75154Z" fill="white"/>
</mask>
<g mask="url(#mask39_1433_416)">
<path d="M-5.36572 4.33857L14.483 -7.12085L25.1492 11.3654L5.30983 22.8155L-5.36572 4.33857Z" fill="url(#paint9_linear_1433_416)"/>
</g>
</g>
<mask id="mask40_1433_416" style="mask-type:luminance" maskUnits="userSpaceOnUse" x="40" y="1" width="15" height="14">
<path d="M54.0406 1.05957H40.2202V14.5627H54.0406V1.05957Z" fill="white"/>
</mask>
<g mask="url(#mask40_1433_416)">
<mask id="mask41_1433_416" style="mask-type:luminance" maskUnits="userSpaceOnUse" x="40" y="1" width="15" height="14">
<path d="M42.3572 2.243C42.3665 1.94438 42.5998 1.71109 42.8984 1.70175H46.6125C50.5132 1.70175 51.0917 3.60544 51.0917 4.73458C51.0917 5.87306 50.5132 7.76741 46.6125 7.76741H42.9078C42.5998 7.76741 42.3572 7.52478 42.3572 7.21683V2.243ZM40.2202 1.05786V14.5609H42.3572V8.97121C42.3572 8.67259 42.5998 8.42997 42.8984 8.42063H44.5408L51.4277 14.5516H54.0406L47.7883 9.19517C47.6856 9.11119 47.6203 8.98054 47.6203 8.84056C47.6203 8.58861 47.8163 8.39264 48.0589 8.37397C49.4027 8.28999 50.3079 8.09402 51.2784 7.69276C52.5662 7.15151 53.3687 6.0317 53.3687 4.74391C53.3687 3.46546 52.5662 2.33631 51.2784 1.8044C49.9439 1.2445 48.7121 1.05786 46.4072 1.05786H40.2202Z" fill="white"/>
</mask>
<g mask="url(#mask41_1433_416)">
<path d="M34.2341 4.37345L50.4434 -4.98633L59.7472 11.1203L43.5286 20.4894L34.2341 4.37345Z" fill="url(#paint10_linear_1433_416)"/>
</g>
</g>
<mask id="mask42_1433_416" style="mask-type:luminance" maskUnits="userSpaceOnUse" x="35" y="11" width="4" height="4">
<path d="M35.3301 12.1175L37.0751 14.8051L38.3442 14.1145L36.0113 11.7256L35.3301 12.1175Z" fill="white"/>
</mask>
<g mask="url(#mask42_1433_416)">
<mask id="mask43_1433_416" style="mask-type:luminance" maskUnits="userSpaceOnUse" x="36" y="11" width="3" height="4">
<path d="M38.8201 11.5605H36.0486V14.0521H38.8201V11.5605Z" fill="white"/>
</mask>
<g mask="url(#mask43_1433_416)">
<mask id="mask44_1433_416" style="mask-type:luminance" maskUnits="userSpaceOnUse" x="36" y="11" width="3" height="4">
<path d="M38.8204 11.5618H36.0488V14.0534H38.8204V11.5618Z" fill="white"/>
</mask>
<g mask="url(#mask44_1433_416)">
<path d="M36.2168 11.561L36.0488 12.8395L36.8234 13.7447L38.8204 14.062C38.8204 14.062 36.2821 11.6264 36.2168 11.561Z" fill="#9193B6"/>
</g>
</g>
</g>
<mask id="mask45_1433_416" style="mask-type:luminance" maskUnits="userSpaceOnUse" x="35" y="0" width="4" height="4">
<path d="M35.3577 3.33932L36.0016 3.90856L38.4185 1.43564L36.9721 0.959717L35.3577 3.33932Z" fill="white"/>
</mask>
<g mask="url(#mask45_1433_416)">
<mask id="mask46_1433_416" style="mask-type:luminance" maskUnits="userSpaceOnUse" x="36" y="1" width="4" height="4">
<path d="M39.2023 1.58984H36.0295V4.19341H39.2023V1.58984Z" fill="white"/>
</mask>
<g mask="url(#mask46_1433_416)">
<path d="M36.8227 1.82411L36.0295 2.76662L36.2815 4.19439L39.2023 1.59082L36.8227 1.82411Z" fill="#001650"/>
</g>
</g>
<path d="M4.4974 20.369C4.4974 21.4515 3.83484 22.0394 3.02298 22.0394C2.18312 22.0394 1.59521 21.3861 1.59521 20.425C1.59521 19.4171 2.21111 18.7639 3.0603 18.7639C3.93749 18.7639 4.4974 19.4265 4.4974 20.369ZM2.03381 20.4156C2.03381 21.0969 2.39775 21.7034 3.05097 21.7034C3.7042 21.7034 4.06814 21.1062 4.06814 20.3876C4.06814 19.7531 3.74152 19.0999 3.0603 19.0999C2.37908 19.0999 2.03381 19.7251 2.03381 20.4156Z" fill="#002565"/>
<path d="M5.18824 19.7168L5.51485 20.2021C5.60817 20.3327 5.67349 20.4447 5.74815 20.566H5.75748C5.83213 20.4354 5.90679 20.3141 5.99078 20.1928L6.30806 19.7075H6.75598L5.97211 20.8087L6.76531 21.9845H6.29872L5.96278 21.4712C5.86946 21.3406 5.79481 21.2099 5.72015 21.0793H5.71082C5.63617 21.2193 5.56151 21.3406 5.4682 21.4712L5.14158 21.9845H4.68433L5.49619 20.8273L4.72165 19.7168H5.18824Z" fill="#002565"/>
<path d="M7.21328 21.9837V20.024H6.896V19.7067H7.21328V19.5947C7.21328 19.2775 7.28793 18.9882 7.47457 18.8015C7.63321 18.6522 7.83851 18.5869 8.02514 18.5869C8.17445 18.5869 8.29576 18.6242 8.37975 18.6522L8.32376 18.9695C8.25844 18.9415 8.18378 18.9135 8.06247 18.9135C7.70786 18.9135 7.62387 19.2215 7.62387 19.5761V19.6974H8.17445V20.0147H7.62387V21.9743H7.21328V21.9837Z" fill="#002565"/>
<path d="M10.5357 20.8269C10.5357 21.6667 9.94776 22.0307 9.40651 22.0307C8.79995 22.0307 8.3147 21.5827 8.3147 20.8642C8.3147 20.1083 8.81861 19.6604 9.44384 19.6604C10.0971 19.6604 10.5357 20.1363 10.5357 20.8269ZM8.73463 20.8549C8.73463 21.3495 9.01458 21.7321 9.41585 21.7321C9.80778 21.7321 10.1064 21.3588 10.1064 20.8455C10.1064 20.4629 9.91043 19.9777 9.42518 19.9777C8.94926 19.9777 8.73463 20.4256 8.73463 20.8549Z" fill="#002565"/>
<path d="M11.058 20.4251C11.058 20.1544 11.0486 19.9305 11.0393 19.7158H11.4032L11.4219 20.1638H11.4406C11.5432 19.8558 11.7952 19.6692 12.0751 19.6692C12.1218 19.6692 12.1498 19.6692 12.1871 19.6785V20.0705C12.1405 20.0611 12.1031 20.0611 12.0471 20.0611C11.7579 20.0611 11.5526 20.2758 11.4966 20.5837C11.4872 20.6397 11.4779 20.7144 11.4779 20.7797V21.9928H11.0673V20.4251H11.058Z" fill="#002565"/>
<path d="M14.5011 18.6526V21.3961C14.5011 21.6014 14.5104 21.8254 14.5197 21.984H14.1558L14.1371 21.5921H14.1185C13.9972 21.8441 13.7265 22.04 13.3533 22.04C12.8027 22.04 12.3734 21.5734 12.3734 20.8829C12.3641 20.127 12.84 19.6698 13.3906 19.6698C13.7452 19.6698 13.9692 19.8377 14.0811 20.015H14.0905V18.6526H14.5011ZM14.0905 20.6403C14.0905 20.5843 14.0811 20.5189 14.0718 20.463C14.0065 20.2017 13.7825 19.987 13.4746 19.987C13.0453 19.987 12.7934 20.3603 12.7934 20.8642C12.7934 21.3215 13.0267 21.7041 13.4652 21.7041C13.7452 21.7041 13.9972 21.5174 14.0718 21.2095C14.0811 21.1535 14.0905 21.0975 14.0905 21.0322V20.6403Z" fill="#002565"/>
<path d="M18.4117 21.8907C18.2624 21.9654 17.9638 22.04 17.5718 22.04C16.676 22.04 16.0134 21.4801 16.0134 20.435C16.0134 19.4365 16.6853 18.7739 17.6652 18.7739C18.0571 18.7739 18.309 18.8579 18.421 18.9139L18.3184 19.2498C18.1691 19.1752 17.9451 19.1192 17.6838 19.1192C16.9373 19.1192 16.452 19.5951 16.452 20.4256C16.452 21.2095 16.8999 21.6948 17.6652 21.6948C17.9171 21.6948 18.1691 21.6388 18.337 21.5641L18.4117 21.8907Z" fill="#002565"/>
<path d="M20.474 21.4423C20.474 21.6383 20.4834 21.8343 20.5113 21.9836H20.1381L20.1007 21.6943H20.0914C19.9608 21.8716 19.7181 22.0302 19.3915 22.0302C18.9343 22.0302 18.6917 21.7036 18.6917 21.377C18.6917 20.8264 19.1769 20.5278 20.0634 20.5278V20.4812C20.0634 20.2945 20.0074 19.9586 19.5502 19.9586C19.3355 19.9586 19.1116 20.0239 18.9529 20.1266L18.8596 19.8466C19.0463 19.7253 19.3262 19.6506 19.6155 19.6506C20.306 19.6506 20.4834 20.1266 20.4834 20.5745V21.4423H20.474ZM20.0821 20.8264C19.6342 20.8171 19.1209 20.9011 19.1209 21.3397C19.1209 21.6103 19.2982 21.7316 19.5035 21.7316C19.8021 21.7316 19.9981 21.545 20.0634 21.349C20.0728 21.3024 20.0821 21.2557 20.0821 21.2184V20.8264Z" fill="#002565"/>
<path d="M21.1454 20.323C21.1454 20.0803 21.136 19.8937 21.1267 19.7071H21.4906L21.5093 20.0803H21.528C21.6586 19.8657 21.8639 19.6604 22.2465 19.6604C22.5545 19.6604 22.7878 19.847 22.8811 20.1177H22.8904C22.9651 19.987 23.0584 19.8937 23.1517 19.819C23.2917 19.7164 23.4317 19.6604 23.6463 19.6604C23.9542 19.6604 24.4022 19.8564 24.4022 20.6496V21.984H23.9916V20.7056C23.9916 20.267 23.8236 20.0057 23.497 20.0057C23.2544 20.0057 23.077 20.183 23.0024 20.3789C22.9837 20.4443 22.9744 20.5096 22.9744 20.5842V21.9933H22.5731V20.6216C22.5731 20.2576 22.4145 20.0057 22.0972 20.0057C21.8453 20.0057 21.6493 20.211 21.584 20.4163C21.556 20.4723 21.5466 20.5469 21.5466 20.6216V21.9933H21.1454V20.323Z" fill="#002565"/>
<path d="M25.0649 18.6526H25.4755V20.0804H25.4848C25.6341 19.8284 25.8954 19.6698 26.2593 19.6698C26.8286 19.6698 27.2205 20.1363 27.2205 20.8269C27.2205 21.6388 26.7073 22.04 26.194 22.04C25.8674 22.04 25.6061 21.9094 25.4288 21.6201H25.4195L25.3915 21.9934H25.0369C25.0462 21.8347 25.0555 21.6108 25.0555 21.4055V18.6526H25.0649ZM25.4661 21.0695C25.4661 21.1255 25.4755 21.1722 25.4848 21.2188C25.5594 21.5081 25.8021 21.7041 26.1007 21.7041C26.5393 21.7041 26.7912 21.3495 26.7912 20.8269C26.7912 20.3696 26.5579 19.9777 26.11 19.9777C25.8301 19.9777 25.5688 20.1737 25.4848 20.4816C25.4661 20.5376 25.4568 20.5936 25.4568 20.6589V21.0695H25.4661Z" fill="#002565"/>
<path d="M27.7338 20.4251C27.7338 20.1544 27.7244 19.9305 27.7151 19.7158H28.079L28.0977 20.1638H28.1164C28.219 19.8558 28.471 19.6692 28.7509 19.6692C28.7976 19.6692 28.8256 19.6692 28.8629 19.6785V20.0705C28.8162 20.0611 28.7789 20.0611 28.7229 20.0611C28.4336 20.0611 28.2283 20.2758 28.1723 20.5837C28.163 20.6397 28.1537 20.7144 28.1537 20.7797V21.9928H27.7431V20.4251H27.7338Z" fill="#002565"/>
<path d="M29.7496 19.0723C29.7496 19.2123 29.6469 19.3243 29.4883 19.3243C29.339 19.3243 29.2363 19.2123 29.2363 19.0723C29.2363 18.9323 29.339 18.811 29.4976 18.811C29.6469 18.811 29.7496 18.923 29.7496 19.0723ZM29.2923 19.7069H29.7029V21.9838H29.2923V19.7069Z" fill="#002565"/>
<path d="M32.3436 18.6526V21.3961C32.3436 21.6014 32.3529 21.8254 32.3623 21.984H31.9983L31.9797 21.5921H31.961C31.8397 21.8441 31.5691 22.04 31.1958 22.04C30.6452 22.04 30.216 21.5734 30.216 20.8829C30.2066 20.127 30.6825 19.6698 31.2331 19.6698C31.5877 19.6698 31.8117 19.8377 31.9143 20.015H31.9237V18.6526H32.3436ZM31.933 20.6403C31.933 20.5843 31.9237 20.5189 31.9143 20.463C31.849 20.2017 31.6251 19.987 31.3171 19.987C30.8878 19.987 30.6359 20.3603 30.6359 20.8642C30.6359 21.3215 30.8692 21.7041 31.3078 21.7041C31.5877 21.7041 31.8397 21.5174 31.9143 21.2095C31.9237 21.1535 31.933 21.0975 31.933 21.0322V20.6403Z" fill="#002565"/>
<path d="M34.9845 21.6481C34.9845 22.1706 34.8725 22.4879 34.6579 22.6932C34.4339 22.8985 34.1167 22.9638 33.8274 22.9638C33.5568 22.9638 33.2581 22.8985 33.0715 22.7772L33.1742 22.4599C33.3235 22.5626 33.5568 22.6466 33.8367 22.6466C34.2566 22.6466 34.5739 22.4226 34.5739 21.844V21.5921H34.5646C34.4433 21.8067 34.1913 21.9747 33.8367 21.9747C33.2768 21.9747 32.8662 21.4988 32.8662 20.8642C32.8662 20.0897 33.3701 19.6604 33.8927 19.6604C34.2846 19.6604 34.4993 19.8657 34.6019 20.0523H34.6113L34.6299 19.7071H34.9939C34.9752 19.8657 34.9752 20.0523 34.9752 20.323V21.6481H34.9845ZM34.5646 20.6122C34.5646 20.5376 34.5553 20.4816 34.5366 20.4256C34.4619 20.183 34.266 19.987 33.958 19.987C33.5661 19.987 33.2861 20.323 33.2861 20.8455C33.2861 21.2935 33.5194 21.6667 33.958 21.6667C34.2193 21.6667 34.4433 21.5081 34.5273 21.2468C34.5553 21.1721 34.5646 21.0975 34.5646 21.0228V20.6122Z" fill="#002565"/>
<path d="M35.89 20.9196C35.8994 21.4796 36.254 21.7129 36.6739 21.7129C36.9725 21.7129 37.1498 21.6569 37.2991 21.5915L37.3738 21.8902C37.2245 21.9555 36.9725 22.0395 36.6086 22.0395C35.9087 22.0395 35.4888 21.5729 35.4888 20.8917C35.4888 20.2104 35.89 19.6692 36.5526 19.6692C37.2991 19.6692 37.4951 20.3224 37.4951 20.733C37.4951 20.817 37.4951 20.8823 37.4858 20.929H35.89V20.9196ZM37.1032 20.6304C37.1125 20.3691 36.9912 19.9585 36.5339 19.9585C36.114 19.9585 35.9367 20.3411 35.8994 20.6304H37.1032Z" fill="#002565"/>
<path d="M40.6022 21.4423C40.6022 21.6383 40.6115 21.8343 40.6395 21.9836H40.2662L40.2289 21.6943H40.2196C40.0889 21.8716 39.8463 22.0302 39.5197 22.0302C39.0625 22.0302 38.8198 21.7036 38.8198 21.377C38.8198 20.8264 39.3051 20.5278 40.1916 20.5278V20.4812C40.1916 20.2945 40.1356 19.9586 39.6783 19.9586C39.4637 19.9586 39.2398 20.0239 39.0811 20.1266L38.9878 19.8466C39.1744 19.7253 39.4544 19.6506 39.7437 19.6506C40.4342 19.6506 40.6115 20.1266 40.6115 20.5745V21.4423H40.6022ZM40.2103 20.8264C39.7623 20.8171 39.2491 20.9011 39.2491 21.3397C39.2491 21.6103 39.4264 21.7316 39.6317 21.7316C39.9303 21.7316 40.1263 21.545 40.1916 21.349C40.2009 21.3024 40.2103 21.2557 40.2103 21.2184V20.8264Z" fill="#002565"/>
<path d="M41.2743 20.323C41.2743 20.0803 41.2649 19.8937 41.2556 19.7071H41.6196L41.6476 20.0803H41.6569C41.7689 19.8657 42.0302 19.6604 42.4128 19.6604C42.73 19.6604 43.2153 19.847 43.2153 20.6309V21.984H42.8047V20.6682C42.8047 20.3043 42.6647 19.9963 42.2821 19.9963C42.0115 19.9963 41.8062 20.1923 41.7315 20.4163C41.7129 20.4723 41.7035 20.5376 41.7035 20.6122V21.984H41.2929V20.323H41.2743Z" fill="#002565"/>
<path d="M45.8375 18.6526V21.3961C45.8375 21.6014 45.8468 21.8254 45.8562 21.984H45.4922L45.4736 21.5921H45.4549C45.3336 21.8441 45.063 22.04 44.6897 22.04C44.1391 22.04 43.7099 21.5734 43.7099 20.8829C43.7005 20.127 44.1764 19.6698 44.727 19.6698C45.0816 19.6698 45.3056 19.8377 45.4176 20.015H45.4269V18.6526H45.8375ZM45.4269 20.6403C45.4269 20.5843 45.4176 20.5189 45.4082 20.463C45.3429 20.2017 45.119 19.987 44.811 19.987C44.3817 19.987 44.1298 20.3603 44.1298 20.8642C44.1298 21.3215 44.3631 21.7041 44.8017 21.7041C45.0816 21.7041 45.3336 21.5174 45.4082 21.2095C45.4176 21.1535 45.4269 21.0975 45.4269 21.0322V20.6403Z" fill="#002565"/>
<path d="M47.5356 18.8578C47.7409 18.8205 48.0396 18.7925 48.3195 18.7925C48.7581 18.7925 49.0474 18.8765 49.234 19.0538C49.3927 19.1937 49.486 19.4084 49.486 19.6603C49.486 20.0709 49.2247 20.3509 48.8981 20.4629V20.4815C49.1407 20.5655 49.2807 20.7895 49.3553 21.1161C49.458 21.5547 49.5326 21.8626 49.598 21.9839H49.178C49.1221 21.8906 49.0567 21.62 48.9727 21.2281C48.8794 20.7895 48.7021 20.6308 48.3382 20.6122H47.9556V21.9839H47.545V18.8578H47.5356ZM47.9462 20.3042H48.3662C48.8048 20.3042 49.0847 20.0616 49.0847 19.707C49.0847 19.2964 48.7861 19.1191 48.3568 19.1191C48.1609 19.1191 48.0209 19.1378 47.9556 19.1564V20.3042H47.9462Z" fill="#002565"/>
<path d="M50.0182 21.4888C50.2049 21.6101 50.4662 21.6941 50.7461 21.6941C51.166 21.6941 51.4087 21.4701 51.4087 21.1529C51.4087 20.8636 51.2407 20.6863 50.8114 20.5276C50.2982 20.341 49.9716 20.0704 49.9716 19.6224C49.9716 19.1279 50.3822 18.7639 50.9981 18.7639C51.3153 18.7639 51.558 18.8386 51.698 18.9226L51.586 19.2585C51.4833 19.1932 51.278 19.1092 50.9887 19.1092C50.5595 19.1092 50.3915 19.3705 50.3915 19.5851C50.3915 19.8837 50.5875 20.0237 51.0167 20.1917C51.5486 20.397 51.8193 20.6583 51.8193 21.1249C51.8193 21.6101 51.4647 22.0394 50.7181 22.0394C50.4102 22.0394 50.0836 21.9461 49.9062 21.8341L50.0182 21.4888Z" fill="#002565"/>
<path d="M52.8921 20.9846L52.5654 21.9831H52.1455L53.228 18.8196H53.7132L54.7957 21.9831H54.3571L54.0212 20.9846H52.8921ZM53.9372 20.6673L53.6199 19.7528C53.5453 19.5475 53.4986 19.3608 53.452 19.1742H53.4426C53.396 19.3608 53.3493 19.5568 53.284 19.7434L52.976 20.6579H53.9372V20.6673Z" fill="#002565"/>
<path d="M59.1595 8.25889H64.8575V10.5249H59.1595V8.25889ZM85.1315 0.129888V16.0359H82.5245V5.76189C82.5245 5.35122 82.5465 4.90755 82.5905 4.43089L77.7836 13.4619C77.5562 13.8946 77.2079 14.1109 76.7385 14.1109H76.3205C75.8512 14.1109 75.5029 13.8946 75.2755 13.4619L70.4135 4.39789C70.4355 4.63989 70.4539 4.87822 70.4685 5.11289C70.4832 5.34756 70.4905 5.56389 70.4905 5.76189V16.0359H67.8835V0.129888H70.1165C70.2485 0.129888 70.3622 0.133554 70.4575 0.140888C70.5529 0.148221 70.6372 0.166554 70.7105 0.195888C70.7912 0.225221 70.8609 0.272888 70.9195 0.338888C70.9855 0.404888 71.0479 0.492887 71.1065 0.602887L75.8695 9.43589C75.9942 9.67056 76.1079 9.91256 76.2105 10.1619C76.3205 10.4112 76.4269 10.6679 76.5295 10.9319C76.6322 10.6606 76.7385 10.4002 76.8485 10.1509C76.9585 9.89422 77.0759 9.64855 77.2005 9.41389L81.8975 0.602887C81.9562 0.492887 82.0185 0.404888 82.0845 0.338888C82.1505 0.272888 82.2202 0.225221 82.2935 0.195888C82.3742 0.166554 82.4622 0.148221 82.5576 0.140888C82.6529 0.133554 82.7665 0.129888 82.8985 0.129888H85.1315ZM91.6504 2.48389V6.89489H97.2164V9.17189H91.6504V13.6709H98.7124V16.0359H88.6804V0.129888H98.7124V2.48389H91.6504ZM104.305 16.0359H101.335V0.129888H104.305V16.0359Z" fill="url(#paint11_linear_1433_416)"/>
<defs>
<linearGradient id="paint0_linear_1433_416" x1="48.2843" y1="15.5611" x2="48.2843" y2="1.29857" gradientUnits="userSpaceOnUse">
<stop stop-color="#C6C7DB"/>
<stop offset="0.1041" stop-color="#BFC0D5"/>
<stop offset="0.2559" stop-color="#ACACC2"/>
<stop offset="0.437" stop-color="#8C8CA5"/>
<stop offset="0.6406" stop-color="#60607C"/>
<stop offset="0.8602" stop-color="#282848"/>
<stop offset="1" stop-color="#000023"/>
</linearGradient>
<linearGradient id="paint1_linear_1433_416" x1="45.218" y1="7.50996" x2="49.5473" y2="-0.300295" gradientUnits="userSpaceOnUse">
<stop stop-color="#000023"/>
<stop offset="1" stop-color="#E3E3EE"/>
</linearGradient>
<linearGradient id="paint2_linear_1433_416" x1="6.22532" y1="15.3647" x2="13.5622" y2="0.321933" gradientUnits="userSpaceOnUse">
<stop stop-color="#000023"/>
<stop offset="0.1459" stop-color="#040426"/>
<stop offset="0.2802" stop-color="#0F0F30"/>
<stop offset="0.4101" stop-color="#222241"/>
<stop offset="0.5371" stop-color="#3C3C59"/>
<stop offset="0.6623" stop-color="#5E5E77"/>
<stop offset="0.7859" stop-color="#87879C"/>
<stop offset="0.9059" stop-color="#B8B8C7"/>
<stop offset="1" stop-color="#E3E3EE"/>
</linearGradient>
<linearGradient id="paint3_linear_1433_416" x1="1.63769" y1="12.636" x2="18.1713" y2="3.09033" gradientUnits="userSpaceOnUse">
<stop stop-color="#E3E3EE"/>
<stop offset="0.137" stop-color="#B9B9C8"/>
<stop offset="0.3684" stop-color="#78788E"/>
<stop offset="0.5788" stop-color="#444460"/>
<stop offset="0.7608" stop-color="#1F1F3F"/>
<stop offset="0.9074" stop-color="#08082A"/>
<stop offset="1" stop-color="#000023"/>
</linearGradient>
<linearGradient id="paint4_linear_1433_416" x1="1.87073" y1="12.5034" x2="17.9426" y2="3.22431" gradientUnits="userSpaceOnUse">
<stop stop-color="#E3E3EE"/>
<stop offset="0.1658" stop-color="#B0B0C0"/>
<stop offset="0.3859" stop-color="#727289"/>
<stop offset="0.5874" stop-color="#41415D"/>
<stop offset="0.7632" stop-color="#1D1D3D"/>
<stop offset="0.9067" stop-color="#08082A"/>
<stop offset="1" stop-color="#000023"/>
</linearGradient>
<linearGradient id="paint5_linear_1433_416" x1="24.0375" y1="13.6245" x2="36.8139" y2="0.394178" gradientUnits="userSpaceOnUse">
<stop stop-color="#000023"/>
<stop offset="0.1018" stop-color="#09092B"/>
<stop offset="0.267" stop-color="#212141"/>
<stop offset="0.4752" stop-color="#484866"/>
<stop offset="0.7179" stop-color="#7E7F98"/>
<stop offset="0.9872" stop-color="#C3C4D8"/>
<stop offset="1" stop-color="#C6C7DB"/>
</linearGradient>
<linearGradient id="paint6_linear_1433_416" x1="22.5635" y1="12.2138" x2="38.8142" y2="2.83144" gradientUnits="userSpaceOnUse">
<stop stop-color="#C6C7DB"/>
<stop offset="0.1822" stop-color="#9192AA"/>
<stop offset="0.384" stop-color="#5E5E7A"/>
<stop offset="0.5735" stop-color="#353554"/>
<stop offset="0.7451" stop-color="#181839"/>
<stop offset="0.893" stop-color="#060629"/>
<stop offset="1" stop-color="#000023"/>
</linearGradient>
<linearGradient id="paint7_linear_1433_416" x1="22.7674" y1="12.0256" x2="38.4308" y2="2.98235" gradientUnits="userSpaceOnUse">
<stop stop-color="#C6C7DB"/>
<stop offset="0.1822" stop-color="#9192AA"/>
<stop offset="0.384" stop-color="#5E5E7A"/>
<stop offset="0.5735" stop-color="#353554"/>
<stop offset="0.7451" stop-color="#181839"/>
<stop offset="0.893" stop-color="#060629"/>
<stop offset="1" stop-color="#000023"/>
</linearGradient>
<linearGradient id="paint8_linear_1433_416" x1="23.015" y1="11.5544" x2="37.7567" y2="3.04326" gradientUnits="userSpaceOnUse">
<stop stop-color="#002565"/>
<stop offset="0.2883" stop-color="#002565"/>
<stop offset="0.3254" stop-color="#11306D"/>
<stop offset="0.3882" stop-color="#293E77"/>
<stop offset="0.4469" stop-color="#37477E"/>
<stop offset="0.4969" stop-color="#3C4A80"/>
<stop offset="0.5623" stop-color="#39487F"/>
<stop offset="0.6148" stop-color="#2F427A"/>
<stop offset="0.6628" stop-color="#1E3772"/>
<stop offset="0.7079" stop-color="#062968"/>
<stop offset="0.7178" stop-color="#002565"/>
<stop offset="1" stop-color="#002565"/>
</linearGradient>
<linearGradient id="paint9_linear_1433_416" x1="2.25335" y1="12.265" x2="17.5414" y2="3.43849" gradientUnits="userSpaceOnUse">
<stop stop-color="#002565"/>
<stop offset="0.2883" stop-color="#002565"/>
<stop offset="0.3254" stop-color="#11306D"/>
<stop offset="0.3882" stop-color="#293E77"/>
<stop offset="0.4469" stop-color="#37477E"/>
<stop offset="0.4969" stop-color="#3C4A80"/>
<stop offset="0.5623" stop-color="#39487F"/>
<stop offset="0.6148" stop-color="#2F427A"/>
<stop offset="0.6628" stop-color="#1E3772"/>
<stop offset="0.7079" stop-color="#062968"/>
<stop offset="0.7178" stop-color="#002565"/>
<stop offset="1" stop-color="#002565"/>
</linearGradient>
<linearGradient id="paint10_linear_1433_416" x1="38.8808" y1="12.4304" x2="53.3448" y2="4.07964" gradientUnits="userSpaceOnUse">
<stop stop-color="#002565"/>
<stop offset="0.2883" stop-color="#002565"/>
<stop offset="0.3254" stop-color="#11306D"/>
<stop offset="0.3882" stop-color="#293E77"/>
<stop offset="0.4469" stop-color="#37477E"/>
<stop offset="0.4969" stop-color="#3C4A80"/>
<stop offset="0.5623" stop-color="#39487F"/>
<stop offset="0.6148" stop-color="#2F427A"/>
<stop offset="0.6628" stop-color="#1E3772"/>
<stop offset="0.7079" stop-color="#062968"/>
<stop offset="0.7178" stop-color="#002565"/>
<stop offset="1" stop-color="#002565"/>
</linearGradient>
<linearGradient id="paint11_linear_1433_416" x1="65.471" y1="10.2908" x2="73.3415" y2="-5.43873" gradientUnits="userSpaceOnUse">
<stop stop-color="#002565"/>
<stop offset="0.2883" stop-color="#002565"/>
<stop offset="0.3254" stop-color="#11306D"/>
<stop offset="0.3882" stop-color="#293E77"/>
<stop offset="0.4469" stop-color="#37477E"/>
<stop offset="0.4969" stop-color="#3C4A80"/>
<stop offset="0.5623" stop-color="#39487F"/>
<stop offset="0.6148" stop-color="#2F427A"/>
<stop offset="0.6628" stop-color="#1E3772"/>
<stop offset="0.7079" stop-color="#062968"/>
<stop offset="0.7178" stop-color="#002565"/>
<stop offset="1" stop-color="#002565"/>
</linearGradient>
</defs>
</svg>
