<svg width="115" height="48" viewBox="0 0 115 48" fill="none" xmlns="http://www.w3.org/2000/svg">
<g id="Group">
<g id="Group_2">
<g id="Clip path group">
<mask id="mask0_936_1976" style="mask-type:luminance" maskUnits="userSpaceOnUse" x="83" y="3" width="32" height="29">
<g id="SVGID_2_">
<path id="Vector" d="M88.2084 5.63953V5.52555H88.8733H95.4462C96.0731 5.52555 96.643 5.54454 97.1939 5.60153C101.088 5.94348 103.064 7.50122 103.064 10.2368C103.064 13.3712 100.48 14.948 95.4082 14.948H88.2084V5.63953ZM93.6225 3.24593C87.7904 3.35991 83.1172 3.34091 83.1172 3.34091L83.0982 31.7032H88.2084V19.6402V19.2033H90.64L104.66 31.6842H114.5L107.984 26.0991L98.9986 19.1273C98.9226 19.0703 98.8846 18.9753 98.8846 18.8613C98.8846 18.8233 98.8846 18.7853 98.9036 18.7473L97.2699 18.1204C97.2699 18.1204 96.719 17.1706 98.4857 16.9426C100.252 16.7147 106.711 16.0878 106.711 10.0278C106.711 4.29075 100.195 3.22693 94.5723 3.22693C94.2304 3.22693 93.9264 3.22693 93.6225 3.24593Z" fill="white"/>
</g>
</mask>
<g mask="url(#mask0_936_1976)">
<path id="Vector_2" d="M114.481 3.22693H83.0982V31.6842H114.481V3.22693Z" fill="url(#paint0_linear_936_1976)"/>
</g>
</g>
</g>
<g id="Group_3">
<g id="Clip path group_2">
<mask id="mask1_936_1976" style="mask-type:luminance" maskUnits="userSpaceOnUse" x="80" y="1" width="35" height="31">
<g id="SVGID_5_">
<path id="Vector_3" d="M88.2084 5.63954V5.52555H95.4082C100.48 5.52555 103.064 7.12129 103.064 10.2368C103.064 13.3712 100.48 14.948 95.4082 14.948H88.2084V5.63954ZM80.9136 1.27026V31.6842H88.1894V19.6212V19.2033H90.621L104.641 31.6842H114.481L99.6825 19.0133C101.924 18.7853 103.672 18.3674 105.496 17.6075C108.668 16.2778 110.644 13.4662 110.644 10.2558C110.644 7.0453 108.668 4.23377 105.496 2.90399C102.608 1.70719 99.8724 1.27026 95.0093 1.27026H80.9136Z" fill="white"/>
</g>
</mask>
<g mask="url(#mask1_936_1976)">
<path id="Vector_4" d="M84.656 1.28926L80.6667 1.27026L80.5147 32.0071H88.3794L88.2274 19.2033L84.0291 15.8408L84.656 1.28926Z" fill="#000023"/>
</g>
</g>
<g id="Clip path group_3">
<mask id="mask2_936_1976" style="mask-type:luminance" maskUnits="userSpaceOnUse" x="80" y="1" width="35" height="31">
<g id="SVGID_5__2">
<path id="Vector_5" d="M88.2084 5.63954V5.52555H95.4082C100.48 5.52555 103.064 7.12129 103.064 10.2368C103.064 13.3712 100.48 14.948 95.4082 14.948H88.2084V5.63954ZM80.9136 1.27026V31.6842H88.1894V19.6212V19.2033H90.621L104.641 31.6842H114.481L99.6825 19.0133C101.924 18.7853 103.672 18.3674 105.496 17.6075C108.668 16.2778 110.644 13.4662 110.644 10.2558C110.644 7.0453 108.668 4.23377 105.496 2.90399C102.608 1.70719 99.8724 1.27026 95.0093 1.27026H80.9136Z" fill="white"/>
</g>
</mask>
<g mask="url(#mask2_936_1976)">
<g id="Group_4">
<g id="Group_5">
<g id="Clip path group_4">
<mask id="mask3_936_1976" style="mask-type:luminance" maskUnits="userSpaceOnUse" x="86" y="3" width="3" height="14">
<g id="SVGID_10_">
<path id="Vector_6" d="M88.6263 3.62585H86.3277V16.8856H88.6263V3.62585Z" fill="white"/>
</g>
</mask>
<g mask="url(#mask3_936_1976)">
<g id="Group_6">
<g id="Clip path group_5">
<mask id="mask4_936_1976" style="mask-type:luminance" maskUnits="userSpaceOnUse" x="86" y="3" width="3" height="14">
<g id="SVGID_12_">
<path id="Vector_7" d="M88.6263 3.62585H86.3277V16.8856H88.6263V3.62585Z" fill="white"/>
</g>
</mask>
<g mask="url(#mask4_936_1976)">
<path id="Vector_8" d="M88.6073 5.79149L86.3277 3.62585L86.4227 16.8856L88.5313 14.644C88.4363 14.568 88.7023 5.82949 88.6073 5.79149Z" fill="#9193B6"/>
</g>
</g>
</g>
</g>
</g>
</g>
</g>
</g>
</g>
<g id="Clip path group_6">
<mask id="mask5_936_1976" style="mask-type:luminance" maskUnits="userSpaceOnUse" x="80" y="1" width="35" height="31">
<g id="SVGID_5__3">
<path id="Vector_9" d="M88.2084 5.63954V5.52555H95.4082C100.48 5.52555 103.064 7.12129 103.064 10.2368C103.064 13.3712 100.48 14.948 95.4082 14.948H88.2084V5.63954ZM80.9136 1.27026V31.6842H88.1894V19.6212V19.2033H90.621L104.641 31.6842H114.481L99.6825 19.0133C101.924 18.7853 103.672 18.3674 105.496 17.6075C108.668 16.2778 110.644 13.4662 110.644 10.2558C110.644 7.0453 108.668 4.23377 105.496 2.90399C102.608 1.70719 99.8724 1.27026 95.0093 1.27026H80.9136Z" fill="white"/>
</g>
</mask>
<g mask="url(#mask5_936_1976)">
<g id="Group_7">
<g id="Group_8">
<g id="Clip path group_7">
<mask id="mask6_936_1976" style="mask-type:luminance" maskUnits="userSpaceOnUse" x="85" y="17" width="5" height="16">
<g id="SVGID_17_">
<path id="Vector_10" d="M89.3672 17.2845H85.9478V32.9189H89.3672V17.2845Z" fill="white"/>
</g>
</mask>
<g mask="url(#mask6_936_1976)">
<g id="Group_9">
<g id="Clip path group_8">
<mask id="mask7_936_1976" style="mask-type:luminance" maskUnits="userSpaceOnUse" x="85" y="17" width="5" height="16">
<g id="SVGID_19_">
<path id="Vector_11" d="M89.3672 17.2845H85.9478V32.9189H89.3672V17.2845Z" fill="white"/>
</g>
</mask>
<g mask="url(#mask7_936_1976)">
<path id="Vector_12" d="M85.9478 29.4425L89.3672 32.9189C89.3672 32.9189 88.6453 19.6022 88.7213 19.0702L86.4227 17.2845L85.9478 29.4425Z" fill="#787CA5"/>
</g>
</g>
</g>
</g>
</g>
</g>
</g>
</g>
</g>
<g id="Clip path group_9">
<mask id="mask8_936_1976" style="mask-type:luminance" maskUnits="userSpaceOnUse" x="80" y="1" width="35" height="31">
<g id="SVGID_5__4">
<path id="Vector_13" d="M88.2084 5.63954V5.52555H95.4082C100.48 5.52555 103.064 7.12129 103.064 10.2368C103.064 13.3712 100.48 14.948 95.4082 14.948H88.2084V5.63954ZM80.9136 1.27026V31.6842H88.1894V19.6212V19.2033H90.621L104.641 31.6842H114.481L99.6825 19.0133C101.924 18.7853 103.672 18.3674 105.496 17.6075C108.668 16.2778 110.644 13.4662 110.644 10.2558C110.644 7.0453 108.668 4.23377 105.496 2.90399C102.608 1.70719 99.8724 1.27026 95.0093 1.27026H80.9136Z" fill="white"/>
</g>
</mask>
<g mask="url(#mask8_936_1976)">
<g id="Group_10">
<g id="Group_11">
<g id="Clip path group_10">
<mask id="mask9_936_1976" style="mask-type:luminance" maskUnits="userSpaceOnUse" x="80" y="0" width="32" height="20">
<g id="SVGID_24_">
<path id="Vector_14" d="M111.233 0.681396H80.2107V19.6592H111.233V0.681396Z" fill="white"/>
</g>
</mask>
<g mask="url(#mask9_936_1976)">
<g id="Group_12">
<g id="Clip path group_11">
<mask id="mask10_936_1976" style="mask-type:luminance" maskUnits="userSpaceOnUse" x="80" y="0" width="32" height="20">
<g id="SVGID_26_">
<path id="Vector_15" d="M80.2107 0.681396L82.9083 3.6449C82.9083 3.6449 89.3672 3.43594 93.5085 3.35995C93.8315 3.35995 94.1544 3.34095 94.4773 3.34095C102.703 3.34095 106.692 5.54459 106.692 10.0848C106.692 15.8979 100.67 16.6767 98.6946 16.9237L98.5237 16.9427C97.6308 17.0567 97.0799 17.3606 96.833 17.8545C96.567 18.4054 99.7395 19.6212 99.7395 19.6212C99.7395 19.6212 103.976 18.9184 105.913 18.1015C109.219 16.6957 111.271 13.7132 111.271 10.3128C111.271 6.91236 109.219 3.92985 105.913 2.52409C102.893 1.2323 100.024 0.776381 94.9523 0.776381L80.2107 0.681396Z" fill="white"/>
</g>
</mask>
<g mask="url(#mask10_936_1976)">
<path id="Vector_16" d="M72.1561 15.195L87.5055 -12.4834L119.287 5.14566L103.938 32.8051L72.1561 15.195Z" fill="url(#paint1_linear_936_1976)"/>
</g>
</g>
</g>
</g>
</g>
</g>
</g>
</g>
</g>
<g id="Clip path group_12">
<mask id="mask11_936_1976" style="mask-type:luminance" maskUnits="userSpaceOnUse" x="80" y="1" width="35" height="31">
<g id="SVGID_5__5">
<path id="Vector_17" d="M88.2084 5.63954V5.52555H95.4082C100.48 5.52555 103.064 7.12129 103.064 10.2368C103.064 13.3712 100.48 14.948 95.4082 14.948H88.2084V5.63954ZM80.9136 1.27026V31.6842H88.1894V19.6212V19.2033H90.621L104.641 31.6842H114.481L99.6825 19.0133C101.924 18.7853 103.672 18.3674 105.496 17.6075C108.668 16.2778 110.644 13.4662 110.644 10.2558C110.644 7.0453 108.668 4.23377 105.496 2.90399C102.608 1.70719 99.8724 1.27026 95.0093 1.27026H80.9136Z" fill="white"/>
</g>
</mask>
<g mask="url(#mask11_936_1976)">
<g id="Group_13">
<g id="Group_14">
<g id="Clip path group_13">
<mask id="mask12_936_1976" style="mask-type:luminance" maskUnits="userSpaceOnUse" x="85" y="16" width="32" height="17">
<g id="SVGID_32_">
<path id="Vector_18" d="M116.172 16.7146H85.3969V32.311H116.172V16.7146Z" fill="white"/>
</g>
</mask>
<g mask="url(#mask12_936_1976)">
<g id="Group_15">
<g id="Clip path group_14">
<mask id="mask13_936_1976" style="mask-type:luminance" maskUnits="userSpaceOnUse" x="85" y="16" width="32" height="17">
<g id="SVGID_34_">
<path id="Vector_19" d="M116.172 16.7146H85.3969V32.311H116.172V16.7146Z" fill="white"/>
</g>
</mask>
<g mask="url(#mask13_936_1976)">
<path id="Vector_20" d="M103.919 32.311L88.9113 19.6781L85.3969 17.1325L86.8976 16.9616L90.716 16.7146L97.3839 17.6454L99.3785 18.8232L116.172 32.33L103.919 32.311Z" fill="#000023"/>
</g>
</g>
</g>
</g>
</g>
</g>
</g>
</g>
</g>
<g id="Clip path group_15">
<mask id="mask14_936_1976" style="mask-type:luminance" maskUnits="userSpaceOnUse" x="80" y="1" width="35" height="31">
<g id="SVGID_5__6">
<path id="Vector_21" d="M88.2084 5.63954V5.52555H95.4082C100.48 5.52555 103.064 7.12129 103.064 10.2368C103.064 13.3712 100.48 14.948 95.4082 14.948H88.2084V5.63954ZM80.9136 1.27026V31.6842H88.1894V19.6212V19.2033H90.621L104.641 31.6842H114.481L99.6825 19.0133C101.924 18.7853 103.672 18.3674 105.496 17.6075C108.668 16.2778 110.644 13.4662 110.644 10.2558C110.644 7.0453 108.668 4.23377 105.496 2.90399C102.608 1.70719 99.8724 1.27026 95.0093 1.27026H80.9136Z" fill="white"/>
</g>
</mask>
<g mask="url(#mask14_936_1976)">
<g id="Group_16">
<g id="Group_17">
<g id="Clip path group_16">
<mask id="mask15_936_1976" style="mask-type:luminance" maskUnits="userSpaceOnUse" x="93" y="17" width="23" height="16">
<g id="SVGID_39_">
<path id="Vector_22" d="M115.944 17.7595H93.2426V32.3681H115.944V17.7595Z" fill="white"/>
</g>
</mask>
<g mask="url(#mask15_936_1976)">
<g id="Group_18">
<g id="Clip path group_17">
<mask id="mask16_936_1976" style="mask-type:luminance" maskUnits="userSpaceOnUse" x="93" y="17" width="23" height="16">
<g id="SVGID_41_">
<path id="Vector_23" d="M115.944 17.7595H93.2426V32.3681H115.944V17.7595Z" fill="white"/>
</g>
</mask>
<g mask="url(#mask16_936_1976)">
<path id="Vector_24" d="M109.428 29.8605L93.2426 17.7595L96.9659 17.9685L100.537 19.2983L103.083 19.8302L114.424 30.0695L115.944 32.3491L109.428 29.8605Z" fill="#9193B6"/>
</g>
</g>
</g>
</g>
</g>
</g>
</g>
</g>
</g>
<g id="Clip path group_18">
<mask id="mask17_936_1976" style="mask-type:luminance" maskUnits="userSpaceOnUse" x="80" y="1" width="35" height="31">
<g id="SVGID_5__7">
<path id="Vector_25" d="M88.2084 5.63954V5.52555H95.4082C100.48 5.52555 103.064 7.12129 103.064 10.2368C103.064 13.3712 100.48 14.948 95.4082 14.948H88.2084V5.63954ZM80.9136 1.27026V31.6842H88.1894V19.6212V19.2033H90.621L104.641 31.6842H114.481L99.6825 19.0133C101.924 18.7853 103.672 18.3674 105.496 17.6075C108.668 16.2778 110.644 13.4662 110.644 10.2558C110.644 7.0453 108.668 4.23377 105.496 2.90399C102.608 1.70719 99.8724 1.27026 95.0093 1.27026H80.9136Z" fill="white"/>
</g>
</mask>
<g mask="url(#mask17_936_1976)">
<g id="Group_19">
<g id="Group_20">
<g id="Clip path group_19">
<mask id="mask18_936_1976" style="mask-type:luminance" maskUnits="userSpaceOnUse" x="82" y="2" width="29" height="29">
<g id="SVGID_46_">
<path id="Vector_26" d="M110.853 2.61902H82.2624V30.3354H110.853V2.61902Z" fill="white"/>
</g>
</mask>
<g mask="url(#mask18_936_1976)">
<g id="Group_21">
<g id="Clip path group_20">
<mask id="mask19_936_1976" style="mask-type:luminance" maskUnits="userSpaceOnUse" x="82" y="2" width="29" height="29">
<g id="SVGID_48_">
<path id="Vector_27" d="M110.853 2.61902H82.2624V30.3354H110.853V2.61902Z" fill="white"/>
</g>
</mask>
<g mask="url(#mask19_936_1976)">
<g id="Group_22">
<g id="Group_23">
<g id="Clip path group_21">
<mask id="mask20_936_1976" style="mask-type:luminance" maskUnits="userSpaceOnUse" x="82" y="2" width="29" height="29">
<g id="SVGID_52_">
<path id="Vector_28" d="M110.853 2.61902H82.2624V30.3354H110.853V2.61902Z" fill="white"/>
</g>
</mask>
<g mask="url(#mask20_936_1976)">
<g id="Group_24">
<g id="Clip path group_22">
<mask id="mask21_936_1976" style="mask-type:luminance" maskUnits="userSpaceOnUse" x="82" y="2" width="29" height="29">
<g id="SVGID_54_">
<path id="Vector_29" d="M110.853 2.61902H82.2624V30.3354H110.853V2.61902Z" fill="white"/>
</g>
</mask>
<g mask="url(#mask21_936_1976)">
<path id="Vector_30" d="M105.154 30.3354L91.1339 17.8545H87.8284C87.2775 17.8545 86.8406 18.3104 86.8406 18.8423V30.3354H82.2434V2.61902H94.9902C99.7015 2.61902 102.209 2.99896 104.964 4.13877C107.623 5.25958 109.276 7.59619 109.276 10.2368C109.276 12.8963 107.623 15.2329 104.964 16.3347C102.969 17.1706 101.107 17.5695 98.3717 17.7405C97.9348 17.7785 97.5928 18.1394 97.5928 18.5764C97.5928 18.8233 97.7068 19.0513 97.8778 19.2033L110.853 30.3164H105.154V30.3354ZM86.8596 15.3089C86.8596 15.8598 87.3155 16.3157 87.8664 16.3157H95.4082C103.235 16.3157 104.413 12.5164 104.413 10.2557C104.413 7.99512 103.235 4.19576 95.4082 4.19576H87.8474C87.3155 4.21475 86.8786 4.63268 86.8786 5.18359V5.29757V15.1949L86.8596 15.3089Z" fill="#002565"/>
</g>
</g>
</g>
</g>
</g>
</g>
</g>
</g>
</g>
</g>
</g>
</g>
</g>
</g>
</g>
</g>
</g>
<g id="Group_25">
<g id="Clip path group_23">
<mask id="mask22_936_1976" style="mask-type:luminance" maskUnits="userSpaceOnUse" x="0" y="0" width="41" height="33">
<g id="SVGID_56_">
<path id="Vector_31" d="M9.02958 16.5627C9.02958 9.7048 13.4748 5.44951 20.6556 5.44951C27.8174 5.44951 32.2817 9.7048 32.2817 16.5627C32.2817 23.4205 27.8364 27.6758 20.6556 27.6758C13.4748 27.6758 9.02958 23.4205 9.02958 16.5627ZM0.5 16.5627C0.5 25.9851 8.59265 32.33 20.6366 32.33C32.6806 32.33 40.7733 26.0041 40.7733 16.5627C40.7733 7.14023 32.6806 0.795288 20.6366 0.795288C8.59265 0.795288 0.5 7.14023 0.5 16.5627Z" fill="white"/>
</g>
</mask>
<g mask="url(#mask22_936_1976)">
<path id="Vector_32" d="M-11.9239 26.27L8.25072 -15.0671L53.1972 6.85521L33.0416 48.1923L-11.9239 26.27Z" fill="url(#paint2_linear_936_1976)"/>
</g>
</g>
</g>
<g id="Group_26">
<g id="Clip path group_24">
<mask id="mask23_936_1976" style="mask-type:luminance" maskUnits="userSpaceOnUse" x="4" y="3" width="33" height="28">
<g id="SVGID_59_">
<path id="Vector_33" d="M9.02959 16.5627C9.02959 9.70483 13.4749 5.44954 20.6557 5.44954C27.8175 5.44954 32.2817 9.70483 32.2817 16.5627C32.2817 23.4205 27.8365 27.6758 20.6557 27.6758C13.4749 27.6758 9.02959 23.4205 9.02959 16.5627ZM4.56534 16.5437C4.56534 24.0094 11.8031 30.0694 20.7316 30.0694C29.6602 30.0694 36.8979 24.0094 36.8979 16.5437C36.8979 9.07793 29.6602 3.01794 20.7316 3.01794C11.8031 3.03694 4.56534 9.07793 4.56534 16.5437Z" fill="white"/>
</g>
</mask>
<g mask="url(#mask23_936_1976)">
<path id="Vector_34" d="M-7.13672 9.78075L28.8243 -10.9828L48.619 23.3065L12.658 44.07L-7.13672 9.78075Z" fill="url(#paint3_linear_936_1976)"/>
</g>
</g>
</g>
<g id="Group_27">
<g id="Clip path group_25">
<mask id="mask24_936_1976" style="mask-type:luminance" maskUnits="userSpaceOnUse" x="4" y="3" width="33" height="28">
<g id="SVGID_62_">
<path id="Vector_35" d="M8.47869 16.5627C8.47869 9.24891 13.3799 4.91763 20.6367 4.91763C27.8934 4.91763 32.7946 9.24891 32.7946 16.5627C32.7946 23.8765 27.8934 28.2077 20.6367 28.2077C13.3799 28.2077 8.47869 23.8765 8.47869 16.5627ZM4.56534 16.5437C4.56534 24.0094 11.8031 30.0694 20.7316 30.0694C29.6602 30.0694 36.8979 24.0094 36.8979 16.5437C36.8979 9.07793 29.6602 3.01794 20.7316 3.01794C11.8031 3.03694 4.56534 9.07793 4.56534 16.5437Z" fill="white"/>
</g>
</mask>
<g mask="url(#mask24_936_1976)">
<path id="Vector_36" d="M12.658 44.07L48.619 23.3065L28.8243 -10.9828L-7.13672 9.78075L12.658 44.07Z" fill="url(#paint4_linear_936_1976)"/>
</g>
</g>
</g>
<g id="Group_28">
<g id="Clip path group_26">
<mask id="mask25_936_1976" style="mask-type:luminance" maskUnits="userSpaceOnUse" x="43" y="0" width="36" height="33">
<g id="SVGID_65_">
<path id="Vector_37" d="M43.5468 16.4868C43.5468 25.9662 51.7725 32.3301 64.0064 32.3301C69.3256 32.3301 73.7328 31.3423 77.5132 29.2906L78.1591 28.9487L74.1507 24.8454L73.7898 25.0543C70.8833 26.7451 68.1097 27.5049 64.7853 27.5049C64.5763 27.5049 64.3484 27.5049 64.1204 27.4859C56.9396 27.258 52.1144 22.8507 52.1144 16.4868C52.1144 10.1228 56.9396 5.69656 64.1204 5.48759C64.3484 5.48759 64.5763 5.48759 64.7853 5.48759C68.1097 5.48759 70.8833 6.24747 73.8088 7.95718L74.1697 8.16615L77.6652 4.57575L78.1781 4.06283L77.5512 3.72089C73.7708 1.66923 69.3445 0.662396 64.0064 0.662396C51.7725 0.643399 43.5468 7.00734 43.5468 16.4868Z" fill="white"/>
</g>
</mask>
<g mask="url(#mask25_936_1976)">
<path id="Vector_38" d="M27.7225 17.0378L60.2641 -16.6626L94.0214 15.936L61.4799 49.6364L27.7225 17.0378Z" fill="url(#paint5_linear_936_1976)"/>
</g>
</g>
</g>
<g id="Group_29">
<g id="Clip path group_27">
<mask id="mask26_936_1976" style="mask-type:luminance" maskUnits="userSpaceOnUse" x="47" y="3" width="30" height="28">
<g id="SVGID_68_">
<path id="Vector_39" d="M47.0043 16.6768C47.0043 24.1996 54.907 30.2975 64.6523 30.2975C69.0976 30.2975 73.1439 29.0247 76.2404 26.9541L74.1697 24.8264L73.8088 25.0354C70.9023 26.7261 68.1287 27.486 64.8043 27.486C64.5953 27.486 64.3674 27.486 64.1394 27.467C56.9586 27.239 52.1334 22.8318 52.1334 16.4678C52.1334 10.1039 56.9586 5.67764 64.1394 5.46867C64.3674 5.46867 64.5953 5.46867 64.8043 5.46867C68.1287 5.46867 70.9023 6.22855 73.8278 7.93826L74.1887 8.14723L76.0124 6.28554C72.9539 4.29087 68.9836 3.07507 64.6523 3.07507C54.888 3.07507 47.0043 9.17306 47.0043 16.6768Z" fill="white"/>
</g>
</mask>
<g mask="url(#mask26_936_1976)">
<path id="Vector_40" d="M35.2072 9.87593L68.9266 -9.59583L88.0184 23.4967L54.2991 42.9684L35.2072 9.87593Z" fill="url(#paint6_linear_936_1976)"/>
</g>
</g>
</g>
<g id="Group_30">
<g id="Clip path group_28">
<mask id="mask27_936_1976" style="mask-type:luminance" maskUnits="userSpaceOnUse" x="47" y="3" width="29" height="28">
<g id="SVGID_71_">
<path id="Vector_41" d="M47.0043 16.6768C47.0043 24.1996 54.907 30.2975 64.6523 30.2975C68.8696 30.2975 72.745 29.1577 75.7845 27.258L74.0938 25.5103C71.1302 27.239 68.1098 28.1509 64.1394 28.0369C57.0726 27.8279 51.6205 23.5347 51.6205 16.4868C51.6205 9.43901 57.0726 5.14573 64.1394 4.93676C68.1098 4.82278 71.1492 5.73463 74.1127 7.46334L75.5565 5.98159C72.574 4.15789 68.7936 3.07507 64.6523 3.07507C54.888 3.07507 47.0043 9.17306 47.0043 16.6768Z" fill="white"/>
</g>
</mask>
<g mask="url(#mask27_936_1976)">
<path id="Vector_42" d="M35.2072 9.87595L68.5657 -9.38684L87.5625 23.4967L54.1851 42.7595L35.2072 9.87595Z" fill="url(#paint7_linear_936_1976)"/>
</g>
</g>
</g>
<g id="Group_31">
<g id="Group_32">
<g id="Group_33">
<g id="Clip path group_29">
<mask id="mask28_936_1976" style="mask-type:luminance" maskUnits="userSpaceOnUse" x="45" y="2" width="32" height="29">
<g id="SVGID_77_">
<path id="Vector_43" d="M76.0884 2.10608H45.0096V30.8673H76.0884V2.10608Z" fill="white"/>
</g>
</mask>
<g mask="url(#mask28_936_1976)">
<g id="Group_34">
<g id="Clip path group_30">
<mask id="mask29_936_1976" style="mask-type:luminance" maskUnits="userSpaceOnUse" x="45" y="2" width="32" height="29">
<g id="SVGID_79_">
<path id="Vector_44" d="M76.0884 2.10608H45.0096V30.8673H76.0884V2.10608Z" fill="white"/>
</g>
</mask>
<g mask="url(#mask29_936_1976)">
<g id="Group_35">
<g id="Group_36">
<g id="Clip path group_31">
<mask id="mask30_936_1976" style="mask-type:luminance" maskUnits="userSpaceOnUse" x="45" y="2" width="32" height="29">
<g id="SVGID_83_">
<path id="Vector_45" d="M76.0884 2.10608H45.0096V30.8673H76.0884V2.10608Z" fill="white"/>
</g>
</mask>
<g mask="url(#mask30_936_1976)">
<g id="Group_37">
<g id="Clip path group_32">
<mask id="mask31_936_1976" style="mask-type:luminance" maskUnits="userSpaceOnUse" x="45" y="2" width="32" height="29">
<g id="SVGID_85_">
<path id="Vector_46" d="M76.0884 2.10608H45.0096V30.8673H76.0884V2.10608Z" fill="white"/>
</g>
</mask>
<g mask="url(#mask31_936_1976)">
<path id="Vector_47" d="M64.0064 30.8673C58.4403 30.8673 53.6721 29.4995 50.2337 26.9159C46.8143 24.3324 44.9906 20.742 44.9906 16.4867C44.9906 12.2314 46.7953 8.64099 50.2337 6.05742C53.6721 3.47385 58.4213 2.10608 64.0064 2.10608C68.5846 2.10608 72.46 2.82796 76.0884 4.57567L74.2267 6.49435C70.9972 4.70865 68.1477 4.00576 64.8043 4.00576C64.5763 4.00576 64.3293 4.00576 64.0824 4.02476C56.0467 4.27172 50.6516 9.28688 50.6516 16.4867C50.6516 23.7055 56.0467 28.7206 64.0824 28.9486C64.3293 28.9486 64.5573 28.9676 64.7853 28.9676C68.1287 28.9676 70.9782 28.2457 73.9037 26.669L75.7464 28.5497C72.422 30.1074 68.5846 30.8673 64.0064 30.8673Z" fill="#002565"/>
</g>
</g>
</g>
</g>
</g>
</g>
</g>
</g>
</g>
</g>
</g>
</g>
</g>
</g>
<g id="Group_38">
<g id="Group_39">
<g id="Clip path group_33">
<mask id="mask32_936_1976" style="mask-type:luminance" maskUnits="userSpaceOnUse" x="1" y="2" width="39" height="29">
<g id="SVGID_90_">
<path id="Vector_48" d="M39.3105 2.25806H1.96277V30.8483H39.3105V2.25806Z" fill="white"/>
</g>
</mask>
<g mask="url(#mask32_936_1976)">
<g id="Group_40">
<g id="Clip path group_34">
<mask id="mask33_936_1976" style="mask-type:luminance" maskUnits="userSpaceOnUse" x="1" y="2" width="39" height="29">
<g id="SVGID_92_">
<path id="Vector_49" d="M39.3105 2.25806H1.96277V30.8483H39.3105V2.25806Z" fill="white"/>
</g>
</mask>
<g mask="url(#mask33_936_1976)">
<g id="Group_41">
<g id="Group_42">
<g id="Clip path group_35">
<mask id="mask34_936_1976" style="mask-type:luminance" maskUnits="userSpaceOnUse" x="1" y="2" width="39" height="29">
<g id="SVGID_96_">
<path id="Vector_50" d="M39.3105 2.25806H1.96277V30.8483H39.3105V2.25806Z" fill="white"/>
</g>
</mask>
<g mask="url(#mask34_936_1976)">
<g id="Group_43">
<g id="Clip path group_36">
<mask id="mask35_936_1976" style="mask-type:luminance" maskUnits="userSpaceOnUse" x="1" y="2" width="39" height="29">
<g id="SVGID_98_">
<path id="Vector_51" d="M39.3105 2.25806H1.96277V30.8483H39.3105V2.25806Z" fill="white"/>
</g>
</mask>
<g mask="url(#mask35_936_1976)">
<path id="Vector_52" d="M20.6367 30.8673C15.1656 30.8673 10.4734 29.5185 7.11091 26.9349C3.74847 24.3704 1.96277 20.78 1.96277 16.5627C1.96277 12.3264 3.74847 8.75497 7.11091 6.1904C10.4923 3.62583 15.1656 2.25806 20.6367 2.25806C26.1077 2.25806 30.8 3.60683 34.1624 6.1904C37.5248 8.75497 39.3105 12.3454 39.3105 16.5627C39.3105 20.78 37.5248 24.3704 34.1624 26.9349C30.8 29.4995 26.1267 30.8673 20.6367 30.8673ZM20.6367 3.98677C12.696 3.98677 7.54784 8.92595 7.54784 16.5627C7.54784 24.1994 12.677 29.1386 20.6367 29.1386C28.5773 29.1386 33.7255 24.1994 33.7255 16.5627C33.7255 8.92595 28.5963 3.98677 20.6367 3.98677Z" fill="#002565"/>
</g>
</g>
</g>
</g>
</g>
</g>
</g>
</g>
</g>
</g>
</g>
</g>
</g>
</g>
<g id="Group_44">
<g id="Group_45">
<g id="Clip path group_37">
<mask id="mask36_936_1976" style="mask-type:luminance" maskUnits="userSpaceOnUse" x="45" y="2" width="32" height="29">
<g id="SVGID_103_">
<path id="Vector_53" d="M76.0884 2.10608H45.0096V30.8673H76.0884V2.10608Z" fill="white"/>
</g>
</mask>
<g mask="url(#mask36_936_1976)">
<g id="Group_46">
<g id="Clip path group_38">
<mask id="mask37_936_1976" style="mask-type:luminance" maskUnits="userSpaceOnUse" x="45" y="2" width="32" height="29">
<g id="SVGID_105_">
<path id="Vector_54" d="M50.2527 6.05738C46.8333 8.64095 45.0096 12.2313 45.0096 16.4866C45.0096 20.7229 46.8143 24.3323 50.2527 26.9159C53.6911 29.4995 58.4403 30.8672 64.0254 30.8672C68.5847 30.8672 72.441 30.1074 75.7465 28.5496L73.9038 26.6689C70.9783 28.2457 68.1477 28.9676 64.7853 28.9676C64.5573 28.9676 64.3104 28.9676 64.0824 28.9486C56.0467 28.7016 50.6516 23.6864 50.6516 16.4866C50.6516 9.26784 56.0467 4.25268 64.0824 4.02472C64.3294 4.02472 64.5573 4.00572 64.8043 4.00572C68.1667 4.00572 70.9972 4.7276 74.2267 6.4943L76.0884 4.57562C72.46 2.82791 68.5847 2.08704 64.0064 2.08704C58.4403 2.10603 53.6911 3.47381 50.2527 6.05738Z" fill="white"/>
</g>
</mask>
<g mask="url(#mask37_936_1976)">
<path id="Vector_55" d="M32.5667 9.30581L68.3187 -11.3438L88.5503 23.6674L52.7793 44.317L32.5667 9.30581Z" fill="url(#paint8_linear_936_1976)"/>
</g>
</g>
</g>
</g>
</g>
</g>
</g>
<g id="Group_47">
<g id="Group_48">
<g id="Clip path group_39">
<mask id="mask38_936_1976" style="mask-type:luminance" maskUnits="userSpaceOnUse" x="1" y="2" width="39" height="29">
<g id="SVGID_111_">
<path id="Vector_56" d="M39.3105 2.25806H1.96277V30.8483H39.3105V2.25806Z" fill="white"/>
</g>
</mask>
<g mask="url(#mask38_936_1976)">
<g id="Group_49">
<g id="Clip path group_40">
<mask id="mask39_936_1976" style="mask-type:luminance" maskUnits="userSpaceOnUse" x="1" y="2" width="39" height="29">
<g id="SVGID_113_">
<path id="Vector_57" d="M7.56683 16.5627C7.56683 8.92594 12.696 3.98677 20.6557 3.98677C28.5963 3.98677 33.7445 8.92594 33.7445 16.5627C33.7445 24.1994 28.6153 29.1386 20.6557 29.1386C12.696 29.1386 7.56683 24.1994 7.56683 16.5627ZM7.11091 6.1904C3.74847 8.75497 1.96277 12.3454 1.96277 16.5627C1.96277 20.78 3.74847 24.3704 7.11091 26.9349C10.4923 29.4995 15.1656 30.8673 20.6367 30.8673C26.1077 30.8673 30.8 29.4995 34.1624 26.9349C37.5248 24.3704 39.3105 20.78 39.3105 16.5627C39.3105 12.3454 37.5248 8.75497 34.1624 6.1904C30.781 3.62583 26.1077 2.27705 20.6367 2.27705C15.1656 2.25805 10.4923 3.62583 7.11091 6.1904Z" fill="white"/>
</g>
</mask>
<g mask="url(#mask39_936_1976)">
<path id="Vector_58" d="M-10.4232 9.41991L29.9831 -13.9082L51.6965 23.7245L11.3092 47.0336L-10.4232 9.41991Z" fill="url(#paint9_linear_936_1976)"/>
</g>
</g>
</g>
</g>
</g>
</g>
</g>
<g id="Group_50">
<g id="Group_51">
<g id="Clip path group_41">
<mask id="mask40_936_1976" style="mask-type:luminance" maskUnits="userSpaceOnUse" x="82" y="2" width="29" height="29">
<g id="SVGID_119_">
<path id="Vector_59" d="M110.511 2.75195H82.3764V30.2404H110.511V2.75195Z" fill="white"/>
</g>
</mask>
<g mask="url(#mask40_936_1976)">
<g id="Group_52">
<g id="Clip path group_42">
<mask id="mask41_936_1976" style="mask-type:luminance" maskUnits="userSpaceOnUse" x="82" y="2" width="29" height="29">
<g id="SVGID_121_">
<path id="Vector_60" d="M86.7266 5.16455C86.7456 4.55665 87.2206 4.08173 87.8285 4.06274H95.3892C103.33 4.06274 104.508 7.93809 104.508 10.2367C104.508 12.5543 103.33 16.4107 95.3892 16.4107H87.8475C87.2206 16.4107 86.7266 15.9168 86.7266 15.2899V5.16455ZM82.3764 2.75195V30.2404H86.7266V18.8613C86.7266 18.2534 87.2206 17.7594 87.8285 17.7405H91.1719L105.192 30.2214H110.511L97.7828 19.3172C97.5738 19.1462 97.4409 18.8803 97.4409 18.5953C97.4409 18.0824 97.8398 17.6835 98.3337 17.6455C101.069 17.4745 102.912 17.0756 104.888 16.2587C107.509 15.1569 109.143 12.8773 109.143 10.2557C109.143 7.65314 107.509 5.35452 104.888 4.2717C102.171 3.13189 99.6635 2.75195 94.9713 2.75195H82.3764Z" fill="white"/>
</g>
</mask>
<g mask="url(#mask41_936_1976)">
<path id="Vector_61" d="M70.4844 9.60986L103.482 -9.44397L122.422 23.3446L89.4052 42.4174L70.4844 9.60986Z" fill="url(#paint10_linear_936_1976)"/>
</g>
</g>
</g>
</g>
</g>
</g>
</g>
</g>
<g id="Group_53">
<g id="Clip path group_43">
<mask id="mask42_936_1976" style="mask-type:luminance" maskUnits="userSpaceOnUse" x="72" y="24" width="7" height="7">
<g id="SVGID_124_">
<path id="Vector_62" d="M72.422 25.2633L75.9744 30.7344L78.558 29.3286L73.8088 24.4655L72.422 25.2633Z" fill="white"/>
</g>
</mask>
<g mask="url(#mask42_936_1976)">
<g id="Group_54">
<g id="Group_55">
<g id="Clip path group_44">
<mask id="mask43_936_1976" style="mask-type:luminance" maskUnits="userSpaceOnUse" x="73" y="24" width="7" height="6">
<g id="SVGID_129_">
<path id="Vector_63" d="M79.5269 24.1235H73.8848V29.1957H79.5269V24.1235Z" fill="white"/>
</g>
</mask>
<g mask="url(#mask43_936_1976)">
<g id="Group_56">
<g id="Clip path group_45">
<mask id="mask44_936_1976" style="mask-type:luminance" maskUnits="userSpaceOnUse" x="73" y="24" width="7" height="6">
<g id="SVGID_131_">
<path id="Vector_64" d="M79.5269 24.1235H73.8848V29.1957H79.5269V24.1235Z" fill="white"/>
</g>
</mask>
<g mask="url(#mask44_936_1976)">
<path id="Vector_65" d="M74.2267 24.1235L73.8848 26.7261L75.4615 28.5688L79.5269 29.2147C79.5269 29.2147 74.3597 24.2565 74.2267 24.1235Z" fill="#9193B6"/>
</g>
</g>
</g>
</g>
</g>
</g>
</g>
</g>
</g>
</g>
<g id="Group_57">
<g id="Clip path group_46">
<mask id="mask45_936_1976" style="mask-type:luminance" maskUnits="userSpaceOnUse" x="72" y="2" width="7" height="7">
<g id="SVGID_133_">
<path id="Vector_66" d="M72.479 7.38728L73.7898 8.54609L78.71 3.51193L75.7655 2.54309L72.479 7.38728Z" fill="white"/>
</g>
</mask>
<g mask="url(#mask45_936_1976)">
<g id="Group_58">
<g id="Group_59">
<g id="Clip path group_47">
<mask id="mask46_936_1976" style="mask-type:luminance" maskUnits="userSpaceOnUse" x="73" y="3" width="8" height="7">
<g id="SVGID_138_">
<path id="Vector_67" d="M80.3057 3.83484H73.8468V9.13495H80.3057V3.83484Z" fill="white"/>
</g>
</mask>
<g mask="url(#mask46_936_1976)">
<path id="Vector_68" d="M75.4615 4.30976L73.8468 6.22844L74.3597 9.13495L80.3057 3.83484L75.4615 4.30976Z" fill="#001650"/>
</g>
</g>
</g>
</g>
</g>
</g>
</g>
<g id="Group_60">
<path id="Vector_69" d="M9.65649 42.0565C9.65649 44.2601 8.30771 45.457 6.65499 45.457C4.94527 45.457 3.74847 44.1272 3.74847 42.1705C3.74847 40.1188 5.00227 38.7891 6.73098 38.7891C8.51668 38.7891 9.65649 40.1378 9.65649 42.0565ZM4.64133 42.1515C4.64133 43.5383 5.3822 44.7731 6.71198 44.7731C8.04176 44.7731 8.78263 43.5573 8.78263 42.0945C8.78263 40.8027 8.11775 39.4729 6.73098 39.4729C5.34421 39.4729 4.64133 40.7457 4.64133 42.1515Z" fill="#002565"/>
<path id="Vector_70" d="M11.0623 40.7268L11.7272 41.7146C11.9171 41.9805 12.0501 42.2085 12.2021 42.4555H12.2211C12.373 42.1895 12.525 41.9426 12.696 41.6956L13.3419 40.7078H14.2537L12.658 42.9494L14.2727 45.343H13.3229L12.639 44.2982C12.449 44.0322 12.2971 43.7663 12.1451 43.5003H12.1261C11.9741 43.7852 11.8221 44.0322 11.6322 44.2982L10.9673 45.343H10.0364L11.6892 42.9874L10.1124 40.7268H11.0623Z" fill="#002565"/>
<path id="Vector_71" d="M15.1846 45.3429V41.3536H14.5387V40.7077H15.1846V40.4798C15.1846 39.8339 15.3365 39.245 15.7165 38.865C16.0394 38.5611 16.4573 38.4281 16.8373 38.4281C17.1412 38.4281 17.3882 38.5041 17.5592 38.5611L17.4452 39.207C17.3122 39.15 17.1602 39.093 16.9133 39.093C16.1914 39.093 16.0204 39.7199 16.0204 40.4418V40.6887H17.1412V41.3346H16.0204V45.3239H15.1846V45.3429Z" fill="#002565"/>
<path id="Vector_72" d="M21.9475 42.9874C21.9475 44.6971 20.7507 45.438 19.6488 45.438C18.414 45.438 17.4262 44.5261 17.4262 43.0634C17.4262 41.5246 18.452 40.6128 19.7248 40.6128C21.0546 40.6128 21.9475 41.5816 21.9475 42.9874ZM18.2811 43.0444C18.2811 44.0512 18.851 44.8301 19.6678 44.8301C20.4657 44.8301 21.0736 44.0702 21.0736 43.0254C21.0736 42.2465 20.6747 41.2587 19.6868 41.2587C18.718 41.2587 18.2811 42.1705 18.2811 43.0444Z" fill="#002565"/>
<path id="Vector_73" d="M23.0113 42.1706C23.0113 41.6197 22.9923 41.1637 22.9733 40.7268H23.7141L23.7521 41.6387H23.7901C23.9991 41.0118 24.512 40.6318 25.0819 40.6318C25.1769 40.6318 25.2339 40.6318 25.3099 40.6508V41.4487C25.2149 41.4297 25.1389 41.4297 25.0249 41.4297C24.436 41.4297 24.0181 41.8666 23.9041 42.4935C23.8851 42.6075 23.8661 42.7595 23.8661 42.8925V45.3621H23.0303V42.1706H23.0113Z" fill="#002565"/>
<path id="Vector_74" d="M30.0211 38.5612V44.1462C30.0211 44.5642 30.0401 45.0201 30.0591 45.343H29.3182L29.2802 44.5452H29.2422C28.9953 45.0581 28.4444 45.457 27.6845 45.457C26.5637 45.457 25.6898 44.5072 25.6898 43.1014C25.6708 41.5627 26.6397 40.6318 27.7605 40.6318C28.4824 40.6318 28.9383 40.9738 29.1662 41.3347H29.1852V38.5612H30.0211ZM29.1852 42.6075C29.1852 42.4935 29.1662 42.3605 29.1472 42.2465C29.0143 41.7146 28.5583 41.2777 27.9314 41.2777C27.0576 41.2777 26.5447 42.0376 26.5447 43.0634C26.5447 43.9943 27.0196 44.7731 27.9124 44.7731C28.4824 44.7731 28.9953 44.3932 29.1472 43.7663C29.1662 43.6523 29.1852 43.5383 29.1852 43.4054V42.6075Z" fill="#002565"/>
<path id="Vector_75" d="M37.9808 45.153C37.6768 45.305 37.0689 45.457 36.271 45.457C34.4473 45.457 33.0986 44.3172 33.0986 42.1895C33.0986 40.1569 34.4663 38.8081 36.461 38.8081C37.2589 38.8081 37.7718 38.9791 37.9998 39.0931L37.7908 39.7769C37.4868 39.625 37.0309 39.511 36.499 39.511C34.9793 39.511 33.9914 40.4798 33.9914 42.1705C33.9914 43.7663 34.9033 44.7541 36.461 44.7541C36.9739 44.7541 37.4868 44.6401 37.8288 44.4882L37.9808 45.153Z" fill="#002565"/>
<path id="Vector_76" d="M42.1791 44.2411C42.1791 44.6401 42.1981 45.039 42.255 45.343H41.4952L41.4192 44.7541H41.4002C41.1342 45.115 40.6403 45.4379 39.9754 45.4379C39.0446 45.4379 38.5507 44.7731 38.5507 44.1082C38.5507 42.9874 39.5385 42.3795 41.3432 42.3795V42.2845C41.3432 41.9045 41.2292 41.2206 40.2984 41.2206C39.8614 41.2206 39.4055 41.3536 39.0826 41.5626L38.8926 40.9927C39.2725 40.7457 39.8424 40.5938 40.4313 40.5938C41.8371 40.5938 42.1981 41.5626 42.1981 42.4744V44.2411H42.1791ZM41.3812 42.9874C40.4693 42.9684 39.4245 43.1393 39.4245 44.0322C39.4245 44.5831 39.7855 44.83 40.2034 44.83C40.8113 44.83 41.2102 44.4501 41.3432 44.0512C41.3622 43.9562 41.3812 43.8612 41.3812 43.7852V42.9874Z" fill="#002565"/>
<path id="Vector_77" d="M43.5468 41.9616C43.5468 41.4676 43.5278 41.0877 43.5089 40.7078H44.2497L44.2877 41.4677H44.3257C44.5917 41.0307 45.0096 40.6128 45.7885 40.6128C46.4154 40.6128 46.8903 40.9927 47.0803 41.5436H47.0993C47.2512 41.2777 47.4412 41.0877 47.6312 40.9357C47.9161 40.7268 48.2011 40.6128 48.638 40.6128C49.2649 40.6128 50.1767 41.0117 50.1767 42.6265V45.343H49.3409V42.7404C49.3409 41.8476 48.9989 41.3157 48.334 41.3157C47.8401 41.3157 47.4792 41.6766 47.3272 42.0755C47.2892 42.2085 47.2702 42.3415 47.2702 42.4935V45.362H46.4534V42.5695C46.4534 41.8286 46.1304 41.3157 45.4845 41.3157C44.9716 41.3157 44.5727 41.7336 44.4397 42.1515C44.3827 42.2655 44.3637 42.4175 44.3637 42.5695V45.362H43.5468V41.9616Z" fill="#002565"/>
<path id="Vector_78" d="M51.5255 38.5612H52.3614V41.4677H52.3804C52.6843 40.9548 53.2162 40.6318 53.9571 40.6318C55.1159 40.6318 55.9138 41.5817 55.9138 42.9874C55.9138 44.6401 54.869 45.457 53.8241 45.457C53.1593 45.457 52.6273 45.1911 52.2664 44.6022H52.2474L52.1904 45.362H51.4685C51.4875 45.0391 51.5065 44.5832 51.5065 44.1652V38.5612H51.5255ZM52.3424 43.4813C52.3424 43.5953 52.3614 43.6903 52.3804 43.7853C52.5324 44.3742 53.0263 44.7731 53.6342 44.7731C54.527 44.7731 55.0399 44.0512 55.0399 42.9874C55.0399 42.0566 54.565 41.2587 53.6532 41.2587C53.0833 41.2587 52.5514 41.6576 52.3804 42.2845C52.3424 42.3985 52.3234 42.5125 52.3234 42.6455V43.4813H52.3424Z" fill="#002565"/>
<path id="Vector_79" d="M56.9586 42.1706C56.9586 41.6197 56.9396 41.1637 56.9206 40.7268H57.6615L57.6995 41.6387H57.7375C57.9464 41.0118 58.4593 40.6318 59.0292 40.6318C59.1242 40.6318 59.1812 40.6318 59.2572 40.6508V41.4487C59.1622 41.4297 59.0862 41.4297 58.9723 41.4297C58.3834 41.4297 57.9654 41.8666 57.8514 42.4935C57.8324 42.6075 57.8134 42.7595 57.8134 42.8925V45.3621H56.9776V42.1706H56.9586Z" fill="#002565"/>
<path id="Vector_80" d="M61.0619 39.4159C61.0619 39.7009 60.8529 39.9289 60.53 39.9289C60.2261 39.9289 60.0171 39.7009 60.0171 39.4159C60.0171 39.131 60.2261 38.884 60.549 38.884C60.8529 38.884 61.0619 39.112 61.0619 39.4159ZM60.1311 40.7077H60.9669V45.343H60.1311V40.7077Z" fill="#002565"/>
<path id="Vector_81" d="M66.3431 38.5612V44.1462C66.3431 44.5642 66.3621 45.0201 66.3811 45.343H65.6402L65.6022 44.5452H65.5642C65.3172 45.0581 64.7663 45.457 64.0064 45.457C62.8856 45.457 62.0118 44.5072 62.0118 43.1014C61.9928 41.5627 62.9616 40.6318 64.0824 40.6318C64.8043 40.6318 65.2602 40.9738 65.4692 41.3347H65.4882V38.5612H66.3431ZM65.5072 42.6075C65.5072 42.4935 65.4882 42.3605 65.4692 42.2465C65.3362 41.7146 64.8803 41.2777 64.2534 41.2777C63.3795 41.2777 62.8666 42.0376 62.8666 43.0634C62.8666 43.9943 63.3416 44.7731 64.2344 44.7731C64.8043 44.7731 65.3172 44.3932 65.4692 43.7663C65.4882 43.6523 65.5072 43.5383 65.5072 43.4054V42.6075Z" fill="#002565"/>
<path id="Vector_82" d="M71.7191 44.6591C71.7191 45.7229 71.4912 46.3688 71.0542 46.7868C70.5983 47.2047 69.9524 47.3377 69.3635 47.3377C68.8126 47.3377 68.2047 47.2047 67.8248 46.9577L68.0338 46.3118C68.3377 46.5208 68.8126 46.6918 69.3825 46.6918C70.2374 46.6918 70.8833 46.2359 70.8833 45.0581V44.5451H70.8643C70.6173 44.9821 70.1044 45.324 69.3825 45.324C68.2427 45.324 67.4069 44.3552 67.4069 43.0634C67.4069 41.4866 68.4327 40.6128 69.4965 40.6128C70.2944 40.6128 70.7313 41.0307 70.9403 41.4107H70.9593L70.9973 40.7078H71.7381C71.7001 41.0307 71.7001 41.4107 71.7001 41.9616V44.6591H71.7191ZM70.8643 42.5505C70.8643 42.3985 70.8453 42.2845 70.8073 42.1705C70.6553 41.6766 70.2564 41.2777 69.6295 41.2777C68.8316 41.2777 68.2617 41.9616 68.2617 43.0254C68.2617 43.9372 68.7366 44.6971 69.6295 44.6971C70.1614 44.6971 70.6173 44.3742 70.7883 43.8423C70.8453 43.6903 70.8643 43.5383 70.8643 43.3863V42.5505Z" fill="#002565"/>
<path id="Vector_83" d="M73.5619 43.1774C73.5809 44.3172 74.3027 44.7921 75.1576 44.7921C75.7655 44.7921 76.1264 44.6782 76.4304 44.5452L76.5824 45.1531C76.2784 45.2861 75.7655 45.457 75.0246 45.457C73.5999 45.457 72.745 44.5072 72.745 43.1204C72.745 41.7337 73.5619 40.6318 74.9106 40.6318C76.4304 40.6318 76.8293 41.9616 76.8293 42.7975C76.8293 42.9685 76.8293 43.1014 76.8103 43.1964H73.5619V43.1774ZM76.0314 42.5885C76.0504 42.0566 75.8035 41.2207 74.8726 41.2207C74.0178 41.2207 73.6568 41.9996 73.5809 42.5885H76.0314Z" fill="#002565"/>
<path id="Vector_84" d="M83.1553 44.2411C83.1553 44.6401 83.1742 45.039 83.2312 45.343H82.4714L82.3954 44.7541H82.3764C82.1104 45.115 81.6165 45.4379 80.9516 45.4379C80.0208 45.4379 79.5269 44.7731 79.5269 44.1082C79.5269 42.9874 80.5147 42.3795 82.3194 42.3795V42.2845C82.3194 41.9045 82.2054 41.2206 81.2746 41.2206C80.8376 41.2206 80.3817 41.3536 80.0588 41.5626L79.8688 40.9927C80.2487 40.7457 80.8186 40.5938 81.4075 40.5938C82.8133 40.5938 83.1743 41.5626 83.1743 42.4744V44.2411H83.1553ZM82.3574 42.9874C81.4455 42.9684 80.4007 43.1393 80.4007 44.0322C80.4007 44.5831 80.7617 44.83 81.1796 44.83C81.7875 44.83 82.1864 44.4501 82.3194 44.0512C82.3384 43.9562 82.3574 43.8612 82.3574 43.7852V42.9874Z" fill="#002565"/>
<path id="Vector_85" d="M84.523 41.9616C84.523 41.4676 84.504 41.0877 84.485 40.7078H85.2259L85.2829 41.4677H85.3019C85.5298 41.0307 86.0618 40.6128 86.8406 40.6128C87.4865 40.6128 88.4744 40.9927 88.4744 42.5885V45.343H87.6385V42.6644C87.6385 41.9236 87.3535 41.2967 86.5747 41.2967C86.0238 41.2967 85.6058 41.6956 85.4539 42.1515C85.4159 42.2655 85.3969 42.3985 85.3969 42.5505V45.343H84.561V41.9616H84.523Z" fill="#002565"/>
<path id="Vector_86" d="M93.8125 38.5612V44.1462C93.8125 44.5642 93.8315 45.0201 93.8505 45.343H93.1096L93.0716 44.5452H93.0336C92.7867 45.0581 92.2357 45.457 91.4759 45.457C90.3551 45.457 89.4812 44.5072 89.4812 43.1014C89.4622 41.5627 90.431 40.6318 91.5519 40.6318C92.2737 40.6318 92.7297 40.9738 92.9576 41.3347H92.9766V38.5612H93.8125ZM92.9766 42.6075C92.9766 42.4935 92.9576 42.3605 92.9386 42.2465C92.8056 41.7146 92.3497 41.2777 91.7228 41.2777C90.849 41.2777 90.3361 42.0376 90.3361 43.0634C90.3361 43.9943 90.811 44.7731 91.7038 44.7731C92.2737 44.7731 92.7867 44.3932 92.9386 43.7663C92.9576 43.6523 92.9766 43.5383 92.9766 43.4054V42.6075Z" fill="#002565"/>
<path id="Vector_87" d="M97.2699 38.979C97.6878 38.9031 98.2957 38.8461 98.8656 38.8461C99.7585 38.8461 100.347 39.017 100.727 39.378C101.05 39.6629 101.24 40.0999 101.24 40.6128C101.24 41.4486 100.708 42.0185 100.043 42.2465V42.2845C100.537 42.4555 100.822 42.9114 100.974 43.5763C101.183 44.4691 101.335 45.096 101.468 45.343H100.613C100.499 45.153 100.366 44.6021 100.195 43.8042C100.005 42.9114 99.6445 42.5884 98.9036 42.5505H98.1248V45.343H97.2889V38.979H97.2699ZM98.1058 41.9236H98.9606C99.8535 41.9236 100.423 41.4296 100.423 40.7078C100.423 39.8719 99.8155 39.511 98.9416 39.511C98.5427 39.511 98.2577 39.549 98.1248 39.5869V41.9236H98.1058Z" fill="#002565"/>
<path id="Vector_88" d="M102.323 44.3361C102.703 44.5831 103.235 44.7541 103.805 44.7541C104.66 44.7541 105.154 44.2981 105.154 43.6523C105.154 43.0634 104.812 42.7024 103.938 42.3795C102.893 41.9995 102.228 41.4486 102.228 40.5368C102.228 39.5299 103.064 38.7891 104.318 38.7891C104.964 38.7891 105.458 38.941 105.742 39.112L105.515 39.7959C105.306 39.6629 104.888 39.4919 104.299 39.4919C103.425 39.4919 103.083 40.0239 103.083 40.4608C103.083 41.0687 103.482 41.3536 104.356 41.6956C105.439 42.1135 105.989 42.6454 105.989 43.5953C105.989 44.5831 105.268 45.457 103.748 45.457C103.121 45.457 102.456 45.267 102.095 45.039L102.323 44.3361Z" fill="#002565"/>
<path id="Vector_89" d="M108.174 43.3103L107.509 45.343H106.654L108.858 38.9031H109.846L112.049 45.343H111.157L110.473 43.3103H108.174ZM110.302 42.6644L109.656 40.8028C109.504 40.3848 109.409 40.0049 109.314 39.625H109.295C109.2 40.0049 109.105 40.4038 108.972 40.7838L108.345 42.6454H110.302V42.6644Z" fill="#002565"/>
</g>
</g>
<defs>
<linearGradient id="paint0_linear_936_1976" x1="98.7927" y1="32.2628" x2="98.7927" y2="3.22839" gradientUnits="userSpaceOnUse">
<stop stop-color="#C6C7DB"/>
<stop offset="0.1041" stop-color="#BFC0D5"/>
<stop offset="0.2559" stop-color="#ACACC2"/>
<stop offset="0.437" stop-color="#8C8CA5"/>
<stop offset="0.6406" stop-color="#60607C"/>
<stop offset="0.8602" stop-color="#282848"/>
<stop offset="1" stop-color="#000023"/>
</linearGradient>
<linearGradient id="paint1_linear_936_1976" x1="92.553" y1="15.8724" x2="101.366" y2="-0.0270772" gradientUnits="userSpaceOnUse">
<stop stop-color="#000023"/>
<stop offset="1" stop-color="#E3E3EE"/>
</linearGradient>
<linearGradient id="paint2_linear_936_1976" x1="13.1731" y1="31.8701" x2="28.1089" y2="1.24722" gradientUnits="userSpaceOnUse">
<stop stop-color="#000023"/>
<stop offset="0.1459" stop-color="#040426"/>
<stop offset="0.2802" stop-color="#0F0F30"/>
<stop offset="0.4101" stop-color="#222241"/>
<stop offset="0.5371" stop-color="#3C3C59"/>
<stop offset="0.6623" stop-color="#5E5E77"/>
<stop offset="0.7859" stop-color="#87879C"/>
<stop offset="0.9059" stop-color="#B8B8C7"/>
<stop offset="1" stop-color="#E3E3EE"/>
</linearGradient>
<linearGradient id="paint3_linear_936_1976" x1="3.83456" y1="26.3147" x2="37.4923" y2="6.8824" gradientUnits="userSpaceOnUse">
<stop stop-color="#E3E3EE"/>
<stop offset="0.137" stop-color="#B9B9C8"/>
<stop offset="0.3684" stop-color="#78788E"/>
<stop offset="0.5788" stop-color="#444460"/>
<stop offset="0.7608" stop-color="#1F1F3F"/>
<stop offset="0.9074" stop-color="#08082A"/>
<stop offset="1" stop-color="#000023"/>
</linearGradient>
<linearGradient id="paint4_linear_936_1976" x1="4.30896" y1="26.0448" x2="37.0267" y2="7.15513" gradientUnits="userSpaceOnUse">
<stop stop-color="#E3E3EE"/>
<stop offset="0.1658" stop-color="#B0B0C0"/>
<stop offset="0.3859" stop-color="#727289"/>
<stop offset="0.5874" stop-color="#41415D"/>
<stop offset="0.7632" stop-color="#1D1D3D"/>
<stop offset="0.9067" stop-color="#08082A"/>
<stop offset="1" stop-color="#000023"/>
</linearGradient>
<linearGradient id="paint5_linear_936_1976" x1="49.4347" y1="28.3244" x2="75.4438" y2="1.39122" gradientUnits="userSpaceOnUse">
<stop stop-color="#000023"/>
<stop offset="0.1018" stop-color="#09092B"/>
<stop offset="0.267" stop-color="#212141"/>
<stop offset="0.4752" stop-color="#484866"/>
<stop offset="0.7179" stop-color="#7E7F98"/>
<stop offset="0.9872" stop-color="#C3C4D8"/>
<stop offset="1" stop-color="#C6C7DB"/>
</linearGradient>
<linearGradient id="paint6_linear_936_1976" x1="46.4331" y1="25.4559" x2="79.5148" y2="6.35619" gradientUnits="userSpaceOnUse">
<stop stop-color="#C6C7DB"/>
<stop offset="0.1822" stop-color="#9192AA"/>
<stop offset="0.384" stop-color="#5E5E7A"/>
<stop offset="0.5735" stop-color="#353554"/>
<stop offset="0.7451" stop-color="#181839"/>
<stop offset="0.893" stop-color="#060629"/>
<stop offset="1" stop-color="#000023"/>
</linearGradient>
<linearGradient id="paint7_linear_936_1976" x1="46.848" y1="25.0727" x2="78.7343" y2="6.66314" gradientUnits="userSpaceOnUse">
<stop stop-color="#C6C7DB"/>
<stop offset="0.1822" stop-color="#9192AA"/>
<stop offset="0.384" stop-color="#5E5E7A"/>
<stop offset="0.5735" stop-color="#353554"/>
<stop offset="0.7451" stop-color="#181839"/>
<stop offset="0.893" stop-color="#060629"/>
<stop offset="1" stop-color="#000023"/>
</linearGradient>
<linearGradient id="paint8_linear_936_1976" x1="47.3516" y1="24.1047" x2="77.3616" y2="6.77847" gradientUnits="userSpaceOnUse">
<stop stop-color="#002565"/>
<stop offset="0.2883" stop-color="#002565"/>
<stop offset="0.3254" stop-color="#11306D"/>
<stop offset="0.3882" stop-color="#293E77"/>
<stop offset="0.4469" stop-color="#37477E"/>
<stop offset="0.4969" stop-color="#3C4A80"/>
<stop offset="0.5623" stop-color="#39487F"/>
<stop offset="0.6148" stop-color="#2F427A"/>
<stop offset="0.6628" stop-color="#1E3772"/>
<stop offset="0.7079" stop-color="#062968"/>
<stop offset="0.7178" stop-color="#002565"/>
<stop offset="1" stop-color="#002565"/>
</linearGradient>
<linearGradient id="paint9_linear_936_1976" x1="5.08711" y1="25.5559" x2="36.2092" y2="7.5876" gradientUnits="userSpaceOnUse">
<stop stop-color="#002565"/>
<stop offset="0.2883" stop-color="#002565"/>
<stop offset="0.3254" stop-color="#11306D"/>
<stop offset="0.3882" stop-color="#293E77"/>
<stop offset="0.4469" stop-color="#37477E"/>
<stop offset="0.4969" stop-color="#3C4A80"/>
<stop offset="0.5623" stop-color="#39487F"/>
<stop offset="0.6148" stop-color="#2F427A"/>
<stop offset="0.6628" stop-color="#1E3772"/>
<stop offset="0.7079" stop-color="#062968"/>
<stop offset="0.7178" stop-color="#002565"/>
<stop offset="1" stop-color="#002565"/>
</linearGradient>
<linearGradient id="paint10_linear_936_1976" x1="79.9438" y1="26.0115" x2="109.388" y2="9.01175" gradientUnits="userSpaceOnUse">
<stop stop-color="#002565"/>
<stop offset="0.2883" stop-color="#002565"/>
<stop offset="0.3254" stop-color="#11306D"/>
<stop offset="0.3882" stop-color="#293E77"/>
<stop offset="0.4469" stop-color="#37477E"/>
<stop offset="0.4969" stop-color="#3C4A80"/>
<stop offset="0.5623" stop-color="#39487F"/>
<stop offset="0.6148" stop-color="#2F427A"/>
<stop offset="0.6628" stop-color="#1E3772"/>
<stop offset="0.7079" stop-color="#062968"/>
<stop offset="0.7178" stop-color="#002565"/>
<stop offset="1" stop-color="#002565"/>
</linearGradient>
</defs>
</svg>
