<svg width="102" height="102" viewBox="0 0 102 102" fill="none" xmlns="http://www.w3.org/2000/svg">
<g id="office-material-papers_svgrepo.com" clip-path="url(#clip0_876_2497)">
<path id="Vector" d="M11.7364 99.6923L3.14292 99.6923L3.14291 2.30776L11.7364 2.30776L18.6597 51L11.7364 99.6923Z" fill="#FFCBC9"/>
<path id="Vector_2" d="M22.6377 99.6923L14.044 99.6923L14.044 2.30776L22.6377 2.30776L29.5608 51L22.6377 99.6923Z" fill="#DA9694"/>
<path id="Vector_3" d="M33.5391 99.6923L24.9454 99.6923L24.9454 2.30776L33.5391 2.30776L40.4622 51L33.5391 99.6923Z" fill="#FFCBC9"/>
<path id="Vector_4" d="M99.6921 2.30756L99.6921 99.6923L36.6806 99.6923L36.6806 2.30756L99.6921 2.30756Z" fill="#DA9694"/>
<g id="Group">
<path id="Vector_5" d="M8.24907 2.30775C8.24907 3.58215 7.21572 4.61549 5.94132 4.61549L4.61531 4.61549L4.61532 97.3847L5.94152 97.3847C7.21612 97.3847 8.24927 98.418 8.24927 99.6924C8.24927 100.967 7.21612 102 5.94172 102L2.30777 102C1.03317 102 1.9982e-05 100.967 1.99263e-05 99.6923L1.56695e-05 2.30755C1.56138e-05 1.03314 1.03317 -0.000205678 2.30777 -0.000205734L5.94152 -0.000205893C7.21592 4.51689e-08 8.24907 1.03334 8.24907 2.30775Z" fill="#01121C"/>
<path id="Vector_6" d="M19.1502 2.30775C19.1502 3.58215 18.117 4.61549 16.8424 4.61549L15.5164 4.61549L15.5164 97.3847L16.8426 97.3847C18.1172 97.3847 19.1504 98.418 19.1504 99.6924C19.1504 100.967 18.1172 102 16.8428 102L13.2089 102C11.9343 102 10.9011 100.967 10.9011 99.6923L10.9011 2.30755C10.9011 1.03314 11.9343 -0.000205678 13.2089 -0.000205734L16.8426 -0.000205893C18.1172 4.51605e-08 19.1502 1.03334 19.1502 2.30775Z" fill="#01121C"/>
<path id="Vector_7" d="M30.0518 2.30775C30.0518 3.58215 29.0185 4.61549 27.7441 4.61549L26.418 4.61549L26.4181 97.3847L27.7443 97.3847C29.0189 97.3847 30.052 98.418 30.052 99.6924C30.052 100.967 29.0189 102 27.7443 102L24.1103 102C22.8357 102 21.8026 100.967 21.8026 99.6923L21.8025 2.30755C21.8025 1.03314 22.8357 -0.000205678 24.1103 -0.000205734L27.7441 -0.000205893C29.0185 4.51777e-08 30.0518 1.03334 30.0518 2.30775Z" fill="#01121C"/>
<path id="Vector_8" d="M40.9531 2.30775C40.9531 3.58215 39.9198 4.61549 38.6454 4.61549L37.3192 4.61549L37.3192 97.3847L38.6454 97.3847C39.9198 97.3847 40.9531 98.418 40.9531 99.6924C40.9531 100.967 39.9198 102 38.6454 102L35.0114 102C33.7368 102 32.7037 100.967 32.7037 99.6923L32.7037 2.30755C32.7037 1.03314 33.7368 -0.000205678 35.0114 -0.000205734L38.6454 -0.000205893C39.9198 4.51689e-08 40.9531 1.03334 40.9531 2.30775Z" fill="#01121C"/>
<path id="Vector_9" d="M102 2.30775L102 99.6923C102 100.967 100.967 102 99.6923 102L45.9126 102C44.638 102 43.6048 100.967 43.6048 99.6923L43.6048 2.30755C43.6048 1.03314 44.638 -0.000203486 45.9126 -0.000203542L99.6922 -0.000205893C100.967 4.51603e-08 102 1.03334 102 2.30775ZM48.2203 4.6153L48.2203 97.3847L97.3847 97.3847L97.3847 4.61549L48.2203 4.6155L48.2203 4.6153Z" fill="#01121C"/>
<path id="Vector_10" d="M55.5671 79.5448C55.5671 78.4939 56.6028 77.6418 57.8805 77.6418L87.5074 77.6418C88.7849 77.6418 89.8208 78.4939 89.8208 79.5448C89.8208 80.5956 88.7849 81.4478 87.5074 81.4478L57.8803 81.4478C56.6028 81.4476 55.5671 80.5957 55.5671 79.5448Z" fill="#01121C"/>
<path id="Vector_11" d="M55.5671 68.888C55.5671 67.8372 56.6028 66.985 57.8805 66.985L87.5074 66.985C88.7849 66.985 89.8208 67.8372 89.8208 68.888C89.8208 69.9389 88.7849 70.791 87.5074 70.791L57.8803 70.791C56.6028 70.791 55.5671 69.9391 55.5671 68.888Z" fill="#01121C"/>
<path id="Vector_12" d="M55.5671 58.2313C55.5671 57.1804 56.6028 56.3283 57.8805 56.3283L87.5074 56.3283C88.7849 56.3283 89.8208 57.1804 89.8208 58.2313C89.8208 59.2822 88.7849 60.1343 87.5074 60.1343L57.8803 60.1343C56.6028 60.1343 55.5671 59.2823 55.5671 58.2313Z" fill="#01121C"/>
<path id="Vector_13" d="M55.5671 47.5747C55.5671 46.5238 56.6028 45.6717 57.8805 45.6717L87.5074 45.6717C88.7849 45.6717 89.8208 46.5238 89.8208 47.5747C89.8208 48.6256 88.7849 49.4777 87.5074 49.4777L57.8803 49.4777C56.6028 49.4777 55.5671 48.6257 55.5671 47.5747Z" fill="#01121C"/>
<path id="Vector_14" d="M55.5671 36.9179C55.5671 35.8671 56.6215 35.015 57.9223 35.015L73.003 35.015C74.3038 35.015 75.3582 35.8671 75.3582 36.9179C75.3582 37.9688 74.3038 38.8209 73.003 38.8209L57.9223 38.8209C56.6215 38.8209 55.5671 37.969 55.5671 36.9179Z" fill="#01121C"/>
</g>
</g>
<defs>
<clipPath id="clip0_876_2497">
<rect width="102" height="102" fill="white" transform="matrix(-4.37114e-08 -1 -1 4.37114e-08 102 102)"/>
</clipPath>
</defs>
</svg>
