<svg width="60" height="55" viewBox="0 0 60 55" fill="none" xmlns="http://www.w3.org/2000/svg">
<rect width="60" height="55" rx="8" fill="#F39624"/>
<path d="M29.1032 47.4679C23.8119 47.4679 19.7017 38.775 19.7017 27.6726C19.7017 16.523 23.8119 7.83008 29.1032 7.83008C34.3946 7.83008 38.5048 16.523 38.5048 27.6254C38.5521 38.7277 34.3946 47.4679 29.1032 47.4679ZM29.1032 9.53087C24.8985 9.53087 21.3552 17.8458 21.3552 27.6254C21.3552 37.4521 24.8985 45.7198 29.1032 45.7198C33.308 45.7198 36.8513 37.4049 36.8513 27.6254C36.8513 17.8458 33.308 9.53087 29.1032 9.53087Z" fill="white"/>
<path d="M17.8591 42.4128C15.8748 42.4128 14.363 41.8459 13.3236 40.8065C12.426 39.8616 11.9535 38.4916 12.048 36.8853C12.3315 32.4443 16.5835 26.2081 22.8669 21.0112C28.9142 16.0034 35.6228 12.8853 40.3472 12.8853C42.3315 12.8853 43.8433 13.4522 44.8827 14.4916C45.7803 15.4364 46.2528 16.8065 46.1583 18.4128C45.8748 22.8538 41.6228 29.09 35.3394 34.2868C29.2921 39.2947 22.5835 42.4128 17.8591 42.4128ZM40.3472 14.5388C36.048 14.5388 29.6228 17.5624 23.9535 22.2868C18.0953 27.153 13.985 33.0585 13.7488 36.9797C13.7016 38.1136 13.9378 39.0112 14.552 39.6727C15.2606 40.3813 16.3472 40.7593 17.8591 40.7593C22.1583 40.7593 28.5835 37.7356 34.2528 33.0112C40.1583 28.1451 44.2213 22.2396 44.4575 18.3183C44.5047 17.1845 44.2685 16.2868 43.6543 15.6254C42.9929 14.9167 41.8591 14.5388 40.3472 14.5388Z" fill="white"/>
<path d="M40.3474 42.4128C35.623 42.4128 28.9143 39.2947 22.8671 34.2868C16.5836 29.09 12.3316 22.8538 12.0954 18.4128C12.0009 16.8065 12.4261 15.4364 13.371 14.4916C14.4104 13.4049 15.9222 12.8853 17.9064 12.8853C22.6308 12.8853 29.3395 16.0034 35.3867 21.0112C41.6702 26.2081 45.9222 32.4443 46.2056 36.8853C46.3001 38.4916 45.8749 39.8616 44.93 40.8065C43.8907 41.8931 42.3316 42.4128 40.3474 42.4128ZM17.8592 14.5388C16.3474 14.5388 15.2135 14.9167 14.5521 15.6254C13.9379 16.2396 13.7017 17.1372 13.7489 18.3183C13.9852 22.2396 18.0954 28.1451 23.9537 33.0112C29.623 37.6884 36.0482 40.7593 40.3474 40.7593C41.8592 40.7593 42.993 40.3813 43.6545 39.6727C44.2686 39.0585 44.5049 38.1608 44.4576 36.9797C44.2214 33.0585 40.1112 27.153 34.2529 22.2868C28.5836 17.6097 22.1584 14.5388 17.8592 14.5388Z" fill="white"/>
<path d="M29.1031 30.8852C30.9035 30.8852 32.3629 29.4257 32.3629 27.6253C32.3629 25.825 30.9035 24.3655 29.1031 24.3655C27.3027 24.3655 25.8433 25.825 25.8433 27.6253C25.8433 29.4257 27.3027 30.8852 29.1031 30.8852Z" fill="#324A5E"/>
<path d="M25.7959 12.3656C27.2832 12.3656 28.4889 11.1599 28.4889 9.67265C28.4889 8.18539 27.2832 6.97974 25.7959 6.97974C24.3087 6.97974 23.103 8.18539 23.103 9.67265C23.103 11.1599 24.3087 12.3656 25.7959 12.3656Z" fill="#FF2500"/>
<path d="M17.8121 44.2552C19.2993 44.2552 20.505 43.0496 20.505 41.5623C20.505 40.075 19.2993 38.8694 17.8121 38.8694C16.3248 38.8694 15.1191 40.075 15.1191 41.5623C15.1191 43.0496 16.3248 44.2552 17.8121 44.2552Z" fill="#84DBFF"/>
<path d="M45.1187 37.8302C46.6059 37.8302 47.8116 36.6245 47.8116 35.1373C47.8116 33.65 46.6059 32.4443 45.1187 32.4443C43.6314 32.4443 42.4258 33.65 42.4258 35.1373C42.4258 36.6245 43.6314 37.8302 45.1187 37.8302Z" fill="#4CDBC4"/>
</svg>
