<svg width="100" height="102" viewBox="0 0 100 102" fill="none" xmlns="http://www.w3.org/2000/svg">
<g id="Frame 481815">
<path id="Vector" d="M31.0013 99.5867L98.1975 69.6071L68.583 1.58222L1.38674 31.5619L31.0013 99.5867Z" fill="#ECEDEF"/>
<path id="Vector_2" d="M16.4152 25.0688L8.33337 47.0884L26.1466 87.9996L42.9792 94.3308L85.3683 75.4163L92.4243 56.1914L75.8807 18.1963L51.9714 9.203L16.4152 25.0688Z" fill="#D9DCDF"/>
<path id="Vector_3" d="M2.62054 74.5298L71.4534 100.421L97.0289 30.7391L28.196 4.84819L2.62054 74.5298Z" fill="#F2BEBC"/>
<path id="Vector_4" d="M46.8751 59.1166L36.3636 65.188L42.2035 54.2594L59.7222 36.0452L64.394 40.9024L46.8751 59.1166Z" fill="#ECEDEF"/>
<path id="Vector_5" d="M64.3939 41.2822L62.2404 39.1128L37.1212 64.4211L46.8116 58.9969L64.3939 41.2822Z" fill="#D9DCDF"/>
<path id="Vector_6" d="M76.3773 46.0151L55.303 24.2626L82.2315 6.13538L93.9393 18.2204L76.3773 46.0151Z" fill="#DA9694"/>
<g id="Group">
<path id="Vector_7" d="M82.3793 6.40613L75.9448 10.6543L89.9834 24.8657L94.1796 18.3523L82.3793 6.40613Z" fill="white" fill-opacity="0.9"/>
<path id="Vector_8" d="M55.2383 24.325L76.4788 45.8275L80.8431 39.0533L61.93 19.907L55.2383 24.325Z" fill="white" fill-opacity="0.9"/>
</g>
<g id="Group_2">
<path id="Vector_9" d="M92.9994 19.5465L81.1989 7.60058C79.8956 6.28116 79.8956 4.14175 81.1989 2.82233C82.5023 1.50291 84.6156 1.50291 85.919 2.82233L97.7194 14.7683C99.0228 16.0877 99.0228 18.2271 97.7194 19.5465C96.4161 20.8661 94.3031 20.8661 92.9994 19.5465Z" fill="#DA9694"/>
<path id="Vector_10" d="M76.4789 52.9951L48.1582 24.325L50.5183 21.9357C51.8217 20.6163 53.935 20.6163 55.2384 21.9357L78.839 45.8274C80.1424 47.1468 80.1424 49.2862 78.839 50.6057L76.4789 52.9951Z" fill="#DA9694"/>
</g>
<path id="Vector_11" d="M96.619 62.6125C96.2722 61.8123 95.3524 61.4495 94.5653 61.8021C93.7778 62.1549 93.4209 63.0899 93.7682 63.8905L95.8922 68.7895L82.3155 74.8736L89.7318 54.5801L90.8386 57.1324C91.1989 57.9636 92.2074 58.3184 92.9971 57.8913C93.7076 57.507 94.0141 56.6029 93.6896 55.8546L91.2892 50.3186L98.243 31.2906C98.5428 30.4706 98.1319 29.559 97.3254 29.2542L90.4729 26.6656L93.5556 21.8602C94.0638 22.0361 94.5925 22.125 95.1208 22.125C96.3737 22.125 97.6215 21.6335 98.5726 20.6663C100.476 18.7313 100.476 15.583 98.5726 13.648L86.8228 1.7023C84.9196 -0.232505 81.8232 -0.232306 79.9198 1.7023C78.5674 3.07731 78.1641 5.06033 78.7471 6.8021L73.8351 10.0591L69.882 0.941489C69.5399 0.152982 68.6056 -0.216767 67.8283 0.131068L46.0577 9.88759L28.79 3.36458C27.9939 3.06416 27.0826 3.48989 26.7871 4.29752L20.5701 21.3096L0.926194 30.1128C0.150637 30.4605 -0.213433 31.4109 0.129082 32.2012L9.06093 52.803L1.32259 73.977C1.02691 74.7862 1.44585 75.7131 2.24021 76.0134L9.83296 78.8815C10.662 79.1949 11.6018 78.7207 11.8638 77.8643C12.1061 77.0724 11.6819 76.2006 10.9183 75.9122L4.78576 73.5956L29.1653 6.88557L60.6718 18.7877L56.8022 21.3534L56.2735 20.8159C54.3703 18.8811 51.2738 18.8813 49.3705 20.8159L47.0205 23.2049C46.4207 23.815 46.4207 24.8349 47.0205 25.445L57.6687 36.2709L41.1457 53.0698C41.0432 53.174 40.9556 53.2919 40.8854 53.4206L35.0106 64.172C34.6929 64.7531 34.7729 65.4938 35.2065 65.9913C35.6852 66.5405 36.4972 66.6826 37.1287 66.3258L47.7036 60.3528C47.8302 60.2813 47.9462 60.192 48.0487 60.0882L55.2374 52.7797L72.2044 59.1892C73.0335 59.5025 73.9732 59.0284 74.2352 58.172C74.4776 57.3801 74.0536 56.5083 73.2898 56.2198L57.661 50.316L64.5721 43.2895L75.2202 54.1155C75.8198 54.7251 76.8237 54.7253 77.4233 54.1153L79.7732 51.7262C81.6765 49.7912 81.6765 46.643 79.7732 44.708L79.2446 44.1707L88.7282 29.3863L94.78 31.6725L70.4003 98.382L17.5654 78.4233C16.7587 78.1181 15.8622 78.5363 15.5624 79.3563C15.2626 80.1762 15.6735 81.0879 16.4801 81.3927L22.4298 83.6404L29.6181 100.221C29.96 101.009 30.8947 101.379 31.6718 101.031L48.5013 93.4892L70.7754 101.903C71.5715 102.204 72.4827 101.779 72.7783 100.97L80.8026 79.0136L98.5742 71.0494C99.3497 70.7018 99.7138 69.7513 99.3713 68.961L96.619 62.6125ZM19.0574 25.4495L10.6181 48.5417L3.60812 32.373L19.0574 25.4495ZM82.123 3.94232C82.8112 3.24266 83.9316 3.24226 84.6198 3.94232L96.3696 15.888C97.0579 16.5877 97.0579 17.7266 96.3696 18.4267C95.7282 19.0789 94.7146 19.1335 94.0117 18.5536C93.9622 18.5126 82.039 6.39031 81.9984 6.33971C81.4278 5.62511 81.4813 4.59456 82.123 3.94232ZM71.1904 11.8128L63.9186 16.6345L50.2493 11.4706L67.6596 3.66799L71.1904 11.8128ZM53.7411 49.8205L45.9998 57.6912L40.3821 60.8644L43.5031 55.1526L59.8719 38.5107L62.3687 41.0491L53.7411 49.8205ZM77.57 49.4858L76.3214 50.7553L50.3254 24.3249L51.5737 23.0557C52.2621 22.3559 53.3823 22.3559 54.0705 23.0557L67.4325 36.6408C68.066 37.2847 69.1359 37.2417 69.7182 36.55C70.2404 35.93 70.2026 34.9776 69.6354 34.4008L59.0532 23.642L80.5658 9.37779L91.0228 20.0093L76.9926 41.8813L74.6204 39.4695C74.012 38.8512 73.0256 38.8512 72.4174 39.4695C71.809 40.0883 71.809 41.091 72.4174 41.7095L77.5696 46.9478C78.2584 47.6473 78.2584 48.786 77.57 49.4858ZM26.5018 85.1784L44.31 91.9056L31.8409 97.4935L26.5018 85.1784Z" fill="black"/>
<path id="Vector_12" d="M53.1532 37.4812C54.0024 37.7971 54.9649 37.3192 55.2332 36.4558C55.4815 35.6575 55.047 34.7787 54.2649 34.4879L33.9701 26.9427C33.1441 26.6352 32.2257 27.0568 31.9186 27.8832C31.6116 28.7098 32.0324 29.6287 32.8585 29.936L53.1532 37.4812Z" fill="black"/>
<path id="Vector_13" d="M27.3734 40.858C27.0655 41.6349 27.4874 42.4987 28.3156 42.7875L39.5114 46.69C40.3626 46.9869 41.3276 46.5377 41.5966 45.7262C41.8455 44.9759 41.4099 44.1499 40.6258 43.8766L29.43 39.9741C28.6015 39.6853 27.681 40.0813 27.3734 40.858Z" fill="black"/>
<path id="Vector_14" d="M22.8287 53.2436C22.5185 54.1116 22.9437 55.0766 23.7781 55.3993L34.9495 59.7169C35.8073 60.0486 36.7796 59.5467 37.0507 58.6401C37.3014 57.8018 36.8625 56.8789 36.0725 56.5735L24.9011 52.256C24.0664 51.9331 23.1387 52.3758 22.8287 53.2436Z" fill="black"/>
<path id="Vector_15" d="M18.2803 66.196C17.979 66.9965 18.392 67.8863 19.2027 68.1838L63.0416 84.2662C63.8749 84.5721 64.8196 84.1093 65.0829 83.2733C65.3265 82.5003 64.9001 81.6493 64.1326 81.3678L20.2936 65.2854C19.4827 64.9876 18.5817 65.3956 18.2803 66.196Z" fill="black"/>
<path id="Vector_16" d="M56.8448 67.3982C57.7319 67.6906 58.7376 67.2482 59.0179 66.4491C59.2773 65.7101 58.8235 64.8967 58.0062 64.6275L53.0058 62.9804C52.1426 62.6956 51.1833 63.0858 50.8625 63.8509C50.5417 64.616 50.9814 65.4666 51.8444 65.751L56.8448 67.3982Z" fill="black"/>
<path id="Vector_17" d="M67.6551 71.9959C68.4616 72.3007 69.3758 71.8395 69.6306 71.0066C69.8664 70.2364 69.4539 69.3886 68.7109 69.108L62.6499 66.8188C61.865 66.5222 60.9931 66.9287 60.7014 67.7262C60.4098 68.5236 60.8095 69.4103 61.5941 69.7067L67.6551 71.9959Z" fill="black"/>
</g>
</svg>
