<svg width="61" height="60" viewBox="0 0 61 60" fill="none" xmlns="http://www.w3.org/2000/svg">
<g clip-path="url(#clip0_1102_909)">
<path d="M59.0005 27.9304H2.66895C1.73695 27.9304 0.981445 28.6859 0.981445 29.6179V58.1953C0.981445 59.1273 1.73695 59.8828 2.66895 59.8828H59.0005C59.9325 59.8828 60.688 59.1273 60.688 58.1953V29.6179C60.688 28.6859 59.9325 27.9304 59.0005 27.9304Z" fill="#FFB636"/>
<path d="M52.4178 40.6061H50.354C50.1302 40.6061 49.9156 40.5172 49.7574 40.3589C49.5991 40.2007 49.5103 39.9861 49.5103 39.7623V34.2747C49.5103 34.0509 49.5991 33.8363 49.7574 33.678C49.9156 33.5198 50.1302 33.4309 50.354 33.4309H52.4178C52.6416 33.4309 52.8562 33.5198 53.0144 33.678C53.1726 33.8363 53.2615 34.0509 53.2615 34.2747V39.7623C53.2615 39.9861 53.1726 40.2007 53.0144 40.3589C52.8562 40.5172 52.6416 40.6061 52.4178 40.6061ZM58.6692 39.7623V34.2747C58.6692 34.0509 58.5803 33.8363 58.422 33.678C58.2638 33.5198 58.0492 33.4309 57.8254 33.4309H55.7616C55.5378 33.4309 55.3232 33.5198 55.165 33.678C55.0068 33.8363 54.9179 34.0509 54.9179 34.2747V39.7623C54.9179 39.9861 55.0068 40.2007 55.165 40.3589C55.3232 40.5172 55.5378 40.6061 55.7616 40.6061H57.8254C58.0492 40.6061 58.2638 40.5172 58.422 40.3589C58.5803 40.2007 58.6692 39.9861 58.6692 39.7623ZM7.08967 39.7623V34.2747C7.08967 34.0509 7.00077 33.8363 6.84254 33.678C6.68431 33.5198 6.46969 33.4309 6.24592 33.4309H4.18213C3.95835 33.4309 3.74374 33.5198 3.58551 33.678C3.42727 33.8363 3.33838 34.0509 3.33838 34.2747V39.7623C3.33838 39.9861 3.42727 40.2007 3.58551 40.3589C3.74374 40.5172 3.95835 40.6061 4.18213 40.6061H6.24592C6.35672 40.6061 6.46644 40.5842 6.56881 40.5418C6.67118 40.4994 6.76419 40.4373 6.84254 40.3589C6.92089 40.2806 6.98304 40.1876 7.02544 40.0852C7.06784 39.9828 7.08967 39.8731 7.08967 39.7623ZM12.4973 39.7623V34.2747C12.4973 34.0509 12.4084 33.8363 12.2502 33.678C12.0919 33.5198 11.8773 33.4309 11.6535 33.4309H9.58986C9.36609 33.4309 9.15147 33.5198 8.99324 33.678C8.83501 33.8363 8.74611 34.0509 8.74611 34.2747V39.7623C8.74611 39.9861 8.83501 40.2007 8.99324 40.3589C9.15147 40.5172 9.36609 40.6061 9.58986 40.6061H11.6537C11.8774 40.606 12.092 40.5171 12.2502 40.3589C12.4084 40.2007 12.4973 39.9861 12.4973 39.7623ZM7.08967 46.2895V44.4565C7.08967 44.3457 7.06784 44.236 7.02544 44.1336C6.98304 44.0312 6.92089 43.9382 6.84254 43.8599C6.76419 43.7815 6.67118 43.7194 6.56881 43.677C6.46644 43.6346 6.35672 43.6127 6.24592 43.6127H4.18213C3.95835 43.6127 3.74374 43.7016 3.58551 43.8599C3.42727 44.0181 3.33838 44.2327 3.33838 44.4565V46.2895C3.33838 46.5133 3.42727 46.7279 3.58551 46.8862C3.74374 47.0444 3.95835 47.1333 4.18213 47.1333H6.24592C6.35672 47.1333 6.46644 47.1115 6.56881 47.0691C6.67118 47.0267 6.76419 46.9645 6.84254 46.8862C6.92089 46.8078 6.98304 46.7148 7.02544 46.6124C7.06784 46.5101 7.08967 46.4003 7.08967 46.2895ZM12.4973 46.2895V44.4565C12.4973 44.2327 12.4084 44.0181 12.2502 43.8599C12.0919 43.7016 11.8773 43.6127 11.6535 43.6127H9.58986C9.36609 43.6127 9.15147 43.7016 8.99324 43.8599C8.83501 44.0181 8.74611 44.2327 8.74611 44.4565V46.2895C8.74611 46.5133 8.83501 46.7279 8.99324 46.8862C9.15147 47.0444 9.36609 47.1333 9.58986 47.1333H11.6537C11.8774 47.1333 12.092 47.0444 12.2502 46.8861C12.4084 46.7279 12.4973 46.5133 12.4973 46.2895ZM7.08967 52.6218V50.7887C7.08967 50.6779 7.06784 50.5682 7.02544 50.4658C6.98304 50.3635 6.92089 50.2704 6.84254 50.1921C6.76419 50.1137 6.67118 50.0516 6.56881 50.0092C6.46644 49.9668 6.35672 49.945 6.24592 49.945H4.18213C3.95835 49.945 3.74374 50.0339 3.58551 50.1921C3.42727 50.3503 3.33838 50.5649 3.33838 50.7887V52.6218C3.33838 52.8455 3.42727 53.0602 3.58551 53.2184C3.74374 53.3766 3.95835 53.4655 4.18213 53.4655H6.24592C6.35672 53.4655 6.46644 53.4437 6.56881 53.4013C6.67118 53.3589 6.76419 53.2967 6.84254 53.2184C6.92089 53.14 6.98304 53.047 7.02544 52.9447C7.06784 52.8423 7.08967 52.7326 7.08967 52.6218ZM12.4973 52.6218V50.7887C12.4973 50.5649 12.4084 50.3503 12.2502 50.1921C12.0919 50.0339 11.8773 49.945 11.6535 49.945H9.58986C9.36609 49.945 9.15147 50.0339 8.99324 50.1921C8.83501 50.3503 8.74611 50.5649 8.74611 50.7887V52.6218C8.74611 52.8455 8.83501 53.0602 8.99324 53.2184C9.15147 53.3766 9.36609 53.4655 9.58986 53.4655H11.6537C11.8774 53.4655 12.092 53.3766 12.2502 53.2183C12.4084 53.0601 12.4973 52.8455 12.4973 52.6218ZM53.2615 46.2895V44.4565C53.2615 44.2327 53.1726 44.0181 53.0144 43.8599C52.8562 43.7016 52.6416 43.6127 52.4178 43.6127H50.354C50.1302 43.6127 49.9156 43.7016 49.7574 43.8599C49.5991 44.0181 49.5103 44.2327 49.5103 44.4565V46.2895C49.5103 46.5133 49.5991 46.7279 49.7574 46.8862C49.9156 47.0444 50.1302 47.1333 50.354 47.1333H52.4178C52.6416 47.1333 52.8562 47.0444 53.0144 46.8862C53.1726 46.7279 53.2615 46.5133 53.2615 46.2895ZM58.6692 46.2895V44.4565C58.6692 44.2327 58.5803 44.0181 58.422 43.8599C58.2638 43.7016 58.0492 43.6127 57.8254 43.6127H55.7616C55.5378 43.6127 55.3232 43.7016 55.165 43.8599C55.0068 44.0181 54.9179 44.2327 54.9179 44.4565V46.2895C54.9179 46.5133 55.0068 46.7279 55.165 46.8862C55.3232 47.0444 55.5378 47.1333 55.7616 47.1333H57.8254C58.0492 47.1333 58.2638 47.0444 58.422 46.8862C58.5803 46.7279 58.6692 46.5133 58.6692 46.2895ZM53.2615 52.6218V50.7887C53.2615 50.5649 53.1726 50.3503 53.0144 50.1921C52.8562 50.0339 52.6416 49.945 52.4178 49.945H50.354C50.1302 49.945 49.9156 50.0339 49.7574 50.1921C49.5991 50.3503 49.5103 50.5649 49.5103 50.7887V52.6218C49.5103 52.8455 49.5991 53.0602 49.7574 53.2184C49.9156 53.3766 50.1302 53.4655 50.354 53.4655H52.4178C52.6416 53.4655 52.8562 53.3766 53.0144 53.2184C53.1726 53.0602 53.2615 52.8455 53.2615 52.6218ZM58.6692 52.6218V50.7887C58.6692 50.5649 58.5803 50.3503 58.422 50.1921C58.2638 50.0339 58.0492 49.945 57.8254 49.945H55.7616C55.5378 49.945 55.3232 50.0339 55.165 50.1921C55.0068 50.3503 54.9179 50.5649 54.9179 50.7887V52.6218C54.9179 52.8455 55.0068 53.0602 55.165 53.2184C55.3232 53.3766 55.5378 53.4655 55.7616 53.4655H57.8254C58.0492 53.4655 58.2638 53.3766 58.422 53.2184C58.5803 53.0602 58.6692 52.8455 58.6692 52.6218Z" fill="#D38E3C"/>
<path d="M46.2563 8.35193H16.2201C15.7351 8.35193 15.3418 8.91865 15.3418 9.61767V58.6169C15.3418 59.316 15.7351 59.8827 16.2201 59.8827H46.2563C46.7414 59.8827 47.1346 59.316 47.1346 58.6169V9.61779C47.1346 8.91865 46.7415 8.35193 46.2563 8.35193Z" fill="#FFE1AB"/>
<path d="M21.2642 37.0125H18.687C18.4632 37.0125 18.2486 36.9236 18.0904 36.7654C17.9322 36.6072 17.8433 36.3926 17.8433 36.1688V29.6991C17.8433 29.4753 17.9322 29.2607 18.0904 29.1025C18.2486 28.9442 18.4632 28.8553 18.687 28.8553H21.2642C21.488 28.8553 21.7026 28.9442 21.8608 29.1025C22.0191 29.2607 22.1079 29.4753 22.1079 29.6991V36.1688C22.1079 36.3926 22.0191 36.6072 21.8608 36.7654C21.7026 36.9236 21.488 37.0125 21.2642 37.0125ZM28.2556 36.1688V29.6991C28.2556 29.4753 28.1667 29.2607 28.0085 29.1025C27.8502 28.9442 27.6356 28.8553 27.4119 28.8553H24.8347C24.6109 28.8553 24.3963 28.9442 24.238 29.1025C24.0798 29.2607 23.9909 29.4753 23.9909 29.6991V36.1688C23.9909 36.3926 24.0798 36.6072 24.238 36.7654C24.3963 36.9236 24.6109 37.0125 24.8347 37.0125H27.4119C27.6356 37.0125 27.8502 36.9236 28.0085 36.7654C28.1667 36.6072 28.2556 36.3926 28.2556 36.1688ZM38.3363 36.1688V29.6991C38.3363 29.4753 38.2474 29.2607 38.0892 29.1025C37.9309 28.9442 37.7163 28.8553 37.4926 28.8553H34.9155C34.6917 28.8553 34.4771 28.9442 34.3189 29.1025C34.1606 29.2607 34.0717 29.4753 34.0717 29.6991V36.1688C34.0717 36.3926 34.1606 36.6072 34.3189 36.7654C34.4771 36.9236 34.6917 37.0125 34.9155 37.0125H37.4926C37.7163 37.0125 37.9309 36.9236 38.0892 36.7654C38.2474 36.6072 38.3363 36.3926 38.3363 36.1688ZM44.4841 36.1688V29.6991C44.4841 29.4753 44.3952 29.2607 44.237 29.1025C44.0787 28.9442 43.8641 28.8553 43.6403 28.8553H41.0631C40.8394 28.8553 40.6248 28.9442 40.4665 29.1025C40.3083 29.2607 40.2194 29.4753 40.2194 29.6991V36.1688C40.2194 36.3926 40.3083 36.6072 40.4665 36.7654C40.6248 36.9236 40.8394 37.0125 41.0631 37.0125H43.6403C43.8641 37.0125 44.0787 36.9236 44.237 36.7654C44.3952 36.6072 44.4841 36.3926 44.4841 36.1688ZM22.1079 43.0581V41.2251C22.1079 41.0013 22.0191 40.7867 21.8608 40.6285C21.7026 40.4702 21.488 40.3813 21.2642 40.3813H18.687C18.4632 40.3813 18.2486 40.4702 18.0904 40.6285C17.9322 40.7867 17.8433 41.0013 17.8433 41.2251V43.0581C17.8433 43.2819 17.9322 43.4965 18.0904 43.6547C18.2486 43.813 18.4632 43.9019 18.687 43.9019H21.2642C21.488 43.9019 21.7026 43.813 21.8608 43.6547C22.0191 43.4965 22.1079 43.2819 22.1079 43.0581ZM28.2556 43.0581V41.2251C28.2556 41.0013 28.1667 40.7867 28.0085 40.6285C27.8502 40.4702 27.6356 40.3813 27.4119 40.3813H24.8347C24.6109 40.3813 24.3963 40.4702 24.238 40.6285C24.0798 40.7867 23.9909 41.0013 23.9909 41.2251V43.0581C23.9909 43.2819 24.0798 43.4965 24.238 43.6547C24.3963 43.813 24.6109 43.9019 24.8347 43.9019H27.4119C27.6356 43.9019 27.8502 43.813 28.0085 43.6547C28.1667 43.4965 28.2556 43.2819 28.2556 43.0581ZM38.3363 43.0581V41.2251C38.3363 41.0013 38.2474 40.7867 38.0892 40.6285C37.9309 40.4702 37.7163 40.3813 37.4926 40.3813H34.9155C34.6917 40.3813 34.4771 40.4702 34.3189 40.6285C34.1606 40.7867 34.0717 41.0013 34.0717 41.2251V43.0581C34.0717 43.2819 34.1606 43.4965 34.3189 43.6547C34.4771 43.813 34.6917 43.9019 34.9155 43.9019H37.4926C37.7163 43.9019 37.9309 43.813 38.0892 43.6547C38.2474 43.4965 38.3363 43.2819 38.3363 43.0581ZM44.4841 43.0581V41.2251C44.4841 41.0013 44.3952 40.7867 44.237 40.6285C44.0787 40.4702 43.8641 40.3813 43.6403 40.3813H41.0631C40.8394 40.3813 40.6248 40.4702 40.4665 40.6285C40.3083 40.7867 40.2194 41.0013 40.2194 41.2251V43.0581C40.2194 43.2819 40.3083 43.4965 40.4665 43.6547C40.6248 43.813 40.8394 43.9019 41.0631 43.9019H43.6403C43.8641 43.9019 44.0787 43.813 44.237 43.6547C44.3952 43.4965 44.4841 43.2819 44.4841 43.0581ZM22.1079 49.85V48.0169C22.1079 47.7931 22.0191 47.5785 21.8608 47.4203C21.7026 47.2621 21.488 47.1732 21.2642 47.1732H18.687C18.4632 47.1732 18.2486 47.2621 18.0904 47.4203C17.9322 47.5785 17.8433 47.7931 17.8433 48.0169V49.85C17.8433 50.0737 17.9322 50.2883 18.0904 50.4466C18.2486 50.6048 18.4632 50.6937 18.687 50.6937H21.2642C21.488 50.6937 21.7026 50.6048 21.8608 50.4466C22.0191 50.2883 22.1079 50.0737 22.1079 49.85ZM44.4841 49.85V48.0169C44.4841 47.7931 44.3952 47.5785 44.237 47.4203C44.0787 47.2621 43.8641 47.1732 43.6403 47.1732H41.0631C40.8394 47.1732 40.6248 47.2621 40.4665 47.4203C40.3083 47.5785 40.2194 47.7931 40.2194 48.0169V49.85C40.2194 50.0737 40.3083 50.2883 40.4665 50.4466C40.6248 50.6048 40.8394 50.6937 41.0631 50.6937H43.6403C43.8641 50.6937 44.0787 50.6048 44.237 50.4466C44.3952 50.2883 44.4841 50.0737 44.4841 49.85ZM22.1079 56.0062V54.1731C22.1079 53.9493 22.0191 53.7347 21.8608 53.5765C21.7026 53.4183 21.488 53.3294 21.2642 53.3294H18.687C18.4632 53.3294 18.2486 53.4183 18.0904 53.5765C17.9322 53.7347 17.8433 53.9493 17.8433 54.1731V56.0062C17.8433 56.2299 17.9322 56.4446 18.0904 56.6028C18.2486 56.761 18.4632 56.8499 18.687 56.8499H21.2642C21.488 56.8499 21.7026 56.761 21.8608 56.6028C22.0191 56.4446 22.1079 56.2299 22.1079 56.0062ZM44.4841 56.0062V54.1731C44.4841 53.9493 44.3952 53.7347 44.237 53.5765C44.0787 53.4183 43.8641 53.3294 43.6403 53.3294H41.0631C40.8394 53.3294 40.6248 53.4183 40.4665 53.5765C40.3083 53.7347 40.2194 53.9493 40.2194 54.1731V56.0062C40.2194 56.2299 40.3083 56.4446 40.4665 56.6028C40.6248 56.761 40.8394 56.8499 41.0631 56.8499H43.6403C43.8641 56.8499 44.0787 56.761 44.237 56.6028C44.3952 56.4446 44.4841 56.2299 44.4841 56.0062Z" fill="#E2A042"/>
<path d="M25.123 47.4034H37.3534V59.8829H25.123V47.4034Z" fill="#2B3B47"/>
<path d="M31.2385 26.1253C34.9518 26.1253 37.9619 23.1151 37.9619 19.4019C37.9619 15.6886 34.9518 12.6785 31.2385 12.6785C27.5253 12.6785 24.5151 15.6886 24.5151 19.4019C24.5151 23.1151 27.5253 26.1253 31.2385 26.1253Z" fill="#FF473E"/>
<path d="M31.2385 24.5832C34.1 24.5832 36.4198 22.2635 36.4198 19.4019C36.4198 16.5403 34.1 14.2206 31.2385 14.2206C28.3769 14.2206 26.0571 16.5403 26.0571 19.4019C26.0571 22.2635 28.3769 24.5832 31.2385 24.5832Z" fill="#F4F3EF"/>
<path d="M38.3044 46.7227V48.0841C38.3044 48.3079 38.2155 48.5225 38.0573 48.6807C37.8991 48.839 37.6845 48.9279 37.4607 48.9279H31.611V59.861H30.8654V48.9279H25.0158C24.7921 48.9279 24.5775 48.839 24.4192 48.6807C24.261 48.5225 24.1721 48.3079 24.1721 48.0841V46.7227C24.1721 46.499 24.261 46.2843 24.4192 46.1261C24.5775 45.9679 24.7921 45.879 25.0158 45.879H37.4607C37.6845 45.879 37.8991 45.9679 38.0573 46.1261C38.2155 46.2843 38.3044 46.499 38.3044 46.7227ZM47.9321 9.82156V8.3252C47.9321 8.10142 47.8432 7.88681 47.685 7.72857C47.5267 7.57034 47.3121 7.48145 47.0883 7.48145H15.3882C15.1644 7.48145 14.9498 7.57034 14.7916 7.72857C14.6333 7.88681 14.5444 8.10142 14.5444 8.3252V9.82156C14.5444 10.0453 14.6333 10.26 14.7916 10.4182C14.9498 10.5764 15.1644 10.6653 15.3882 10.6653H47.0883C47.3121 10.6653 47.5267 10.5764 47.685 10.4182C47.8432 10.26 47.9321 10.0453 47.9321 9.82156ZM35.3214 19.8972C35.3214 19.7473 35.2619 19.6036 35.1559 19.4976C35.0499 19.3916 34.9061 19.332 34.7562 19.332H31.713V16.0537C31.713 15.9038 31.6534 15.7601 31.5474 15.6541C31.4415 15.5481 31.2977 15.4885 31.1478 15.4885C30.9979 15.4885 30.8541 15.5481 30.7481 15.6541C30.6421 15.7601 30.5826 15.9038 30.5826 16.0537V19.8972C30.5826 20.0471 30.6421 20.1909 30.7481 20.2969C30.8541 20.4029 30.9979 20.4624 31.1478 20.4624H34.7562C34.9061 20.4624 35.0499 20.4029 35.1559 20.2969C35.2619 20.1909 35.3214 20.0471 35.3214 19.8972Z" fill="#597B91"/>
</g>
<defs>
<clipPath id="clip0_1102_909">
<rect width="60" height="60" fill="white" transform="translate(0.834961)"/>
</clipPath>
</defs>
</svg>
