<svg width="42" height="60" viewBox="0 0 42 60" fill="none" xmlns="http://www.w3.org/2000/svg">
<path d="M33.7196 46.7992H2.52039C1.3716 46.7992 0.44043 45.868 0.44043 44.7192V3.12024C0.44043 1.97146 1.3716 1.04028 2.52039 1.04028H33.7196C34.8684 1.04028 35.7995 1.97146 35.7995 3.12024V44.7192C35.7995 45.868 34.8684 46.7992 33.7196 46.7992Z" fill="#F7C02D"/>
<path d="M31.9198 34.9563C31.4278 34.4645 30.7761 34.1936 30.0847 34.1936C28.6488 34.1936 27.4805 35.3607 27.4805 36.795V46.7992H33.7204C34.869 46.7992 35.8003 45.8679 35.8003 44.7193V38.8368L31.9198 34.9563Z" fill="#F39624"/>
<path d="M29.5596 36.7948V51.5717C29.5596 52.1092 30.1565 52.4317 30.6061 52.137L33.3512 50.3378L37.0872 59.3576C37.3071 59.8882 37.9154 60.1402 38.4461 59.9205L40.5167 59.0628C41.0473 58.8429 41.2993 58.2346 41.0796 57.7041L37.3435 48.6843L40.5685 48.0314C41.0969 47.9244 41.2937 47.2722 40.9123 46.8909L30.4481 36.4266C30.1203 36.0988 29.5596 36.3311 29.5596 36.7948Z" fill="#464655"/>
<path d="M12.0759 9.72411L10.3206 8.31997L8.56551 9.72411C8.22508 9.99646 7.7207 9.75411 7.7207 9.31817V1.04017C7.7207 0.46583 8.18641 0.000244141 8.76062 0.000244141H11.8805C12.4548 0.000244141 12.9204 0.465947 12.9204 1.04017V9.31794C12.9205 9.75411 12.4163 9.99646 12.0759 9.72411Z" fill="#5B5D6E"/>
<path d="M20.2 37.8848C16.4312 37.8848 14.46 30.8594 14.46 23.9198C14.46 16.9802 16.4312 9.95483 20.2 9.95483C23.9689 9.95483 25.9404 16.9802 25.9404 23.9198C25.9404 30.8594 23.969 37.8848 20.2 37.8848ZM20.2 12.0348C18.708 12.0348 16.5398 16.6649 16.5398 23.9198C16.5398 31.1748 18.7081 35.8049 20.2 35.8049C21.6918 35.8049 23.8603 31.1748 23.8603 23.9198C23.8603 16.6649 21.6921 12.0348 20.2 12.0348Z" fill="#7F8499"/>
<path d="M28.4461 32.6014C27.8184 32.6014 27.0984 32.5374 26.2717 32.3912C23.5977 31.9189 20.4218 30.6759 17.3293 28.8909C14.2368 27.1055 11.5729 24.9768 9.82603 22.8969C7.29829 19.8856 7.49517 17.9941 8.1056 16.9373C8.71497 15.8805 10.2567 14.7629 14.127 15.448C16.801 15.9202 19.9769 17.1632 23.0694 18.9482C26.1618 20.7336 28.8258 22.8623 30.5727 24.9423C33.1004 27.9535 32.9035 29.845 32.2931 30.9018C31.8138 31.733 30.7586 32.6014 28.4461 32.6014ZM11.9762 17.3207C10.7574 17.3207 10.1065 17.6315 9.90735 17.9769C9.62599 18.4638 9.85357 19.6943 11.4197 21.5594C13.0142 23.4585 15.4821 25.4223 18.3695 27.0894C21.2568 28.7565 24.1919 29.9123 26.6334 30.3433C29.0343 30.7674 30.2113 30.3489 30.4917 29.8625C30.7731 29.3756 30.5455 28.1451 28.9794 26.28C27.3848 24.3808 24.917 22.4171 22.0296 20.75C19.1422 19.0829 16.2071 17.9271 13.7656 17.4961C13.069 17.3731 12.4748 17.3207 11.9762 17.3207Z" fill="#707487"/>
<path d="M11.9527 32.6015C9.64026 32.6015 8.58499 31.7331 8.10558 30.9013C7.49526 29.8451 7.29815 27.9535 9.826 24.9422C11.5729 22.8623 14.2368 20.7336 17.3293 18.9482C20.4217 17.1633 23.5976 15.9202 26.2716 15.4479C30.1451 14.7629 31.6838 15.8806 32.2931 16.9379C32.9034 17.9941 33.1005 19.8857 30.5726 22.897C28.8257 24.9769 26.1618 27.1056 23.0694 28.891C19.9769 30.6759 16.801 31.919 14.127 32.3913C13.3004 32.5375 12.5804 32.6015 11.9527 32.6015ZM18.3692 20.75C15.4818 22.4171 13.014 24.3808 11.4194 26.2799C9.85331 28.1451 9.62585 29.3756 9.9071 29.862C10.1874 30.3485 11.3655 30.7663 13.7654 30.3434C16.2069 29.9124 19.1419 28.7566 22.0293 27.0895C24.9167 25.4224 27.3846 23.4586 28.9791 21.5595C30.5452 19.6944 30.7727 18.4639 30.4914 17.9774C30.2111 17.491 29.0341 17.0736 26.6332 17.496C24.1917 17.927 21.2566 19.0829 18.3692 20.75Z" fill="#5B5D6E"/>
<path d="M20.2001 25.9995C19.0532 25.9995 18.1201 25.0666 18.1201 23.9196C18.1201 22.7726 19.053 21.8396 20.2001 21.8396C21.3471 21.8396 22.28 22.7725 22.28 23.9196C22.28 25.0666 21.3471 25.9995 20.2001 25.9995Z" fill="#464655"/>
<path d="M4.60035 46.7992H2.52039C1.3716 46.7992 0.44043 45.868 0.44043 44.7192V3.12024C0.44043 1.97146 1.3716 1.04028 2.52039 1.04028H4.60035V46.7992Z" fill="#F39624"/>
<path d="M8.76062 0.000244141C8.18629 0.000244141 7.7207 0.465947 7.7207 1.04017V9.31794C7.7207 9.75399 8.22508 9.99634 8.56551 9.72399L10.3206 8.31985V0.000244141H8.76062Z" fill="#464655"/>
</svg>
