<svg width="61" height="61" viewBox="0 0 61 61" fill="none" xmlns="http://www.w3.org/2000/svg">
<g id="experiment_svgrepo.com" clip-path="url(#clip0_936_1691)">
<g id="Group">
<path id="Vector" d="M60.9485 54.4233C60.9485 57.5171 58.4172 60.0483 55.3235 60.0483H6.57349C3.47974 60.0483 0.948486 57.5171 0.948486 54.4233V5.67334C0.948486 2.57959 3.47974 0.0483398 6.57349 0.0483398H55.3235C58.4172 0.0483398 60.9485 2.57959 60.9485 5.67334V54.4233Z" fill="#E54D2E"/>
<path id="Vector_2" d="M55.3235 0.0483398H30.9485V9.42334H38.4485V16.9233H34.6985V23.7015C53.1879 47.8796 43.5954 35.3358 50.7147 44.6452C52.601 47.1127 50.8422 50.6733 47.7354 50.6733H30.9485V60.0483H55.3235C58.4172 60.0483 60.9485 57.5171 60.9485 54.4233V5.67334C60.9485 2.57959 58.4172 0.0483398 55.3235 0.0483398Z" fill="#F27261"/>
<path id="Vector_3" d="M34.7735 38.4296C34.8035 36.8977 36.041 35.6733 37.5467 35.6733C37.5654 35.6733 37.5842 35.6733 37.6029 35.6733C39.1348 35.7052 40.3517 36.9896 40.3217 38.5421L40.2692 41.2983H48.1554L34.6985 23.7015V16.9233H38.4485V9.42334H23.4485V16.9233H27.1985V23.7015L13.7435 41.2983H34.7173L34.7735 38.4296ZM28.7023 36.7477C27.1498 36.7477 25.8898 35.4877 25.8898 33.9352C25.8898 32.3827 27.1498 31.1227 28.7023 31.1227C30.2548 31.1227 31.5148 32.3827 31.5148 33.9352C31.5148 35.4877 30.2548 36.7477 28.7023 36.7477Z" fill="#F4D6B0"/>
<path id="Vector_4" d="M47.7354 50.6733H14.1616C11.0548 50.6733 9.29602 47.1127 11.1823 44.6452L13.7435 41.2983H34.7173L34.7735 38.4296C34.8035 36.8977 36.041 35.6733 37.5466 35.6733C37.5654 35.6733 37.5841 35.6733 37.6029 35.6733C39.1348 35.7052 40.3516 36.9896 40.3216 38.5421L40.2691 41.2983H48.1554L50.7148 44.6452C52.601 47.1127 50.8423 50.6733 47.7354 50.6733ZM28.7023 31.1227C27.1498 31.1227 25.8898 32.3827 25.8898 33.9352C25.8898 35.4877 27.1498 36.7477 28.7023 36.7477C30.2548 36.7477 31.5148 35.4877 31.5148 33.9352C31.5148 32.3827 30.2548 31.1227 28.7023 31.1227Z" fill="#01A59C"/>
</g>
</g>
<defs>
<clipPath id="clip0_936_1691">
<rect width="60" height="60" fill="white" transform="translate(0.948486 0.0483398)"/>
</clipPath>
</defs>
</svg>
