<svg width="108" height="108" viewBox="0 0 108 108" fill="none" xmlns="http://www.w3.org/2000/svg">
<g id="questions-help_svgrepo.com" clip-path="url(#clip0_876_2466)">
<path id="Vector" d="M92.9407 33.9295H3.53506C2.52741 33.9295 1.71045 33.1126 1.71045 32.1049V10.2096C1.71045 9.20197 2.52741 8.38501 3.53506 8.38501H92.9405C93.9481 8.38501 94.7651 9.20197 94.7651 10.2096V32.1049C94.7651 33.1128 93.9481 33.9295 92.9407 33.9295Z" fill="#E4EAF8"/>
<path id="Vector_2" d="M25.4304 33.9295H3.53506C2.52741 33.9295 1.71045 33.1126 1.71045 32.1049V10.2096C1.71045 9.20197 2.52741 8.38501 3.53506 8.38501H25.4304V33.9295Z" fill="#EC6B68"/>
<path id="Vector_3" d="M92.9407 66.7723H3.53506C2.52741 66.7723 1.71045 65.9554 1.71045 64.9477V43.0524C1.71045 42.0447 2.52741 41.2278 3.53506 41.2278H92.9405C93.9481 41.2278 94.7651 42.0447 94.7651 43.0524V64.9477C94.7651 65.9554 93.9481 66.7723 92.9407 66.7723Z" fill="#E4EAF8"/>
<path id="Vector_4" d="M25.4304 66.7723H3.53506C2.52741 66.7723 1.71045 65.9554 1.71045 64.9477V43.0524C1.71045 42.0447 2.52741 41.2278 3.53506 41.2278H25.4304V66.7723Z" fill="#DA9694"/>
<path id="Vector_5" d="M92.9407 99.615H3.53506C2.52741 99.615 1.71045 98.798 1.71045 97.7904V75.8953C1.71045 74.8876 2.52741 74.0707 3.53506 74.0707H92.9405C93.9481 74.0707 94.7651 74.8876 94.7651 75.8953V97.7906C94.7651 98.798 93.9481 99.615 92.9407 99.615Z" fill="#E4EAF8"/>
<path id="Vector_6" d="M25.4304 99.615H3.53506C2.52741 99.615 1.71045 98.798 1.71045 97.7904V75.8953C1.71045 74.8876 2.52741 74.0707 3.53506 74.0707H25.4304V99.615Z" fill="#FADCDB"/>
<g id="Group">
<path id="Vector_7" d="M92.9408 74.0707H81.9932V84.2225C81.9932 86.2333 83.0959 88.0826 84.8653 89.0386C85.6791 89.4784 86.5741 89.6963 87.4668 89.6963C88.5145 89.6963 89.5593 89.3959 90.4674 88.8007L90.7684 88.6034L94.5946 97.8408C94.6277 97.9203 94.673 97.9901 94.7093 98.0676C94.7241 97.9737 94.7652 97.8887 94.7652 97.7906V75.8953C94.7652 74.8876 93.9483 74.0707 92.9408 74.0707Z" fill="#D5DCED"/>
<path id="Vector_8" d="M94.7652 57.2065L91.3374 53.7788C90.2904 52.7317 88.8902 52.1754 87.4657 52.1754C86.7605 52.1754 86.0493 52.3117 85.3719 52.592C83.3265 53.4394 81.9929 55.4352 81.9929 57.649V66.7721H92.9406C93.9482 66.7721 94.7652 65.9551 94.7652 64.9475V57.2065Z" fill="#D5DCED"/>
</g>
<path id="Vector_9" d="M87.4668 57.6492V84.2224L93.2958 80.4019L99.6516 95.7462L105.789 93.2037L99.4333 77.8599L106.289 76.472L87.4668 57.6492Z" fill="black"/>
<path id="Vector_10" d="M3.5351 35.64H92.9405C94.8898 35.64 96.4756 34.0541 96.4756 32.1049V10.2095C96.4756 8.26027 94.8898 6.67444 92.9405 6.67444H3.5351C1.58583 6.67444 0 8.26027 0 10.2095V32.1049C0 34.0541 1.58583 35.64 3.5351 35.64ZM93.0547 10.2095V32.1049C93.0547 32.1677 93.0036 32.219 92.9405 32.219H27.1409V10.0954H92.9405C93.0034 10.0954 93.0547 10.1467 93.0547 10.2095ZM3.4212 10.2095C3.4212 10.1467 3.47224 10.0954 3.53531 10.0954H23.7199V32.2188H3.53531C3.47245 32.2188 3.4212 32.1677 3.4212 32.1046V10.2095Z" fill="black"/>
<path id="Vector_11" d="M32.7288 19.2185H63.747C64.6917 19.2185 65.4574 18.4526 65.4574 17.508C65.4574 16.5634 64.6915 15.7975 63.747 15.7975H32.7288C31.784 15.7975 31.0183 16.5634 31.0183 17.508C31.0183 18.4526 31.784 19.2185 32.7288 19.2185Z" fill="black"/>
<path id="Vector_12" d="M47.4395 24.8064C47.4395 25.7512 48.2054 26.5169 49.1499 26.5169H85.6421C86.5869 26.5169 87.3526 25.751 87.3526 24.8064C87.3526 23.8619 86.5867 23.0959 85.6421 23.0959H49.1499C48.2052 23.0957 47.4395 23.8617 47.4395 24.8064Z" fill="black"/>
<path id="Vector_13" d="M41.8523 23.0957H32.7288C31.784 23.0957 31.0183 23.8616 31.0183 24.8062C31.0183 25.7508 31.7842 26.5167 32.7288 26.5167H41.8523C42.7971 26.5167 43.5628 25.7508 43.5628 24.8062C43.5628 23.8616 42.7968 23.0957 41.8523 23.0957Z" fill="black"/>
<path id="Vector_14" d="M9.00883 20.1308C9.95362 20.1308 10.7193 19.3649 10.7193 18.4203C10.7193 16.8482 11.9982 15.5693 13.5704 15.5693C15.1425 15.5693 16.4214 16.8484 16.4214 18.4203C16.4214 19.9922 15.1425 21.2714 13.5704 21.2714C12.6256 21.2714 11.8599 22.0373 11.8599 22.9819C11.8599 23.9264 12.6258 24.6923 13.5704 24.6923C17.0289 24.6923 19.8424 21.8789 19.8424 18.4203C19.8424 14.9618 17.0289 12.1483 13.5704 12.1483C10.1118 12.1483 7.29834 14.962 7.29834 18.4203C7.29834 19.3649 8.06425 20.1308 9.00883 20.1308Z" fill="black"/>
<path id="Vector_15" d="M13.5887 26.745H13.5706C12.6258 26.745 11.8691 27.5109 11.8691 28.4555C11.8691 29.4003 12.6441 30.166 13.5889 30.166C14.5337 30.166 15.2994 29.4001 15.2994 28.4555C15.2992 27.5109 14.5333 26.745 13.5887 26.745Z" fill="black"/>
<path id="Vector_16" d="M32.7288 52.0615H63.747C64.6917 52.0615 65.4574 51.2956 65.4574 50.351C65.4574 49.4062 64.6915 48.6405 63.747 48.6405H32.7288C31.784 48.6405 31.0183 49.4064 31.0183 50.351C31.0181 51.2956 31.784 52.0615 32.7288 52.0615Z" fill="black"/>
<path id="Vector_17" d="M80.1686 55.9387H49.1502C48.2054 55.9387 47.4397 56.7046 47.4397 57.6492C47.4397 58.5938 48.2056 59.3597 49.1502 59.3597H80.1686C81.1133 59.3597 81.879 58.5938 81.879 57.6492C81.879 56.7046 81.1131 55.9387 80.1686 55.9387Z" fill="black"/>
<path id="Vector_18" d="M41.8523 55.9387H32.7288C31.784 55.9387 31.0183 56.7046 31.0183 57.6492C31.0183 58.5938 31.7842 59.3597 32.7288 59.3597H41.8523C42.7971 59.3597 43.5628 58.5938 43.5628 57.6492C43.5628 56.7046 42.7968 55.9387 41.8523 55.9387Z" fill="black"/>
<path id="Vector_19" d="M13.5704 44.9911C10.1118 44.9911 7.29834 47.8046 7.29834 51.2631C7.29834 52.2079 8.06425 52.9736 9.00883 52.9736C9.95341 52.9736 10.7193 52.2077 10.7193 51.2631C10.7193 49.691 11.9982 48.4121 13.5704 48.4121C15.1425 48.4121 16.4214 49.691 16.4214 51.2631C16.4214 52.8352 15.1425 54.1141 13.5704 54.1141C12.6256 54.1141 11.8599 54.88 11.8599 55.8246C11.8599 56.7692 12.6258 57.5351 13.5704 57.5351C17.0289 57.5351 19.8424 54.7216 19.8424 51.2631C19.8424 47.8046 17.0289 44.9911 13.5704 44.9911Z" fill="black"/>
<path id="Vector_20" d="M13.5887 59.5879H13.5706C12.6258 59.5879 11.8691 60.3538 11.8691 61.2984C11.8691 62.243 12.6441 63.0089 13.5889 63.0089C14.5337 63.0089 15.2994 62.243 15.2994 61.2984C15.2994 60.3538 14.5333 59.5879 13.5887 59.5879Z" fill="black"/>
<path id="Vector_21" d="M32.7288 84.9043H63.747C64.6917 84.9043 65.4574 84.1383 65.4574 83.1938C65.4574 82.2492 64.6915 81.4833 63.747 81.4833H32.7288C31.784 81.4833 31.0183 82.2492 31.0183 83.1938C31.0183 84.1383 31.784 84.9043 32.7288 84.9043Z" fill="black"/>
<path id="Vector_22" d="M81.9932 88.7815H49.1502C48.2054 88.7815 47.4397 89.5474 47.4397 90.492C47.4397 91.4366 48.2056 92.2025 49.1502 92.2025H81.9932C82.938 92.2025 83.7036 91.4366 83.7036 90.492C83.7036 89.5474 82.9377 88.7815 81.9932 88.7815Z" fill="black"/>
<path id="Vector_23" d="M41.8523 88.7815H32.7288C31.784 88.7815 31.0183 89.5474 31.0183 90.492C31.0183 91.4366 31.7842 92.2025 32.7288 92.2025H41.8523C42.7971 92.2025 43.5628 91.4366 43.5628 90.492C43.5628 89.5474 42.7968 88.7815 41.8523 88.7815Z" fill="black"/>
<path id="Vector_24" d="M13.5704 77.8339C10.1118 77.8339 7.29834 80.6473 7.29834 84.1059C7.29834 85.0507 8.06425 85.8164 9.00883 85.8164C9.95341 85.8164 10.7193 85.0505 10.7193 84.1059C10.7193 82.5338 11.9982 81.2549 13.5704 81.2549C15.1425 81.2549 16.4214 82.5338 16.4214 84.1059C16.4214 85.678 15.1425 86.9569 13.5704 86.9569C12.6256 86.9569 11.8599 87.7228 11.8599 88.6674C11.8599 89.612 12.6258 90.3779 13.5704 90.3779C17.0289 90.3779 19.8424 87.5644 19.8424 84.1059C19.8424 80.6476 17.0289 77.8339 13.5704 77.8339Z" fill="black"/>
<path id="Vector_25" d="M13.5887 92.4307H13.5706C12.6258 92.4307 11.8691 93.1966 11.8691 94.1412C11.8691 95.0857 12.6441 95.8516 13.5889 95.8516C14.5337 95.8516 15.2994 95.0857 15.2994 94.1412C15.2994 93.1966 14.5333 92.4307 13.5887 92.4307Z" fill="black"/>
<path id="Vector_26" d="M107.927 76.9658C108.109 76.3625 107.945 75.708 107.499 75.2625L96.4756 64.2391V43.0523C96.4756 41.103 94.8898 39.5172 92.9405 39.5172H3.5351C1.58583 39.5172 0 41.103 0 43.0523V64.9476C0 66.8969 1.58583 68.4827 3.5351 68.4827H85.7562V72.36H3.5351C1.58583 72.36 0 73.9458 0 75.8953V97.7906C0 99.7399 1.58583 101.326 3.5351 101.326H92.9405C94.8898 101.326 96.4756 99.7399 96.4756 97.7906V92.5486L98.0712 96.4007C98.2448 96.8199 98.5776 97.1529 98.997 97.3265C99.2067 97.4132 99.4292 97.4567 99.6515 97.4567C99.8738 97.4567 100.096 97.4134 100.306 97.3265L106.444 94.7841C107.317 94.4226 107.731 93.4219 107.37 92.5492L101.809 79.1243L106.628 78.1487C107.247 78.0236 107.745 77.5691 107.927 76.9658ZM3.4212 64.9476V43.0523C3.4212 42.9895 3.47224 42.9382 3.53531 42.9382H23.7199V65.0615H3.53531C3.47224 65.0617 3.4212 65.0105 3.4212 64.9476ZM27.1409 65.0617V42.9384H92.9405C93.0034 42.9384 93.0547 42.9895 93.0547 43.0525V60.8183L88.6762 56.4399C88.1871 55.9505 87.4511 55.8043 86.8122 56.0691C86.1728 56.3338 85.7562 56.9577 85.7562 57.6494V65.0617H27.1409ZM3.4212 97.7904V75.8953C3.4212 75.8324 3.47224 75.7812 3.53531 75.7812H23.7199V97.9045H3.53531C3.47224 97.9045 3.4212 97.8535 3.4212 97.7904ZM93.0547 97.7904C93.0547 97.8532 93.0036 97.9045 92.9405 97.9045H27.1409V75.7812H85.7562V84.2225C85.7562 84.8508 86.1009 85.4288 86.6538 85.7275C87.2066 86.0262 87.8789 85.9977 88.4045 85.6533L92.5062 82.9649L93.0547 84.2891V97.7904ZM99.0942 76.183C98.5932 76.2845 98.1638 76.6047 97.9235 77.0559C97.6833 77.5073 97.6575 78.042 97.8531 78.5145L103.554 92.2782L100.578 93.5113L94.8763 79.7476C94.6814 79.2768 94.2868 78.9176 93.7999 78.7676C93.6347 78.7168 93.4651 78.6917 93.2964 78.6917C92.9669 78.6917 92.6404 78.7868 92.3586 78.9716L89.1778 81.0565V61.7791L102.827 75.4281L99.0942 76.183Z" fill="black"/>
</g>
<defs>
<clipPath id="clip0_876_2466">
<rect width="108" height="108" fill="white"/>
</clipPath>
</defs>
</svg>
