<svg width="61" height="61" viewBox="0 0 61 61" fill="none" xmlns="http://www.w3.org/2000/svg">
<g clip-path="url(#clip0_1102_1297)">
<path d="M41.6811 21.6957C41.48 6.60779 26.1847 8.81122 23.6943 9.27C23.5134 9.30334 23.4033 9.48857 23.4605 9.66317L26.7016 19.5463C26.8501 20.0003 27.326 20.2633 27.7895 20.1458C35.5094 18.1985 40.3429 21.0655 41.4425 21.8222C41.5441 21.892 41.6827 21.819 41.6811 21.6957Z" fill="#BDBCBC"/>
<path d="M42.1206 21.6957C42.3217 6.60779 57.6172 8.81122 60.1075 9.27C60.2884 9.30334 60.3985 9.48857 60.2911 9.81557L56.9621 19.9696C56.9113 20.1236 56.589 20.2966 56.2774 20.2141C48.4029 18.1329 43.4716 21.057 42.3592 21.8222C42.2572 21.892 42.119 21.819 42.1206 21.6957Z" fill="#E65000"/>
<path d="M43.6105 13.0546C47.1501 3.67259 57.3 4.0049 59.3928 4.1774C59.5887 4.19381 59.7167 4.38854 59.6559 4.57533L58.6182 7.73971C58.596 7.80849 58.5282 7.85136 58.4568 7.84342C49.4472 6.84384 45.3832 10.9766 43.8777 13.1932C43.7771 13.3419 43.547 13.2228 43.6105 13.0546Z" fill="#69B3E6"/>
<path d="M58.5036 0.899013L57.8803 2.79975C57.8601 2.86113 57.8024 2.90294 57.7374 2.904C50.5524 2.97702 46.7096 6.74939 45.0945 8.91206C44.984 9.06023 44.7548 8.91947 44.8374 8.75437C46.2217 5.96623 49.957 0.594744 58.2099 0.500026C58.4184 0.497379 58.5687 0.700578 58.5036 0.899013Z" fill="#FABD34"/>
<path d="M6.82054 60.5001C2.56178 60.5001 0.333496 57.0298 0.333496 53.6014C0.333496 50.1942 2.56178 46.7446 6.82054 46.7446C10.0458 46.7446 11.8958 48.7416 11.9731 48.8269C12.3715 49.266 12.3386 49.9449 11.8995 50.3434C11.4624 50.7403 10.7866 50.7091 10.3876 50.2756C10.3252 50.2089 9.0557 48.8925 6.82054 48.8925C3.83922 48.8925 2.48085 51.3334 2.48085 53.6014C2.48085 55.8901 3.83922 58.3527 6.82054 58.3527C9.06204 58.3527 10.3617 56.9568 10.3744 56.9425C10.7676 56.4991 11.446 56.4578 11.89 56.8509C12.3333 57.2447 12.3747 57.9231 11.981 58.367C11.9042 58.4538 10.0538 60.5001 6.82054 60.5001Z" fill="#009FE3"/>
<path d="M49.7728 60.5001C45.514 60.5001 43.2856 57.0298 43.2856 53.6014C43.2856 50.1942 45.514 46.7446 49.7728 46.7446C52.998 46.7446 54.848 48.7416 54.9252 48.8269C55.3237 49.266 55.2909 49.9449 54.8517 50.3434C54.4145 50.7403 53.7388 50.7091 53.3398 50.2756C53.2774 50.2089 52.0079 48.8925 49.7728 48.8925C46.7908 48.8925 45.433 51.3334 45.433 53.6014C45.433 55.8901 46.7908 58.3527 49.7728 58.3527C52.0143 58.3527 53.3139 56.9568 53.3266 56.9425C53.7198 56.4991 54.3982 56.4578 54.8422 56.8509C55.2856 57.2447 55.3269 57.9231 54.9332 58.367C54.8564 58.4538 53.0059 60.5001 49.7728 60.5001Z" fill="#009FE3"/>
<path d="M21.5464 43.8307C21.2062 43.8307 20.8712 43.6699 20.6633 43.3688C20.3252 42.8815 20.4464 42.2125 20.9336 41.875C22.7922 40.5859 22.9497 38.1703 22.9313 37.1914L22.9308 37.1189V26.0881C22.9308 25.4954 23.4112 25.0144 24.0044 25.0144C24.5971 25.0144 25.0781 25.4954 25.0781 26.0881V37.1189C25.1036 38.4762 24.8685 41.7596 22.1571 43.6392C21.9708 43.7689 21.7576 43.8307 21.5464 43.8307Z" fill="#009FE3"/>
<path d="M49.8367 38.7699C45.5779 38.7699 43.3496 35.2997 43.3496 31.8712C43.3496 28.464 45.5779 25.0144 49.8367 25.0144C53.062 25.0144 54.912 27.0115 54.9892 27.0967C55.3882 27.5353 55.3548 28.2147 54.9161 28.6132C54.4785 29.0101 53.8033 28.9789 53.4043 28.5455C53.3403 28.4772 52.0703 27.1617 49.8367 27.1617C46.8554 27.1617 45.497 29.6033 45.497 31.8712C45.497 34.1599 46.8554 36.6226 49.8367 36.6226C52.074 36.6226 53.3435 35.2636 53.3964 35.2059C53.7938 34.7716 54.4711 34.7351 54.9098 35.1303C55.348 35.5246 55.3892 36.1956 54.9977 36.6368C54.9203 36.7237 53.0694 38.7699 49.8367 38.7699Z" fill="#009FE3"/>
<path d="M17.6417 25.0104C17.0491 25.0104 16.5681 25.4908 16.5681 26.084V33.8944C16.5681 35.4046 15.3394 36.6329 13.8297 36.6329H13.7491C12.2395 36.6329 11.0107 35.4046 11.0107 33.8944V26.084C11.0107 25.4908 10.5302 25.0104 9.93705 25.0104C9.34382 25.0104 8.86336 25.4908 8.86336 26.084V33.8944C8.86336 35.4046 7.63469 36.6329 6.1244 36.6329H6.04452C4.53433 36.6329 3.30609 35.4046 3.30609 33.8944V26.084C3.30609 25.4908 2.82508 25.0104 2.23183 25.0104C1.63921 25.0104 1.1582 25.4908 1.1582 26.084V33.8944C1.1582 36.5883 3.35001 38.7807 6.04452 38.7807H6.1244C7.66591 38.7807 9.04073 38.061 9.93705 36.9424C10.8329 38.061 12.2083 38.7807 13.7491 38.7807H13.8297C16.5235 38.7807 18.7153 36.5883 18.7153 33.8944V26.084C18.7153 25.4908 18.235 25.0104 17.6417 25.0104Z" fill="#009FE3"/>
<path d="M20.3038 46.7325C18.9677 46.7325 17.8971 47.1252 17.0733 47.7279V42.7561C17.0733 42.1638 16.5934 41.6833 16.0013 41.6833C15.4096 41.6833 14.9297 42.1638 14.9297 42.7561V57.3354C14.9297 57.5084 14.9709 57.6783 15.0513 57.8317C15.108 57.9397 16.4758 60.4706 20.3038 60.4706C22.2835 60.4706 23.9635 59.7102 25.1617 58.2725C26.2057 57.0194 26.7803 55.3543 26.7803 53.5831C26.7803 51.9871 26.2574 50.3727 25.3463 49.1545C24.5197 48.0497 22.9741 46.7325 20.3038 46.7325ZM20.3038 58.3265C18.9465 58.3265 18.0708 57.8745 17.5786 57.4999C17.2549 57.255 17.0733 56.8659 17.0733 56.4601V51.903C17.0733 50.9156 17.8628 48.8773 20.3038 48.8773C23.7307 48.8773 24.6367 51.9554 24.6367 53.5831C24.6367 55.8674 23.2804 58.3265 20.3038 58.3265Z" fill="#009FE3"/>
<path d="M34.6613 25.021C32.0001 25.021 30.502 26.3248 29.7152 27.4176C28.5463 29.0405 28.3716 30.9047 28.3716 31.8715C28.3716 33.6426 28.9468 35.3078 29.9909 36.5609C31.1894 37.9986 32.8685 38.759 34.8481 38.759C38.076 38.759 39.9243 36.7153 40.0016 36.6292C40.3937 36.1857 40.353 35.5084 39.9096 35.1163C39.4671 34.7231 38.7893 34.7644 38.3972 35.2073C38.3845 35.221 37.0859 36.6148 34.8481 36.6148C32.3451 36.6148 30.9878 34.8755 30.6195 32.9636H39.59C40.1826 32.9636 40.662 32.4837 40.662 31.8916C40.662 28.4721 38.8063 25.021 34.6613 25.021ZM30.5867 30.819C31.0826 27.3551 34.0279 27.1657 34.6613 27.1657C37.414 27.1657 38.2067 29.3791 38.4321 30.819H30.5867Z" fill="#009FE3"/>
<path d="M40.6484 49.3792C40.5917 49.2718 39.2238 46.7408 35.3959 46.7408C31.1446 46.7408 28.9194 50.1866 28.9194 53.5913C28.9194 55.3624 29.4947 57.0271 30.5387 58.2802C31.7372 59.7185 33.4163 60.4783 35.3959 60.4783C35.4133 60.4783 35.4303 60.4762 35.4478 60.4756C36.7617 60.4656 37.8168 60.074 38.6297 59.4771C38.6667 60.036 39.1307 60.4783 39.6985 60.4783C40.2901 60.4783 40.7706 59.9984 40.7706 59.4068V49.8766C40.7706 49.7036 40.7283 49.5326 40.6484 49.3792ZM38.6264 55.308C38.6264 56.2952 37.8369 58.3347 35.3959 58.3347C31.969 58.3347 31.0642 55.256 31.0642 53.6289C31.0642 51.344 32.4193 48.885 35.3959 48.885C36.7537 48.885 37.6295 49.3368 38.1216 49.7109C38.4449 49.9565 38.6264 50.345 38.6264 50.7508V55.308Z" fill="#009FE3"/>
</g>
<defs>
<clipPath id="clip0_1102_1297">
<rect width="60" height="60" fill="white" transform="translate(0.333496 0.5)"/>
</clipPath>
</defs>
</svg>
