<svg width="23" height="23" viewBox="0 0 23 23" fill="none" xmlns="http://www.w3.org/2000/svg">
<g clip-path="url(#clip0_1433_2869)">
<path d="M15.85 8.1251C15.7729 2.34138 9.9097 3.18603 8.95507 3.36189C8.88571 3.37468 8.84352 3.44568 8.86544 3.51261L10.1079 7.30114C10.1648 7.47518 10.3472 7.57599 10.5249 7.53094C13.4842 6.78449 15.337 7.8835 15.7585 8.17356C15.7975 8.20034 15.8506 8.17234 15.85 8.1251Z" fill="#BDBCBC"/>
<path d="M16.0183 8.1251C16.0954 2.34138 21.9587 3.18603 22.9133 3.36189C22.9827 3.37468 23.0248 3.44568 22.9837 3.57103L21.7076 7.46342C21.6881 7.52243 21.5645 7.58877 21.4451 7.55713C18.4265 6.75932 16.5362 7.88024 16.1098 8.17356C16.0707 8.20034 16.0177 8.17234 16.0183 8.1251Z" fill="#E65000"/>
<path d="M16.5894 4.8127C17.9462 1.21628 21.837 1.34366 22.6393 1.40979C22.7144 1.41608 22.7634 1.49073 22.7401 1.56233L22.3423 2.77534C22.3338 2.80171 22.3078 2.81814 22.2804 2.8151C18.8268 2.43192 17.2689 4.01614 16.6918 4.86586C16.6533 4.92284 16.565 4.8772 16.5894 4.8127Z" fill="#69B3E6"/>
<path d="M22.2987 0.152955L22.0597 0.881571C22.052 0.9051 22.0299 0.921128 22.005 0.921532C19.2507 0.949526 17.7776 2.3956 17.1585 3.22462C17.1161 3.28142 17.0283 3.22746 17.06 3.16418C17.5906 2.09539 19.0225 0.0363186 22.1861 9.80244e-06C22.266 -0.00100462 22.3236 0.0768883 22.2987 0.152955Z" fill="#FABD34"/>
<path d="M2.4867 23C0.854177 23 0 21.6697 0 20.3555C0 19.0494 0.854177 17.7271 2.4867 17.7271C3.72304 17.7271 4.4322 18.4926 4.46184 18.5253C4.61456 18.6936 4.60197 18.9538 4.43364 19.1066C4.26607 19.2587 4.00703 19.2468 3.85408 19.0806C3.83016 19.055 3.34351 18.5504 2.4867 18.5504C1.34386 18.5504 0.823153 19.4861 0.823153 20.3555C0.823153 21.2328 1.34386 22.1768 2.4867 22.1768C3.34594 22.1768 3.84415 21.6417 3.84902 21.6362C3.99973 21.4663 4.2598 21.4504 4.43 21.6011C4.59993 21.7521 4.6158 22.0121 4.46486 22.1823C4.43545 22.2156 3.7261 23 2.4867 23Z" fill="#009FE3"/>
<path d="M18.9518 23C17.3193 23 16.4651 21.6697 16.4651 20.3555C16.4651 19.0494 17.3193 17.7271 18.9518 17.7271C20.1882 17.7271 20.8973 18.4926 20.9269 18.5253C21.0797 18.6936 21.0671 18.9538 20.8987 19.1066C20.7312 19.2587 20.4721 19.2468 20.3192 19.0806C20.2952 19.055 19.8086 18.5504 18.9518 18.5504C17.8087 18.5504 17.2883 19.4861 17.2883 20.3555C17.2883 21.2328 17.8087 22.1768 18.9518 22.1768C19.8111 22.1768 20.3092 21.6417 20.3141 21.6362C20.4649 21.4663 20.7249 21.4504 20.8951 21.6011C21.0651 21.7521 21.0809 22.0121 20.93 22.1823C20.9005 22.2156 20.1912 23 18.9518 23Z" fill="#009FE3"/>
<path d="M8.13171 16.6101C8.0013 16.6101 7.87289 16.5485 7.79318 16.4331C7.66356 16.2463 7.71002 15.9898 7.89681 15.8604C8.60926 15.3663 8.66965 14.4403 8.66258 14.0651L8.66239 14.0373V9.80879C8.66239 9.58161 8.84655 9.39722 9.07392 9.39722C9.30113 9.39722 9.48552 9.58161 9.48552 9.80879V14.0373C9.49528 14.5576 9.40519 15.8162 8.36582 16.5367C8.29439 16.5864 8.21267 16.6101 8.13171 16.6101Z" fill="#009FE3"/>
<path d="M18.9762 14.6702C17.3437 14.6702 16.4895 13.3399 16.4895 12.0257C16.4895 10.7196 17.3437 9.39722 18.9762 9.39722C20.2126 9.39722 20.9217 10.1628 20.9513 10.1954C21.1043 10.3636 21.0915 10.624 20.9233 10.7768C20.7556 10.9289 20.4968 10.9169 20.3438 10.7508C20.3193 10.7246 19.8324 10.2204 18.9762 10.2204C17.8334 10.2204 17.3127 11.1563 17.3127 12.0257C17.3127 12.903 17.8334 13.847 18.9762 13.847C19.8339 13.847 20.3205 13.3261 20.3408 13.304C20.4931 13.1375 20.7527 13.1235 20.9209 13.275C21.0889 13.4261 21.1047 13.6833 20.9546 13.8525C20.925 13.8858 20.2154 14.6702 18.9762 14.6702Z" fill="#009FE3"/>
<path d="M6.63485 9.39575C6.40767 9.39575 6.22328 9.57992 6.22328 9.80732V12.8013C6.22328 13.3802 5.75227 13.851 5.17356 13.851H5.14267C4.56399 13.851 4.09295 13.3802 4.09295 12.8013V9.80732C4.09295 9.57992 3.90876 9.39575 3.68139 9.39575C3.45398 9.39575 3.2698 9.57992 3.2698 9.80732V12.8013C3.2698 13.3802 2.79881 13.851 2.21987 13.851H2.18925C1.61034 13.851 1.13952 13.3802 1.13952 12.8013V9.80732C1.13952 9.57992 0.95513 9.39575 0.727719 9.39575C0.500548 9.39575 0.316162 9.57992 0.316162 9.80732V12.8013C0.316162 13.834 1.15635 14.6744 2.18925 14.6744H2.21987C2.81078 14.6744 3.3378 14.3985 3.68139 13.9697C4.02481 14.3985 4.55203 14.6744 5.14267 14.6744H5.17356C6.20619 14.6744 7.04638 13.834 7.04638 12.8013V9.80732C7.04638 9.57992 6.86225 9.39575 6.63485 9.39575Z" fill="#009FE3"/>
<path d="M7.65529 17.7224C7.14311 17.7224 6.73273 17.8729 6.41694 18.104V16.1981C6.41694 15.971 6.23297 15.7869 6.00599 15.7869C5.77918 15.7869 5.59521 15.971 5.59521 16.1981V21.7868C5.59521 21.8531 5.61102 21.9183 5.64184 21.9771C5.66356 22.0185 6.18789 22.9887 7.65529 22.9887C8.41416 22.9887 9.05819 22.6971 9.51747 22.146C9.91767 21.6657 10.1379 21.0274 10.1379 20.3484C10.1379 19.7367 9.93752 19.1178 9.58824 18.6508C9.27137 18.2273 8.67889 17.7224 7.65529 17.7224ZM7.65529 22.1667C7.135 22.1667 6.7993 21.9935 6.61063 21.8499C6.48653 21.756 6.41694 21.6069 6.41694 21.4513V19.7044C6.41694 19.3259 6.71959 18.5445 7.65529 18.5445C8.96895 18.5445 9.31622 19.7245 9.31622 20.3484C9.31622 21.2241 8.79632 22.1667 7.65529 22.1667Z" fill="#009FE3"/>
<path d="M13.1589 9.39966C12.1387 9.39966 11.5645 9.89945 11.2628 10.3183C10.8148 10.9405 10.7478 11.6551 10.7478 12.0257C10.7478 12.7046 10.9683 13.3429 11.3685 13.8233C11.828 14.3744 12.4716 14.6659 13.2305 14.6659C14.4678 14.6659 15.1764 13.8825 15.206 13.8495C15.3563 13.6795 15.3407 13.4198 15.1707 13.2695C15.0011 13.1188 14.7413 13.1346 14.5909 13.3044C14.5861 13.3097 14.0883 13.8439 13.2305 13.8439C12.271 13.8439 11.7507 13.1772 11.6095 12.4443H15.0482C15.2754 12.4443 15.4591 12.2604 15.4591 12.0334C15.4591 10.7226 14.7478 9.39966 13.1589 9.39966ZM11.5969 11.6222C11.787 10.2944 12.916 10.2218 13.1589 10.2218C14.2141 10.2218 14.5179 11.0703 14.6043 11.6222H11.5969Z" fill="#009FE3"/>
<path d="M15.4541 18.737C15.4324 18.6958 14.908 17.7256 13.4407 17.7256C11.811 17.7256 10.958 19.0465 10.958 20.3516C10.958 21.0305 11.1785 21.6686 11.5787 22.149C12.0382 22.7004 12.6818 22.9916 13.4407 22.9916C13.4473 22.9916 13.4538 22.9908 13.4605 22.9906C13.9642 22.9867 14.3687 22.8366 14.6803 22.6078C14.6945 22.8221 14.8723 22.9916 15.09 22.9916C15.3168 22.9916 15.501 22.8076 15.501 22.5809V18.9276C15.501 18.8613 15.4847 18.7958 15.4541 18.737ZM14.679 21.0097C14.679 21.3881 14.3764 22.1699 13.4407 22.1699C12.127 22.1699 11.7802 20.9897 11.7802 20.366C11.7802 19.4901 12.2996 18.5475 13.4407 18.5475C13.9611 18.5475 14.2969 18.7207 14.4855 18.8641C14.6095 18.9583 14.679 19.1072 14.679 19.2627V21.0097Z" fill="#009FE3"/>
</g>
<defs>
<clipPath id="clip0_1433_2869">
<rect width="23" height="23" fill="white"/>
</clipPath>
</defs>
</svg>
