<svg width="14" height="80" viewBox="0 0 14 80" fill="none" xmlns="http://www.w3.org/2000/svg">
<path d="M13.4 11.36L8.95 6.90999L13.4 2.45999C13.96 1.89999 13.96 0.98 13.4 0.42C12.84 -0.14 11.92 -0.14 11.36 0.42L6.90999 4.87L2.45998 0.42C1.89998 -0.14 0.98 -0.14 0.42 0.42C-0.14 0.98 -0.14 1.89999 0.42 2.45999L4.86998 6.90999L0.42 11.36C-0.14 11.92 -0.14 12.84 0.42 13.4C0.98 13.96 1.89998 13.96 2.45998 13.4L6.90999 8.95L11.36 13.4C11.92 13.96 12.84 13.96 13.4 13.4C13.96 12.84 13.96 11.92 13.4 11.36Z" fill="#00B8C9" fill-opacity="0.58"/>
<path d="M13.4 77.18L8.94997 72.73L13.4 68.28C13.96 67.72 13.96 66.8 13.4 66.24C12.84 65.68 11.92 65.68 11.36 66.24L6.90999 70.69L2.45998 66.24C1.89998 65.68 0.98 65.68 0.42 66.24C-0.14 66.8 -0.14 67.72 0.42 68.28L4.87001 72.73L0.42 77.18C-0.14 77.74 -0.14 78.66 0.42 79.22C0.98 79.78 1.89998 79.78 2.45998 79.22L6.90999 74.77L11.36 79.22C11.92 79.78 12.84 79.78 13.4 79.22C13.96 78.66 13.96 77.75 13.4 77.18Z" fill="#D89E92"/>
</svg>
